<?xml version="1.0" encoding="UTF-8"?>
<svg id="Ebene_2" data-name="Ebene 2" xmlns="http://www.w3.org/2000/svg" xmlns:xlink="http://www.w3.org/1999/xlink" viewBox="0 0 2560 386.04">
  <defs>
    <style>
      .cls-1 {
        fill: #f0f0f0;
      }

      .cls-2 {
        fill: #d6ad60;
        opacity: .7;
      }

      .cls-3 {
        clip-path: url(#clippath);
      }

      .cls-4 {
        fill: none;
      }
    </style>
    <clipPath id="clippath">
      <polygon class="cls-4" points="0 0 0 386.04 2560 386.04 2560 28.26 0 0"/>
    </clipPath>
  </defs>
  <g id="Ebene_1-2" data-name="Ebene 1">
    <g class="cls-3">
      <path class="cls-2" d="m-64.74-14.09c333.81,179.99,621.29,250.5,817.04,281.74,704.34,112.38,1466.57-85.06,1526.09-100.96,209.06-55.84,346.76-111.19,375.65-65.74,49.71,78.21-237.06,432.51-615.13,612.78-354.89,169.22-782.85,84.64-1638.78-84.52-241.23-47.68-449.82-100.11-518.87-265.3C-176.73,225.19-110.05,69.78-64.74-14.09Z"/>
      <path class="cls-1" d="m-37.81,28.26c356,179.99,662.59,250.5,871.36,281.74,751.16,112.38,1564.07-85.06,1627.54-100.96,222.96-55.84,369.82-111.19,400.62-65.74,53.02,78.21-252.82,432.51-656.02,612.78-378.48,169.22-834.9,84.64-1747.72-84.52C200.7,623.89-21.75,571.45-95.4,406.26c-61.84-138.72,9.27-294.13,57.59-378Z"/>
    </g>
  </g>
</svg>