<?xml version="1.0" encoding="UTF-8"?>
<svg id="Ebene_2" data-name="Ebene 2" xmlns="http://www.w3.org/2000/svg" viewBox="0 0 1035.79 1177.04">
  <defs>
    <style>
      .cls-1 {
        fill: #d6ad60;
      }
    </style>
  </defs>
  <g id="Ebene_1-2" data-name="Ebene 1">
    <path class="cls-1" d="m336.76,799.28c-20.93,4.4-40.35,9.01-59.97,12.5-35.99,6.41-72.17,8.15-108.35,1.31-31.51-5.96-60.87-17.4-86.83-36.39-36.4-26.62-52.92-63.15-51.89-107.9.75-32.69,11.01-62.71,25.73-91.51,21.64-42.31,51.02-78.77,84.81-111.81,57.44-56.16,122.24-101.99,194.96-136.14,43.64-20.5,89.69-33.61,137.51-40.49,24.84-3.57,49.74-5.2,74.75-3.6,39.35,2.53,77.09,11.57,111.56,31.29,8.51,4.87,16.33,11.59,23.06,18.78,12.07,12.89,14.68,28.75,10.57,45.67-5.69,23.41-19.06,42.46-35.49,59.35-39.24,40.33-86.18,68.93-138.58,88.77-29.39,11.13-59.55,19.38-91.18,20.76-20.18.88-39.93-1.28-58.44-10.22-15.15-7.31-19.44-18.71-11.65-33.59,3.02-5.76,7.32-11.34,12.3-15.5,16.84-14.07,36.06-23.82,57.59-28.65,6.94-1.56,13.9-1.59,20.64,1.13,6.37,2.57,8.25,6.04,6.1,12.51-1.14,3.43-3.22,6.54-4.91,9.78-5.49,10.52-3.31,17.61,7.24,23.01,12.4,6.35,25.08,5.51,37.86,1.31,16.05-5.28,30.01-14.31,43.44-24.25,26.62-19.71,47.15-44.09,57.47-76.08,2.04-6.31,3.81-12.84,4.57-19.4,2.71-23.18-5.16-41.96-24.78-55.14-22.26-14.96-47.18-21.29-73.74-21.55-24.58-.25-48.4,4.58-71.48,12.64-86.88,30.36-155.4,85.16-208.93,159.15-20.22,27.94-35.84,58.62-44.08,92.39-7.64,31.35-8.39,62.65,4.83,93.08,7.33,16.88,18.72,30.76,32.69,42.35,31.4,26.03,67.53,40.69,108.27,44.45,21.15,1.95,41.79,1.91,62.17-5.3,5.37-1.9,11.87-1.91,17.61-1.08,6.49.94,8.88,6.38,5.49,12.01-2.45,4.07-6.23,7.76-10.22,10.39-4.95,3.27-10.63,5.53-16.18,7.77-4.83,1.94-6.96,4.91-7.82,10.25-4.77,29.59-9.91,59.12-15.18,88.62-4.74,26.55-9.86,53.03-14.71,79.56-.83,4.51-1.16,9.11-1.84,14.67,5.49-1.84,6.53-6.02,8.26-9.24,13.08-24.36,26.21-48.69,38.86-73.28,50.77-98.63,101.36-197.35,152.06-296.01,5.63-10.95,11.08-22.03,17.47-32.54,3.57-5.88,8.37-11.3,13.59-15.82,4.41-3.81,9.92-6.87,15.45-8.76,11.53-3.94,17.7-1.33,20.33,10.4,3.18,14.2,5.6,28.89,5.73,43.39.26,29.64-.69,59.32-2.16,88.93-1.91,38.6-4.51,77.18-7.36,115.72-2.66,35.88-6.18,71.7-9.03,107.57-1.4,17.6-2.17,35.25-3.16,52.88-.18,3.21-.03,6.44,1.83,10.51,1.85-2.04,4.05-3.86,5.49-6.16,7.79-12.41,15.92-24.65,22.96-37.49,40.36-73.61,80.16-147.53,120.71-221.03,24.45-44.33,50.11-88,74.82-132.19,9.2-16.46,23.17-26.16,40.37-32.23,17.41-6.14,29.61,3.51,27.06,21.71-3.7,26.39-7.87,52.71-11.45,79.11-6.78,49.91-10.5,100.08-11.57,150.42-.6,28.31-.78,56.68.34,84.96,1.87,47.08,7.85,93.65,23.74,138.34,9.59,26.96,22.93,51.76,45.09,70.85,15.01,12.94,32.3,21.04,51.74,24.47,8.66,1.53,17.27,1.02,25.51-2.52,2.75-1.18,5.54-2.28,8.3-3.45,4.84-2.04,9.57-3.26,13.67,1.5,4.09,4.74,6.87,9.72,4.6,16.36-3.43,10.02-10.6,16.98-19.1,22.38-9.53,6.05-19.4,11.76-29.63,16.51-21.6,10.01-44.15,17.03-68.23,17.51-54.97,1.1-96.88-26.56-118.14-77.3-12.14-28.96-17.25-59.37-19.59-90.39-3.37-44.73-1.31-89.39,5.23-133.61,9.68-65.54,21.08-130.83,31.76-196.23,1.29-7.89,2.67-15.76,4.07-23.63.61-3.45.86-6.89-2.74-8.77-3.66-1.91-7.41-.99-10.11,1.82-2.5,2.59-4.53,5.74-6.31,8.9-37.37,66.51-75.25,132.74-111.84,199.68-38.19,69.86-75.26,140.33-112.46,210.73-6.94,13.12-15.99,23.62-28.84,30.89-2.32,1.31-4.66,2.61-7.12,3.61-14.51,5.92-21.16,1.44-19.71-14.25,2.23-24.21,5.42-48.32,7.95-72.5,3.85-36.78,7.97-73.53,11.07-110.37,3.61-42.83,7.38-85.69,6.62-128.74-.32-18.32-1.17-36.68-5.82-54.52-1.39-5.35-3.83-10.7-6.94-15.26-3.46-5.07-7.36-5.24-11.77-.93-4.26,4.16-8.4,8.71-11.46,13.78-14.13,23.37-28.65,46.54-41.59,70.56-45.2,83.9-86.25,169.88-126.53,256.23-1.69,3.62-3.43,7.23-5.28,10.77-6.96,13.31-18.67,19.62-32.95,21.39-13.51,1.67-17.24-2.19-15.45-15.59,1.14-8.57,3.11-17.03,4.65-25.55,13.68-76.03,27.35-152.07,40.98-228.11.57-3.2.69-6.48,1.08-10.32Z"/>
    <path class="cls-1" d="m653.51,42.06c-.82,11.8-2.4,21.65-6.91,30.62-2,3.98-5.11,8.05-8.8,10.39-6.8,4.32-11.27,10.22-15.02,16.98-11.18,20.14-13.72,42.26-14.47,64.7-.89,26.49,3.31,52.46,8.55,78.3.59,2.91,1.13,5.84,1.92,9.97-3.18,0-5.75.4-8.16-.06-18.66-3.56-37.24-1.47-55.73,1.07-99.99,13.77-195.42,43.62-288.31,82.29-28.01,11.66-55.4,24.59-81.31,40.5-12.49,7.67-24.65,15.74-33.93,28.32-5.4-11.56-10.2-22.43-15.49-33.06-14.04-28.22-30.87-54.49-54.5-75.85-8.75-7.91-18.47-14.32-29.7-17.99-4.64-1.52-9.72-2.37-14.58-2.31-6.31.07-11.82-1.38-16.88-4.98-7.27-5.17-14.12-10.77-20.18-19.2,13.66-1.85,25.6-.17,37.08,4.25,2.84,1.09,5.43,3.98,7.11,6.67,4.08,6.51,9.81,10.5,16.61,13.75,22.07,10.53,44.7,19.16,69.25,21.66,13.26,1.35,26.06-.12,37.21-8.14,18.23-13.11,24.39-31.12,19.81-52.7-4.87-22.93-17.54-41.66-34.04-57.69-3.68-3.58-10.08-5.73-15.37-6.03-17.24-.98-24.45-11.68-27.81-26.53-1.66-7.33-2.48-14.85-3.96-23.96,15.77,3.36,29.53,6.42,41.18,15.44,4.79,3.7,7.87,8.54,6.81,14.67-2.23,13,3.6,22.3,12.39,30.92,21.48,21.07,45.11,38.56,74.95,45.69,6.71,1.6,13.9,2.49,20.75,2.04,31.05-2.04,49.19-19.45,54.1-50.16,4.05-25.31-.15-49.77-6.3-74.12-1.43-5.67-4.83-10.2-9.92-13.3-1.99-1.21-3.94-2.54-6.06-3.48-13.09-5.87-18.95-10.15-15.39-32.35,1.63-10.12,4.56-20.08,10.76-29.24,11.8,6.25,22.48,13.44,30.71,23.82,6.38,8.05,8.32,16.61,2.22,25.77-7.56,11.35-7.27,22.62-1.7,35,8.54,18.96,17.98,37.19,32.25,52.54,2.49,2.68,5.1,5.28,7.87,7.67,22.37,19.35,49.93,19.78,72.95,1.19,11.08-8.95,19.34-20.19,25.97-32.64,11.42-21.43,17.87-44.38,20.34-68.51.73-7.11-1.27-13.43-6.2-18.32-8.58-8.52-7.88-17.75-2.99-27.46,5.14-10.2,12.3-18.92,21.31-28.22,8.51,13.68,16.25,26.7,14.22,42.88-.49,3.88-2.99,8.52-6.05,10.87-13.12,10.08-15.82,23.98-15.82,39.09,0,16.79,1.98,33.24,9.17,48.69,9.1,19.53,26.78,30.3,48.05,29.37,11.2-.49,20.67-5.48,29-12.22,22.73-18.39,38.49-42.23,51.17-68.2,1.79-3.67,1.78-8.43,1.83-12.69.06-5.21,1.12-9.83,4.39-13.96,6.67-8.42,14.66-15.23,25.61-21.79Z"/>
  </g>
</svg>