<?xml version="1.0" encoding="utf-8"?>
<!-- Generator: Adobe Illustrator 27.3.1, SVG Export Plug-In . SVG Version: 6.00 Build 0)  -->
<svg version="1.1"
	 id="svg2" xmlns:rdf="http://www.w3.org/1999/02/22-rdf-syntax-ns#" xmlns:svg="http://www.w3.org/2000/svg" xmlns:dc="http://purl.org/dc/elements/1.1/" xmlns:cc="http://creativecommons.org/ns#"
	 xmlns="http://www.w3.org/2000/svg" xmlns:xlink="http://www.w3.org/1999/xlink" x="0px" y="0px" viewBox="0 0 124.6 124.4"
	 style="enable-background:new 0 0 124.6 124.4;" xml:space="preserve">
<style type="text/css">
	.st0{clip-path:url(#SVGID_00000093144119489171574230000015953875297685716877_);}
	.st1{fill:none;}
	.st2{fill:#503324;}
	.st3{fill:none;stroke:#503324;stroke-width:7.1111;stroke-miterlimit:7.1111;}
	.st4{fill:none;stroke:#503324;stroke-width:3.5556;stroke-miterlimit:7.1111;}
	.st5{fill:#FFFFFF;}
</style>
<g>
	<defs>
		<rect id="SVGID_1_" x="-20.8" y="-20.7" width="166.1" height="165.9"/>
	</defs>
	<clipPath id="SVGID_00000176763756260815713340000013870150757132057013_">
		<use xlink:href="#SVGID_1_"  style="overflow:visible;"/>
	</clipPath>
	<g id="g14" style="clip-path:url(#SVGID_00000176763756260815713340000013870150757132057013_);">
		<g id="g20" transform="translate(46.7715,2.5977)">
			<path id="path22" class="st1" d="M15.6,118.3c32.4,0,58.5-26.3,58.5-58.5c0-32.4-26.3-58.5-58.5-58.5
				c-32.4,0-58.5,26.3-58.5,58.5S-16.8,118.3,15.6,118.3"/>
		</g>
		<g id="g24" transform="translate(46.7715,1.1807)">
			<path id="path26" class="st2" d="M15.6,121.7c33.3,0,60.5-27.1,60.5-60.5c0-33.3-27.1-60.5-60.5-60.5s-60.5,27.1-60.5,60.5
				S-17.7,121.7,15.6,121.7 M-29.1,61.1c0-24.7,20-44.7,44.7-44.7s44.7,20,44.7,44.7s-20,44.8-44.7,44.8S-29.1,85.9-29.1,61.1"/>
		</g>
		<g id="g28" transform="translate(46.7715,23.4404)">
			<path id="path30" class="st3" d="M15.6,69.7c17.1,0,30.8-13.7,30.8-30.8S32.7,8.1,15.6,8.1s-30.8,13.7-30.8,30.8
				S-1.5,69.7,15.6,69.7z"/>
		</g>
		<g id="g32" transform="translate(46.7715,29.1104)">
			<path id="path34" class="st4" d="M15.6,56.5c12.8,0,23.2-10.4,23.2-23.2S28.4,10,15.6,10S-7.6,20.5-7.6,33.3S2.8,56.5,15.6,56.5z
				"/>
		</g>
		<g id="g36" transform="translate(12.7202,58.8906)">
			<path id="path38" class="st5" d="M4.2-13L4.2-13H3.7c0,0,0,0-0.1,0c-0.7,0.3-1.2-0.1-2,0.1c0,0,0,0-0.1,0C1.6-13,1.6-13,1.6-13
				s-0.1,0-0.3,0l0,0c-0.1,0-0.1,0-0.3,0H0.9c0,0,0,0-0.1,0c-0.1,0.3-0.4,0-0.7,0.1c0,0,0,0-0.1,0s-0.3,0.1-0.4,0.1
				c0,0-0.1,0-0.1-0.1l-0.1,0.1l0,0l0,0c0,0-0.1,0.1-0.3,0.1l0,0c0-0.4-0.1-0.5-0.1-0.5h-0.1c-0.3-0.3-0.5-0.5-0.8-0.7
				c-0.1-0.1-0.1-0.3-0.3-0.3l0,0c0-0.1-0.1-0.1-0.1-0.1l0,0c0,0,0-0.1-0.1-0.1l0,0c-0.1-0.1-0.3-0.3-0.3-0.4v-0.1H-3
				c-0.3-0.4-0.7-0.5-0.8-0.8c-0.4,0-0.7,0.3-0.8,0.7c-0.1,0.3-0.1,0.5,0,0.8c1.1,1.1,2.3,2.1,3.5,3.2c0,0,0,0,0,0.1l-0.1,0.1
				L-1.8-11c-0.1,0-0.1,0-0.3,0c-0.3-0.4-0.8-0.4-1.1-0.7l0,0h-0.1l0,0c-0.1,0-0.1,0-0.3,0c-0.4-0.1-0.8-0.5-1.2-0.5
				c-0.1,0-0.4-0.1-0.5,0v0.1c-0.3,0-0.4,0.3-0.4,0.5l0,0v0.3c0,0.1,0.1,0.3,0.1,0.3s0,0-0.1,0.1l0,0h0.1l0,0c0,0,0.1,0.1,0.1,0.3
				l0,0h0.1l0,0c0,0,0,0.1,0.1,0.1H-5h0.1l0.5,0.1l1.9,0.5c0.1,0,0.3,0,0.4,0.1c0.1,0,0.3,0.1,0.4,0.1c0.1,0,0.1,0,0.1,0l0.3,0.1
				h0.1c0,0,0.1,0,0.1,0.1h0.1l0.1,0.1h0.1h0.1c0.1,0,0.1,0,0.1,0.1h0.1l0.3,0c0.1,0,0.1,0,0.3,0c0,0,0.1,0.1,0.3,0.1l0,0
				C1-8.7,1.4-8.6,1.8-8.5l0.3,0.1c0.1,0,0.1,0,0.3,0h0.1C2.8-8.2,2.9-8.2,3-8.2v-0.1c0.3,0,0.1-0.3,0.3-0.1c0-0.1,0-0.4,0.1-0.5
				c0,0,0-0.1,0.1-0.1c-0.1-0.1,0-0.4-0.1-0.4c0,0,0,0-0.1,0c0-0.1-0.1-0.3-0.3-0.3c-0.3-0.1-0.4,0-0.7-0.1v-0.1c-0.1,0-0.3,0-0.4,0
				c0,0-0.1,0-0.1-0.1H1.7c-0.1,0-0.1,0-0.3-0.1l0,0c-0.1-0.3-0.3-0.5-0.5-0.5H0.8c0-0.3-0.4-0.3-0.4-0.5l0,0c0.3,0,0.5,0.1,0.8,0
				s0.4,0.1,0.5,0c0.8,0,1.6,0.1,2.4,0c0.1-0.3,0.3-0.4,0.3-0.5l0.1-0.4v-0.1C4.5-12.6,4.4-12.9,4.2-13 M-0.8-12.9L-0.8-12.9
				c0,0.1-0.1,0.3-0.1,0.3s-0.1,0,0-0.1l0,0C-1-12.7-1-12.7-0.8-12.9C-1-12.7-0.8-12.7-0.8-12.9C-0.8-12.7-0.8-12.7-0.8-12.9
				L-0.8-12.9z M-2.2-13.7L-2.2-13.7c0,0.1,0,0.1,0,0.3l0,0C-2.3-13.5-2.3-13.5-2.2-13.7C-2.3-13.7-2.2-13.7-2.2-13.7 M-2.7-11.3
				l-0.1,0.1l0,0C-2.8-11.3-2.7-11.4-2.7-11.3L-2.7-11.3 M2-8.6L2-8.6C2.1-8.6,2.1-8.5,2-8.6C2.1-8.5,2.1-8.5,2-8.6
				C2-8.5,2-8.5,2-8.6L2-8.6z M-1.2-13C-1.2-12.9-1.4-12.9-1.2-13L-1.2-13C-1.4-12.9-1.4-12.9-1.2-13C-1.4-13-1.4-13-1.2-13L-1.2-13
				z M1.4-10.2L1.4-10.2L1.4-10.2C1.4-10.2,1.3-10.2,1.4-10.2C1.4-10.3,1.4-10.3,1.4-10.2 M3.3-12.6L3.3-12.6
				C3.3-12.5,3.3-12.5,3.3-12.6L3.3-12.6C3.2-12.5,3.2-12.5,3.3-12.6C3.2-12.5,3.3-12.6,3.3-12.6L3.3-12.6z M-1.4-13L-1.4-13
				L-1.4-13L-1.4-13C-1.5-13-1.5-13.1-1.4-13L-1.4-13z M-3-10.1C-2.8-10.1-2.8-10.2-3-10.1C-2.8-10.1-2.8-10.1-3-10.1
				C-2.8-10.1-2.8-10.1-3-10.1C-2.8-10.1-3-10.1-3-10.1 M1.4-12.7C1.6-12.7,1.6-12.7,1.4-12.7L1.4-12.7L1.4-12.7L1.4-12.7L1.4-12.7
				L1.4-12.7L1.4-12.7z M-0.2-12.6C-0.2-12.7-0.2-12.7-0.2-12.6C-0.2-12.7-0.2-12.7-0.2-12.6C-0.2-12.7-0.2-12.7-0.2-12.6L-0.2-12.6
				C0-12.7,0-12.7-0.2-12.6C-0.2-12.7-0.2-12.6-0.2-12.6L-0.2-12.6z M-3.4-11.4L-3.4-11.4C-3.5-11.4-3.5-11.5-3.4-11.4L-3.4-11.4
				C-3.5-11.5-3.5-11.5-3.4-11.4C-3.4-11.5-3.4-11.4-3.4-11.4 M-1.9-13.5L-1.9-13.5C-1.9-13.5-2-13.4-1.9-13.5L-1.9-13.5L-1.9-13.5z
				 M0.5-12.7L0.5-12.7C0.5-12.6,0.5-12.6,0.5-12.7C0.5-12.6,0.4-12.7,0.5-12.7L0.5-12.7 M0.9-8.9C0.9-8.9,0.8-8.9,0.9-8.9
				C0.8-8.9,0.8-8.9,0.9-8.9C0.8-8.9,0.9-9,0.9-8.9L0.9-8.9L0.9-8.9z M-1.8-13.4L-1.8-13.4C-1.8-13.3-1.9-13.3-1.8-13.4
				C-1.9-13.3-1.9-13.3-1.8-13.4C-1.9-13.4-1.9-13.4-1.8-13.4 M1.3-12.9C1.3-12.7,1.3-12.7,1.3-12.9L1.3-12.9
				C1.2-12.7,1.3-12.7,1.3-12.9L1.3-12.9z M-1.6-10.9C-1.5-10.9-1.5-10.9-1.6-10.9L-1.6-10.9C-1.5-10.7-1.6-10.7-1.6-10.9L-1.6-10.9
				 M-2-10.9L-2-10.9L-2-10.9L-2-10.9L-2-10.9 M2.9-9.5L2.9-9.5L2.9-9.5L2.9-9.5L2.9-9.5z M-1.8-11C-1.8-10.9-1.8-10.9-1.8-11
				C-1.8-10.9-1.8-10.9-1.8-11C-1.9-10.9-1.9-10.9-1.8-11L-1.8-11 M-3.2-14.9C-3.2-14.9-3.2-15-3.2-14.9C-3.2-15-3.2-15-3.2-14.9
				L-3.2-14.9z M-3-14.9L-3-14.9L-3-14.9L-3-14.9C-3.1-14.9-3.1-14.9-3-14.9C-3.1-14.9-3-14.9-3-14.9 M3.2-9.5L3.2-9.5L3.2-9.5
				L3.2-9.5z M-4.2-11.8L-4.2-11.8C-4.2-11.7-4.2-11.7-4.2-11.8L-4.2-11.8L-4.2-11.8 M-0.7-12.1L-0.7-12.1L-0.7-12.1L-0.7-12.1
				L-0.7-12.1z M-2.6-11L-2.6-11L-2.6-11L-2.6-11C-2.4-11-2.4-11-2.6-11L-2.6-11z M3-12.7C3-12.6,3-12.6,3-12.7
				C3-12.6,3-12.7,3-12.7L3-12.7L3-12.7 M3.2-12.7L3.2-12.7C3-12.7,3-12.7,3.2-12.7C3-12.7,3.2-12.7,3.2-12.7L3.2-12.7 M-3.9-10.6
				L-3.9-10.6L-3.9-10.6L-3.9-10.6L-3.9-10.6 M8.5-21.9c-1.3-0.4-2.5-0.8-3.9-1.2c-1.1-0.4-2.1-0.8-3.2-1.1
				c-0.5-0.1-1.2-0.7-1.7-0.4l0,0l-0.1,0.1c0,0,0,0,0,0.1h-0.1v0.1c0,0,0,0-0.1,0v0.1h-0.1l0,0l0.1,0.1l0,0l0,0l0,0v0.1l0,0
				c0.1,0,0,0.1,0.1,0.3v0.1l0,0l0,0h0.1c0.1,0,0.1,0.1,0.3,0.3l0,0H0c0.1,0,0.1,0.1,0.1,0.3c0,0,0,0,0.1,0c0.1,0.5,0.5,0.9,1.1,1.3
				l0.3,0.3c0,0,0,0,0.1,0c0.1,0.1,0.7,0.5,0.8,0.8h0.1c0.1,0.1,0.1,0.1,0.3,0.3H3c0.1,0,0.1,0.3,0.3,0.3c0,0,0,0,0.1,0l0.1,0.1
				c0.3,0.1,0.4,0.4,0.7,0.7l0,0l0.3,0.3l0,0c0.1,0.1,0.3,0.3,0.3,0.3s0,0,0.1,0l0.3,0.3c0.3,0.4,0.4,0.8,0.7,1.1l0,0L6-17.1
				c0,0,0.1-0.1,0.3,0v-0.1c0,0,0-0.1,0.1-0.1c0,0,0-0.1,0-0.3l0.1-0.3c0-0.1,0.1-0.1,0-0.3c0,0,0-0.1-0.1-0.3c0,0,0,0-0.1,0
				C6.5-19,5.6-19,5.6-19.7c0.1-0.1,0.3-0.3,0.4-0.5l0.5-0.9C6.6-21.4,7.2-21,7.3-21c0.4,0,0.8,0.5,1.2-0.1
				C8.6-21.4,8.8-21.8,8.5-21.9L8.5-21.9z M5.3-21.7c0.1,0,0,0.1,0,0.3L5-20.9c-0.1,0.3-0.3,0.4-0.4,0.5c0,0-0.1,0-0.3,0
				c-0.1,0-2.1-2-2.3-2.1s-0.1-0.1,0-0.3c0-0.1,0.1-0.1,0.3,0c0.7,0.3,1.5,0.4,2.1,0.7h0.1h0.1c0.1,0,0.1,0,0.3,0.1
				C5-21.8,5.2-21.8,5.3-21.7L5.3-21.7z M6.2-18.1C6.4-17.9,6.4-17.9,6.2-18.1c0,0.1-0.1,0.3-0.1,0.3S6.1-17.9,6.2-18.1L6.2-18.1
				 M8.4-34.7L8-35.1c-0.1,0-0.1-0.1-0.1-0.1c-0.1,0-0.3,0-0.3,0.1l-0.3,0.4l-1.1,1.2c-0.1,0.1-0.1,0.1-0.3,0.3
				c-0.3,0.4-0.7,0.7-0.9,1.1l0,0c-0.1,0.1-0.1,0.3-0.1,0.3l-0.1,0.1c0,0.1,0,0.1,0,0.1C5.2-31.4,5.6-31,6-30.7
				c0.3,0.1,0.4,0.4,0.7,0.5c0.4,0.3,0.8,0.7,1.2,1.1l0.9,0.9L9-28.1c0,0,0,0,0,0.1c0,0,0,0.1,0.1,0.1c0.1,0.1,0.3,0.1,0.4,0.3
				l0.1,0.1h0.1c0.1,0.1,0.1,0.1,0.1,0.3h0.1c0,0.1,0,0.1,0.1,0.1l0.1,0.1c0,0,0,0,0.1,0.1c0.1,0,0.1,0.1,0.3,0.1l0.5,0.7l0.1,0.1
				c0.1,0,0.3,0.1,0.4,0c0.1,0,0.1,0,0.3-0.1c0.1-0.1,0.1-0.4,0.3-0.5l0.1-0.1l0,0v-0.1c0,0,0,0,0.1,0c0-0.1,0-0.3-0.1-0.4
				c-0.1,0-0.3-0.1-0.4-0.3L12-27.5c-0.5,0-0.7-0.1-0.8-0.1c-0.4-0.4-0.9-0.8-1.5-1.2H9.6c0-0.1,0-0.1,0-0.3l-0.3-0.1
				c-0.1,0-0.1-0.1,0-0.3l1.9-2.1c0-0.1,0-0.1,0-0.1l0,0L11-31.9c-0.3-0.1-0.5-0.4-0.8-0.4c-0.7,0.7-1.3,1.3-1.9,2.1
				c-0.1,0-0.3,0-0.3-0.1l-0.3-0.3c0,0,0,0-0.1,0c0-0.1-0.1-0.1-0.1-0.3l-0.3-0.3l-0.1-0.1c-0.1-0.1-0.3-0.1-0.4-0.3v-0.1
				c-0.1-0.1-0.3-0.3-0.4-0.3c0-0.1,0-0.3,0.1-0.4l0.3-0.3c0,0,0-0.1,0.1-0.1c0,0,0.1-0.1,0.3-0.3l0.4-0.5l0.1-0.1l0.1-0.1l0.4-0.5
				C8.4-34.3,8.4-34.5,8.4-34.7L8.4-34.7z M8-34.6L8-34.6c0.1,0.1,0.1,0.3,0.1,0.3l0,0H8C8-34.3,8-34.5,8-34.6
				C8-34.5,7.8-34.5,8-34.6L8-34.6C7.8-34.5,7.8-34.5,8-34.6L8-34.6C7.8-34.6,7.8-34.6,8-34.6 M8.8-28.6C8.6-28.5,8.6-28.5,8.8-28.6
				C8.6-28.5,8.6-28.5,8.8-28.6c-0.1,0-0.1,0-0.1-0.1C8.6-28.6,8.6-28.6,8.8-28.6C8.6-28.6,8.6-28.6,8.8-28.6L8.8-28.6 M9.6-27.9
				v0.1l0,0l0,0V-27.9L9.6-27.9L9.6-27.9L9.6-27.9z M7.8-29.4L7.8-29.4C7.8-29.3,7.8-29.4,7.8-29.4C7.7-29.4,7.7-29.4,7.8-29.4
				L7.8-29.4C7.7-29.4,7.8-29.4,7.8-29.4L7.8-29.4L7.8-29.4z M8.1-34.2L8.1-34.2C8-34.2,8-34.2,8.1-34.2C8-34.2,8-34.2,8.1-34.2
				C8-34.2,8-34.2,8.1-34.2L8.1-34.2C8-34.3,8-34.3,8.1-34.2L8.1-34.2z M9.3-28.1L9.3-28.1C9.3-27.9,9.3-27.9,9.3-28.1
				C9.3-27.9,9.3-27.9,9.3-28.1C9.2-28.1,9.2-28.1,9.3-28.1L9.3-28.1L9.3-28.1z M6.2-30.7L6.2-30.7C6.2-30.7,6.2-30.6,6.2-30.7
				C6.2-30.6,6.2-30.7,6.2-30.7C6.1-30.7,6.1-30.7,6.2-30.7L6.2-30.7L6.2-30.7L6.2-30.7z M6.1-30.9C6.2-30.9,6.1-30.9,6.1-30.9
				L6.1-30.9L6.1-30.9L6.1-30.9L6.1-30.9 M5.2-31.8L5.2-31.8L5.2-31.8L5.2-31.8C5-31.8,5-31.8,5.2-31.8L5.2-31.8z M8.1-29.1
				L8.1-29.1L8.1-29.1L8.1-29.1L8.1-29.1C8.1-29,8.1-29.3,8.1-29.1L8.1-29.1z M7.6-29.5L7.6-29.5L7.6-29.5L7.6-29.5L7.6-29.5
				L7.6-29.5L7.6-29.5C7.4-29.5,7.4-29.5,7.6-29.5C7.6-29.5,7.6-29.7,7.6-29.5C7.6-29.7,7.6-29.7,7.6-29.5 M6.2-33.3L6.2-33.3
				L6.2-33.3L6.2-33.3C6.1-33.3,6.1-33.3,6.2-33.3C6.1-33.3,6.2-33.3,6.2-33.3 M7.4-29.7L7.4-29.7L7.4-29.7L7.4-29.7L7.4-29.7
				C7.4-29.7,7.3-29.7,7.4-29.7L7.4-29.7z M9.7-27.7L9.7-27.7L9.7-27.7L9.7-27.7L9.7-27.7z M8.4-28.9L8.4-28.9L8.4-28.9L8.4-28.9
				L8.4-28.9C8.2-28.9,8.4-28.9,8.4-28.9L8.4-28.9 M6.5-30.6L6.5-30.6L6.5-30.6L6.5-30.6C6.4-30.5,6.4-30.6,6.5-30.6L6.5-30.6
				L6.5-30.6z M7.7-34.3L7.7-34.3C7.6-34.3,7.6-34.3,7.7-34.3C7.6-34.3,7.6-34.3,7.7-34.3L7.7-34.3C7.6-34.3,7.7-34.3,7.7-34.3
				 M16.6-41.9l-0.4-0.4c0-0.1-0.1-0.1-0.1-0.3c-0.1-0.1-0.3,0-0.3,0l-0.4,0.3l-1.3,0.9c-0.1,0.1-0.1,0.1-0.3,0.3
				c-0.4,0.3-0.7,0.5-1.1,0.8l0,0c-0.1,0.1-0.1,0.1-0.3,0.3h-0.1v0.1c0.3,0.4,0.7,0.8,0.9,1.2c0.1,0.3,0.3,0.4,0.5,0.7
				c0.4,0.4,0.7,0.8,1.1,1.3l0.8,1.1l0.3,0.3l0,0v0.1c0.1,0.1,0.3,0.3,0.4,0.4c0,0,0,0.1,0.1,0.1c0,0,0.1,0,0.1,0.1
				c0,0.1,0.1,0.3,0.1,0.3s0,0,0.1,0c0,0.1,0,0.1,0.1,0.1l0.1,0.1c0,0,0,0,0,0.1c0.1,0.1,0.1,0.1,0.1,0.1l0.4,0.7l0.1,0.1
				c0.1,0,0.3,0.1,0.3,0.1c0.1,0,0.1,0,0.3,0c0.1-0.1,0.1-0.3,0.3-0.4h0.1l0,0c0,0,0,0,0-0.1c0,0,0,0,0.1,0c0.1-0.1,0-0.3,0-0.4
				c-0.1-0.1-0.3-0.3-0.4-0.4l-0.1-0.1c-0.1-0.1-0.1-0.3-0.3-0.3c-0.4-0.5-0.8-0.9-1.2-1.5h-0.1v-0.1l-0.1-0.3c0-0.1-0.1-0.1,0-0.3
				l2.3-1.7c0-0.1,0-0.1,0-0.1l0,0v-0.1c-0.3-0.1-0.4-0.5-0.7-0.7c-0.7,0.5-1.5,1.2-2.1,1.7c-0.1,0-0.3,0-0.3-0.1l-0.1-0.3
				c0,0,0,0-0.1-0.1c0-0.1,0-0.1-0.1-0.3l-0.5-0.1l-0.1-0.1c-0.1-0.1-0.1-0.3-0.3-0.4l-0.1-0.1c-0.1-0.1-0.1-0.3-0.3-0.4
				c0-0.1,0-0.3,0.1-0.4l0.3-0.3l0.1-0.1c0.1-0.1,0.3-0.1,0.4-0.3l0.5-0.3l0.1-0.1l0.1-0.1l0.5-0.4C16.5-41.7,16.6-41.8,16.6-41.9
				L16.6-41.9z M16.1-41.9L16.1-41.9c0.1,0.1,0.1,0.1,0.1,0.3l0,0h-0.1C16.1-41.8,16.1-41.8,16.1-41.9
				C16.1-41.8,16.1-41.8,16.1-41.9L16.1-41.9C16-41.8,16-41.8,16.1-41.9L16.1-41.9L16.1-41.9 M15.7-35.9L15.7-35.9
				C15.6-35.9,15.6-35.9,15.7-35.9c-0.1,0-0.1-0.1-0.1-0.1C15.7-36.1,15.7-36.1,15.7-35.9C15.7-36.1,15.7-36.1,15.7-35.9L15.7-35.9
				 M16.5-35.1c0,0,0,0.1-0.1,0.1l0,0l0,0v-0.1l0,0H16.5L16.5-35.1z M15-36.9L15-36.9L15-36.9C14.9-36.9,14.9-36.9,15-36.9L15-36.9
				C15-37,15-37,15-36.9L15-36.9L15-36.9z M16.2-41.7C16.2-41.5,16.2-41.5,16.2-41.7C16.1-41.5,16.1-41.5,16.2-41.7
				C16.1-41.5,16.1-41.5,16.2-41.7C16.1-41.5,16.1-41.7,16.2-41.7L16.2-41.7C16.1-41.7,16.1-41.7,16.2-41.7L16.2-41.7z M16.2-35.3
				L16.2-35.3L16.2-35.3C16.2-35.1,16.1-35.3,16.2-35.3C16.1-35.3,16.1-35.3,16.2-35.3C16.1-35.3,16.2-35.4,16.2-35.3L16.2-35.3z
				 M13.7-38.5L13.7-38.5L13.7-38.5L13.7-38.5C13.7-38.5,13.6-38.5,13.7-38.5L13.7-38.5C13.7-38.6,13.7-38.6,13.7-38.5L13.7-38.5z
				 M13.7-38.7C13.7-38.7,13.7-38.6,13.7-38.7C13.7-38.6,13.6-38.6,13.7-38.7C13.6-38.6,13.6-38.7,13.7-38.7L13.7-38.7
				C13.6-38.7,13.7-38.7,13.7-38.7 M12.9-39.8L12.9-39.8L12.9-39.8L12.9-39.8C12.8-39.7,12.8-39.8,12.9-39.8L12.9-39.8z M15.3-36.6
				L15.3-36.6L15.3-36.6L15.3-36.6L15.3-36.6C15.2-36.5,15.2-36.6,15.3-36.6L15.3-36.6z M14.9-37.1L14.9-37.1
				C14.8-37.1,14.8-37.1,14.9-37.1L14.9-37.1L14.9-37.1C14.8-37.1,14.8-37.1,14.9-37.1L14.9-37.1C14.8-37.1,14.8-37.1,14.9-37.1
				C14.8-37.1,14.8-37.1,14.9-37.1L14.9-37.1 M14.2-41L14.2-41C14.2-41,14.1-41,14.2-41L14.2-41C14.1-41,14.1-41,14.2-41
				C14.1-41,14.2-41,14.2-41 M14.6-37.3C14.6-37.3,14.8-37.3,14.6-37.3C14.8-37.3,14.8-37.3,14.6-37.3L14.6-37.3L14.6-37.3
				L14.6-37.3L14.6-37.3z M16.6-34.9C16.6-34.9,16.6-34.7,16.6-34.9C16.6-34.7,16.5-34.7,16.6-34.9C16.5-34.9,16.5-34.9,16.6-34.9
				L16.6-34.9z M15.4-36.3L15.4-36.3C15.4-36.3,15.4-36.2,15.4-36.3C15.4-36.2,15.4-36.2,15.4-36.3L15.4-36.3
				C15.4-36.2,15.4-36.3,15.4-36.3L15.4-36.3 M14-38.3L14-38.3C14-38.3,13.8-38.3,14-38.3L14-38.3C13.8-38.2,13.8-38.3,14-38.3
				L14-38.3L14-38.3z M15.8-41.8L15.8-41.8L15.8-41.8C15.8-41.8,15.7-41.8,15.8-41.8L15.8-41.8L15.8-41.8 M26.5-48.2
				c-0.1-0.1-0.4-0.3-0.7-0.1c-0.1,0.1-0.4,0.3-0.5,0.4c-0.3,0.1-0.5,0.3-0.8,0.3l0,0l-0.1,0.1c0,0,0,0-0.1,0h-0.1c0,0,0,0,0,0.1
				c-0.1,0-0.1,0-0.3,0l-0.4,0.3c-0.1,0-0.1,0-0.3,0l0,0C23-47.1,23-47,23-47s0,0-0.1,0c-0.1,0-0.1,0-0.3,0.1
				c-0.3,0.1-0.5,0.4-0.5,0.7l0,0v0.1l0,0c0.1,0.1,0.3,0.5,0.9,2c0,0.1,0,0.3,0.1,0.4l0.1,0.3c0,0.1,0.1,0.1,0.1,0.3l0.1,0.3
				c0.1,0.1,0.1,0.4,0.1,0.5c0,0,0,0,0,0.1l0.1,0.3c0,0,0,0.1,0.1,0.1l0.1,0.5c0.1,0.1,0.3,0.4,0.4,0.7c0.1,0.1,0.1,0.4,0.3,0.5
				c0,0.1,0,0.1,0.1,0.3c0,0.1,0.1,0.3,0.1,0.4s0,0.1,0,0.3l0,0c0,0,0.1,0.1,0.1,0.3v0.1v0.1c0,0.1,0.3,0.1,0.3,0.3v0.1
				c0,0.1,0.4,0,0.4,0.3l0,0c0.1-0.1,0.4-0.3,0.5-0.4c0,0,0.1,0,0.1-0.1c0.3-0.1,0.7-0.1,0.8-0.3h0.1c0.1,0,0.1,0,0.3-0.1l0.9-0.5
				c0.1,0,0.1,0,0.3-0.1l0,0h0.4c0,0,0.1,0,0.1-0.1c0,0,0,0,0.1,0l0.1-0.1l0,0c0.3-0.1,0-0.5,0-0.7v-0.1c-0.1-0.1-0.3-0.3-0.4-0.3
				c-0.5,0.3-1.2,0.5-1.7,0.8c-0.4,0.1-0.8,0.4-1.2,0.7c-0.1,0-0.3,0-0.4-0.3c-0.3-0.7-0.7-1.3-0.9-2c0-0.1,0.1-0.3,0.1-0.3
				c0.3,0,0.4-0.1,0.7-0.3l0.8-0.4c0.1-0.1,0.4-0.1,0.5-0.1c0.1-0.3,0.4-0.3,0.5-0.5l-0.1-0.3l-0.1-0.3c-0.1-0.1-0.1-0.3-0.4-0.3
				c-0.3,0-0.5,0.1-0.7,0.1v0.1c-0.4,0.1-0.8,0.3-1.1,0.4c-0.1,0-0.1,0.1-0.3,0.1c-0.1,0.1-0.3,0.3-0.4,0.3c-0.1,0-0.3,0.1-0.4,0
				c-0.1-0.3-0.3-0.4-0.3-0.7L23.4-45l-0.1-0.3c0-0.1,0-0.3,0.1-0.3l0.1-0.1c0,0,0.1,0,0.1-0.1c0.4-0.1,0.8-0.3,1.2-0.4
				c0.1-0.1,0.3-0.1,0.4-0.3h0.1c0.3-0.1,0.7-0.3,0.9-0.5C26.6-47.7,26.6-47.9,26.5-48.2 M23.6-43.3c0,0-0.1,0-0.1-0.1l0,0l0,0
				C23.4-43.5,23.6-43.4,23.6-43.3C23.6-43.4,23.6-43.3,23.6-43.3L23.6-43.3z M29.7-40.3C29.7-40.3,29.7-40.2,29.7-40.3
				c-0.1,0.1-0.1,0.1-0.1,0.1l0,0C29.4-40.3,29.6-40.3,29.7-40.3C29.6-40.3,29.6-40.3,29.7-40.3 M24-47.3L24-47.3
				c-0.1,0.1-0.1,0.1-0.1,0.1s0,0,0-0.1C23.8-47.3,24-47.4,24-47.3C24-47.4,24-47.4,24-47.3L24-47.3z M22.4-45.9
				C22.5-45.8,22.4-45.8,22.4-45.9L22.4-45.9l-0.1,0.1L22.4-45.9L22.4-45.9 M22.1-46.3C22.2-46.3,22.2-46.3,22.1-46.3
				C22.2-46.2,22.2-46.2,22.1-46.3L22.1-46.3C22.1-46.2,22.1-46.2,22.1-46.3C22.1-46.2,22.1-46.3,22.1-46.3L22.1-46.3z M38.1-52.1
				c-0.1-0.1-0.4-0.3-0.7-0.3c-0.1,0.1-0.4,0.1-0.7,0.3c-0.3,0-0.5,0.1-0.9,0.1l0,0l-0.1,0.1c0,0,0,0-0.1,0h-0.1c0,0-0.1,0-0.1,0.1
				c-0.1,0-0.1,0-0.3,0l-0.4,0c-0.1,0-0.1,0-0.3,0l0,0c-0.1,0-0.1,0.1-0.1,0.1l0,0c-0.1,0-0.1,0-0.3,0c-0.3,0.1-0.5,0.3-0.7,0.5l0,0
				c0,0-0.1,0.1,0,0.1l0,0c0,0.1,0.1,0.5,0.5,2.1c0,0.1,0,0.3,0,0.4l0.1,0.3c0,0.1,0,0.1,0,0.3v0.3c0,0.1,0.1,0.4,0.1,0.5v0.1v0.3
				c0,0,0,0.1,0.1,0.1v0.5c0.1,0.1,0.1,0.4,0.3,0.7c0,0.3,0.1,0.4,0.1,0.7c0,0.1,0,0.3,0,0.3c0,0.1,0.1,0.3,0.1,0.4
				c0,0.1,0,0.1,0,0.3l0,0c0,0.1,0.1,0.1,0.1,0.3v0.1v0.1c0,0.1,0.1,0.1,0.3,0.3v0.1c0,0.1,0.3,0.1,0.4,0.3l0,0
				c0.1-0.1,0.4-0.1,0.7-0.3h0.1c0.3-0.1,0.7,0,0.9-0.1h0.1c0.1,0,0.1,0,0.3,0l1.1-0.3c0.1,0,0.1,0,0.3,0l0,0h0.4c0,0,0.1,0,0.1-0.1
				c0,0,0,0,0.1,0c0,0,0.1-0.1,0.3-0.1l0,0c0.3-0.1,0.1-0.4,0.1-0.7v-0.1c0-0.3-0.1-0.4-0.4-0.4c-0.7,0.1-1.2,0.3-1.9,0.4
				c-0.4,0.1-0.8,0.1-1.2,0.4c-0.1,0-0.3-0.1-0.3-0.3c-0.1-0.8-0.3-1.5-0.4-2.3c0.1-0.1,0.1-0.3,0.3-0.3c0.3,0,0.4,0,0.7-0.1
				l0.9-0.1c0.1,0,0.4-0.1,0.5-0.1c0.1-0.1,0.4-0.1,0.7-0.4v-0.3v-0.3c0-0.1-0.1-0.4-0.3-0.4c-0.3-0.1-0.5,0-0.7,0L38-48.2
				c-0.4,0.1-0.8,0.1-1.2,0.1c-0.1,0-0.1,0-0.3,0.1c-0.1,0.1-0.3,0.1-0.4,0.1s-0.3,0-0.4,0c-0.1-0.3-0.1-0.4-0.1-0.7l-0.3-1.3v-0.3
				c0-0.1,0.1-0.3,0.3-0.3h0.3H36c0.4,0,0.8-0.1,1.2-0.1c0.1,0,0.3-0.1,0.5-0.1h0.1c0.4-0.1,0.7-0.1,0.9-0.4
				C38.1-51.4,38.1-51.8,38.1-52.1 M34.1-47.8L34-47.9l0,0l0,0C34.1-47.9,34.1-47.9,34.1-47.8C34.2-47.8,34.1-47.8,34.1-47.8
				L34.1-47.8z M39.4-43.5L39.4-43.5c-0.1,0.1-0.1,0.1-0.1,0l0,0C39.3-43.5,39.3-43.7,39.4-43.5C39.4-43.7,39.4-43.7,39.4-43.5
				 M35.4-51.7C35.4-51.5,35.4-51.5,35.4-51.7c-0.1,0.1-0.1,0-0.1,0C35.3-51.5,35.3-51.7,35.4-51.7C35.3-51.7,35.3-51.7,35.4-51.7
				L35.4-51.7L35.4-51.7z M33.6-50.6C33.6-50.5,33.6-50.5,33.6-50.6L33.6-50.6l-0.1,0.1L33.6-50.6L33.6-50.6 M33.4-51L33.4-51
				L33.4-51L33.4-51C33.4-50.9,33.4-50.9,33.4-51C33.3-51,33.4-51,33.4-51L33.4-51z M49.7-44.9c-0.3-0.8-0.4-1.6-0.7-2.4
				c-0.1-0.5-0.3-1.1-0.4-1.6V-49c0-0.1,0.1-0.4,0.3-0.5c0.4-0.4,0.7-1.1,0.7-1.7c0-0.4-0.1-0.8-0.3-1.1c-0.4-0.5-0.9-0.9-1.5-1.1
				h-0.1c-0.4-0.1-0.8-0.1-1.2-0.1h-0.9h-0.3H45l-0.1,0.1c0,0.5,0,1.1,0.1,1.5v0.4c0,0,0,0.1,0.1,0.1c0,0.4,0,0.8,0,1.2v3.1
				c0,0.1,0,0.4,0,0.7v0.5v0.1c0,0.1,0,0.3,0,0.4c0,0.3,0,0.4,0,0.7s0,0.5,0.1,0.7c0.3,0,0.4,0,0.5,0c0,0,0.1,0,0.3,0l0,0
				c0.1,0,0.4-0.1,0.4-0.1s0-0.5,0-0.8c0-0.7-0.1-1.3-0.1-2.1v-0.3v-0.1v-0.4c0-0.1,0-0.1,0-0.3c0.1,0,0.3,0,0.4,0h0.8h0.1h0.1
				c0.1,0.4,0.3,0.8,0.4,1.3c0.1,0.7,0.3,1.2,0.4,1.9c0.1,0.1,0,0.5,0.1,0.5l0,0c0,0.1,0.1,0.4,0.1,0.4s0.3,0,0.4-0.1
				c0.1,0,0.3,0,0.5,0c0.1,0,0.1-0.1,0.1-0.1C49.7-44.7,49.7-44.7,49.7-44.9 M48.2-51.4c0,0.1,0,0.1,0,0.3c0,0.5-0.1,1.1-0.7,1.3
				c-0.3,0.1-0.5,0.1-0.8,0.1h-0.7C46-49.8,46-49.9,46-50.5c0-0.1,0-0.4,0-0.7c0,0,0,0,0-0.1l0,0c0-0.1,0-0.5,0-0.7v-0.1
				c0-0.1,0-0.1,0.1-0.3c0.1-0.1,0.3-0.1,0.4-0.1s0.4,0,0.5,0c0.5,0,0.8,0.3,1.2,0.7l0,0C48.1-51.5,48.2-51.5,48.2-51.4 M46.2-44.5
				l-0.1,0.1l0,0C46-44.5,46.1-44.5,46.2-44.5C46.1-44.5,46.1-44.5,46.2-44.5v-0.3c0,0,0-0.1,0-0.3l0,0c0,0,0,0,0,0.1V-44.5
				L46.2-44.5 M49.7-44.6C49.7-44.5,49.6-44.5,49.7-44.6C49.6-44.5,49.6-44.6,49.7-44.6L49.7-44.6c-0.1-0.1-0.1-0.3-0.1-0.3l0,0l0,0
				C49.6-44.9,49.7-44.7,49.7-44.6L49.7-44.6 M45-51.5L45-51.5c-0.1,0-0.1,0-0.1,0l0,0C44.9-51.7,45-51.7,45-51.5
				C45-51.7,45-51.7,45-51.5C45-51.7,45-51.7,45-51.5C45-51.7,45-51.5,45-51.5 M49.6-44.6C49.6-44.5,49.4-44.5,49.6-44.6
				C49.4-44.5,49.4-44.5,49.6-44.6L49.6-44.6C49.4-44.6,49.4-44.6,49.6-44.6L49.6-44.6L49.6-44.6 M48.5-44.9L48.5-44.9
				C48.5-45,48.5-45,48.5-44.9L48.5-44.9C48.5-45,48.6-45,48.5-44.9C48.6-44.9,48.6-44.9,48.5-44.9L48.5-44.9z M48.8-48.9
				C48.8-48.9,48.8-49,48.8-48.9C48.6-49,48.6-48.9,48.8-48.9C48.6-48.9,48.6-48.9,48.8-48.9L48.8-48.9L48.8-48.9L48.8-48.9z
				 M47.8-53.4L47.8-53.4c0-0.1,0-0.1-0.1-0.1l0,0L47.8-53.4C47.7-53.5,47.7-53.5,47.8-53.4C47.7-53.4,47.7-53.4,47.8-53.4
				L47.8-53.4C47.7-53.4,47.7-53.4,47.8-53.4C47.7-53.4,47.8-53.4,47.8-53.4 M48.8-49.3C48.8-49.3,48.6-49.1,48.8-49.3
				c-0.1,0.1-0.1,0.1,0,0.1C48.6-49.1,48.8-49.1,48.8-49.3C48.8-49.1,48.8-49.1,48.8-49.3C48.8-49.1,48.8-49.1,48.8-49.3L48.8-49.3z
				 M48.1-51.7C48.1-51.7,48.2-51.7,48.1-51.7C48.2-51.7,48.2-51.7,48.1-51.7C48.2-51.7,48.2-51.7,48.1-51.7
				C48.2-51.7,48.2-51.7,48.1-51.7L48.1-51.7z M46-51L46-51C45.8-51,45.8-51,46-51C45.8-51,45.8-51,46-51L46-51L46-51L46-51
				 M45.4-44.3L45.4-44.3C45.4-44.3,45.4-44.5,45.4-44.3C45.4-44.5,45.4-44.5,45.4-44.3C45.4-44.5,45.4-44.5,45.4-44.3L45.4-44.3
				L45.4-44.3z M49.4-44.7L49.4-44.7L49.4-44.7L49.4-44.7C49.4-44.7,49.4-44.6,49.4-44.7L49.4-44.7L49.4-44.7L49.4-44.7 M48.8-48.7
				C48.8-48.7,48.6-48.7,48.8-48.7C48.6-48.7,48.6-48.7,48.8-48.7C48.6-48.7,48.6-48.6,48.8-48.7C48.8-48.6,48.8-48.7,48.8-48.7
				L48.8-48.7z M45.7-44.3L45.7-44.3L45.7-44.3C45.7-44.5,45.7-44.5,45.7-44.3C45.7-44.5,45.7-44.5,45.7-44.3
				C45.8-44.3,45.8-44.3,45.7-44.3C45.8-44.3,45.8-44.3,45.7-44.3 M48.9-49.4C48.9-49.4,48.8-49.4,48.9-49.4
				C48.8-49.3,48.9-49.3,48.9-49.4C48.9-49.3,48.9-49.3,48.9-49.4L48.9-49.4 M46.1-52.1C46.1-52.2,46.1-52.2,46.1-52.1
				C46.1-52.2,46-52.1,46.1-52.1C46-52.1,46.1-52.1,46.1-52.1L46.1-52.1 M49.6-45C49.4-45,49.4-45,49.6-45C49.4-45,49.4-45,49.6-45
				L49.6-45L49.6-45z M48.4-45.3C48.2-45.3,48.2-45.1,48.4-45.3C48.2-45.1,48.4-45.1,48.4-45.3C48.4-45.1,48.4-45.1,48.4-45.3
				C48.4-45.1,48.4-45.3,48.4-45.3L48.4-45.3z M48.9-48.5C48.8-48.5,48.8-48.5,48.9-48.5C48.8-48.5,48.8-48.5,48.9-48.5
				C48.8-48.3,48.8-48.3,48.9-48.5L48.9-48.5C48.8-48.3,48.9-48.3,48.9-48.5 M60.5-48.6c0-0.1,0.1-0.1,0.1-0.3l0.1-0.7v-0.1
				c0-0.1,0.1-0.3,0.1-0.4c0.1-0.8,0-1.6-0.7-2.3l-0.8-0.5c-0.1,0-0.1-0.1-0.3-0.1c-0.4-0.1-0.8,0-1.1,0c-0.3,0-0.5,0-0.8,0.1
				c-0.4,0.3-0.5,0.3-0.8,0.7c-0.3,0.5-0.4,1.1-0.5,1.7l-0.3,1.3c0,0.1-0.1,0.4-0.1,0.5v0.1c0,0.1,0,0.3,0,0.4l-0.4,1.7l0,0
				c0,0.3,0,0.7,0.1,0.9c0,0.1,0.3,0.3,0.3,0.4c0.4,0.5,0.8,1.1,1.5,1.2c0.1,0,0.1,0,0.3,0c0.8,0.1,1.6-0.1,2.1-0.7
				c0.3-0.4,0.5-0.7,0.7-1.2v-0.3l0.1-0.7c0-0.1,0-0.3,0-0.4c0-0.1,0.1-0.1,0.1-0.3v-0.4v-0.1L60.5-48.6z M59.4-48.9l-0.7,3.1
				c-0.1,0.4-0.3,1.1-0.9,0.9l0,0l0,0c-0.3,0-0.4,0-0.5,0c-0.1,0-0.3,0-0.3-0.1c-0.3-0.3-0.7-0.7-0.5-1.1l0,0v-0.1l0.3-0.4
				c0,0,0-0.1,0-0.3V-47c0-0.1,0-0.4,0.1-0.5c0-0.1,0.1-0.3,0.1-0.4c0-0.1,0-0.3,0-0.4c0-0.3,0.1-0.5,0.3-0.8c0-0.1,0.1-0.3,0.1-0.4
				c0-0.1,0-0.1,0-0.3v-0.1l0.1-0.3c0-0.1,0-0.1,0-0.3c0.1-0.1,0.1-0.3,0.1-0.4V-51c0.1-0.4,0.3-0.8,0.8-0.9c0.1,0,0.4,0,0.7,0
				c0.3,0,0.4,0.1,0.5,0.3l0.1,0.1c0,0,0.4,0.5,0.3,0.9c0,0.1,0,0.1,0,0.3L60-49.5C59.4-49.3,59.4-49.1,59.4-48.9 M56.8-48.9
				c0,0,0-0.3,0-0.4s0-0.3,0.1-0.1c0,0,0,0.1,0,0.3C56.8-49,56.8-48.9,56.8-48.9 M56.8-48.7C56.8-48.7,56.8-48.6,56.8-48.7
				c0,0.1,0,0.3-0.1,0.3l0,0v-0.1C56.6-48.7,56.6-48.9,56.8-48.7C56.6-48.7,56.6-48.7,56.8-48.7L56.8-48.7 M56.2-46.7
				c0,0,0-0.1,0-0.3c0,0,0-0.1,0.1,0v0.1C56.2-46.9,56.2-46.7,56.2-46.7 M56.6-48.1L56.6-48.1C56.5-48.1,56.5-48.2,56.6-48.1
				c0-0.1,0-0.1,0-0.1l0,0C56.6-48.2,56.6-48.2,56.6-48.1C56.6-48.2,56.6-48.1,56.6-48.1 M56.2-46.5C56.2-46.5,56.1-46.5,56.2-46.5
				C56.1-46.5,56.1-46.5,56.2-46.5C56.1-46.5,56.1-46.6,56.2-46.5c-0.1-0.1-0.1-0.1,0-0.1l0,0V-46.5C56.2-46.6,56.2-46.6,56.2-46.5
				L56.2-46.5z M56.4-46.6L56.4-46.6L56.4-46.6C56.2-46.7,56.2-46.7,56.4-46.6C56.2-46.7,56.4-46.7,56.4-46.6
				C56.4-46.7,56.4-46.7,56.4-46.6L56.4-46.6 M56.2-47.1L56.2-47.1C56.2-47.1,56.2-47.3,56.2-47.1C56.2-47.3,56.2-47.3,56.2-47.1
				L56.2-47.1C56.4-47.3,56.4-47.3,56.2-47.1C56.4-47.3,56.4-47.1,56.2-47.1 M56.9-49.5C56.9-49.5,56.9-49.7,56.9-49.5
				C56.9-49.7,56.9-49.7,56.9-49.5L56.9-49.5C56.9-49.7,56.9-49.7,56.9-49.5L56.9-49.5 M56.5-47.7C56.5-47.7,56.4-47.7,56.5-47.7
				C56.4-47.7,56.4-47.7,56.5-47.7C56.4-47.7,56.4-47.7,56.5-47.7L56.5-47.7L56.5-47.7 M58.6-54.3c0,0,0,0,0-0.1s0-0.1,0-0.1
				l-0.1-0.1v-0.1l0,0c0-0.1,0-0.1,0-0.1l0,0h-0.1l0,0c0,0,0-0.1-0.1-0.1l0,0C58.1-55,58-55.1,58-55c-0.1,0.1-0.1,0.3-0.3,0.4
				c0,0,0,0,0,0.1l0,0l0,0l0,0l0,0c0,0.1,0,0.1,0.1,0.3c0.1,0.1,0.1,0.1,0.3,0.1h0.1h0.1h0.1C58.5-54.1,58.5-54.1,58.6-54.3
				L58.6-54.3z M60.8-53.8L60.8-53.8c0-0.1,0-0.3,0-0.3l0,0c0-0.1-0.1-0.1-0.1-0.3l0,0l0,0c0-0.1,0-0.1-0.1-0.1c0,0-0.1,0-0.1-0.1
				h-0.1c-0.1,0-0.1,0-0.1,0c-0.1,0-0.1,0-0.1,0.1l-0.3,0.1l0,0c0,0.1,0,0.1,0,0.3s0.1,0.3,0.1,0.4l0.1,0.1h0.1c0.1,0,0.1,0,0.3-0.1
				C60.5-53.7,60.6-53.8,60.8-53.8 M59.7-54.1L59.7-54.1L59.7-54.1L59.7-54.1C59.6-54.1,59.6-54.1,59.7-54.1L59.7-54.1z M58.4-55
				L58.4-55L58.4-55L58.4-55L58.4-55L58.4-55 M70.4-42.2C70.4-42.2,70.2-42.3,70.4-42.2v-0.1c0.1-0.3,0-0.5,0.1-0.7
				c0,0,0-0.1,0.1-0.1c-0.1-0.1-0.1-0.4-0.1-0.5c-0.3-0.3-0.1-0.5-0.3-0.8C70-44.6,70.1-44.9,70-45l0,0c-0.1-0.1-0.1-0.3-0.1-0.3
				l0,0l0,0c-0.4-0.8-1.3-1.7-1.1-2.8c0.4-0.3,0.5-0.8,1.3-0.5c0.3,0.1,0.5,0.4,0.8,0.7v1.1c0,0.3,0,0.5,0.1,0.7l0.1,0.1
				c0.1,0,0.1,0,0.3,0c0,0,0,0,0,0.1l0,0c0-0.1,0.3,0,0.4,0l0,0c0-0.1,0.1-0.1,0.1-0.1c0.3-0.1,0.3-0.4,0.4-0.5c0-0.1,0-0.1-0.1-0.3
				c0-0.3,0.1-0.3,0-0.5l0,0c0-0.1-0.1-0.1,0-0.3l0,0c0-0.1-0.1-0.3,0-0.4l0,0l0,0c0-0.3-0.4-0.8-0.4-0.8s0,0-0.1,0
				c-0.1-0.1-0.4-0.4-0.7-0.5c-0.1,0-0.3,0-0.4-0.1h-0.1c-0.1,0-0.1,0-0.1,0c-0.1,0-0.1-0.1-0.3-0.3H70v-0.1l-0.3,0.1
				c-0.1,0-0.3,0-0.4,0c0,0,0,0,0-0.1c-0.1,0.1-0.4,0.3-0.5,0.1l0,0v0.1c0,0,0,0-0.1,0c0,0,0,0,0,0.1c0,0.1-0.1,0-0.3,0v0.1
				c0,0-0.1,0.1-0.1,0l0,0l-0.1,0.3C68-49,68-49,67.8-48.9c-0.1,0.3-0.1,0.5-0.3,0.7l-0.1,0.1c0,0.3,0.1,0.5,0,0.8
				c0.1,0.7,0.5,1.3,0.8,2.1l0,0c0.1,0.1,0.7,1.1,0.8,1.6c0,0.4,0.1,0.9,0,1.2c-0.1,0.1-0.4,0.3-0.4,0.5l-0.5,0.1
				c-0.1,0-0.3-0.1-0.4,0c-0.3-0.1-0.5-0.4-0.7-0.8c0-0.4,0.3-0.8,0-1.2c-0.1-0.1-0.1-0.3-0.4-0.4h-0.1l-0.3-0.1
				c-0.1-0.1-0.4,0-0.7,0.1v0.1l-0.1,0.3c0,0.1,0,0.3,0,0.4c-0.3,0.7,0.4,1.3,0.3,1.6h0.1c0,0.1,0.3,0.1,0.1,0.3
				c0.3,0.3,0.7,0.4,0.9,0.7c0.4,0.1,0.9,0.3,1.3,0.3c0.1,0,0.4-0.1,0.5-0.1c0,0,0,0,0.1,0.1c0-0.1,0.3,0,0.3-0.1c0,0,0,0,0-0.1
				c0.3,0,0.3-0.3,0.4-0.3c0.1-0.3,0.4-0.4,0.5-0.7v-0.1h0.1C70.2-42.1,70.2-42.1,70.4-42.2C70.2-42.1,70.4-42.1,70.4-42.2
				L70.4-42.2z M66.6-43.9C66.5-43.9,66.5-43.9,66.6-43.9C66.5-43.9,66.5-43.9,66.6-43.9L66.6-43.9c0-0.1,0-0.1,0-0.1
				C66.5-44.1,66.6-43.9,66.6-43.9L66.6-43.9 M68.1-49.7L68.1-49.7C68.1-49.7,68-49.7,68.1-49.7L68.1-49.7L68.1-49.7 M70.2-43.3
				C70.2-43.1,70.2-43.1,70.2-43.3C70.1-43.1,70.1-43.1,70.2-43.3C70.1-43.3,70.1-43.3,70.2-43.3L70.2-43.3 M71.7-46.9
				C71.7-46.9,71.8-46.9,71.7-46.9L71.7-46.9C71.8-46.7,71.7-46.7,71.7-46.9 M66.2-44.2L66.2-44.2L66.2-44.2
				C66.2-44.2,66.2-44.3,66.2-44.2L66.2-44.2L66.2-44.2z M70.2-42.9L70.2-42.9L70.2-42.9C70.1-42.9,70.1-42.9,70.2-42.9
				C70.1-43,70.2-43,70.2-42.9C70.2-43,70.2-43,70.2-42.9 M66.6-43.8L66.6-43.8C66.6-43.8,66.6-43.9,66.6-43.8L66.6-43.8L66.6-43.8
				L66.6-43.8z M65.7-43.7C65.7-43.7,65.6-43.7,65.7-43.7C65.6-43.7,65.6-43.7,65.7-43.7L65.7-43.7L65.7-43.7 M82.4-42.5
				C82.5-42.5,82.4-42.6,82.4-42.5v-0.1l0,0l0,0l0,0c0-0.1,0.1-0.3,0-0.4h0.1c0-0.1,0-0.1-0.1-0.3h-0.1h-0.1
				C82-43.4,82-43.4,82-43.5h-0.1v-0.1h-0.1l0,0l0,0l-1.1-0.7c-0.1-0.1-0.1-0.3-0.3-0.3h-0.1c-0.1-0.1-0.3-0.4-0.5-0.5
				c-0.3-0.1-0.7-0.4-0.9-0.4c-0.1,0.1-0.3,0.1-0.4,0.3c0,0,0,0,0,0.1S78.2-45,78.1-45c-0.1,0.1,0,0.3,0,0.3l0,0
				c0,0.3,0.1,0.4,0.3,0.5l0.1,0.1c0.1,0,0.1,0.1,0.3,0.1l0.3,0.3l0.1,0.1v0.1l-0.3,0.1v0.1c-0.1,0-0.1,0.1-0.1,0.1l-0.3,0.5h-0.1
				l0,0v0.1l-0.3,0.1v0.1l-0.3,0.4c0,0,0,0,0,0.1v0.1l0,0l0,0c0,0,0,0.1-0.1,0.1l-0.1,0.1c0,0.1-0.1,0.1-0.1,0.3
				c-0.1,0-0.1,0-0.1,0.1l-0.1,0.3H77v0.1l-0.1,0.1h-0.1l0,0v0.1l-0.1,0.3c0,0.1-0.1,0.1-0.3,0.3v0.1c0,0.1-0.1,0.1-0.3,0.1v0.1l0,0
				c0,0,0,0.1-0.1,0.3l-0.1,0.1l0,0l0,0l0,0c0,0,0.1,0.1,0,0.3s-0.3,0.1-0.3,0.3v0.1c0,0-0.1,0.1-0.1,0l0,0c0,0.1,0,0.1,0,0.3
				l-0.5,0.1c0,0,0,0,0,0.1h-0.1v0.4l0,0l0.1,0.3H75c0,0,0.1,0.1,0.3,0.1l0,0c0.3,0,0.7,0,0.9-0.1c0.7-0.8,1.2-1.7,1.9-2.5l1.2-1.7
				c0-0.1,0.1-0.3,0.1-0.3l0,0l0,0l0,0l0.1-0.1l0.5-0.9c0.3-0.4,0.5-0.4,0.8-0.3c0.1,0.1,0.3,0.4,0.5,0.4l0,0h0.1l0,0l0,0
				c0,0,0.3,0.1,0.3,0l0,0c0,0.1,0,0.1,0.1,0.1c0,0,0.3-0.1,0.3-0.3v-0.1v-0.1h-0.1C82.2-42.5,82.4-42.3,82.4-42.5L82.4-42.5z
				 M82.2-42.5L82.2-42.5h-0.1c0,0,0,0-0.1,0c0-0.1-0.1-0.1,0-0.3l0,0l0,0v-0.1l0,0l0,0c0,0,0,0-0.1,0l0,0l0,0l0,0
				c0.1,0.1,0.3,0,0.4,0l0,0c0,0-0.1,0.1-0.3,0.1l0,0l0,0C82.1-42.6,82.2-42.6,82.2-42.5 M82-43L82-43c-0.1,0-0.1,0-0.1,0s0,0-0.1,0
				l0,0c0-0.1,0-0.1,0-0.3h0.1v0.1L82-43L82-43 M82.4-42.9C82.4-42.9,82.4-43,82.4-42.9c-0.1-0.1-0.1,0-0.3,0l0,0l0,0
				C82.1-42.9,82.2-43,82.4-42.9C82.5-43,82.5-43,82.4-42.9L82.4-42.9z M81.8-42.5C81.8-42.6,81.7-42.5,81.8-42.5
				C81.7-42.5,81.7-42.5,81.8-42.5c-0.1,0-0.1,0-0.1,0h-0.1l0,0l0,0C81.6-42.6,81.7-42.6,81.8-42.5C81.7-42.6,81.7-42.6,81.8-42.5
				C81.8-42.6,81.8-42.6,81.8-42.5C81.8-42.6,81.8-42.6,81.8-42.5 M81.2-42.9C81.2-42.9,81.2-43,81.2-42.9
				C81.2-43,81.3-43,81.2-42.9C81.3-43,81.3-42.9,81.2-42.9C81.3-42.9,81.3-42.9,81.2-42.9 M82.1-43C82.1-42.9,82.1-42.9,82.1-43
				C82.1-43,82-43,82.1-43c0-0.1,0-0.1,0-0.1V-43L82.1-43L82.1-43 M76.8-40.1C76.6-40.1,76.6-40.1,76.8-40.1L76.8-40.1
				C76.8-40.2,76.8-40.2,76.8-40.1L76.8-40.1C76.8-40.2,76.8-40.1,76.8-40.1L76.8-40.1L76.8-40.1z M82-43.1L82-43.1
				c-0.1,0-0.1,0-0.1,0C82-43.3,82-43.3,82-43.1C82-43.3,82-43.3,82-43.1L82-43.1z M81.4-42.7L81.4-42.7
				C81.4-42.6,81.4-42.6,81.4-42.7C81.4-42.6,81.4-42.7,81.4-42.7L81.4-42.7L81.4-42.7L81.4-42.7z M81.6-42.2L81.6-42.2L81.6-42.2
				L81.6-42.2C81.6-42.3,81.6-42.3,81.6-42.2C81.7-42.3,81.7-42.2,81.6-42.2 M82-43.3C82-43.4,82-43.4,82-43.3L82-43.3
				C82-43.4,82-43.4,82-43.3C82.1-43.4,82.1-43.4,82-43.3C82.1-43.3,82.1-43.3,82-43.3L82-43.3z M81.6-41.9
				C81.6-41.9,81.6-42.1,81.6-41.9C81.6-42.1,81.6-42.1,81.6-41.9L81.6-41.9L81.6-41.9 M76.1-39L76.1-39L76.1-39
				C76.1-39.1,76.1-39.1,76.1-39C76.1-39.1,76.1-39,76.1-39L76.1-39z M76.6-39.9L76.6-39.9L76.6-39.9L76.6-39.9L76.6-39.9L76.6-39.9
				C76.8-39.9,76.8-39.9,76.6-39.9 M81.4-42.2L81.4-42.2L81.4-42.2L81.4-42.2C81.4-42.2,81.6-42.2,81.4-42.2L81.4-42.2z M75-37.1
				C75-37.1,75-37,75-37.1L75-37.1L75-37.1L75-37.1L75-37.1 M82-42.2L82-42.2C81.8-42.2,81.8-42.2,82-42.2L82-42.2L82-42.2L82-42.2z
				 M81.7-42.7L81.7-42.7C81.6-42.7,81.6-42.7,81.7-42.7C81.6-42.7,81.7-42.7,81.7-42.7L81.7-42.7L81.7-42.7z M81.8-42.6L81.8-42.6
				L81.8-42.6C81.7-42.7,81.7-42.7,81.8-42.6C81.7-42.7,81.8-42.7,81.8-42.6C81.8-42.7,81.8-42.6,81.8-42.6 M77.2-40.7L77.2-40.7
				L77.2-40.7L77.2-40.7L77.2-40.7 M77.2-40.2L77.2-40.2C77-40.3,77-40.3,77.2-40.2C77-40.3,77-40.3,77.2-40.2
				C77.2-40.3,77.2-40.3,77.2-40.2L77.2-40.2z M91.2-35.1c0.1-0.3,0.1-0.5,0-0.7c-0.1-0.1-0.4-0.3-0.5-0.4c-0.3-0.3-0.4-0.4-0.5-0.7
				l0,0c0,0-0.1,0-0.1-0.1c0,0,0,0,0-0.1c0,0,0-0.1-0.1-0.1h-0.1c0-0.1-0.1-0.1-0.1-0.3l-0.4-0.3c0,0-0.1-0.1-0.1-0.3l0,0
				c0-0.1-0.1,0-0.3-0.1c0,0,0,0,0-0.1l-0.1-0.1c-0.3-0.3-0.5-0.4-0.8-0.4l0,0h-0.1l0,0c-0.1,0.1-0.4,0.4-1.6,1.6
				c-0.1,0-0.3,0.1-0.4,0.3l-0.1,0.4c-0.1,0-0.1,0.1-0.3,0.3l-0.1,0.1c-0.1,0.1-0.3,0.3-0.4,0.4c0,0,0,0-0.1,0.1h-0.3l-0.1,0.1
				l-0.4,0.3c-0.1,0.1-0.3,0.4-0.4,0.5s-0.3,0.3-0.4,0.4c-0.1,0-0.1,0.1-0.3,0.1c-0.1,0.1-0.1,0.3-0.3,0.3c0,0-0.1,0-0.3,0.1l0,0
				c0,0-0.1,0.1-0.1,0.3c0,0,0,0-0.1,0h-0.1c-0.1,0.1-0.1,0.3-0.1,0.4c0,0,0,0-0.1,0c-0.1,0.1,0.1,0.3,0,0.4l0,0
				c0.3,0,0.3,0.3,0.5,0.4l0.1,0.1c0.3,0.3,0.4,0.5,0.5,0.7l0.1,0.1c0,0.1,0.1,0.1,0.1,0.3l0.8,0.8l0.1,0.1l0,0l0.1,0.3l0.1,0.1v0.1
				c0,0,0.1,0,0.3,0.1l0,0c0.3,0.1,0.4-0.1,0.7-0.3c0,0,0.1,0,0.1-0.1c0.1-0.1,0.3-0.3,0.1-0.5c-0.4-0.5-0.8-0.9-1.3-1.5
				c-0.3-0.3-0.7-0.7-0.9-0.9c0-0.1,0-0.3,0.1-0.4c0.5-0.5,1.1-1.1,1.6-1.5c0.1,0,0.3,0,0.4,0c0.1,0.1,0.3,0.4,0.4,0.5l0.7,0.7
				c0.1,0.1,0.3,0.3,0.4,0.4c0.3,0,0.4,0.3,0.7,0.4l0.3-0.1l0.1-0.1c0.1-0.1,0.3-0.3,0.1-0.4c0-0.3-0.3-0.4-0.3-0.5h-0.1
				c-0.3-0.4-0.5-0.7-0.8-0.9c0-0.1-0.1-0.1-0.3-0.3c-0.1,0-0.3-0.1-0.4-0.3S86-35.7,86-35.8c0.1-0.1,0.3-0.4,0.5-0.5l1.1-0.9
				l0.1-0.1c0.1-0.1,0.3,0,0.4,0l0.1,0.1c0,0,0.1,0,0.1,0.1c0.3,0.3,0.5,0.7,0.8,0.9c0.1,0.1,0.3,0.3,0.4,0.4l0,0
				c0.3,0.3,0.5,0.5,0.8,0.7C90.8-34.7,90.9-35,91.2-35.1 M85.6-36.2v-0.1l0,0l0,0C85.7-36.3,85.6-36.3,85.6-36.2L85.6-36.2
				L85.6-36.2z M84.8-29.5C84.6-29.5,84.6-29.5,84.8-29.5C84.5-29.5,84.5-29.5,84.8-29.5L84.8-29.5C84.6-29.7,84.6-29.7,84.8-29.5
				L84.8-29.5 M89.4-37.1L89.4-37.1C89.3-37.1,89.3-37.3,89.4-37.1C89.3-37.3,89.4-37.3,89.4-37.1C89.4-37.3,89.4-37.3,89.4-37.1
				C89.4-37.3,89.4-37.1,89.4-37.1L89.4-37.1z M87.6-38.2C87.6-38.2,87.4-38.2,87.6-38.2h-0.1l0,0C87.4-38.3,87.6-38.2,87.6-38.2
				L87.6-38.2 M87.8-38.6C87.8-38.5,87.8-38.5,87.8-38.6C87.8-38.5,87.8-38.5,87.8-38.6L87.8-38.6L87.8-38.6L87.8-38.6L87.8-38.6z
				 M91-21.4c0.5-0.7,1.2-1.2,1.7-1.7c0.4-0.4,0.8-0.8,1.1-1.2c0,0,0,0,0.1-0.1s0.4,0,0.5,0c0.7,0.1,1.3,0,1.9-0.3
				c0.3-0.1,0.5-0.4,0.8-0.8c0.3-0.5,0.4-1.2,0.1-1.9v-0.1c-0.1-0.4-0.3-0.7-0.5-1.1l-0.5-0.8v-0.1l-0.1-0.3H96
				c-0.4,0.3-0.8,0.5-1.2,0.8l-0.3,0.1c0,0,0,0,0,0.1c-0.4,0.1-0.7,0.4-1.1,0.5l-2.7,1.6c-0.1,0.1-0.3,0.3-0.5,0.4l-0.4,0.3l0,0
				c-0.3,0.1-0.3,0.1-0.4,0.3c-0.1,0.1-0.4,0.3-0.5,0.3c-0.3,0.1-0.4,0.3-0.7,0.4c0.1,0.1,0.1,0.3,0.3,0.4c0,0,0.1,0.1,0.1,0.3l0,0
				c0.1,0.1,0.3,0.3,0.3,0.3s0.4-0.3,0.7-0.4c0.5-0.4,1.2-0.8,1.7-1.2l0.3-0.1h0.1l0.3-0.3c0.1,0,0.1-0.1,0.3-0.1
				c0.1,0.1,0.1,0.1,0.3,0.3l0.4,0.7l0.1,0.1v0.1c-0.3,0.3-0.7,0.7-0.9,0.9c-0.4,0.4-0.9,0.9-1.3,1.3c-0.1,0.3-0.4,0.3-0.4,0.4l0,0
				c-0.1,0.1-0.3,0.4-0.3,0.4s0.1,0.3,0.3,0.3c0.1,0.1,0.1,0.3,0.3,0.4s0.1,0.1,0.3,0C90.9-21.3,91-21.4,91-21.4 M96-25.9
				c-0.1,0-0.1,0.1-0.3,0.1c-0.4,0.3-0.9,0.4-1.5,0.1c-0.3-0.1-0.4-0.3-0.5-0.5l-0.4-0.5c0.1-0.1,0.3-0.3,0.7-0.5
				c0.1-0.1,0.3-0.3,0.5-0.3v-0.1l0,0c0.1-0.1,0.4-0.3,0.7-0.3c0-0.1,0.1-0.1,0.1-0.1c0.1,0,0.1-0.1,0.3,0c0.1,0,0.3,0.1,0.4,0.3
				c0.1,0.1,0.1,0.4,0.3,0.4c0.3,0.4,0.1,0.8,0,1.3l0,0C96.1-26.2,96.1-25.9,96-25.9 M88.9-24.2c0,0-0.1,0-0.1-0.1l0,0L88.9-24.2
				C88.9-24.2,89-24.2,88.9-24.2l0.1-0.1l0.1-0.1l0,0c0,0,0,0-0.1,0.1L88.9-24.2C89-24.2,88.9-24.2,88.9-24.2 M90.8-21.3L90.8-21.3
				L90.8-21.3L90.8-21.3c0.1-0.1,0.1-0.3,0.1-0.3l0,0l0,0C91-21.5,90.9-21.3,90.8-21.3L90.8-21.3 M94.5-28.7L94.5-28.7
				C94.5-28.9,94.5-28.9,94.5-28.7L94.5-28.7C94.5-28.9,94.6-28.9,94.5-28.7C94.6-28.9,94.6-28.9,94.5-28.7
				C94.6-28.9,94.6-28.7,94.5-28.7C94.6-28.7,94.5-28.7,94.5-28.7 M90.8-21.4C90.8-21.4,90.6-21.4,90.8-21.4
				C90.6-21.4,90.6-21.4,90.8-21.4L90.8-21.4C90.8-21.5,90.8-21.5,90.8-21.4L90.8-21.4L90.8-21.4 M90.5-22.3
				C90.5-22.3,90.5-22.5,90.5-22.3C90.5-22.5,90.5-22.5,90.5-22.3L90.5-22.3C90.6-22.5,90.6-22.3,90.5-22.3L90.5-22.3L90.5-22.3z
				 M94.1-24.2C94.1-24.2,94.1-24.3,94.1-24.2C94.1-24.3,94-24.3,94.1-24.2C94-24.3,94-24.3,94.1-24.2L94.1-24.2
				C94-24.2,94-24.2,94.1-24.2L94.1-24.2z M97.4-27.4C97.4-27.3,97.6-27.4,97.4-27.4c0.1,0,0.1-0.1,0.1-0.1l0,0l0,0
				C97.6-27.5,97.6-27.4,97.4-27.4L97.4-27.4L97.4-27.4L97.4-27.4L97.4-27.4 M94.4-24.5h-0.1l0,0C94.2-24.3,94.2-24.3,94.4-24.5
				C94.2-24.3,94.2-24.3,94.4-24.5C94.4-24.3,94.4-24.3,94.4-24.5L94.4-24.5z M96.2-26.2C96.2-26.2,96.2-26.1,96.2-26.2
				C96.2-26.1,96.2-26.1,96.2-26.2C96.2-26.1,96.1-26.1,96.2-26.2C96.1-26.1,96.1-26.1,96.2-26.2L96.2-26.2z M94.5-27.7
				C94.4-27.7,94.4-27.7,94.5-27.7C94.4-27.7,94.4-27.8,94.5-27.7C94.5-27.8,94.5-27.8,94.5-27.7L94.5-27.7L94.5-27.7L94.5-27.7
				 M88.5-24.7C88.5-24.7,88.5-24.9,88.5-24.7C88.5-24.9,88.5-24.9,88.5-24.7C88.5-24.9,88.5-24.9,88.5-24.7
				C88.5-24.9,88.5-24.7,88.5-24.7L88.5-24.7L88.5-24.7z M90.9-21.5L90.9-21.5C90.8-21.4,90.8-21.5,90.9-21.5L90.9-21.5
				C90.8-21.5,90.8-21.5,90.9-21.5C90.8-21.5,90.8-21.5,90.9-21.5C90.8-21.5,90.9-21.5,90.9-21.5L90.9-21.5 M94-24.2L94-24.2
				C94-24.2,93.8-24.2,94-24.2C93.8-24.2,93.8-24.2,94-24.2C93.8-24.2,93.8-24.2,94-24.2L94-24.2z M88.6-24.5L88.6-24.5
				C88.6-24.6,88.6-24.6,88.6-24.5C88.6-24.6,88.6-24.6,88.6-24.5C88.6-24.6,88.6-24.6,88.6-24.5L88.6-24.5L88.6-24.5 M94.5-24.3
				L94.5-24.3L94.5-24.3L94.5-24.3L94.5-24.3 M95.6-28.1C95.6-28.2,95.6-28.2,95.6-28.1C95.6-28.2,95.4-28.2,95.6-28.1
				C95.4-28.2,95.4-28.2,95.6-28.1C95.4-28.1,95.6-28.1,95.6-28.1 M91-21.5C91-21.7,91-21.7,91-21.5C91.2-21.7,91.2-21.7,91-21.5
				C91.2-21.7,91.2-21.5,91-21.5L91-21.5z M90.6-22.7L90.6-22.7L90.6-22.7L90.6-22.7L90.6-22.7L90.6-22.7z M93.7-23.9L93.7-23.9
				L93.7-23.9C93.7-23.9,93.6-23.9,93.7-23.9L93.7-23.9L93.7-23.9 M103.3-14.9c0.1-0.1,0.3-0.4,0.3-0.7c-0.1-0.1-0.3-0.4-0.3-0.5
				c-0.3-0.4-0.3-0.7-0.4-0.9l0,0l-0.1-0.1c0,0,0,0,0-0.1v-0.1c0,0,0,0-0.1,0c0-0.1,0-0.1,0-0.3l-0.3-0.4c0-0.1,0-0.1,0-0.3l0,0
				c0-0.1-0.1-0.1-0.1-0.1l0,0c0-0.1,0-0.1,0-0.3c-0.1-0.3-0.3-0.5-0.5-0.7l0,0h-0.1l0,0c-0.1,0-0.5,0.3-2,0.8c-0.1,0-0.3,0-0.4,0.1
				l-0.3,0.1c-0.1,0-0.1,0-0.3,0.1l-0.3,0.1c-0.1,0-0.4,0.1-0.5,0.1c-0.3-0.4-0.3-0.4-0.3-0.4h-0.3c0,0-0.1,0-0.1,0.1h-0.5
				c-0.1,0.1-0.4,0.3-0.7,0.3c-0.3,0.1-0.4,0.1-0.7,0.3c-0.1,0-0.3,0-0.3,0c-0.1,0-0.3,0.1-0.4,0.1c-0.1,0-0.1,0-0.3,0l0,0
				c-0.1,0-0.1,0.1-0.3,0.1H94h-0.1c-0.1,0-0.1,0.3-0.3,0.3h-0.1c-0.1,0-0.1,0.4-0.3,0.4l0,0c0.1,0.1,0.1,0.4,0.3,0.5v0.1
				c0.1,0.3,0.1,0.7,0.1,0.9v0.1c0,0.1,0,0.1,0.1,0.3l0.4,1.1c0,0.1,0,0.1,0,0.3l0,0v0.4c0,0,0,0.1,0.1,0.1c0,0,0,0,0,0.1
				c0,0,0.1,0.1,0.1,0.3l0,0c0.1,0.3,0.5,0,0.7,0h0.1c0.3-0.1,0.3-0.3,0.4-0.4c-0.1-0.7-0.4-1.2-0.5-1.9c-0.1-0.4-0.3-0.8-0.5-1.2
				c0-0.1,0.1-0.3,0.3-0.4c0.8-0.3,1.5-0.5,2.1-0.7c0.1,0,0.3,0.1,0.3,0.3c0,0.3,0.1,0.4,0.1,0.7l0.3,0.9c0,0.1,0.1,0.4,0.1,0.5
				c0.3,0.1,0.1,0.4,0.4,0.7h0.3l0.3-0.1c0.1,0,0.3-0.1,0.4-0.4c0-0.3-0.1-0.5-0.1-0.7h-0.1c-0.1-0.4-0.3-0.8-0.3-1.2
				c0-0.1,0-0.1-0.1-0.3c0.5-0.1,0.4-0.3,0.4-0.4s0-0.3,0-0.4c0.3-0.1,0.4-0.1,0.7-0.3l1.3-0.4h0.3c0.1,0,0.3,0.1,0.3,0.1v0.3
				c0,0,0,0.1,0.1,0.1c0.1,0.4,0.3,0.8,0.3,1.2c0.1,0.1,0.1,0.3,0.1,0.5v0.1c0.1,0.4,0.3,0.7,0.5,0.9
				C102.6-14.7,103-14.9,103.3-14.9 M98.6-18.3c0,0,0-0.1,0.1-0.1l0,0l0,0L98.6-18.3L98.6-18.3L98.6-18.3z M95-12.6
				C95-12.6,94.9-12.6,95-12.6c-0.1,0-0.1-0.1-0.1-0.1l0,0C95-12.7,95-12.7,95-12.6L95-12.6 M102.5-17.5L102.5-17.5
				c-0.1-0.1-0.1-0.1,0-0.1c0,0,0,0,0.1,0C102.5-17.7,102.5-17.5,102.5-17.5C102.6-17.5,102.5-17.5,102.5-17.5L102.5-17.5z
				 M101.3-19.3C101.2-19.1,101.2-19.3,101.3-19.3L101.3-19.3l-0.1-0.1C101.2-19.4,101.3-19.3,101.3-19.3L101.3-19.3 M101.7-19.4
				L101.7-19.4C101.7-19.4,101.6-19.4,101.7-19.4L101.7-19.4C101.6-19.5,101.6-19.5,101.7-19.4C101.7-19.5,101.7-19.5,101.7-19.4
				L101.7-19.4z M104.9-7.4C104.9-7.4,105-7.4,104.9-7.4c0.1,0,0.1,0,0.3,0c0.3,0,0.5-0.3,0.7-0.5c-0.1-0.4-0.4-0.8-0.8-0.8
				l-2.7,0.5c-0.5,0.1-1.3,0.1-2,0.3c-0.3,0-0.4,0.1-0.7,0.3c-0.3,0-0.5,0-0.9,0.1l-0.4,0.1c0,0,0,0-0.1,0c0,0,0,0-0.1,0
				c0,0-0.1,0-0.3,0l-0.9,0.1c-0.3,0-0.4,0.1-0.5,0.4c0,0.3-0.1,0.4,0,0.7c0,0.1,0,0.3,0.1,0.3c0.4,0.1,0.7,0.1,1.1,0
				c0.1,0,0.1-0.1,0.3-0.1h0.3c0.1,0,0.1,0,0.3-0.1c0,0,0,0,0.1,0s0.1-0.1,0.3-0.1h0.4h0.1h0.7c0.1,0,0.3,0,0.3-0.1h0.4h0.1l0.4-0.1
				l0,0h0.1c0,0,0,0,0-0.1l0,0l0,0c0,0,0,0,0.1-0.1c0.1,0,0.4,0,0.5,0h0.1c0.1,0,0.3,0,0.5,0l1.1-0.3c0.1,0,0.3,0,0.3,0
				c0.1,0,0.1,0,0.3,0h0.3C104.6-7.4,104.8-7.4,104.9-7.4L104.9-7.4z M97.2-7C97.2-6.9,97.2-7,97.2-7C97-7,97-7,97-7S97-7,97.2-7
				C97.2-7,97.3-7,97.2-7L97.2-7L97.2-7L97.2-7z M100.9-7.7L100.9-7.7C100.9-7.8,100.9-7.8,100.9-7.7C100.9-7.8,100.9-7.8,100.9-7.7
				L100.9-7.7z M100.5-7.7L100.5-7.7L100.5-7.7C100.4-7.7,100.4-7.7,100.5-7.7C100.4-7.7,100.4-7.7,100.5-7.7 M105.3-8.3L105.3-8.3
				C105.3-8.3,105.2-8.3,105.3-8.3C105.2-8.3,105.2-8.3,105.3-8.3L105.3-8.3L105.3-8.3C105.2-8.5,105.3-8.5,105.3-8.3L105.3-8.3z
				 M99.7-7.5L99.7-7.5C99.7-7.7,99.7-7.7,99.7-7.5L99.7-7.5L99.7-7.5L99.7-7.5z"/>
		</g>
		<g id="g40" transform="translate(7.0693,43.3008)">
			<path id="path42" class="st5" d="M2.4,23.4c0.4-0.1,0.8-0.3,0.9-0.5c0.5-0.3,0.3-0.8,0.4-1.3c-0.1-0.1-0.3-0.3-0.3-0.5
				c0-0.1,0-0.1,0-0.3c-0.1-0.3-0.3-0.4-0.5-0.5C2.8,20,2.2,20,2.1,19.9c-0.3,0-0.3-0.1-0.4-0.1s-0.1,0.1-0.3,0.1s-0.3,0-0.4,0
				s-0.1,0-0.1,0.1c0,0.4-0.4,0.1-0.4,0.5l0,0c-0.1,0-0.3,0.1-0.3,0.3c0,0.1,0,0.1,0.1,0.1c-0.1,0.1-0.1,0.3,0,0.4
				c0,0.3,0.1,0.4,0.1,0.7v0.1l0,0c0,0.1,0,0.1,0,0.3s0,0.3,0.3,0.3v0.1C0.8,23,1,23,1,23.2c0.1,0.1,0.3,0.1,0.4,0.1h0.4H2
				c0,0,0,0,0,0c0.1,0,0.1,0,0.3-0.1L2.4,23.4 M3.3,22.7L3.3,22.7v-0.1c0-0.1,0.1-0.1,0.1-0.3c0,0,0,0,0,0.1S3.4,22.7,3.3,22.7
				L3.3,22.7 M0.8,22.7C0.8,22.7,0.6,22.6,0.8,22.7c-0.1-0.1,0-0.3,0-0.3l0,0h0.1l0,0C0.9,22.6,0.9,22.6,0.8,22.7L0.8,22.7z M1.2,23
				C1.2,23,1,23,1.2,23C1,23,1,23,1,22.8l0,0c0,0,0-0.1,0.1-0.1C1.2,22.8,1.2,22.8,1.2,23L1.2,23 M3,20.7L3,20.7
				c-0.1-0.1,0-0.1,0-0.1l0,0C3.2,20.6,3.2,20.6,3,20.7C3.2,20.7,3.2,20.7,3,20.7L3,20.7z M3.3,22.3C3.3,22.3,3.2,22.3,3.3,22.3
				c0-0.1,0-0.1,0-0.1S3.4,22.2,3.3,22.3C3.4,22.3,3.3,22.3,3.3,22.3L3.3,22.3z M3.2,21.1L3.2,21.1c0-0.1,0-0.1,0-0.1l0,0
				C3.2,21,3.3,21,3.2,21.1L3.2,21.1C3.3,21.1,3.2,21.1,3.2,21.1L3.2,21.1 M2.1,23C2.1,23,2.1,22.8,2.1,23c0.1-0.1,0.1,0,0.1,0
				S2.2,23,2.1,23L2.1,23L2.1,23z M0.6,21.2C0.5,21.2,0.5,21.2,0.6,21.2L0.6,21.2c-0.1-0.1-0.1-0.1,0-0.1l0,0
				C0.6,21.1,0.6,21.1,0.6,21.2L0.6,21.2 M0.8,22.3C0.6,22.3,0.6,22.2,0.8,22.3c0-0.1,0-0.1,0-0.1l0,0C0.8,22,0.8,22.2,0.8,22.3
				C0.8,22.2,0.8,22.2,0.8,22.3L0.8,22.3z M2,23.2C2,23.1,2.1,23.1,2,23.2c0.1,0,0.1,0,0.1,0S2.1,23.2,2,23.2
				C2.1,23.2,2,23.2,2,23.2L2,23.2z M1.7,23.2L1.7,23.2C1.7,23.1,1.7,23.1,1.7,23.2L1.7,23.2C1.8,23.1,1.8,23.1,1.7,23.2
				C1.8,23.1,1.8,23.2,1.7,23.2L1.7,23.2z M2,35.5l0.5-0.1l0,0c0.3,0,0.4-0.1,0.4-0.4v-0.4l0,0c0-0.1-0.3-0.4-0.4-0.4l0,0
				c0,0,0,0-0.1,0c0,0,0,0-0.1,0.1H2c0,0,0,0-0.1,0c-0.1-0.1-0.3,0-0.4-0.1C1.2,34.3,1.2,34,1,34c-0.1-0.1-0.3-0.4-0.4-0.7
				c-0.1-0.7,0.1-0.9,0.5-1.2L1.7,32c0.1,0,0.3-0.1,0.4-0.1l2-0.5c0.1,0,0.3-0.1,0.4-0.1s0.3-0.1,0.4-0.1l0.9-0.3
				c0.1,0,0.1-0.1,0.3-0.1c0.1,0,0.3,0,0.5,0c0.1,0.3,0.7,0.1,0.8,0.5l0,0v0.3c0,0,0,0.1,0.1,0.1l0,0c0.1,0.7-0.3,1.1-0.7,1.2l0,0
				c-0.3,0-0.5,0.1-0.7,0.4c0.3,0.3,0.1,0.9,0.9,0.8c0.4-0.1,0.8-0.4,1.1-0.7c0.1-0.3,0.4-0.4,0.4-0.7c0.3-0.3,0.1-1.3,0.1-1.3
				c0-0.4-0.3-0.5-0.3-0.8l0,0c-0.1,0-0.1,0-0.1-0.1l0,0c-0.3-0.1-0.4-0.3-0.5-0.5l0,0H7.7l0,0c0-0.1-0.3,0-0.3-0.3l0,0
				c-0.1,0-0.3-0.1-0.4-0.1l0,0c0-0.1-0.4-0.1-0.4-0.1l-0.3,0.1H6.2c0,0,0,0.1-0.1,0.1H5.8c0,0,0,0,0,0.1c-0.1,0-0.1,0-0.1,0
				c-0.1,0-0.1,0.1-0.3,0.1c-0.1,0-0.1,0-0.3,0V30c0,0-0.1,0-0.3,0l0,0v0.1H4.8l0,0c0,0,0,0.1-0.1,0.1H4.5c0,0,0,0-0.1,0.1H4.2V30
				H4.1l0,0c0,0-0.1,0.1-0.3,0.1c-0.1,0-0.1,0-0.3,0l-0.1,0.1H3.3c0,0,0,0-0.1,0c0,0,0,0-0.1,0l-0.1,0.1c0,0-0.1,0-0.3,0l-0.1,0.1
				H2.4c0,0,0,0-0.1,0l-0.4,0.1l-0.1,0.1H1.6c0,0,0,0.1-0.1,0.1H1.2c0,0-0.1,0-0.1,0.1H0.9l-0.1,0.1l0,0H0.6c0,0,0,0.1-0.1,0.1H0.4
				c0,0,0,0-0.1,0.1l0,0c0,0.1-0.1,0.1-0.3,0.3l0,0c0,0.1-0.1,0.1-0.1,0.3l0,0c-0.1,0.1-0.4,0.7-0.3,0.8l0,0c-0.1,0.1,0,0.4-0.1,0.7
				v0.1c0,0.1,0,0.3,0,0.4l0.3,0v0.1c0.1,0,0.1,0.1,0.1,0.1v0.1c0.4,0.4,0.8,0.9,1.5,0.9C1.4,35.5,1.7,35.4,2,35.5L2,35.5z
				 M6.4,29.8L6.4,29.8c-0.1,0-0.1,0-0.1-0.1l0,0l0,0C6.2,29.6,6.4,29.6,6.4,29.8c0.1-0.1,0.1-0.1,0.1-0.1l0,0
				C6.5,29.5,6.5,29.6,6.4,29.8L6.4,29.8C6.4,29.6,6.4,29.6,6.4,29.8 M2.8,30.7L2.8,30.7c0-0.1,0-0.1,0-0.1h0.1
				C2.9,30.7,2.9,30.7,2.8,30.7L2.8,30.7 M1.8,31.1C1.7,31.1,1.7,31.1,1.8,31.1C1.7,31.1,1.7,31,1.8,31.1C1.8,31,1.7,31,1.7,31l0,0
				c0.1,0,0.1,0,0.1,0V31.1L1.8,31.1 M2.1,31C2,31,2,31,2.1,31c-0.1,0,0-0.1,0-0.1S2.1,30.8,2.1,31C2.1,30.8,2.1,31,2.1,31
				 M6.5,29.8C6.5,29.8,6.4,29.8,6.5,29.8C6.4,29.6,6.4,29.6,6.5,29.8C6.5,29.6,6.5,29.6,6.5,29.8C6.6,29.8,6.5,29.8,6.5,29.8
				L6.5,29.8z M4,30.4C4,30.4,4,30.3,4,30.4C4,30.3,4.1,30.3,4,30.4C4.1,30.4,4,30.4,4,30.4 M6.1,29.8L6.1,29.8
				C6.1,29.8,6.1,29.6,6.1,29.8C6.1,29.6,6.1,29.6,6.1,29.8C6.2,29.8,6.1,29.8,6.1,29.8L6.1,29.8z M7.8,30L7.8,30L7.8,30
				C7.8,29.9,7.8,29.9,7.8,30L7.8,30L7.8,30z M6,29.8L6,29.8L6,29.8C5.8,29.8,6,29.6,6,29.8C6,29.6,6,29.6,6,29.8L6,29.8 M2.5,34.3
				L2.5,34.3L2.5,34.3C2.5,34.3,2.4,34.3,2.5,34.3C2.4,34.3,2.4,34.3,2.5,34.3L2.5,34.3z M0.4,31.8L0.4,31.8
				C0.5,31.6,0.5,31.8,0.4,31.8C0.5,31.8,0.5,31.8,0.4,31.8C0.5,31.8,0.5,31.8,0.4,31.8L0.4,31.8z M0.1,31.8
				C0.1,31.8,0,31.8,0.1,31.8C0,31.8,0,31.8,0.1,31.8L0.1,31.8L0.1,31.8C0.1,31.9,0.1,31.9,0.1,31.8 M3.6,30.6L3.6,30.6
				C3.6,30.4,3.6,30.4,3.6,30.6C3.6,30.4,3.7,30.4,3.6,30.6C3.7,30.4,3.6,30.4,3.6,30.6 M5.7,29.9L5.7,29.9
				C5.7,29.9,5.7,29.8,5.7,29.9C5.7,29.8,5.7,29.9,5.7,29.9L5.7,29.9L5.7,29.9 M4.2,30.3L4.2,30.3L4.2,30.3L4.2,30.3
				c0-0.1,0-0.1,0-0.1S4.2,30.2,4.2,30.3C4.2,30.2,4.2,30.3,4.2,30.3 M2.2,30.8C2.2,30.8,2.4,30.8,2.2,30.8
				C2.4,30.8,2.4,30.8,2.2,30.8C2.4,30.8,2.4,30.8,2.2,30.8C2.4,30.8,2.4,30.8,2.2,30.8L2.2,30.8z M1.4,31.1L1.4,31.1
				C1.4,31.1,1.4,31,1.4,31.1C1.4,31,1.4,31,1.4,31.1C1.6,31.1,1.6,31.1,1.4,31.1L1.4,31.1z M8,30.3C8,30.3,8.1,30.3,8,30.3
				C8.1,30.3,8.1,30.3,8,30.3C8.1,30.3,8.1,30.3,8,30.3L8,30.3 M1.2,31.2L1.2,31.2L1.2,31.2C1,31.2,1.2,31.1,1.2,31.2
				C1.2,31.1,1.2,31.1,1.2,31.2C1.2,31.1,1.2,31.2,1.2,31.2 M6.6,29.6C6.6,29.6,6.8,29.6,6.6,29.6C6.8,29.6,6.8,29.8,6.6,29.6
				C6.6,29.8,6.6,29.8,6.6,29.6C6.6,29.8,6.6,29.6,6.6,29.6 M6.5,33.1L6.5,33.1L6.5,33.1L6.5,33.1L6.5,33.1 M3.2,30.6L3.2,30.6
				L3.2,30.6C3.2,30.6,3.2,30.4,3.2,30.6C3.3,30.4,3.2,30.6,3.2,30.6L3.2,30.6z M6.2,29.6L6.2,29.6C6.2,29.8,6.2,29.8,6.2,29.6
				L6.2,29.6C6.2,29.8,6.2,29.6,6.2,29.6 M0.2,31.9C0.2,31.9,0.1,31.9,0.2,31.9C0.1,31.9,0.1,31.8,0.2,31.9
				C0.2,31.8,0.2,31.8,0.2,31.9L0.2,31.9 M5.8,46.4c0.3-0.4,0.1-0.7,0-1.1l-0.5-0.8l-0.1-0.1C5,44.2,4.8,44,4.8,43.8
				c-0.1-0.1-0.1-0.4,0-0.7c0.5-0.3,0.9-0.5,1.6-0.7C6.6,42.3,7,42,7.3,41.9l2.5-1.3c0.1,0,0.1,0,0.1,0c0.3-0.1,0.4-0.3,0.7-0.4
				l0.5-0.3c0.3-0.1,0.4-0.3,0.3-0.5l0,0v-0.1c-0.3,0-0.4-0.4-0.5-0.5h-0.1c0,0,0,0-0.1,0.1c-0.1,0-0.3,0-0.4,0.1
				c-0.3,0.1-0.4,0.3-0.5,0.4L7,40.8c-0.1,0-0.1,0-0.3,0.1c-0.1,0-0.1,0.1-0.3,0.1c-0.3,0.1-0.5,0.1-0.8,0.3
				c-0.3,0.1-0.5,0.3-0.8,0.4c0,0,0,0.1-0.1,0.1c-0.1,0-0.3,0-0.3,0.1c0,0-0.1,0-0.1,0.1c-0.1,0-0.3,0-0.4,0s-0.3,0.1-0.3,0.3H3.6
				l-0.1,0.1c0,0,0,0-0.1,0v0.1c-0.1,0-0.1,0-0.1,0l0,0l0,0c0,0,0,0-0.1,0l0,0l0,0l0,0v0.1l0,0c0,0,0,0-0.1,0.1c0,0,0,0-0.1,0v0.1
				l0,0v0.1l0.4,0.1c0,0,0,0,0,0.1l0,0v0.1h0.1h0.1c0,0,0,0.1,0,0.3l0,0L3.6,44c0.1,0.1,0.3,0.3,0.4,0.5c0.3,0.4,0.4,0.8,0.5,1.2
				l0.3,0.7c0,0.1,0.1,0.3,0.3,0.3c0.1,0.1,0.4,0.1,0.5,0L5.8,46.4z M3.7,42.7L3.7,42.7C3.7,42.8,3.6,42.7,3.7,42.7L3.7,42.7
				C3.6,42.7,3.6,42.7,3.7,42.7L3.7,42.7L3.7,42.7L3.7,42.7 M4.6,46v-0.1l0,0C4.6,45.9,4.8,46,4.6,46 M4.9,46.3
				C4.9,46.2,4.9,46.2,4.9,46.3L4.9,46.3L4.9,46.3C4.9,46.2,5,46.2,4.9,46.3C5,46.2,5,46.2,4.9,46.3L4.9,46.3L4.9,46.3 M5.2,46.4
				C5.2,46.4,5,46.4,5.2,46.4C5,46.4,5,46.4,5.2,46.4L5.2,46.4L5.2,46.4C5,46.3,5.2,46.3,5.2,46.4L5.2,46.4 M3.8,42.7L3.8,42.7
				C3.8,42.6,3.8,42.6,3.8,42.7C3.8,42.6,3.8,42.6,3.8,42.7C3.8,42.6,3.8,42.6,3.8,42.7L3.8,42.7z M4.5,45.6L4.5,45.6
				C4.5,45.6,4.5,45.5,4.5,45.6L4.5,45.6C4.5,45.5,4.5,45.5,4.5,45.6L4.5,45.6 M4.4,42.3L4.4,42.3L4.4,42.3L4.4,42.3L4.4,42.3
				C4.5,42.3,4.5,42.3,4.4,42.3 M18.4,50.8c0.1-0.3,0.1-0.5,0-0.7c-0.1-0.1-0.4-0.3-0.5-0.4c-0.1-0.3-0.4-0.5-0.5-0.7l0,0
				c0,0-0.1,0-0.1-0.1c0,0,0,0,0-0.1c0,0,0-0.1-0.1-0.1h-0.1c0-0.1,0-0.1-0.1-0.3L16.4,48c0,0-0.1-0.1-0.1-0.3l0,0
				c0-0.1-0.1,0-0.3-0.1c0,0,0,0,0-0.1s-0.1-0.1-0.1-0.3c-0.1-0.3-0.5-0.4-0.8-0.4l0,0h-0.1l0,0c-0.1,0.1-0.4,0.4-1.6,1.5
				c-0.1,0-0.3,0.1-0.4,0.3l-0.3,0.1c-0.1,0-0.1,0.1-0.3,0.1L12.2,49c-0.1,0.1-0.3,0.3-0.5,0.3c0,0,0,0-0.1,0.1l0.1,0.4l-0.1,0.1
				L11,50.2c-0.1,0.1-0.3,0.4-0.5,0.5c-0.1,0.1-0.4,0.3-0.5,0.4c-0.1,0-0.1,0.1-0.3,0.1c-0.1,0.1-0.3,0.1-0.3,0.3c0,0-0.1,0-0.3,0.1
				l0,0c0,0-0.1,0.1-0.1,0.3H8.9H8.8c-0.1,0-0.1,0.3-0.1,0.3H8.5c-0.1,0.1,0,0.4-0.1,0.4l0,0C8.6,52.7,8.6,53,8.9,53L9,53.1
				c0.3,0.3,0.3,0.5,0.5,0.8L9.7,54c0,0.1,0.1,0.1,0.1,0.3l0.8,0.8l0.1,0.1l0,0l0.1,0.3l0.1,0.1c0,0,0,0,0,0.1c0,0,0.1,0,0.3,0.1
				l0,0c0.3,0.1,0.4-0.1,0.7-0.1c0,0,0.1,0,0.1-0.1c0.1-0.1,0.3-0.3,0.1-0.5c-0.4-0.5-0.8-1.1-1.2-1.5c-0.3-0.4-0.5-0.7-0.9-0.9
				c0-0.1,0-0.3,0.1-0.4c0.7-0.5,1.2-0.9,1.7-1.3c0.1,0,0.3,0,0.4,0.1c0.1,0.1,0.3,0.4,0.4,0.5l0.5,0.7c0.1,0.1,0.3,0.3,0.3,0.5
				c0.3,0,0.3,0.4,0.7,0.4l0.3-0.1l0.1-0.1c0.1-0.1,0.3-0.3,0.3-0.4c0-0.3-0.3-0.4-0.3-0.5h-0.1c-0.3-0.4-0.4-0.7-0.7-0.9
				c0-0.1-0.1-0.1-0.3-0.3c-0.1-0.1-0.3-0.1-0.4-0.3C13,50.4,13,50.3,13,50.2c0.1-0.1,0.4-0.3,0.5-0.5l1.5-0.9l0.1-0.1
				c0.1-0.1,0.3,0,0.3,0.1l0.1,0.1c0,0,0.1,0,0.1,0.1c0.3,0.3,0.5,0.7,0.7,1.1c0.1,0.1,0.3,0.3,0.4,0.4l0,0c0.3,0.3,0.4,0.5,0.8,0.7
				C18,51.2,18.1,51,18.4,50.8 M12.9,49.2v-0.1l0,0l0,0C13,49.1,12.9,49.2,12.9,49.2L12.9,49.2L12.9,49.2z M11.4,55.9L11.4,55.9
				C11.3,55.9,11.3,55.8,11.4,55.9L11.4,55.9C11.4,55.8,11.4,55.8,11.4,55.9C11.4,55.8,11.4,55.9,11.4,55.9 M16.9,48.7
				C16.8,48.7,16.8,48.7,16.9,48.7C16.8,48.7,16.8,48.6,16.9,48.7c-0.1-0.1,0-0.1,0-0.1S16.9,48.6,16.9,48.7
				C16.9,48.6,16.9,48.7,16.9,48.7L16.9,48.7z M15,47.5L15,47.5h-0.1l0,0C14.9,47.4,15,47.4,15,47.5C15.2,47.5,15,47.5,15,47.5
				 M15.4,47.1C15.4,47.1,15.4,47.2,15.4,47.1C15.4,47.2,15.3,47.2,15.4,47.1L15.4,47.1C15.3,47.1,15.3,47.1,15.4,47.1
				C15.3,47.1,15.4,47.1,15.4,47.1L15.4,47.1z M26.8,59.9l0.5-0.5c0.3-0.4,0.3-0.8-0.1-1.1c0,0-0.1,0-0.1-0.1V58h-0.3v-0.1
				c-0.7-0.3-0.9,0.4-1.1,0.4c-0.3,0.3-0.5,0.5-0.9,0.8v0.1l-0.7,0.1v0.1c-0.8,0.4-1.1,1.2-1.9,1.6c-0.1,0.1-0.4,0.4-0.5,0.3l0,0
				c-0.1-0.4,0.3-0.7,0.4-1.1v-0.1c0.7-0.8,0.9-1.9,1.3-2.8l0,0c0-0.1,0-0.3,0.1-0.3h0.1c-0.1-0.3,0.1-0.5,0.1-0.8
				c0-0.4-0.3-0.5-0.5-0.8c-0.1-0.1-0.1-0.3-0.3-0.4c-0.1,0-0.1-0.1-0.3,0l0,0c0,0-0.1,0-0.3,0.1l0,0v-0.1h-0.1l-0.1,0.3
				c0,0,0-0.1-0.1-0.1H22c0,0,0.1,0.1,0.1,0.3l0,0l0,0H22v0.1c0,0.1-0.3,0.1-0.3,0.1v0.1h-0.1l0,0c0.1,0.1,0,0.1,0,0.1
				c0,0.1-0.3,0.1-0.4,0.3l0,0c0,0.1,0,0.3,0.1,0.4c-0.1,0.1-0.3-0.1-0.4,0c-0.1,0.1,0,0.1,0.1,0.3c-0.1,0-0.1,0-0.1,0
				c0,0.1,0,0.3,0,0.4c0,0,0,0-0.1,0l0,0l-0.1,0.1v0.1h-0.1l0,0c0,0,0,0-0.1,0l0,0c-0.1,0.1,0.1,0.1,0.1,0.4c-0.1,0.1-0.3,0-0.3,0.1
				c0,0.1,0,0.1-0.1,0.4l-0.3,0.3L19.7,59c-0.1,0.1-0.3,0.1-0.3,0.3c0,0,0,0.1,0,0.3c-0.1,0.4-0.4,0.8-0.5,1.1
				c-0.1,0.3-0.4,0.4-0.5,0.5c-0.1,0-0.1,0.1-0.3,0.1L18,61.4c-0.1,0.1-0.1,0.3-0.1,0.4c0,0,0,0-0.1,0.1c-0.1,0.3,0,0.5,0,0.7h0.1
				v0.1l0,0v0.1l0,0c0.3,0,0.5,0.1,0.8-0.3c0.1-0.3,0.4-0.4,0.5-0.7l1.9-2.5c0-0.1,0.1-0.3,0.1-0.3l0.3-0.4h0.1v0.1l-2,4.4
				c0,0,0,0.1-0.1,0.1l-0.1,0c-0.1,0.1-0.1,0.1-0.1,0.3l0,0c-0.1,0.1,0.1,0.3,0.1,0.4c0.3,0.1,0.5,0.4,0.9,0.5
				c1.1-0.8,1.9-2,3.1-2.8l0.3-0.3c0.1-0.1,0.4-0.3,0.7-0.4c0.1,0.4-0.3,0.5-0.4,0.9c-0.3,0.1-0.4,0.4-0.5,0.7l-0.5,0.7l-0.4,0.5
				L22,64.4c0,0-0.1,0.1-0.1,0.3c-0.1,0.1-0.4,0.3-0.5,0.5c-0.3,0.3,0,0.7,0.1,0.8l0,0c0.4,0.3,0.7,0.1,0.9-0.3l0.7-1.1l0.9-1.1
				l1.7-2.3c0-0.1,0-0.1,0.1-0.3C26.1,60.7,26.5,60.3,26.8,59.9L26.8,59.9z M20.2,58.8v-0.1l0,0C20.4,58.7,20.4,58.8,20.2,58.8
				C20.4,58.8,20.4,58.8,20.2,58.8L20.2,58.8z M21.3,57.8C21.3,57.8,21.2,57.8,21.3,57.8C21.2,57.8,21.2,57.6,21.3,57.8
				C21.2,57.6,21.3,57.6,21.3,57.8C21.3,57.6,21.3,57.6,21.3,57.8L21.3,57.8z M21,58L21,58c0,0-0.1-0.1,0-0.1l0,0l0,0
				C21,57.9,21.2,57.9,21,58L21,58z M19.4,60.2C19.4,60.2,19.3,60.2,19.4,60.2L19.4,60.2C19.3,60,19.3,60,19.4,60.2L19.4,60.2
				C19.4,60,19.4,60,19.4,60.2L19.4,60.2z M18.6,60L18.6,60C18.8,60,18.8,60,18.6,60L18.6,60C18.6,59.9,18.6,60,18.6,60L18.6,60
				L18.6,60z M21,57.1C21,57.1,20.9,57.1,21,57.1C20.9,57,20.9,57,21,57.1C20.9,57,20.9,57,21,57.1C21,57,21,57,21,57.1 M21.7,57.1
				L21.7,57.1C21.7,57.1,21.6,57.1,21.7,57.1L21.7,57.1C21.7,57,21.7,57,21.7,57.1L21.7,57.1C21.7,57,21.7,57.1,21.7,57.1L21.7,57.1
				z M18.2,61.5L18.2,61.5L18.2,61.5L18.2,61.5C18.1,61.5,18.2,61.4,18.2,61.5L18.2,61.5 M21.6,59.4L21.6,59.4L21.6,59.4
				C21.4,59.4,21.4,59.2,21.6,59.4C21.6,59.2,21.6,59.2,21.6,59.4L21.6,59.4C21.6,59.2,21.6,59.4,21.6,59.4 M20.9,60.6
				C20.9,60.6,20.9,60.4,20.9,60.6L20.9,60.6L20.9,60.6C20.9,60.4,20.9,60.6,20.9,60.6L20.9,60.6 M18.9,60.7L18.9,60.7L18.9,60.7
				L18.9,60.7 M21,60.3L21,60.3L21,60.3L21,60.3L21,60.3 M37.7,64.4c0-0.3-0.1-0.5-0.3-0.7c-0.3,0-0.4-0.1-0.7-0.1
				c-0.3-0.1-0.5-0.3-0.8-0.4l0,0h-0.1l0,0l-0.1-0.1h-0.1c0-0.1-0.1-0.1-0.3-0.1l-0.5-0.1c-0.1,0-0.1-0.1-0.3-0.1l0,0
				c-0.1,0-0.1,0-0.3,0c0,0,0,0,0-0.1c-0.1,0-0.1-0.1-0.3-0.1c-0.3-0.1-0.7-0.1-0.8,0l0,0c0,0-0.1,0-0.1,0.1l0,0
				c-0.1,0.1-0.1,0.5-0.8,2.1c-0.1,0.1-0.1,0.3-0.3,0.4l-0.1,0.3c0,0.1-0.1,0.1-0.1,0.3l0.1,0.4c0,0.1-0.1,0.4-0.3,0.5v0.1L31.4,67
				c0,0,0,0.1,0,0.3l-0.3,0.4c0,0.3-0.1,0.4-0.1,0.7c-0.1,0.1-0.1,0.4-0.3,0.7c0,0.1-0.1,0.1-0.1,0.3s-0.1,0.3-0.1,0.4
				s-0.1,0.1-0.1,0.1l0,0c0,0.1,0,0.1,0,0.3c0,0,0,0.1-0.1,0.1c0,0,0,0-0.1,0.1c0,0.1,0,0.3,0,0.4c0,0,0,0,0,0.1s0.3,0.3,0.1,0.4
				l0,0c0.3,0,0.4,0.1,0.7,0.1H31c0.3,0.1,0.5,0.3,0.8,0.4H32c0.1,0,0.1,0.1,0.3,0.1l1.1,0.3c0.1,0,0.1,0,0.1,0.1l0,0l0.3,0.3h0.1
				c0,0,0,0,0,0.1c0,0,0.1,0,0.3,0l0,0c0.3,0,0.4-0.3,0.5-0.5V72c0.1-0.1,0-0.4-0.1-0.5c-0.5-0.3-1.2-0.5-1.7-0.8
				c-0.4-0.1-0.8-0.3-1.2-0.4c-0.1-0.1-0.1-0.3-0.1-0.4c0.3-0.8,0.5-1.3,0.9-2c0.1,0,0.3-0.1,0.4-0.1c0.1,0.1,0.4,0.3,0.7,0.3
				l0.9,0.4c0.1,0.1,0.4,0.1,0.5,0.3c0.3-0.1,0.4,0.1,0.8,0.1l0.1-0.3l0.1-0.3c0-0.1,0.1-0.4,0-0.5c-0.3-0.4-0.7-0.4-0.7-0.5h-0.1
				c-0.4-0.1-0.7-0.4-1.1-0.5c-0.1,0-0.1-0.1-0.3-0.1c-0.1,0-0.3,0-0.4-0.1c-0.1,0-0.3-0.1-0.3-0.3c0-0.3,0.1-0.4,0.3-0.7l0.5-1.3
				l0.1-0.3c0.1-0.1,0.3-0.1,0.3-0.1l0.1,0.1h0.1c0.4,0.1,0.8,0.4,1.1,0.5c0.1,0,0.3,0.1,0.5,0.1h0.1c0.4,0.1,0.7,0.3,1.1,0.3
				C37.4,65,37.6,64.7,37.7,64.4 M32.1,65.8v-0.1l0,0l0,0C32.2,65.6,32.2,65.8,32.1,65.8C32.2,65.8,32.1,65.8,32.1,65.8L32.1,65.8z
				 M34.2,72.3C34.2,72.3,34.1,72.3,34.2,72.3c-0.1,0-0.1,0-0.1,0H34.2C34.1,72.2,34.1,72.2,34.2,72.3
				C34.2,72.2,34.2,72.3,34.2,72.3 M35.3,63.4L35.3,63.4c-0.1,0-0.1,0-0.1,0C35.2,63.2,35.2,63.2,35.3,63.4
				C35.3,63.2,35.3,63.2,35.3,63.4C35.3,63.2,35.3,63.4,35.3,63.4L35.3,63.4z M33.2,63.2L33.2,63.2H33l0,0
				C33,63.1,33.2,63.1,33.2,63.2C33.2,63.1,33.2,63.2,33.2,63.2 M33.3,62.7L33.3,62.7C33.3,62.8,33.3,62.8,33.3,62.7L33.3,62.7
				C33.2,62.8,33.2,62.8,33.3,62.7L33.3,62.7L33.3,62.7z M47.6,73.9v-0.3l0,0c0,0,0,0,0.1,0v-0.3c0-0.3,0.1-0.5,0.1-0.8l0.4-2.7
				c0-0.1,0-0.3,0-0.4c0-0.4,0.1-0.7,0.1-1.1c0-0.3,0.1-0.5,0.3-0.8c0-0.3,0-0.4-0.1-0.5h-0.1l0,0c0,0,0,0,0-0.1
				c-0.4,0-0.8-0.1-1.1,0.4c0,0.3,0,0.5,0,0.9l-0.1,0.4v0.1l-0.3,2c0,0.3,0,0.5,0,0.7S46.8,72,46.5,72s-0.3-1.1-0.4-1.3L46,70.4
				c0,0,0,0.1-0.1,0.1c0,0-0.1-0.1,0-0.1c0,0,0-0.1,0.1-0.1h0.1V70c0-0.1-0.3-0.1-0.1-0.3c0,0,0,0,0.1,0c0-0.4-0.1-0.9-0.1-1.5
				c-0.3-0.5-0.1-1.2-0.4-1.7c-0.1,0-0.1-0.1-0.1-0.1h-0.1l-0.1-0.1c-0.5-0.1-1.3,0.1-1.3,0.7v0.3v0.3c0,0.1,0.1,0.5,0,0.7
				c0,0.1,0,0.1-0.1,0.3v0.1l-0.1,0.8c0,0.1,0,0.1-0.1,0.3c0,0,0,0,0,0.1v0.1c0,0.1,0,0.3,0,0.4s0,0.1-0.1,0.3c0,0.1,0,0.1,0,0.3
				v0.3v0.1c0,0,0,0.1-0.1,0.1v0.3c0,0,0,0.1-0.1,0.1c0,0.3,0,0.7,0,0.9v0.1c0,0.1,0,0.1,0,0.3c0,0,0,0.1-0.1,0.1v0.1
				c0,0.1-0.1,0.1-0.1,0.3v0.1c0,0,0,0.1-0.1,0.1v0.3c0,0.1-0.1,0.1-0.1,0.3v0.1c0,0,0,0,0,0.1l0.1,0.1l0,0V75c0,0.1,0,0.1,0,0.3
				c0,0,0,0.1-0.1,0.1l0,0l0,0c0.1,0,0.3,0.3,0.5,0.3c0.4,0,0.7,0,0.8-0.4c-0.1-0.7,0.1-1.6,0.1-2.4l0,0c0-0.1,0.1-0.1,0.1-0.3v-0.9
				c0-0.1,0.1-0.3,0.1-0.4v-0.5c0-0.1,0.1-0.3,0.3-0.4c0.5,1.2,0.4,2.4,1.1,3.6c0.1,0-0.1,0.4,0.1,0.4l0,0c0,0.4,0.1,0.7,0.3,0.9
				c0,0.4,0.1,0.7,0.4,0.8l0,0l0,0h0.1h0.1c0.3,0,0.4-0.1,0.5-0.7c0-0.3,0-0.4,0-0.7L47.6,73.9z M47.7,70.2L47.7,70.2
				C47.7,70.2,47.7,70,47.7,70.2L47.7,70.2c0.1-0.1,0-0.3,0-0.3s0,0,0-0.1c0,0,0,0,0-0.1s0.1-0.1,0.1-0.1c0-0.1,0-0.1,0-0.1v-0.1
				c0,0,0,0,0-0.1V69l0,0c0,0,0,0,0-0.1v-0.1c0,0,0-0.1,0.1-0.1l0,0l0,0c0,0,0.1,0,0.1,0.1S48,69,48,69.1v0.1c0,0,0,0.1-0.1,0.1v0.4
				l0,0c0,0,0.1,0,0.1,0.3C47.8,70,47.8,70.2,47.7,70.2L47.7,70.2z M48.2,68C48.2,68,48.2,68.2,48.2,68c0,0.1,0,0.3,0,0.3l-0.1,0.3
				H48v-0.1v-0.1C48.1,68.2,48.1,68.2,48.2,68h-0.1H48.2C48.1,67.9,48.1,67.9,48.2,68l-0.1-0.1v-0.3c0-0.1,0.1-0.1,0.1-0.1l0,0l0,0
				c0,0,0.1,0.1,0,0.3C48.2,68,48.2,68,48.2,68 M47.4,73.6v0.1c0,0.1,0,0.3-0.1,0.1c0,0-0.1,0-0.1-0.1l0,0l0,0c0,0-0.1-0.1,0-0.1
				S47.3,73.6,47.4,73.6v-0.1C47.4,73.5,47.4,73.5,47.4,73.6L47.4,73.6C47.4,73.6,47.3,73.6,47.4,73.6
				C47.3,73.5,47.3,73.6,47.4,73.6C47.3,73.6,47.4,73.6,47.4,73.6 M47.7,70.8C47.7,70.7,47.7,70.7,47.7,70.8
				C47.7,70.7,47.7,70.7,47.7,70.8c-0.1,0-0.1-0.3-0.1-0.3l0,0c0-0.1,0-0.1,0.1-0.1l0,0l0,0l0,0C47.8,70.4,47.8,70.7,47.7,70.8
				C47.8,70.8,47.8,70.8,47.7,70.8L47.7,70.8 M47.7,71.8c-0.1,0.1-0.1,0.3-0.1,0.4C47.6,72,47.6,71.9,47.7,71.8
				c-0.1-0.1-0.1-0.3-0.1-0.4c0.1,0,0,0.1,0.1,0.1C47.7,71.6,47.7,71.6,47.7,71.8C47.6,71.8,47.7,71.8,47.7,71.8 M48.2,67.2
				C48.2,67.4,48.2,67.4,48.2,67.2c-0.1,0-0.1,0-0.1,0s0-0.1,0.1-0.1C48.2,67.1,48.2,67.2,48.2,67.2S48.2,67.1,48.2,67.2L48.2,67.2
				L48.2,67.2 M47.4,73.2L47.4,73.2l-0.1,0.3L47.4,73.2l-0.1,0.1L47.4,73.2C47.4,73.2,47.4,73.1,47.4,73.2
				C47.4,73.1,47.4,73.1,47.4,73.2C47.4,73.1,47.4,73.1,47.4,73.2L47.4,73.2z M42.9,74.7L42.9,74.7C42.9,74.7,42.8,74.6,42.9,74.7
				c-0.1-0.1-0.1-0.1-0.1-0.1C42.9,74.6,42.9,74.6,42.9,74.7L42.9,74.7z M46.5,75.5C46.5,75.6,46.5,75.6,46.5,75.5
				c-0.1,0-0.1,0-0.1,0S46.4,75.5,46.5,75.5L46.5,75.5 M47,75.8L47,75.8L47,75.8C47,75.8,46.9,75.8,47,75.8
				C46.9,75.8,46.9,75.8,47,75.8C46.9,75.6,46.9,75.6,47,75.8C47,75.6,47,75.8,47,75.8L47,75.8z M47.6,69L47.6,69
				C47.4,69,47.4,69,47.6,69C47.4,68.8,47.4,68.8,47.6,69C47.6,68.8,47.6,68.8,47.6,69 M46.5,75.6C46.5,75.8,46.5,75.8,46.5,75.6
				C46.5,75.6,46.4,75.6,46.5,75.6C46.4,75.6,46.5,75.6,46.5,75.6L46.5,75.6L46.5,75.6 M48,67.2L48,67.2L48,67.2
				C47.8,67.2,47.8,67.2,48,67.2C47.8,67.2,47.8,67.2,48,67.2L48,67.2z M47.3,74.2L47.3,74.2L47.3,74.2L47.3,74.2
				C47.3,74,47.3,74,47.3,74.2L47.3,74.2L47.3,74.2z M44,67.8C44,67.9,44,67.9,44,67.8C44,67.9,44,67.9,44,67.8
				C44,67.9,43.8,67.9,44,67.8C43.8,67.8,43.8,67.8,44,67.8L44,67.8z M47.7,71.4L47.7,71.4C47.6,71.4,47.6,71.4,47.7,71.4
				C47.6,71.4,47.7,71.4,47.7,71.4L47.7,71.4L47.7,71.4z M47.4,73.1L47.4,73.1L47.4,73.1C47.4,73,47.4,73,47.4,73.1L47.4,73.1z
				 M43.7,75.4C43.7,75.4,43.7,75.2,43.7,75.4C43.7,75.2,43.7,75.2,43.7,75.4C43.8,75.2,43.8,75.2,43.7,75.4
				C43.8,75.2,43.8,75.4,43.7,75.4 M43.3,75.2L43.3,75.2C43.3,75.2,43.2,75.2,43.3,75.2C43.2,75.2,43.2,75.2,43.3,75.2L43.3,75.2
				 M47.4,72.3L47.4,72.3C47.4,72.2,47.4,72.2,47.4,72.3C47.6,72.2,47.6,72.3,47.4,72.3C47.6,72.3,47.6,72.3,47.4,72.3 M46.6,75.4
				L46.6,75.4C46.5,75.4,46.5,75.4,46.6,75.4C46.5,75.4,46.5,75.4,46.6,75.4L46.6,75.4 M47.7,71L47.7,71C47.6,71,47.6,71,47.7,71
				C47.6,70.8,47.6,70.8,47.7,71L47.7,71z M47.2,75.2L47.2,75.2C47.2,75.2,47,75.2,47.2,75.2C47,75.2,47,75.2,47.2,75.2
				C47,75.2,47,75.2,47.2,75.2L47.2,75.2z M43.8,67.4L43.8,67.4C43.7,67.4,43.7,67.4,43.8,67.4C43.7,67.2,43.8,67.2,43.8,67.4
				L43.8,67.4C43.8,67.2,43.8,67.4,43.8,67.4 M44.1,67.4L44.1,67.4C44,67.4,44,67.2,44.1,67.4C44,67.2,44,67.2,44.1,67.4L44.1,67.4
				L44.1,67.4z M46.9,75.1L46.9,75.1C46.9,75,46.9,75,46.9,75.1C47,75,47,75,46.9,75.1L46.9,75.1z M60.8,74C60.8,74,60.6,74,60.8,74
				l-0.1-0.1c0-0.3-0.1-0.4-0.3-0.7c0,0,0-0.1,0-0.3c-0.1,0-0.3-0.3-0.4-0.4c-0.3-0.1-0.4-0.4-0.5-0.5c-0.3,0-0.3-0.4-0.5-0.3l0,0
				c-0.1,0-0.3-0.3-0.3-0.3l0,0l0,0c-0.8-0.5-2-0.9-2.3-2c0.3-0.4,0.1-1.1,0.9-1.1c0.3,0,0.7,0.1,0.9,0.3l0.5,0.9
				c0.1,0.3,0.1,0.4,0.4,0.5h0.1c0.1,0,0.1-0.1,0.3-0.1c0,0,0,0,0.1,0l0,0c0-0.1,0.3,0,0.3-0.1l0,0c0-0.1,0-0.1,0.1-0.1
				c0.1-0.3,0-0.4,0.1-0.7c0-0.1-0.1-0.1-0.3-0.1c-0.1-0.3,0-0.4-0.3-0.5c0,0,0,0,0-0.1s-0.1-0.1-0.1-0.3c0,0,0,0,0-0.1
				s-0.3-0.1-0.3-0.4l0,0l0,0c-0.1-0.3-0.7-0.5-0.8-0.5c0,0,0,0-0.1,0c-0.3,0-0.5-0.1-0.9-0.1c-0.1,0-0.3,0.1-0.4,0.1h-0.1l-0.1,0.1
				c-0.1,0-0.3,0-0.4,0c0,0-0.1,0-0.1,0.1v-0.1v0.3c-0.1,0-0.3,0.1-0.3,0.1s0,0-0.1,0c-0.1,0.1-0.3,0.4-0.4,0.4l0,0V68
				c0,0,0,0-0.1,0c0,0,0,0,0,0.1s-0.1,0.1-0.3,0.1v0.1c0,0,0,0.1-0.1,0.1l0,0v0.3c-0.1,0.1-0.1,0.3-0.1,0.4c0,0.3,0.1,0.5,0.1,0.8
				c0,0,0,0.1,0,0.3c0.1,0.3,0.4,0.4,0.4,0.7c0.4,0.5,1.2,0.9,1.7,1.5l0,0c0.3,0,1.1,0.7,1.5,0.9c0.3,0.3,0.5,0.8,0.5,1.1
				c0,0.3-0.1,0.4-0.1,0.7l-0.3,0.3c-0.1,0.1-0.3,0-0.4,0.1c-0.3,0-0.7-0.1-0.9-0.4c-0.1-0.4-0.1-0.8-0.5-1.1
				c-0.1,0-0.3-0.1-0.4-0.1h-0.1H56c-0.1,0-0.4,0.3-0.4,0.4v0.1v0.4c0,0.1,0.1,0.3,0.1,0.4c0,0.8,0.9,0.9,1.1,1.2h0.1
				c0.1,0.1,0.3,0,0.3,0.1c0.4,0.1,0.8,0.1,1.1,0.1c0.4,0,0.9-0.1,1.3-0.4c0.1-0.1,0.3-0.3,0.4-0.3h0.1c0-0.1,0.3-0.1,0.3-0.3
				c0,0,0,0,0-0.1c0.3-0.1,0-0.4,0.3-0.4c0-0.3,0.1-0.5,0.3-0.8c0,0,0,0-0.1-0.1c0,0,0.1,0,0.1-0.1C60.8,74.2,60.8,74.2,60.8,74
				C60.8,74.2,60.8,74.2,60.8,74L60.8,74z M56.6,74.3L56.6,74.3C56.5,74.3,56.5,74.3,56.6,74.3L56.6,74.3
				C56.5,74.2,56.5,74.2,56.6,74.3C56.5,74.2,56.6,74.3,56.6,74.3L56.6,74.3 M55.3,68.4C55.3,68.4,55.3,68.6,55.3,68.4
				C55.3,68.6,55.3,68.6,55.3,68.4L55.3,68.4L55.3,68.4 M60.2,73.2L60.2,73.2C60.1,73.2,60.1,73.2,60.2,73.2
				C60.1,73.2,60.1,73.2,60.2,73.2L60.2,73.2 M59.8,69.4C59.8,69.2,59.8,69.2,59.8,69.4H60C60,69.4,59.8,69.4,59.8,69.4 M56.2,74.2
				L56.2,74.2C56.2,74.2,56.1,74.2,56.2,74.2C56.1,74.2,56.2,74.2,56.2,74.2L56.2,74.2L56.2,74.2z M60.4,73.5L60.4,73.5L60.4,73.5
				C60.2,73.5,60.2,73.5,60.4,73.5C60.2,73.5,60.2,73.5,60.4,73.5L60.4,73.5 M56.8,74.4C56.8,74.4,56.6,74.4,56.8,74.4
				C56.6,74.3,56.6,74.3,56.8,74.4C56.8,74.3,56.8,74.3,56.8,74.4C56.8,74.3,56.8,74.4,56.8,74.4L56.8,74.4z M56,75
				C56,75,55.8,75,56,75C55.8,75,55.8,75,56,75C56,74.8,56,75,56,75L56,75 M77.7,62.6h-0.1l0,0l0,0H77.7c-0.1-0.1-0.1-0.1-0.1-0.1
				c-0.1-0.1-0.1-0.3-0.3-0.1h0.1c0-0.1-0.1,0-0.3,0c0,0,0,0-0.1,0l0,0c-0.1,0-0.1,0-0.3,0.1c0,0,0,0-0.1,0.1h-0.1l-0.1,0.1
				c0,0,0,0-0.1,0l0,0l-1.1,0.7c-0.1,0-0.3,0-0.4,0.1c0,0-0.1,0-0.1,0.1c-0.3,0-0.4,0.1-0.7,0.3c-0.3,0.1-0.7,0.4-0.8,0.7
				c0,0.1,0,0.3,0,0.5l0,0c0,0.1,0,0.1,0,0.3c0,0.1,0.1,0.1,0.3,0.1l0,0c0.3,0.1,0.4,0.1,0.7,0h0.1c0.1,0,0.1-0.1,0.3-0.1l0.4-0.1
				l0.1-0.1l0.1,0.1l0.1,0.4c0,0,0,0.1,0.1,0.1c0,0.1,0,0.1,0,0.3h0.3v0.1l0,0c0,0,0.1,0,0.1,0.1v0.3c0,0,0,0,0.1,0.1l0.3,0.4
				c0,0,0,0,0,0.1v0.1l0,0l0,0l0.1,0.1l0.1,0.1c0,0.1,0.1,0.3,0.1,0.3c0,0.1,0,0.1,0,0.1l0.3,0.3v0.1H77v0.1v0.1l0,0h0.1l0.1,0.3
				c0,0.1,0.1,0.1,0.1,0.3c0,0,0.1,0,0.1,0.1s0,0.1,0,0.3c0,0,0,0,0.1,0.1l0,0c0,0,0.1,0.1,0.1,0.3c0,0.1,0,0.1,0,0.3l0,0l0,0l0,0
				c0,0,0.1,0,0.1,0.1s0,0.3,0,0.4l0.1,0.1v0.1l0,0c0.1,0,0.1,0.1,0.3,0.1l0,0.1l0,0v0.1l0.4,0.1l0,0H79c0,0,0-0.1,0.1-0.1
				c0,0,0.1,0,0.3-0.1l0,0c0.1-0.3,0.3-0.5,0.3-0.9c-0.4-0.9-0.9-1.9-1.3-2.8L77.4,66c-0.1-0.1-0.1-0.3-0.3-0.3l0,0l0,0l0,0
				c0,0,0-0.1-0.1-0.3l-0.3-0.8c-0.1-0.4-0.1-0.7,0.1-0.8c0.1-0.1,0.4-0.1,0.7-0.3l0,0c0,0,0-0.1,0.1-0.1l0,0l0,0
				c0,0,0.1-0.1,0.1-0.3l0,0c0.1,0,0.1,0,0.1,0c0.1,0,0-0.3,0-0.4c0,0,0-0.1-0.1-0.1h-0.1h-0.1C77.7,62.7,77.8,62.7,77.7,62.6
				L77.7,62.6z M77.7,62.7L77.7,62.7v0.1c0,0,0,0,0,0.1c0-0.1-0.1,0-0.1-0.1l0,0l0,0h-0.1l0,0l0,0l0,0l0,0l0,0l0,0
				c0.3-0.1,0.1-0.1,0.3-0.4l0,0c0,0,0,0.3-0.1,0.3l0,0l0,0C77.4,62.8,77.6,62.7,77.7,62.7 M77.2,62.7L77.2,62.7
				c-0.1,0.1,0,0.1,0,0.1s0,0,0,0.1l0,0c-0.1-0.1-0.1,0-0.3-0.1v-0.1c0,0,0,0,0.1,0H77.2C77,62.7,77,62.7,77.2,62.7 M77.4,62.3
				C77.4,62.3,77.3,62.3,77.4,62.3c-0.1,0-0.1,0.1-0.1,0.1l0,0l0,0c0,0,0-0.1,0-0.3C77.3,62.3,77.3,62.3,77.4,62.3L77.4,62.3z
				 M77.4,63C77.4,63.1,77.4,63.1,77.4,63c0,0.1,0,0.1,0,0.1l0,0h-0.1l0,0l0,0c0,0,0.1-0.1,0-0.1C77.3,63.1,77.3,63.1,77.4,63
				C77.4,63.1,77.4,63.1,77.4,63L77.4,63 M76.9,63.4C76.8,63.5,76.8,63.5,76.9,63.4C76.8,63.4,76.8,63.4,76.9,63.4L76.9,63.4
				L76.9,63.4 M77.2,62.6L77.2,62.6H77l0,0H77.2L77.2,62.6L77.2,62.6 M77.2,68.7L77.2,68.7L77.2,68.7c-0.1,0-0.1-0.1,0-0.1l0,0
				C77.2,68.6,77.2,68.6,77.2,68.7L77.2,68.7L77.2,68.7z M76.9,62.6C76.9,62.6,76.9,62.7,76.9,62.6C76.9,62.7,76.9,62.7,76.9,62.6
				C76.8,62.6,76.9,62.6,76.9,62.6L76.9,62.6L76.9,62.6z M77.2,63.2L77.2,63.2C77.2,63.4,77.2,63.4,77.2,63.2
				C77.2,63.4,77.2,63.4,77.2,63.2L77.2,63.2C77,63.4,77,63.2,77.2,63.2L77.2,63.2z M77.6,63.4L77.6,63.4L77.6,63.4
				C77.6,63.5,77.6,63.4,77.6,63.4L77.6,63.4L77.6,63.4 M76.8,62.6L76.8,62.6L76.8,62.6C76.8,62.4,76.8,62.4,76.8,62.6
				C76.8,62.4,76.9,62.4,76.8,62.6C76.9,62.4,76.9,62.4,76.8,62.6L76.8,62.6z M77.8,63.5L77.8,63.5C77.7,63.5,77.8,63.5,77.8,63.5
				C77.8,63.6,77.8,63.6,77.8,63.5C77.8,63.6,77.8,63.5,77.8,63.5 M77.8,69.8L77.8,69.8C77.7,69.8,77.7,69.8,77.8,69.8
				C77.7,69.8,77.7,69.6,77.8,69.8C77.8,69.6,77.8,69.6,77.8,69.8L77.8,69.8z M77.3,68.8L77.3,68.8L77.3,68.8L77.3,68.8
				C77.2,68.8,77.2,68.7,77.3,68.8L77.3,68.8C77.3,68.7,77.3,68.7,77.3,68.8 M77.6,63.5L77.6,63.5L77.6,63.5L77.6,63.5L77.6,63.5
				L77.6,63.5z M79,71.5C79,71.6,79,71.6,79,71.5C78.9,71.6,78.9,71.6,79,71.5L79,71.5C78.9,71.5,78.9,71.5,79,71.5
				C78.9,71.5,78.9,71.5,79,71.5 M77.8,63.1L77.8,63.1C77.8,63.1,77.7,63.1,77.8,63.1C77.7,63.1,77.7,63.1,77.8,63.1L77.8,63.1
				L77.8,63.1z M77.2,63.1L77.2,63.1L77.2,63.1L77.2,63.1L77.2,63.1L77.2,63.1z M77.3,63C77.4,63,77.3,63,77.3,63L77.3,63
				C77.3,63,77.3,63.1,77.3,63C77.2,63,77.3,63,77.3,63L77.3,63 M76.8,68L76.8,68L76.8,68L76.8,68C76.8,67.9,76.8,68,76.8,68
				 M77.2,68.3L77.2,68.3L77.2,68.3C77,68.3,77,68.3,77.2,68.3L77.2,68.3L77.2,68.3z M88.8,59.1c0-0.1-0.1-0.1-0.1-0.3l-0.5-0.5
				L88,58.2c0-0.1-0.1-0.3-0.3-0.4c-0.5-0.7-1.3-0.9-2.1-0.9l-0.9,0.3c-0.1,0-0.1,0.1-0.3,0.1c-0.3,0.3-0.5,0.5-0.7,0.8
				c0,0.1-0.3,0.4-0.3,0.8c0,0.4-0.1,0.5,0,1.1c0.3,0.5,0.7,0.9,1.1,1.5l0.8,1.1c0.1,0.1,0.3,0.3,0.3,0.4l0.1,0.1
				c0.1,0.1,0.1,0.1,0.3,0.3l1.1,1.3v0.1c0.3,0.3,0.5,0.4,0.8,0.5c0.1,0.1,0.4,0,0.4,0.1c0.7,0.1,1.3,0.1,1.9-0.4
				c0.1,0,0.1-0.1,0.1-0.1c0.5-0.5,0.9-1.3,0.8-2.1c-0.1-0.4-0.1-0.8-0.5-1.2l-0.1-0.1L90,60.8c-0.1-0.1-0.1-0.1-0.3-0.3
				c0-0.1-0.1-0.1-0.1-0.3L89.3,60l-0.1-0.1L88.8,59.1z M87.8,59.8l2,2.4c0.3,0.3,0.7,0.8,0.1,1.3l0,0l0,0c-0.1,0.1-0.3,0.3-0.4,0.4
				C89.4,64,89.4,64,89.3,64c-0.4,0-0.8,0.1-1.1-0.3l0,0c0,0-0.1,0-0.1-0.1l-0.4-0.1c0,0-0.1-0.1-0.3-0.1c0,0,0-0.1-0.1-0.1
				c-0.1-0.1-0.3-0.3-0.4-0.4c-0.1-0.1-0.1-0.3-0.1-0.4c-0.1-0.1-0.1-0.1-0.3-0.3c-0.1-0.1-0.1-0.4-0.4-0.5
				c-0.1-0.1-0.1-0.3-0.3-0.4c0,0-0.1-0.1-0.3-0.1c0,0-0.1,0-0.1-0.1v-0.3c0-0.1-0.1-0.1-0.3-0.1c0-0.1-0.1-0.3-0.1-0.4
				c0,0,0-0.1-0.1-0.1c-0.3-0.4-0.4-0.7-0.3-1.2c0.1-0.1,0.3-0.4,0.4-0.5c0.1-0.1,0.4-0.3,0.5-0.3h0.1c0,0,0.7,0.1,0.9,0.4
				c0.1,0.1,0.1,0.1,0.3,0.3l0.5,0.7C87.6,59.5,87.7,59.6,87.8,59.8 M86.1,61.9c0,0-0.1-0.1-0.3-0.3c-0.1-0.1-0.1-0.1-0.1-0.1
				s0.1,0.1,0.3,0.1C86.1,61.6,86.1,61.8,86.1,61.9 M86.2,62C86.4,62,86.4,62,86.2,62c0.1,0,0.1,0.1,0.1,0.3l0,0c0,0-0.1,0-0.1-0.1
				S86.1,62,86.2,62C86.1,62,86.2,62,86.2,62C86.2,61.9,86.2,61.9,86.2,62 M87.4,63.6c0,0-0.1,0-0.1-0.1v-0.1c0,0,0.1,0,0.1,0.1
				V63.6 M86.6,62.4L86.6,62.4C86.6,62.6,86.5,62.4,86.6,62.4C86.5,62.4,86.5,62.4,86.6,62.4L86.6,62.4
				C86.6,62.3,86.6,62.3,86.6,62.4L86.6,62.4 M87.6,63.8L87.6,63.8C87.6,63.9,87.6,63.9,87.6,63.8c0,0.1-0.1,0-0.1,0l0,0l0,0H87.6
				L87.6,63.8L87.6,63.8z M87.7,63.6L87.7,63.6L87.7,63.6C87.6,63.6,87.6,63.6,87.7,63.6C87.6,63.5,87.6,63.5,87.7,63.6
				C87.6,63.5,87.6,63.5,87.7,63.6C87.7,63.5,87.7,63.5,87.7,63.6 M87.2,63.2C87.2,63.2,87.2,63.4,87.2,63.2
				C87.2,63.4,87.2,63.4,87.2,63.2C87,63.2,87,63.2,87.2,63.2L87.2,63.2L87.2,63.2L87.2,63.2 M85.7,61.2
				C85.7,61.4,85.7,61.2,85.7,61.2C85.6,61.2,85.6,61.2,85.7,61.2L85.7,61.2L85.7,61.2L85.7,61.2 M86.9,62.8L86.9,62.8
				C86.9,63,86.9,63,86.9,62.8C86.8,62.8,86.8,62.8,86.9,62.8L86.9,62.8L86.9,62.8 M94,48.4h-0.3L93.2,49C93,49.1,93,49.2,93,49.4
				c1.3,0.9,2.7,2,3.9,2.9l0,0c0,0,0,0,0.1,0l0,0c0.1,0.1,0.3,0.3,0.4,0.4l0.9,0.8c0.4,0.3,0.8,0.8,0.7,1.1l0,0c0,0.3,0,0.4-0.1,0.5
				c-0.4,0.5-0.8,0.5-1.3,0.4h-0.1c-0.3-0.1-0.5-0.3-0.7-0.5l-1.3-1.1l-0.1-0.3c-0.1-0.1-0.4-0.3-0.7-0.4l-0.8-0.5l-0.7-0.5
				c-0.1-0.1-0.3-0.3-0.4-0.4c-0.1,0-0.3-0.1-0.3-0.1L92,51.2c-0.1-0.1-0.4-0.3-0.5-0.1v0.1l-0.1,0.1L91,51.6
				c-0.1,0.1-0.1,0.1-0.1,0.3c0.7,0.5,1.3,1.1,2.1,1.6l2.5,2l0,0c1.1,0.9,2.7,2.1,4,0.3c1.1-1.5,0.3-2.7-1.6-4.1l-0.4-0.3
				c-0.3-0.1-0.4-0.4-0.7-0.5c-0.5-0.4-0.9-0.7-1.5-1.1C95,49.5,94.5,49,94,48.4 M98,51.9L98,51.9L98,51.9L98,51.9
				c0.1,0.1,0.1,0.1,0.1,0.1C98.1,52,98,52,98,51.9C98,52,98,51.9,98,51.9C98,52,97.8,52,98,51.9c-0.1,0.1-0.1,0-0.1,0h-0.1l0,0
				v-0.1h-0.1c0,0,0,0,0-0.1c0.1,0,0.1,0,0.1,0l0,0C97.8,51.8,97.8,51.8,98,51.9L98,51.9z M97.4,52.7C97.4,52.6,97.6,52.7,97.4,52.7
				c0.1,0.1,0.3,0.3,0.3,0.3h-0.1C97.6,52.8,97.4,52.7,97.4,52.7 M100.1,54.6C100.1,54.6,100,54.6,100.1,54.6
				c-0.1,0.1-0.1,0.3-0.1,0.3l0,0v-0.1l-0.1,0.1v-0.1c0,0,0,0,0.1-0.1v-0.1C100,54.4,100,54.6,100.1,54.6L100.1,54.6L100.1,54.6
				 M98.2,56.7L98.2,56.7c0,0.1-0.3,0.1-0.4,0.1l0,0C98,56.8,98,56.7,98.2,56.7L98.2,56.7z M97.6,51.6
				C97.4,51.6,97.4,51.6,97.6,51.6c-0.1,0-0.1,0-0.1,0s0,0-0.1,0v-0.1C97.3,51.4,97.4,51.5,97.6,51.6C97.6,51.5,97.6,51.6,97.6,51.6
				 M97.3,51.4C97.3,51.5,97.3,51.5,97.3,51.4C97.3,51.5,97.2,51.5,97.3,51.4C97.2,51.5,97.2,51.4,97.3,51.4c-0.1,0-0.1,0.1-0.3,0
				c0,0,0,0,0-0.1C97,51.4,97.2,51.4,97.3,51.4L97.3,51.4 M97,51.1c0.1,0.1,0.1,0.1,0.1,0.1L97,51.1c-0.1,0-0.1-0.1-0.3,0V51
				C96.9,51,96.9,51,97,51.1L97,51.1L97,51.1z M99.8,55.2c0,0.1,0,0.1,0,0.3c0,0,0,0-0.1,0.1v-0.1c0,0,0,0,0.1,0
				C99.8,55.4,99.8,55.4,99.8,55.2C99.7,55.4,99.7,55.4,99.8,55.2L99.8,55.2C99.7,55.2,99.7,55.2,99.8,55.2 M100,55L100,55L100,55
				c-0.1,0.1,0,0.1,0,0.3h-0.1C99.8,55.1,99.8,55,100,55L100,55 M96.1,52L96.1,52c0.1,0,0.1-0.1,0-0.1l0,0l0,0
				C96,51.9,96,51.9,96.1,52L96.1,52z M96.5,50.7L96.5,50.7v0.1C96.5,50.8,96.4,50.8,96.5,50.7C96.4,50.8,96.4,50.7,96.5,50.7
				C96.4,50.7,96.5,50.7,96.5,50.7L96.5,50.7z M98.5,56.7L98.5,56.7L98.5,56.7C98.4,56.7,98.4,56.7,98.5,56.7
				C98.4,56.7,98.4,56.7,98.5,56.7C98.4,56.7,98.4,56.7,98.5,56.7c-0.1,0-0.1,0-0.3,0C98.4,56.7,98.4,56.6,98.5,56.7 M98.9,56.3
				C98.9,56.3,99,56.3,98.9,56.3C99,56.3,99,56.4,98.9,56.3C99,56.4,98.9,56.4,98.9,56.3C98.9,56.4,98.9,56.3,98.9,56.3L98.9,56.3
				 M99.3,55.1L99.3,55.1L99.3,55.1C99.2,55.1,99.3,55.1,99.3,55.1C99.3,55,99.3,55,99.3,55.1 M99.3,54L99.3,54L99.3,54
				C99.3,54,99.3,54.2,99.3,54L99.3,54L99.3,54 M99.7,55C99.7,55,99.7,55.1,99.7,55L99.7,55L99.7,55L99.7,55z M107.2,42.8
				c-0.8-0.1-1.6-0.3-2.4-0.5c-0.5-0.1-1.1-0.3-1.6-0.3H103c-0.1-0.1-0.3-0.3-0.3-0.5c-0.3-0.5-0.7-1.1-1.2-1.3
				c-0.4-0.1-0.7-0.3-1.1-0.3c-0.7,0.1-1.2,0.4-1.6,0.8h-0.1c-0.3,0.3-0.4,0.7-0.7,0.9l-0.4,0.9l-0.1,0.3l-0.1,0.3v0.1
				c0.4,0.1,0.9,0.4,1.3,0.7l0.3,0.3h0.1c0.4,0.1,0.7,0.4,1.1,0.5L103,46c0.1,0,0.4,0.1,0.5,0.3l0.4,0.3l0,0c0.1,0,0.3,0.1,0.4,0.1
				c0.1,0.1,0.4,0.1,0.5,0.3c0.3,0.1,0.4,0.3,0.7,0.3c0.1-0.3,0.1-0.3,0.3-0.4c0,0,0-0.1,0.1-0.3l0,0c0.1-0.1,0-0.4,0-0.4
				s-0.5-0.3-0.7-0.3c-0.7-0.3-1.3-0.5-2-0.8L103,45c0,0-0.1,0-0.1-0.1l-0.4-0.1c-0.1,0-0.1-0.1-0.3-0.1c0-0.1,0.1-0.3,0.1-0.4
				l0.4-0.7c0-0.1,0-0.1,0-0.1s0,0,0.1,0c0.4,0.1,0.8,0.1,1.3,0.3c0.7,0.1,1.2,0.3,1.9,0.4c0.3-0.1,0.5,0.1,0.5,0.1l0,0
				c0.1,0.1,0.4,0,0.4,0s0.1-0.3,0.1-0.4c0-0.1,0.1-0.3,0.1-0.4s0-0.1-0.1-0.1C107.4,42.8,107.3,42.8,107.2,42.8 M100.8,41.1
				c0.1,0,0.1,0,0.3,0.1c0.5,0.3,0.8,0.7,0.9,1.2c0,0.3,0,0.5-0.1,0.8l-0.3,0.7c-0.1,0-0.4,0-0.8-0.3c-0.1-0.1-0.4-0.1-0.5-0.3
				c-0.1,0-0.1,0-0.1,0l0,0c-0.1-0.1-0.4-0.3-0.5-0.4c-0.1,0-0.1,0-0.3,0s-0.1-0.1-0.1-0.1c0-0.1,0-0.3,0-0.4
				c0.1-0.1,0.1-0.3,0.3-0.4c0.3-0.4,0.5-0.7,1.1-0.7l0,0C100.5,41.2,100.6,41.1,100.8,41.1 M106,46.2v0.1l0,0V46.2L106,46.2h-0.3
				c0,0-0.1,0-0.1-0.1l0,0c0,0,0,0,0.1,0L106,46.2L106,46.2 M107.4,43C107.4,43,107.4,43.1,107.4,43C107.4,43.1,107.4,43.1,107.4,43
				L107.4,43c-0.3,0-0.3,0-0.3,0l0,0l0,0C107.2,42.8,107.3,43,107.4,43L107.4,43 M99.2,43.9C99.2,43.9,99.2,44,99.2,43.9
				C99,44,99,44,99.2,43.9L99.2,43.9C99,44,98.9,43.9,99.2,43.9C99,43.9,99,43.9,99.2,43.9C99,43.9,99,43.9,99.2,43.9
				C99,43.9,99.2,43.9,99.2,43.9 M107.4,43.1L107.4,43.1C107.4,43.2,107.4,43.2,107.4,43.1L107.4,43.1
				C107.3,43.2,107.3,43.1,107.4,43.1L107.4,43.1C107.3,43.1,107.3,43.1,107.4,43.1 M106.8,43.9C106.6,43.9,106.6,43.9,106.8,43.9
				c-0.1,0-0.1,0-0.1,0l0,0C106.6,43.8,106.6,43.8,106.8,43.9C106.6,43.8,106.8,43.8,106.8,43.9L106.8,43.9z M103.2,41.9L103.2,41.9
				C103,41.9,103.2,41.9,103.2,41.9C103.2,42,103.2,42,103.2,41.9L103.2,41.9C103.3,41.9,103.2,41.9,103.2,41.9L103.2,41.9z
				 M98.8,40.7L98.8,40.7h-0.1l0,0l0,0C98.6,40.7,98.6,40.7,98.8,40.7C98.6,40.7,98.6,40.7,98.8,40.7L98.8,40.7
				C98.8,40.8,98.8,40.7,98.8,40.7L98.8,40.7 M102.9,41.8L102.9,41.8C102.9,41.9,103,41.9,102.9,41.8C103,41.8,103,41.8,102.9,41.8
				C103,41.8,102.9,41.8,102.9,41.8L102.9,41.8L102.9,41.8z M100.4,41.1L100.4,41.1C100.4,41,100.5,41.1,100.4,41.1
				C100.5,41.1,100.5,41.1,100.4,41.1C100.5,41.1,100.5,41.1,100.4,41.1L100.4,41.1z M100.1,43.4C100.1,43.4,100.1,43.5,100.1,43.4
				C100.1,43.5,100.1,43.5,100.1,43.4C100,43.5,100,43.5,100.1,43.4L100.1,43.4C100,43.4,100,43.4,100.1,43.4L100.1,43.4
				 M105.7,46.8L105.7,46.8L105.7,46.8L105.7,46.8L105.7,46.8L105.7,46.8L105.7,46.8z M107.2,43.1L107.2,43.1
				C107.3,43.1,107.3,43.1,107.2,43.1L107.2,43.1C107.3,43.1,107.3,43.1,107.2,43.1C107.3,43.1,107.2,43.2,107.2,43.1L107.2,43.1
				L107.2,43.1 M103.3,41.9L103.3,41.9C103.3,42,103.3,42,103.3,41.9C103.3,42,103.3,42,103.3,41.9C103.4,42,103.3,41.9,103.3,41.9
				L103.3,41.9z M106,46.6C105.8,46.6,105.8,46.6,106,46.6C105.8,46.6,105.8,46.6,106,46.6C105.8,46.6,105.8,46.6,106,46.6
				C105.8,46.6,105.8,46.6,106,46.6C105.8,46.6,105.8,46.6,106,46.6L106,46.6 M102.8,41.5C102.8,41.5,102.8,41.6,102.8,41.5
				C102.9,41.6,102.9,41.6,102.8,41.5C102.9,41.6,102.9,41.5,102.8,41.5C102.9,41.5,102.8,41.5,102.8,41.5 M99.2,42.7
				C99,42.7,99,42.7,99.2,42.7C99,42.8,99,42.8,99.2,42.7C99.2,42.8,99.2,42.8,99.2,42.7C99.2,42.8,99.2,42.7,99.2,42.7 M107,43
				L107,43C106.9,43,106.9,43,107,43C106.9,42.8,107,42.8,107,43L107,43z M106.2,43.9L106.2,43.9C106.4,43.9,106.4,43.9,106.2,43.9
				C106.4,43.9,106.4,43.9,106.2,43.9L106.2,43.9L106.2,43.9z M103.7,42C103.6,42,103.6,42,103.7,42C103.6,42,103.6,42,103.7,42
				L103.7,42L103.7,42L103.7,42 M111.3,30.3C111.3,30.3,111.2,30.3,111.3,30.3l-0.5,0.1c0,0,0,0-0.1,0c-0.5,0.3-1.2,0-2,0.3
				c0,0,0,0-0.1,0c0,0,0-0.1-0.1-0.1c0,0-0.1,0-0.3,0l0,0c0,0-0.1,0-0.3,0h-0.1c0,0,0,0-0.1,0c-0.1,0.3-0.4,0-0.7,0.1c0,0,0,0-0.1,0
				s-0.3,0.1-0.4,0.1c0,0-0.1,0-0.1-0.1l-0.1,0.1l0,0l0,0c0,0-0.1,0.1-0.3,0.1l0,0c-0.1-0.1-0.1-0.1-0.3-0.1h-0.1
				c-0.3-0.3-0.5-0.4-0.8-0.7c-0.1,0-0.1-0.3-0.3-0.3l0,0c0-0.1-0.3,0-0.1-0.1l0,0l-0.1-0.1l0,0c-0.1-0.1-0.3-0.3-0.3-0.4
				c0,0,0,0-0.1-0.1h-0.1c-0.1-0.3-0.5-0.4-0.8-0.7c-0.4,0-0.5,0.4-0.7,0.7c0,0.3,0,0.5,0,0.8c1.2,1.1,2.5,2,3.9,2.9c0,0,0,0,0,0.1
				l-0.1,0.1l-0.5-0.1c-0.1,0-0.1,0-0.3,0c-0.3-0.3-0.8-0.3-1.1-0.4l0,0h-0.1l0,0c-0.1,0-0.1,0-0.3,0c-0.4-0.1-0.8-0.4-1.2-0.5
				c-0.1,0-0.4,0-0.5,0v0.1c-0.1,0.1-0.3,0.3-0.4,0.5l0,0V33c0,0.1,0.1,0.3,0.1,0.3s0,0,0,0.1l0,0h0.1l0,0l0.1,0.1l0,0h0.1l0,0
				c0,0,0,0,0.1,0.1h0.1h0.1h0.5l2.1,0.7c0.1,0,0.3,0,0.4,0c0.1,0,0.3,0,0.4,0.1c0.1,0,0.1,0,0.1,0l0.3,0.1c0.1,0,0.1,0,0.1,0h0.1
				h0.1l0.1,0.1l0.1-0.1h0.1c0.1,0,0.1,0,0.1,0.1h0.1l0.3,0.1c0.1,0,0.1-0.1,0.3,0c0.1,0,0.1,0.1,0.3,0.1l0,0c0.4,0,0.8,0.1,1.3,0.3
				l0.3,0.1c0.1,0,0.1,0,0.3,0h0.1c0.3,0,0.4,0,0.5,0v-0.1c0.3,0,0.1-0.3,0.3-0.1c0-0.1,0-0.4,0-0.5v-0.1c-0.1-0.1,0-0.4-0.1-0.4
				c0,0,0,0-0.1,0c-0.1-0.1-0.1-0.3-0.4-0.3c-0.3,0-0.4,0-0.7,0v-0.1c-0.1,0-0.3,0.1-0.4,0c0,0-0.1,0-0.1-0.1h-0.1
				c-0.1,0-0.1-0.1-0.3-0.1l0,0c-0.1-0.3-0.4-0.4-0.7-0.5h-0.1c-0.1-0.3-0.5-0.1-0.4-0.5l0,0c0.3-0.1,0.5,0.1,0.8,0
				c0.3-0.1,0.4,0,0.5-0.1c0.8-0.1,1.6-0.1,2.4-0.3c0.1-0.1,0.1-0.3,0.3-0.4l0.3-0.5v-0.1C111.6,30.7,111.4,30.4,111.3,30.3
				 M106.2,31C106.2,31,106.2,31.1,106.2,31c0,0.1,0,0.3-0.1,0.3c0,0-0.1,0-0.1-0.1l0,0C106.1,31.1,106.1,31.1,106.2,31
				C106.2,31.1,106.2,31.1,106.2,31C106.2,31.1,106.2,31.1,106.2,31L106.2,31z M104.9,30.3L104.9,30.3c0,0.1,0,0.1,0,0.3l0,0
				l-0.1-0.1C104.8,30.3,104.8,30.3,104.9,30.3 M104.6,32.8C104.6,32.8,104.5,32.8,104.6,32.8h-0.1
				C104.5,32.8,104.5,32.7,104.6,32.8C104.6,32.7,104.6,32.7,104.6,32.8 M109.6,35L109.6,35c0.1,0,0.1,0,0.1,0.1
				C109.7,35,109.6,35.1,109.6,35L109.6,35L109.6,35z M105.8,31C105.8,31.1,105.8,31.1,105.8,31L105.8,31
				C105.7,31.1,105.7,31,105.8,31C105.7,31,105.7,31,105.8,31L105.8,31z M108.8,33.4C108.8,33.4,108.9,33.4,108.8,33.4
				C108.8,33.4,108.8,33.5,108.8,33.4C108.8,33.5,108.8,33.4,108.8,33.4L108.8,33.4 M110.4,30.8L110.4,30.8
				C110.4,31,110.4,31,110.4,30.8L110.4,30.8C110.4,31,110.4,31,110.4,30.8L110.4,30.8L110.4,30.8z M105.7,30.8L105.7,30.8
				C105.7,31,105.7,31,105.7,30.8L105.7,30.8C105.6,30.8,105.6,30.8,105.7,30.8L105.7,30.8z M104.5,33.9L104.5,33.9
				C104.6,33.9,104.6,34,104.5,33.9C104.6,34,104.5,34,104.5,33.9C104.5,34,104.5,34,104.5,33.9 M108.6,30.8L108.6,30.8L108.6,30.8
				C108.6,31,108.5,31,108.6,30.8C108.5,31,108.5,30.8,108.6,30.8L108.6,30.8C108.5,30.8,108.5,30.8,108.6,30.8L108.6,30.8z
				 M106.9,31.1L106.9,31.1L106.9,31.1C106.9,31,107,31,106.9,31.1L106.9,31.1C107,31.1,107,31.1,106.9,31.1
				C107,31.1,107,31.1,106.9,31.1L106.9,31.1z M103.8,32.7L103.8,32.7C103.8,32.7,103.7,32.7,103.8,32.7L103.8,32.7
				C103.8,32.6,103.8,32.6,103.8,32.7C103.8,32.6,103.8,32.7,103.8,32.7 M105,30.4L105,30.4C105,30.4,105,30.6,105,30.4L105,30.4
				L105,30.4z M107.6,31C107.6,31,107.7,31,107.6,31C107.6,31.1,107.6,31.1,107.6,31C107.6,31.1,107.6,31.1,107.6,31L107.6,31
				 M108.4,34.7C108.4,34.8,108.4,34.8,108.4,34.7C108.4,34.8,108.4,34.8,108.4,34.7L108.4,34.7L108.4,34.7L108.4,34.7z M105.2,30.6
				C105.2,30.6,105.3,30.6,105.2,30.6C105.2,30.7,105.2,30.7,105.2,30.6C105.2,30.7,105.2,30.7,105.2,30.6L105.2,30.6 M108.4,30.8
				L108.4,30.8L108.4,30.8C108.2,30.8,108.4,30.8,108.4,30.8L108.4,30.8z M105.7,33.1C105.7,33.1,105.8,33.1,105.7,33.1L105.7,33.1
				C105.8,33.2,105.7,33.1,105.7,33.1L105.7,33.1 M105.3,33.1L105.3,33.1L105.3,33.1L105.3,33.1L105.3,33.1 M110.2,33.9L110.2,33.9
				L110.2,33.9L110.2,33.9L110.2,33.9z M105.6,33L105.6,33C105.6,33.1,105.6,33.1,105.6,33C105.4,33.1,105.4,33.1,105.6,33
				C105.4,33,105.4,33,105.6,33 M103.7,29.2C103.7,29.2,103.6,29.2,103.7,29.2C103.6,29.1,103.7,29.1,103.7,29.2L103.7,29.2z
				 M104,29.2L104,29.2L104,29.2C104,29.2,103.8,29.2,104,29.2C103.8,29.2,103.8,29.2,104,29.2C103.8,29.2,103.8,29.2,104,29.2
				 M110.6,33.8C110.6,33.9,110.6,33.9,110.6,33.8C110.6,33.9,110.5,33.9,110.6,33.8L110.6,33.8z M103,32.4
				C103.2,32.4,103.2,32.4,103,32.4C103.2,32.4,103.2,32.4,103,32.4L103,32.4L103,32.4 M106.5,31.8L106.5,31.8L106.5,31.8
				L106.5,31.8L106.5,31.8z M104.8,33.1C104.8,33.1,104.8,33,104.8,33.1C104.8,33,104.8,33,104.8,33.1L104.8,33.1
				C104.9,33,104.9,33,104.8,33.1L104.8,33.1z M110.1,30.7C110.1,30.8,110.1,30.8,110.1,30.7C110.1,30.8,110.1,30.7,110.1,30.7
				L110.1,30.7L110.1,30.7 M110.2,30.7L110.2,30.7C110.2,30.7,110.1,30.7,110.2,30.7L110.2,30.7L110.2,30.7 M103.4,33.5L103.4,33.5
				L103.4,33.5L103.4,33.5L103.4,33.5 M108.4,19.8c-0.4,0-0.8,0.1-0.9,0.4c-0.5,0.1-0.4,0.8-0.5,1.2c0.1,0.1,0.1,0.4,0.1,0.5
				s0,0.1,0,0.3c0.1,0.3,0.3,0.4,0.5,0.5c0.1,0.1,0.5,0.3,0.7,0.4c0.3,0,0.3,0.1,0.4,0.1c0.1,0,0.1-0.1,0.4-0.1
				c0,0.1,0.1,0.3,0.3,0.3s0.1,0,0.1-0.1c0.1-0.4,0.4-0.1,0.4-0.4l0,0c0.1,0,0.3-0.1,0.3-0.3s0-0.1-0.1-0.3c0.1-0.1,0.1-0.3,0.1-0.3
				c0-0.3,0-0.4,0-0.7v-0.1l0,0c0-0.1,0-0.1,0-0.3c0-0.1,0-0.3-0.1-0.3v-0.1c0-0.1-0.3-0.3-0.3-0.4c-0.1-0.1-0.3-0.1-0.4-0.3h-0.4
				h-0.1c0-0.1,0-0.1-0.1-0.1C108.8,19.9,108.6,19.9,108.4,19.8C108.5,19.9,108.5,19.9,108.4,19.8 M107.4,20.4L107.4,20.4v0.1
				c0,0.1-0.1,0.1-0.1,0.1s0,0,0-0.1C107.2,20.6,107.3,20.3,107.4,20.4C107.4,20.3,107.4,20.3,107.4,20.4 M110,20.7
				C110,20.7,110,20.8,110,20.7c0,0.1,0,0.3,0,0.3l0,0h-0.1l0,0C109.8,20.8,109.8,20.7,110,20.7L110,20.7z M109.6,20.4
				C109.6,20.3,109.7,20.3,109.6,20.4c0.1,0,0.1,0,0.1,0.1l0,0c0,0,0,0-0.1,0C109.6,20.6,109.6,20.6,109.6,20.4L109.6,20.4
				 M107.4,22.4L107.4,22.4c0,0.1,0,0.1,0,0.1l0,0C107.3,22.6,107.3,22.4,107.4,22.4C107.3,22.4,107.3,22.3,107.4,22.4L107.4,22.4z
				 M107.4,20.7C107.4,20.8,107.4,20.8,107.4,20.7c0,0.1,0,0.1,0,0.1C107.3,20.8,107.3,20.8,107.4,20.7
				C107.3,20.8,107.3,20.7,107.4,20.7L107.4,20.7z M107.3,22C107.4,22,107.4,22,107.3,22c0,0.1,0,0.1,0,0.1l0,0c0,0-0.1,0-0.1-0.1
				H107.3L107.3,22L107.3,22 M108.6,20.3L108.6,20.3c-0.1,0.1-0.1,0-0.1,0C108.5,20.2,108.5,20.2,108.6,20.3
				C108.6,20.2,108.6,20.2,108.6,20.3L108.6,20.3z M110,22.2L110,22.2L110,22.2c0.1,0.1,0,0.1,0,0.1l0,0
				C109.8,22.3,109.8,22.3,110,22.2C109.8,22.2,109.8,22.2,110,22.2 M110,21.1C110,21.1,110,21.2,110,21.1c0,0.1,0,0.1,0,0.1l0,0
				C110,21.2,109.8,21.2,110,21.1C109.8,21.2,109.8,21.1,110,21.1L110,21.1z M108.8,20C108.8,20,108.8,20.2,108.8,20
				c-0.1,0-0.1,0-0.1,0C108.6,20,108.6,20,108.8,20L108.8,20L108.8,20z M109,20L109,20C109,20.2,109,20.2,109,20L109,20
				C108.9,20.2,108.9,20.2,109,20C108.9,20.2,109,20,109,20L109,20z"/>
		</g>
		<g id="g44" transform="translate(58.96,43.7446)">
			<path id="path46" class="st2" d="M19.7,22.3c-0.1,0.1-0.4,0.4-0.7,0.5c-1.5,0.8-2.7,0.7-3.5,1.1c-0.4,0.1-1.5,0.7-2.3,1.5
				c-0.3,0.3-0.7,0.8-0.9,1.1s-0.7,0.4-0.9,0.3c-1.1-0.4-4.5-1.5-5.2-1.6c-0.1,0-0.3-0.1-0.4-0.3c-0.1-0.1-0.3-0.4-0.4-0.8
				c-0.5-3.3-1.9-6.4-2.1-6.7c-0.1-0.1-0.4-0.3-0.5-0.1c-0.7,0.7-1.6,7.2-1.9,7.5s-3.7,1.9-4.4,2.4c-0.5,0.3-0.7,0.3-1.6-0.8
				c-1.2-1.2-1.9-1.9-3.3-2.4c-0.9-0.3-1.5-0.1-2.8-0.5c0,0-1.2-0.4-2.4-1.6c-0.4-0.5-1.2-2-0.8-2.4c0,0,0.1-0.1,0.3,0
				c0,0,0.8,1.2,0.9,1.3c0.7,0.7,1.6,1.1,3.1,1.2c1.5,0.1,3.2,0.5,4.9,2.3c0.1,0.1,0.7,0.9,0.8,1.1c0.3,0.3,0.4,0.3,0.8,0
				c0.5-0.3,3.2-1.6,3.2-1.6c0.3-0.3,0.3-3.2,0.4-3.9c0.5-4,2-6.7,2.7-7.2c0.3-0.3,0.5-0.1,0.8,0.1c0.7,0.7,2.4,5.2,2.9,7.5
				c0,0.9,0.5,3.5,0.7,3.6c0,0,3.3,1.1,3.9,1.3c0.3,0.1,0.4,0.1,0.7-0.1c1.3-1.3,2.8-2.7,4.5-2.9c1.3-0.3,2-0.3,2.9-0.7
				c0.5-0.3,0.9-0.5,1.2-0.9c0.4-0.3,0.7-0.5,0.8-0.4C21.3,20.5,20.2,21.8,19.7,22.3 M9.7,30.3c0,0-0.1,0-0.9-0.3
				c-0.3-0.1-0.8-0.3-0.8-0.3s0.1-0.7,0.3-0.8c0.1-0.5,0.3-0.7,0-0.9c-0.3-0.3-1.9-0.8-2.3-0.4c-0.1,0.1-0.3,0.3-0.3,0.5
				c0,0.1-0.1,0.9-0.1,0.9s-0.7,0-0.8-0.1s-0.4-2.1,0.1-2.5c0.8-0.8,5.6,1.2,5.7,1.3C11.1,28.6,10.2,29.8,9.7,30.3 M8.6,32.2
				c-0.1,0.1-4.4-0.8-4.5-1.1c-0.3-0.3-0.1-0.5-0.1-0.5s0.1-0.1,0.3-0.1c2.8,0,4.4,1.2,4.4,1.2C8.9,31.8,8.7,32.1,8.6,32.2
				 M6.5,35.1c-0.4,0.4-1.6,0.5-2.3-0.1c-0.7-0.8-0.7-2-0.5-2.3c0.1-0.1,0.9,0,0.9,0s0.1,0.1,0.1,0.3c0,0.1-0.1,1.2,0,1.3
				c0.1,0.1,0.7,0.1,0.8,0c0.1-0.1,0.3-1.2,0.3-1.3c0.7-0.3,1.2-0.3,1.5,0S7.1,34.5,6.5,35.1 M2.9,34.3c0,0-2.7,1.7-3.1,1.3
				c-0.1-0.1-1.2-1.6-0.7-2.1c0.1-0.1,0.9-0.4,1.5,0.1c0.1,0.1,0.1,0.3,0.3,0.4c0.1,0.1,0.5,0.5,1.1,0c0.3-0.3,0.1-0.3-0.1-1.3
				c-0.1-0.3,0-0.4,0.1-0.5c0.1-0.1,0.8-0.4,0.9-0.1C3.1,32.5,3.1,34.1,2.9,34.3 M-1.9,32.3c-0.3-0.3-0.3-0.4,0-0.7
				c0.7-0.7,3.9-2.1,4.5-1.5c0.1,0.1,0.1,0.4,0.1,0.4c-0.3,0.3-2,0.4-2.3,0.5C-0.1,31.4-1.8,32.5-1.9,32.3 M-2.6,30.7
				c-0.1-0.1-0.8-1.6-0.9-2c-0.1-0.1-0.1-0.4,0-0.5c0,0,4.1-2.8,4.9-2c0.3,0.3,1.1,2.5,0.9,2.7c0,0-0.9,0.4-1.1,0.3
				c0,0-0.5-1.6-0.7-1.7c-0.3-0.3-2.1,0.7-2.3,0.8c-0.3,0.3,0.7,1.9,0.4,2C-1.3,30.3-2.5,30.9-2.6,30.7 M-9.3,17
				c-0.5,0.5-1.2,0.5-1.6,0c-0.5-0.5-0.4-1.3,0.3-2c0.5-0.5,1.2-0.7,1.7-0.3C-8.1,15.5-9,16.7-9.3,17 M15.3,14.7
				c0.7-0.5,1.5-0.4,2,0.3c0.7,0.7,0.7,1.7,0.1,2.3c-0.3,0.3-0.9,0.7-1.7-0.1C15,16.5,14.7,15.1,15.3,14.7 M21.9,17.9
				c-0.3-0.3-0.4-0.4-0.7-0.4c-0.1,0-0.3,0-0.4,0.1c-0.1,0.3-0.4,0.7-0.5,0.9c-0.3,0.3-0.4,0.5-0.5,0.7c-0.4,0.4-0.8,0.7-1.2,0.8
				c-0.5,0.1-1.1,0.3-1.6,0.3c-0.7,0.1-1.5,0.1-2.1,0.4c-1.1,0.4-2.1,1.1-3.1,2c-0.1,0.1-0.4,0.3-0.5,0.5c0.1-0.5,0.4-1.3,1.1-1.9
				c0,0,0.3-0.1,0.4-0.3s0.3-0.3,0.4-0.3c0.3-0.3,0.1-0.5,0-0.7s-0.3-0.1-0.5-0.1s-1.1,0.1-2.1,0.9c-0.1,0.1-0.3,0.4-0.4,0.8
				c-0.1,0.3-0.3,0.7-0.4,0.8c-0.1,0.1-0.1,0.1-0.1,0.1l0,0c-0.4-0.4,0.7-2.4,1.3-3.1c0.7-0.5,1.6-1.3,2.3-1.3
				c0.3,0,0.7,0.3,1.1,0.4c0.4,0.3,0.9,0.4,1.3,0.5c0.1,0,0.3,0,0.4,0c0.9,0,1.7-0.5,2.3-0.9c1.2-1.2,1.1-3.1,0.1-4
				c-0.3-0.3-1.2-1.1-2.4-1.1c-0.7,0-1.3,0.3-2,0.8c-0.1,0.1-0.4,0.5-0.8,1.2c-0.3,0.4-0.5,1.1-0.7,1.2c-0.3,0.3-0.7,0.5-1.2,0.8
				c-0.3,0.1-0.7,0.4-0.9,0.5c-0.3,0.3-0.7,0.5-0.9,0.8C9,19,8.7,19.4,8.5,19.8c-0.1,0.1-0.1,0.5-0.3,0.9c-0.1,0.3-0.3,0.7-0.4,1.1
				c-0.1-0.7-0.4-1.9-0.7-2.8c-0.3-1.2-0.5-2.3-0.7-2.7C5.1,12.5,5,11.7,7.7,9.1c0.5-0.5,1.1-0.8,1.7-0.8c0.7,0,1.5,0.4,2,0.9
				c0.9,1.1,0.8,2.5,0,3.3c-0.3,0.3-0.7,0.4-0.9,0.4s-0.4,0-0.7-0.3L9.7,13l0.3-0.4c0,0,0.1-0.1,0.4-0.3c0.1-0.1,0.3-0.1,0.4-0.3
				c0.5-0.5,0.7-1.2,0.1-1.7c-0.3-0.3-0.8-0.5-1.3-0.5c-0.7,0-1.2,0.3-1.6,0.5c-0.4,0.4-0.7,0.9-0.7,1.5c0,0.7,0.3,1.3,0.9,2
				c0.5,0.5,1.2,0.9,2,0.9c1.3,0,2.4-0.9,2.8-1.3c1.2-1.2,1.1-3.7-0.5-5.3c-0.9-0.9-2-1.3-3.1-1.3S7.3,7.1,6.5,7.9
				c-1.1,0.9-2,2.5-2.4,3.6c0-1.1,0.1-2.9,0.8-3.5C5,7.9,5.3,7.8,5.5,7.5C5.9,7.3,6.2,7,6.3,6.9c1.1-1.1,1.5-1.7,1.5-2.4
				c0-0.4-0.1-0.8-0.5-1.3C7.1,3,6.9,2.9,6.6,2.9S6.1,3,5.8,3.3C5.7,3.4,5.3,3.9,4.9,4.7C4.6,5.3,4.2,5.9,3.9,6.2
				c0-0.5,0-1.7,0.9-3.9C5,1.8,5,1,4.5,0.5C4.2,0.2,3.8,0.1,3.4,0.1S2.6,0.2,2.3,0.5C1.8,1,1.7,2.1,1.9,2.5c0.8,1.6,0.9,3.3,0.8,3.9
				C2.6,6.2,2.6,6.2,2.5,6.1C2.3,5.9,2.1,5.5,1.8,5.1C1.4,4.6,1.1,4.2,1,4.1C0.6,3.7,0.1,3.4-0.5,3.4c-0.3,0-0.5,0.1-0.7,0.3
				C-1.7,4.1-1.9,4.9-1,5.9c0.3,0.3,1.5,1.2,2.5,1.9c0.3,0.1,0.4,0.3,0.4,0.3c0.3,0.4,0.5,3.2,0.1,3.5c-0.1-0.3-0.4-0.5-0.7-0.8
				c-0.3-0.3-0.5-0.7-0.7-0.8C0.2,9.3-1.4,7.7-3.4,7.7c-1.1,0-2,0.4-2.9,1.3c-0.8,0.7-1.2,1.6-1.2,2.7c0,1.2,0.5,2.3,1.1,2.7
				c0.5,0.5,1.7,1.1,2.9,1.1c0.8,0,1.5-0.3,1.9-0.7c1.6-1.6,0.5-2.9,0.3-3.2c-0.4-0.4-0.9-0.7-1.6-0.7c-0.4,0-0.9,0.1-1.2,0.5
				c-0.1,0-0.3,0.8-0.1,1.2c0,0.1,0.1,0.3,0.1,0.5c0,0.1,0.1,0.1,0.1,0.1l0,0c-0.1,0.1-0.3,0.1-0.4,0.1c-0.3,0-0.7-0.1-0.8-0.4
				c-0.8-0.9-0.8-2,0-2.9c0.5-0.5,1.3-0.9,2.1-0.9c0.9,0,1.7,0.4,2.4,1.1c1.2,1.3,1.3,2.7,0.5,4.7c-0.4,0.8-0.8,2.5-1.1,3.6
				l-0.1,0.8c0.1,0.8-0.1,2.1-0.3,3.1c-0.3-1.1-0.8-2.1-1.9-3.2c-0.1-0.1-0.7-0.5-1.2-1.1c-0.5-0.4-1.1-0.8-1.2-0.9
				c-0.1-0.1-0.1-0.3-0.3-0.4c0,0-0.1-0.3-0.1-0.4c0-0.4-0.1-0.8-0.3-1.1C-6.7,15-7,14.7-7.3,14.5c-0.7-0.7-1.5-1.1-2.3-1.1
				c-0.7,0-1.5,0.3-2.1,0.9c-0.5,0.5-1.3,2.1,0,3.6c0.3,0.3,1.3,1.3,2.7,1.3c0.1,0,0.3,0,0.4,0c0.7-0.1,1.2-0.1,1.6-0.1
				c0.8,0,1.5,0.3,2.5,1.3c0.9,0.9,1.7,2.3,1.6,2.9c-0.1-0.5-0.7-1.2-1.1-1.7c0,0-1.7-1.7-2.5-1.7c-0.1,0-0.3,0.1-0.4,0.1
				C-7,19.9-7,20.1-7,20.2s0,0.3,0.1,0.4c0,0,0.3,0.3,0.4,0.4c0.4,0.4,1.1,0.9,1.3,1.3c0.4,0.4,0.8,1.2,1.1,1.5
				C-4.3,23.7-4.6,23.3-5,23c-0.5-0.5-0.9-0.9-2-1.3c-0.8-0.4-1.5-0.4-2.1-0.5s-1.2-0.3-1.9-0.5c-0.9-0.3-1.6-0.7-2-1.1
				c-0.1-0.1-0.3-0.3-0.3-0.4c0,0-0.1-0.3-0.1-0.5c-0.1-0.5-0.3-0.8-0.4-0.9c-0.1-0.1-0.4-0.3-0.5-0.3c-0.1,0-0.4,0.1-0.5,0.3
				c-0.4,0.4-0.5,1.2-0.7,1.7c0,2,0.9,2.9,1.3,3.5c0.7,0.8,1.2,1.1,2,1.5c1.9,0.9,4.5,2.4,5.7,3.6c1.7,1.7,2.9,3.6,4.3,6.5
				c0,0.1,0.3,0.7,0.5,1.1c0.5,1.2,0.5,1.2,0.7,1.2c0.1,0.1,0.3,0.3,0.5,0.3c0.1,0,0.1,0,0.3,0c1.5-0.5,2.5-0.9,3.3-0.9
				s1.5,0.3,2.5,0.9c0.1,0.1,0.3,0.1,0.5,0.1c0.1,0,0.3,0,0.4-0.1c0.1-0.1,0.3-0.4,0.8-1.5c0.3-0.3,0.4-0.5,0.5-0.8
				c0.9-1.6,4.7-6,5.7-7.1c1.3-1.2,2.7-1.9,3.7-2.4c0.1,0,0.3-0.1,0.4-0.1c0.9-0.4,2-0.8,3.2-2.1c0.7-0.7,1.1-1.6,1.3-2.7
				C22.5,19.3,22.3,18.3,21.9,17.9"/>
		</g>
	</g>
</g>
</svg>
