<?xml version="1.0" encoding="utf-8"?>
<!-- Generator: Adobe Illustrator 27.3.1, SVG Export Plug-In . SVG Version: 6.00 Build 0)  -->
<svg version="1.1"
	 id="svg2" xmlns:rdf="http://www.w3.org/1999/02/22-rdf-syntax-ns#" xmlns:svg="http://www.w3.org/2000/svg" xmlns:dc="http://purl.org/dc/elements/1.1/" xmlns:cc="http://creativecommons.org/ns#"
	 xmlns="http://www.w3.org/2000/svg" xmlns:xlink="http://www.w3.org/1999/xlink" x="0px" y="0px" viewBox="0 0 124.6 124.4"
	 style="enable-background:new 0 0 124.6 124.4;" xml:space="preserve">
<style type="text/css">
	.st0{fill:#FFFFFF;}
	.st1{clip-path:url(#SVGID_00000127750098817182783870000002157337679403703207_);}
	.st2{fill:none;}
	.st3{fill:#503324;}
	.st4{fill:none;stroke:#503324;stroke-width:7.1111;stroke-miterlimit:7.1111;}
	.st5{fill:none;stroke:#503324;stroke-width:3.5556;stroke-miterlimit:7.1111;}
</style>
<circle class="st0" cx="62.3" cy="62.2" r="62.3"/>
<g>
	<defs>
		<rect id="SVGID_1_" x="-11.9" y="-11.9" width="148.4" height="148.1"/>
	</defs>
	<clipPath id="SVGID_00000155138756611221226720000003411857641435481496_">
		<use xlink:href="#SVGID_1_"  style="overflow:visible;"/>
	</clipPath>
	<g id="g14" style="clip-path:url(#SVGID_00000155138756611221226720000003411857641435481496_);">
		<g id="g20" transform="translate(46.7715,2.5977)">
			<path id="path22" class="st2" d="M15.6,112c28.9,0,52.3-23.5,52.3-52.3c0-28.9-23.5-52.3-52.3-52.3c-28.9,0-52.3,23.5-52.3,52.3
				S-13.3,112,15.6,112"/>
		</g>
		<g id="g24" transform="translate(46.7715,1.1807)">
			<path id="path26" class="st3" d="M15.6,115.1c29.8,0,54.1-24.2,54.1-54.1C69.7,31.3,45.5,7,15.6,7S-38.4,31.2-38.4,61
				S-14.2,115.1,15.6,115.1 M-24.3,61c0-22,17.9-39.9,39.9-39.9S55.5,39,55.5,61s-17.9,40-39.9,40S-24.3,83.2-24.3,61"/>
		</g>
		<g id="g28" transform="translate(46.7715,23.4404)">
			<path id="path30" class="st4" d="M15.6,66.3c15.2,0,27.5-12.3,27.5-27.5S30.9,11.3,15.6,11.3s-27.5,12.3-27.5,27.5
				S0.4,66.3,15.6,66.3z"/>
		</g>
		<g id="g32" transform="translate(46.7715,29.1104)">
			<path id="path34" class="st5" d="M15.6,53.9c11.4,0,20.7-9.3,20.7-20.7S27,12.4,15.6,12.4S-5.1,21.8-5.1,33.2S4.2,53.9,15.6,53.9
				z"/>
		</g>
		<g id="g36" transform="translate(12.7202,58.8906)">
			<path id="path38" class="st0" d="M9.1-11.3L9.1-11.3H8.6c0,0,0,0-0.1,0c-0.6,0.2-1.1-0.1-1.8,0.1c0,0,0,0-0.1,0
				c0.1-0.1,0.1-0.1,0.1-0.1s-0.1,0-0.2,0l0,0c-0.1,0-0.1,0-0.2,0H6.1c0,0,0,0-0.1,0c-0.1,0.2-0.4,0-0.6,0.1c0,0,0,0-0.1,0
				c-0.1,0-0.2,0.1-0.4,0.1c0,0-0.1,0-0.1-0.1l-0.1,0.1l0,0l0,0c0,0-0.1,0.1-0.2,0.1l0,0c0-0.4-0.1-0.5-0.1-0.5H4.2
				C4-11.7,3.8-11.9,3.5-12c-0.1-0.1-0.1-0.2-0.2-0.2l0,0c0-0.1-0.1-0.1-0.1-0.1l0,0c0,0,0-0.1-0.1-0.1l0,0
				c-0.1-0.1-0.2-0.2-0.2-0.4V-13H2.7c-0.2-0.4-0.6-0.5-0.7-0.7c-0.4,0-0.6,0.2-0.7,0.6c-0.1,0.2-0.1,0.5,0,0.7c1,1,2,1.9,3.1,2.9
				c0,0,0,0,0,0.1L4.2-9.3L3.8-9.5c-0.1,0-0.1,0-0.2,0c-0.2-0.4-0.7-0.4-1-0.6l0,0H2.5l0,0c-0.1,0-0.1,0-0.2,0
				c-0.4-0.1-0.7-0.5-1.1-0.5c-0.1,0-0.4-0.1-0.5,0v0.1c-0.2,0-0.4,0.2-0.4,0.5l0,0v0.2c0,0.1,0.1,0.2,0.1,0.2s0,0-0.1,0.1l0,0h0.1
				l0,0c0,0,0.1,0.1,0.1,0.2l0,0h0.1l0,0c0,0,0,0.1,0.1,0.1h0.1H1l0.5,0.1l1.7,0.5c0.1,0,0.2,0,0.4,0.1c0.1,0,0.2,0.1,0.4,0.1
				c0.1,0,0.1,0,0.1,0l0.2,0.1h0.1c0,0,0.1,0,0.1,0.1h0.1l0.1,0.1h0.1H5c0.1,0,0.1,0,0.1,0.1h0.1l0.2,0c0.1,0,0.1,0,0.2,0
				c0,0,0.1,0.1,0.2,0.1l0,0C6.3-7.5,6.6-7.4,7-7.3l0.2,0.1c0.1,0,0.1,0,0.2,0h0.1C7.8-7,7.9-7,8-7v-0.1c0.2,0,0.1-0.2,0.2-0.1
				c0-0.1,0-0.4,0.1-0.5c0,0,0-0.1,0.1-0.1C8.4-8,8.5-8.2,8.4-8.2c0,0,0,0-0.1,0c0-0.1-0.1-0.2-0.2-0.2c-0.2-0.1-0.4,0-0.6-0.1v-0.1
				c-0.1,0-0.2,0-0.4,0c0,0-0.1,0-0.1-0.1H6.9c-0.1,0-0.1,0-0.2-0.1l0,0C6.5-9.2,6.4-9.4,6.1-9.4H6c0-0.2-0.4-0.2-0.4-0.5l0,0
				c0.2,0,0.5,0.1,0.7,0s0.4,0.1,0.5,0c0.7,0,1.4,0.1,2.1,0c0.1-0.2,0.2-0.4,0.2-0.5l0.1-0.4v-0.1C9.4-11,9.2-11.2,9.1-11.3
				 M4.6-11.2L4.6-11.2c0,0.1-0.1,0.2-0.1,0.2s-0.1,0,0-0.1l0,0C4.5-11.1,4.5-11.1,4.6-11.2C4.5-11.1,4.6-11.1,4.6-11.2
				C4.6-11.1,4.6-11.1,4.6-11.2L4.6-11.2z M3.4-11.9L3.4-11.9c0,0.1,0,0.1,0,0.2l0,0C3.3-11.8,3.3-11.8,3.4-11.9
				C3.3-11.9,3.4-11.9,3.4-11.9 M2.9-9.8L2.8-9.7l0,0C2.8-9.8,2.9-9.9,2.9-9.8L2.9-9.8 M7.1-7.4L7.1-7.4C7.2-7.4,7.2-7.3,7.1-7.4
				C7.2-7.3,7.2-7.3,7.1-7.4C7.1-7.3,7.1-7.3,7.1-7.4L7.1-7.4z M4.2-11.3C4.2-11.2,4.1-11.2,4.2-11.3L4.2-11.3
				C4.1-11.2,4.1-11.2,4.2-11.3C4.1-11.3,4.1-11.3,4.2-11.3L4.2-11.3z M6.6-8.8L6.6-8.8L6.6-8.8C6.6-8.8,6.5-8.8,6.6-8.8
				C6.6-8.9,6.6-8.9,6.6-8.8 M8.3-11L8.3-11C8.3-10.8,8.3-10.8,8.3-11L8.3-11C8.2-10.8,8.2-10.8,8.3-11C8.2-10.8,8.3-11,8.3-11
				L8.3-11z M4.1-11.3L4.1-11.3L4.1-11.3L4.1-11.3C4-11.3,4-11.4,4.1-11.3L4.1-11.3z M2.7-8.7C2.8-8.7,2.8-8.8,2.7-8.7
				C2.8-8.7,2.8-8.7,2.7-8.7C2.8-8.7,2.8-8.7,2.7-8.7C2.8-8.7,2.7-8.7,2.7-8.7 M6.6-11.1C6.7-11.1,6.7-11.1,6.6-11.1L6.6-11.1
				L6.6-11.1L6.6-11.1L6.6-11.1L6.6-11.1L6.6-11.1z M5.2-11C5.2-11.1,5.2-11.1,5.2-11C5.2-11.1,5.2-11.1,5.2-11
				C5.2-11.1,5.2-11.1,5.2-11L5.2-11C5.3-11.1,5.3-11.1,5.2-11C5.2-11.1,5.2-11,5.2-11L5.2-11z M2.3-9.9L2.3-9.9
				C2.2-9.9,2.2-10,2.3-9.9L2.3-9.9C2.2-10,2.2-10,2.3-9.9C2.3-10,2.3-9.9,2.3-9.9 M3.6-11.8L3.6-11.8C3.6-11.8,3.5-11.7,3.6-11.8
				L3.6-11.8L3.6-11.8z M5.8-11.1L5.8-11.1C5.8-11,5.8-11,5.8-11.1C5.8-11,5.7-11.1,5.8-11.1L5.8-11.1 M6.1-7.6
				C6.1-7.6,6-7.6,6.1-7.6C6-7.6,6-7.6,6.1-7.6C6-7.6,6.1-7.8,6.1-7.6L6.1-7.6L6.1-7.6z M3.8-11.7L3.8-11.7
				C3.8-11.6,3.6-11.6,3.8-11.7C3.6-11.6,3.6-11.6,3.8-11.7C3.6-11.7,3.6-11.7,3.8-11.7 M6.5-11.2C6.5-11.1,6.5-11.1,6.5-11.2
				L6.5-11.2C6.4-11.1,6.5-11.1,6.5-11.2L6.5-11.2z M3.9-9.4C4-9.4,4-9.4,3.9-9.4L3.9-9.4C4-9.3,3.9-9.3,3.9-9.4L3.9-9.4 M3.5-9.4
				L3.5-9.4L3.5-9.4L3.5-9.4L3.5-9.4 M7.9-8.2L7.9-8.2L7.9-8.2L7.9-8.2L7.9-8.2z M3.8-9.5C3.8-9.4,3.8-9.4,3.8-9.5
				C3.8-9.4,3.8-9.4,3.8-9.5C3.6-9.4,3.6-9.4,3.8-9.5L3.8-9.5 M2.5-13C2.5-13,2.5-13.1,2.5-13C2.5-13.1,2.5-13.1,2.5-13L2.5-13z
				 M2.7-13L2.7-13L2.7-13L2.7-13C2.6-13,2.6-13,2.7-13C2.6-13,2.7-13,2.7-13 M8.2-8.2L8.2-8.2L8.2-8.2L8.2-8.2z M1.6-10.3L1.6-10.3
				C1.6-10.1,1.6-10.1,1.6-10.3L1.6-10.3L1.6-10.3 M4.7-10.5L4.7-10.5L4.7-10.5L4.7-10.5L4.7-10.5z M3-9.5L3-9.5L3-9.5L3-9.5
				C3.2-9.5,3.2-9.5,3-9.5L3-9.5z M8-11.1C8-11,8-11,8-11.1C8-11,8-11.1,8-11.1L8-11.1L8-11.1 M8.2-11.1L8.2-11.1
				C8-11.1,8-11.1,8.2-11.1C8-11.1,8.2-11.1,8.2-11.1L8.2-11.1 M1.9-9.2L1.9-9.2L1.9-9.2L1.9-9.2L1.9-9.2 M12.9-19.3
				c-1.2-0.4-2.3-0.7-3.5-1.1c-1-0.4-1.9-0.7-2.9-1c-0.5-0.1-1.1-0.6-1.5-0.4l0,0L5-21.6c0,0,0,0,0,0.1H4.8v0.1c0,0,0,0-0.1,0v0.1
				H4.6l0,0l0.1,0.1l0,0l0,0l0,0v0.1l0,0c0.1,0,0,0.1,0.1,0.2v0.1l0,0l0,0H5c0.1,0,0.1,0.1,0.2,0.2l0,0h0.1c0.1,0,0.1,0.1,0.1,0.2
				c0,0,0,0,0.1,0c0.1,0.5,0.5,0.8,1,1.2l0.2,0.2c0,0,0,0,0.1,0C7-18.6,7.5-18.2,7.6-18h0.1c0.1,0.1,0.1,0.1,0.2,0.2H8
				c0.1,0,0.1,0.2,0.2,0.2c0,0,0,0,0.1,0l0.1,0.1c0.2,0.1,0.4,0.4,0.6,0.6l0,0l0.2,0.2l0,0c0.1,0.1,0.2,0.2,0.2,0.2s0,0,0.1,0
				l0.2,0.2c0.2,0.4,0.4,0.7,0.6,1l0,0l0.1,0.1c0,0,0.1-0.1,0.2,0v-0.1c0,0,0-0.1,0.1-0.1c0,0,0-0.1,0-0.2l0.1-0.2
				c0-0.1,0.1-0.1,0-0.2c0,0,0-0.1-0.1-0.2c0,0,0,0-0.1,0c0.2-0.5-0.6-0.5-0.6-1.1c0.1-0.1,0.2-0.2,0.4-0.5l0.5-0.8
				c0.1-0.2,0.6,0.1,0.7,0.1c0.4,0,0.7,0.5,1.1-0.1C13-18.8,13.2-19.2,12.9-19.3L12.9-19.3z M10.1-19.1c0.1,0,0,0.1,0,0.2l-0.2,0.5
				c-0.1,0.2-0.2,0.4-0.4,0.5c0,0-0.1,0-0.2,0s-1.9-1.8-2-1.9c-0.1-0.1-0.1-0.1,0-0.2c0-0.1,0.1-0.1,0.2,0c0.6,0.2,1.3,0.4,1.9,0.6
				h0.1h0.1c0.1,0,0.1,0,0.2,0.1C9.8-19.2,10-19.2,10.1-19.1L10.1-19.1z M10.9-15.8C11-15.7,11-15.7,10.9-15.8
				c0,0.1-0.1,0.2-0.1,0.2S10.8-15.7,10.9-15.8L10.9-15.8 M12.8-30.7l-0.4-0.4c-0.1,0-0.1-0.1-0.1-0.1c-0.1,0-0.2,0-0.2,0.1
				l-0.2,0.4l-1,1.1c-0.1,0.1-0.1,0.1-0.2,0.2c-0.2,0.4-0.6,0.6-0.8,1l0,0c-0.1,0.1-0.1,0.2-0.1,0.2l-0.1,0.1c0,0.1,0,0.1,0,0.1
				c0.4,0.2,0.7,0.6,1.1,0.8c0.2,0.1,0.4,0.4,0.6,0.5c0.4,0.2,0.7,0.6,1.1,1l0.8,0.8l0.2,0.1c0,0,0,0,0,0.1c0,0,0,0.1,0.1,0.1
				c0.1,0.1,0.2,0.1,0.4,0.2l0.1,0.1h0.1c0.1,0.1,0.1,0.1,0.1,0.2h0.1c0,0.1,0,0.1,0.1,0.1l0.1,0.1c0,0,0,0,0.1,0.1
				c0.1,0,0.1,0.1,0.2,0.1l0.5,0.6l0.1,0.1c0.1,0,0.2,0.1,0.4,0c0.1,0,0.1,0,0.2-0.1c0.1-0.1,0.1-0.4,0.2-0.5l0.1-0.1l0,0v-0.1
				c0,0,0,0,0.1,0c0-0.1,0-0.2-0.1-0.4c-0.1,0-0.2-0.1-0.4-0.2L16-24.3c-0.5,0-0.6-0.1-0.7-0.1c-0.4-0.4-0.8-0.7-1.3-1.1h-0.1
				c0-0.1,0-0.1,0-0.2l-0.2-0.1c-0.1,0-0.1-0.1,0-0.2l1.7-1.9c0-0.1,0-0.1,0-0.1l0,0l-0.1-0.1c-0.2-0.1-0.5-0.4-0.7-0.4
				c-0.6,0.6-1.2,1.2-1.7,1.9c-0.1,0-0.2,0-0.2-0.1L12.3-27c0,0,0,0-0.1,0c0-0.1-0.1-0.1-0.1-0.2l-0.2-0.2l-0.1-0.1
				c-0.1-0.1-0.2-0.1-0.4-0.2V-28c-0.1-0.1-0.2-0.2-0.4-0.2c0-0.1,0-0.2,0.1-0.4l0.2-0.2c0,0,0-0.1,0.1-0.1c0,0,0.1-0.1,0.2-0.2
				l0.4-0.5l0.1-0.1l0.1-0.1l0.4-0.5C12.8-30.4,12.8-30.5,12.8-30.7L12.8-30.7z M12.5-30.6L12.5-30.6c0.1,0.1,0.1,0.2,0.1,0.2l0,0
				h-0.1C12.5-30.4,12.5-30.5,12.5-30.6C12.5-30.5,12.3-30.5,12.5-30.6L12.5-30.6C12.3-30.5,12.3-30.5,12.5-30.6L12.5-30.6
				C12.3-30.6,12.3-30.6,12.5-30.6 M13.2-25.3C13-25.1,13-25.1,13.2-25.3C13-25.1,13-25.1,13.2-25.3c-0.1,0-0.1,0-0.1-0.1
				C13-25.3,13-25.3,13.2-25.3C13-25.3,13-25.3,13.2-25.3L13.2-25.3 M13.9-24.7v0.1l0,0l0,0V-24.7L13.9-24.7L13.9-24.7L13.9-24.7z
				 M12.3-26L12.3-26C12.3-25.9,12.3-26,12.3-26C12.2-26,12.2-26,12.3-26L12.3-26C12.2-26,12.3-26,12.3-26L12.3-26L12.3-26z
				 M12.6-30.3L12.6-30.3C12.5-30.3,12.5-30.3,12.6-30.3C12.5-30.3,12.5-30.3,12.6-30.3C12.5-30.3,12.5-30.3,12.6-30.3L12.6-30.3
				C12.5-30.4,12.5-30.4,12.6-30.3L12.6-30.3z M13.6-24.8L13.6-24.8C13.6-24.7,13.6-24.7,13.6-24.8C13.6-24.7,13.6-24.7,13.6-24.8
				C13.5-24.8,13.5-24.8,13.6-24.8L13.6-24.8L13.6-24.8z M10.9-27.2L10.9-27.2C10.9-27.2,10.9-27,10.9-27.2
				C10.9-27,10.9-27.2,10.9-27.2C10.8-27.2,10.8-27.2,10.9-27.2L10.9-27.2L10.9-27.2L10.9-27.2z M10.8-27.3
				C10.9-27.3,10.8-27.3,10.8-27.3L10.8-27.3L10.8-27.3L10.8-27.3L10.8-27.3 M10-28.1L10-28.1L10-28.1L10-28.1
				C9.8-28.1,9.8-28.1,10-28.1L10-28.1z M12.6-25.7L12.6-25.7L12.6-25.7L12.6-25.7L12.6-25.7C12.6-25.6,12.6-25.9,12.6-25.7
				L12.6-25.7z M12.1-26.1L12.1-26.1L12.1-26.1L12.1-26.1L12.1-26.1L12.1-26.1L12.1-26.1C12-26.1,12-26.1,12.1-26.1
				C12.1-26.1,12.1-26.2,12.1-26.1C12.1-26.2,12.1-26.2,12.1-26.1 M10.9-29.4L10.9-29.4L10.9-29.4L10.9-29.4
				C10.8-29.4,10.8-29.4,10.9-29.4C10.8-29.4,10.9-29.4,10.9-29.4 M12-26.2L12-26.2L12-26.2L12-26.2L12-26.2
				C12-26.2,11.9-26.2,12-26.2L12-26.2z M14-24.4L14-24.4L14-24.4L14-24.4L14-24.4z M12.8-25.5L12.8-25.5L12.8-25.5L12.8-25.5
				L12.8-25.5C12.7-25.5,12.8-25.5,12.8-25.5L12.8-25.5 M11.1-27L11.1-27L11.1-27L11.1-27C11-26.9,11-27,11.1-27L11.1-27L11.1-27z
				 M12.2-30.4L12.2-30.4C12.1-30.4,12.1-30.4,12.2-30.4C12.1-30.4,12.1-30.4,12.2-30.4L12.2-30.4C12.1-30.4,12.2-30.4,12.2-30.4
				 M20.2-37.2l-0.4-0.4c0-0.1-0.1-0.1-0.1-0.2c-0.1-0.1-0.2,0-0.2,0l-0.4,0.2l-1.2,0.8c-0.1,0.1-0.1,0.1-0.2,0.2
				c-0.4,0.2-0.6,0.5-1,0.7l0,0c-0.1,0.1-0.1,0.1-0.2,0.2h-0.1v0.1c0.2,0.4,0.6,0.7,0.8,1.1c0.1,0.2,0.2,0.4,0.5,0.6
				c0.4,0.4,0.6,0.7,1,1.2l0.7,1l0.2,0.2l0,0v0.1c0.1,0.1,0.2,0.2,0.4,0.4c0,0,0,0.1,0.1,0.1c0,0,0.1,0,0.1,0.1s0.1,0.2,0.1,0.2
				s0,0,0.1,0c0,0.1,0,0.1,0.1,0.1l0.1,0.1c0,0,0,0,0,0.1c0.1,0.1,0.1,0.1,0.1,0.1l0.4,0.6l0.1,0.1c0.1,0,0.2,0.1,0.2,0.1
				c0.1,0,0.1,0,0.2,0c0.1-0.1,0.1-0.2,0.2-0.4h0.1l0,0c0,0,0,0,0-0.1c0,0,0,0,0.1,0c0.1-0.1,0-0.2,0-0.4c-0.1-0.1-0.2-0.2-0.4-0.4
				l-0.1-0.1c-0.1-0.1-0.1-0.2-0.2-0.2c-0.4-0.5-0.7-0.8-1.1-1.3h-0.1V-32l-0.1-0.2c0-0.1-0.1-0.1,0-0.2l2-1.5c0-0.1,0-0.1,0-0.1
				l0,0v-0.1c-0.2-0.1-0.4-0.5-0.6-0.6c-0.6,0.5-1.3,1.1-1.9,1.5c-0.1,0-0.2,0-0.2-0.1l-0.1-0.2c0,0,0,0-0.1-0.1
				c0-0.1,0-0.1-0.1-0.2l-0.5-0.1l-0.1-0.1c-0.1-0.1-0.1-0.2-0.2-0.4l-0.1-0.1c-0.1-0.1-0.1-0.2-0.2-0.4c0-0.1,0-0.2,0.1-0.4
				l0.2-0.2l0.1-0.1c0.1-0.1,0.2-0.1,0.4-0.2l0.5-0.2l0.1-0.1l0.1-0.1l0.5-0.4C20.1-36.9,20.2-37,20.2-37.2L20.2-37.2z M19.7-37.2
				L19.7-37.2c0.1,0.1,0.1,0.1,0.1,0.2l0,0h-0.1C19.7-37,19.7-37,19.7-37.2C19.7-37,19.7-37,19.7-37.2L19.7-37.2
				C19.6-37,19.6-37,19.7-37.2L19.7-37.2L19.7-37.2 M19.4-31.8L19.4-31.8C19.2-31.8,19.2-31.8,19.4-31.8c-0.1,0-0.1-0.1-0.1-0.1
				C19.4-31.9,19.4-31.9,19.4-31.8C19.4-31.9,19.4-31.9,19.4-31.8L19.4-31.8 M20.1-31.1c0,0,0,0.1-0.1,0.1l0,0l0,0v-0.1l0,0H20.1
				L20.1-31.1z M18.8-32.6L18.8-32.6L18.8-32.6C18.6-32.6,18.6-32.6,18.8-32.6L18.8-32.6C18.8-32.8,18.8-32.8,18.8-32.6L18.8-32.6
				L18.8-32.6z M19.8-36.9C19.8-36.8,19.8-36.8,19.8-36.9C19.7-36.8,19.7-36.8,19.8-36.9C19.7-36.8,19.7-36.8,19.8-36.9
				C19.7-36.8,19.7-36.9,19.8-36.9L19.8-36.9C19.7-36.9,19.7-36.9,19.8-36.9L19.8-36.9z M19.8-31.2L19.8-31.2L19.8-31.2
				C19.8-31.1,19.7-31.2,19.8-31.2C19.7-31.2,19.7-31.2,19.8-31.2C19.7-31.2,19.8-31.3,19.8-31.2L19.8-31.2z M17.6-34.1L17.6-34.1
				L17.6-34.1L17.6-34.1C17.6-34.1,17.5-34.1,17.6-34.1L17.6-34.1C17.6-34.2,17.6-34.2,17.6-34.1L17.6-34.1z M17.6-34.3
				C17.6-34.3,17.6-34.2,17.6-34.3C17.6-34.2,17.5-34.2,17.6-34.3C17.5-34.2,17.5-34.3,17.6-34.3L17.6-34.3
				C17.5-34.3,17.6-34.3,17.6-34.3 M16.9-35.3L16.9-35.3L16.9-35.3L16.9-35.3C16.7-35.1,16.7-35.3,16.9-35.3L16.9-35.3z M19-32.4
				L19-32.4L19-32.4L19-32.4L19-32.4C18.9-32.3,18.9-32.4,19-32.4L19-32.4z M18.6-32.9L18.6-32.9C18.5-32.9,18.5-32.9,18.6-32.9
				L18.6-32.9L18.6-32.9C18.5-32.9,18.5-32.9,18.6-32.9L18.6-32.9C18.5-32.9,18.5-32.9,18.6-32.9C18.5-32.9,18.5-32.9,18.6-32.9
				L18.6-32.9 M18.1-36.3L18.1-36.3C18.1-36.3,17.9-36.3,18.1-36.3L18.1-36.3C17.9-36.3,17.9-36.3,18.1-36.3
				C17.9-36.3,18.1-36.3,18.1-36.3 M18.4-33C18.4-33,18.5-33,18.4-33C18.5-33,18.5-33,18.4-33L18.4-33L18.4-33L18.4-33L18.4-33z
				 M20.2-30.9C20.2-30.9,20.2-30.7,20.2-30.9C20.2-30.7,20.1-30.7,20.2-30.9C20.1-30.9,20.1-30.9,20.2-30.9L20.2-30.9z M19.1-32.2
				L19.1-32.2C19.1-32.2,19.1-32,19.1-32.2C19.1-32,19.1-32,19.1-32.2L19.1-32.2C19.1-32,19.1-32.2,19.1-32.2L19.1-32.2 M17.8-33.9
				L17.8-33.9C17.8-33.9,17.7-33.9,17.8-33.9L17.8-33.9C17.7-33.8,17.7-33.9,17.8-33.9L17.8-33.9L17.8-33.9z M19.5-37L19.5-37
				L19.5-37C19.5-37,19.4-37,19.5-37L19.5-37L19.5-37 M29-42.8c-0.1-0.1-0.4-0.2-0.6-0.1c-0.1,0.1-0.4,0.2-0.5,0.4
				c-0.2,0.1-0.5,0.2-0.7,0.2l0,0l-0.1,0.1c0,0,0,0-0.1,0h-0.1c0,0,0,0,0,0.1c-0.1,0-0.1,0-0.2,0l-0.4,0.2c-0.1,0-0.1,0-0.2,0l0,0
				c-0.1,0-0.1,0.1-0.1,0.1s0,0-0.1,0c-0.1,0-0.1,0-0.2,0.1c-0.2,0.1-0.5,0.4-0.5,0.6l0,0v0.1l0,0c0.1,0.1,0.2,0.5,0.8,1.8
				c0,0.1,0,0.2,0.1,0.4l0.1,0.2c0,0.1,0.1,0.1,0.1,0.2l0.1,0.2c0.1,0.1,0.1,0.4,0.1,0.5c0,0,0,0,0,0.1l0.1,0.2c0,0,0,0.1,0.1,0.1
				l0.1,0.5c0.1,0.1,0.2,0.4,0.4,0.6c0.1,0.1,0.1,0.4,0.2,0.5c0,0.1,0,0.1,0.1,0.2c0,0.1,0.1,0.2,0.1,0.4s0,0.1,0,0.2l0,0
				c0,0,0.1,0.1,0.1,0.2v0.1v0.1c0,0.1,0.2,0.1,0.2,0.2v0.1c0,0.1,0.4,0,0.4,0.2l0,0c0.1-0.1,0.4-0.2,0.5-0.4c0,0,0.1,0,0.1-0.1
				c0.2-0.1,0.6-0.1,0.7-0.2h0.1c0.1,0,0.1,0,0.2-0.1l0.8-0.5c0.1,0,0.1,0,0.2-0.1l0,0h0.4c0,0,0.1,0,0.1-0.1c0,0,0,0,0.1,0l0.1-0.1
				l0,0c0.2-0.1,0-0.5,0-0.6V-36c-0.1-0.1-0.2-0.2-0.4-0.2C31-36,30.4-35.7,30-35.5c-0.4,0.1-0.7,0.4-1.1,0.6c-0.1,0-0.2,0-0.4-0.2
				c-0.2-0.6-0.6-1.2-0.8-1.8c0-0.1,0.1-0.2,0.1-0.2c0.2,0,0.4-0.1,0.6-0.2l0.7-0.4c0.1-0.1,0.4-0.1,0.5-0.1
				c0.1-0.2,0.4-0.2,0.5-0.5L30-38.6l-0.1-0.2c-0.1-0.1-0.1-0.2-0.4-0.2c-0.2,0-0.5,0.1-0.6,0.1v0.1c-0.4,0.1-0.7,0.2-1,0.4
				c-0.1,0-0.1,0.1-0.2,0.1c-0.1,0.1-0.2,0.2-0.4,0.2s-0.2,0.1-0.4,0c-0.1-0.2-0.2-0.4-0.2-0.6l-0.5-1.2l-0.1-0.2
				c0-0.1,0-0.2,0.1-0.2l0.1-0.1c0,0,0.1,0,0.1-0.1c0.4-0.1,0.7-0.2,1.1-0.4c0.1-0.1,0.2-0.1,0.4-0.2h0.1c0.2-0.1,0.6-0.2,0.8-0.5
				C29.1-42.3,29.1-42.5,29-42.8 M26.4-38.4c0,0-0.1,0-0.1-0.1l0,0l0,0C26.3-38.6,26.4-38.5,26.4-38.4
				C26.4-38.5,26.4-38.4,26.4-38.4L26.4-38.4z M31.9-35.7C31.9-35.7,31.9-35.6,31.9-35.7c-0.1,0.1-0.1,0.1-0.1,0.1l0,0
				C31.6-35.7,31.7-35.7,31.9-35.7C31.7-35.7,31.7-35.7,31.9-35.7 M26.7-41.9L26.7-41.9c-0.1,0.1-0.1,0.1-0.1,0.1s0,0,0-0.1
				C26.6-41.9,26.7-42,26.7-41.9C26.7-42,26.7-42,26.7-41.9L26.7-41.9z M25.3-40.7C25.4-40.6,25.3-40.6,25.3-40.7L25.3-40.7
				l-0.1,0.1L25.3-40.7L25.3-40.7 M25.1-41.1C25.2-41.1,25.2-41.1,25.1-41.1C25.2-41,25.2-41,25.1-41.1L25.1-41.1
				C25.1-41,25.1-41,25.1-41.1C25.1-41,25.1-41.1,25.1-41.1L25.1-41.1z M39.4-46.2c-0.1-0.1-0.4-0.2-0.6-0.2
				c-0.1,0.1-0.4,0.1-0.6,0.2c-0.2,0-0.5,0.1-0.8,0.1l0,0L37.2-46c0,0,0,0-0.1,0H37c0,0-0.1,0-0.1,0.1c-0.1,0-0.1,0-0.2,0h-0.4
				c-0.1,0-0.1,0-0.2,0l0,0c-0.1,0-0.1,0.1-0.1,0.1l0,0c-0.1,0-0.1,0-0.2,0c-0.2,0.1-0.5,0.2-0.6,0.5l0,0c0,0-0.1,0.1,0,0.1l0,0
				c0,0.1,0.1,0.5,0.5,1.9c0,0.1,0,0.2,0,0.4l0.1,0.2c0,0.1,0,0.1,0,0.2v0.2c0,0.1,0.1,0.4,0.1,0.5v0.1v0.2c0,0,0,0.1,0.1,0.1v0.5
				c0.1,0.1,0.1,0.4,0.2,0.6c0,0.2,0.1,0.4,0.1,0.6c0,0.1,0,0.2,0,0.2c0,0.1,0.1,0.2,0.1,0.4c0,0.1,0,0.1,0,0.2l0,0
				c0,0.1,0.1,0.1,0.1,0.2v0.1v0.1c0,0.1,0.1,0.1,0.2,0.2v0.1c0,0.1,0.2,0.1,0.4,0.2l0,0c0.1-0.1,0.4-0.1,0.6-0.2h0.1
				c0.2-0.1,0.6,0,0.8-0.1h0.1c0.1,0,0.1,0,0.2,0l1-0.2c0.1,0,0.1,0,0.2,0l0,0h0.4c0,0,0.1,0,0.1-0.1c0,0,0,0,0.1,0
				c0,0,0.1-0.1,0.2-0.1l0,0c0.2-0.1,0.1-0.4,0.1-0.6v-0.1c0-0.2-0.1-0.4-0.4-0.4c-0.6,0.1-1.1,0.2-1.7,0.4
				c-0.4,0.1-0.7,0.1-1.1,0.4c-0.1,0-0.2-0.1-0.2-0.2c-0.1-0.7-0.2-1.3-0.4-2c0.1-0.1,0.1-0.2,0.2-0.2c0.2,0,0.4,0,0.6-0.1l0.8-0.1
				c0.1,0,0.4-0.1,0.5-0.1c0.1-0.1,0.4-0.1,0.6-0.4v-0.2v-0.2c0-0.1-0.1-0.4-0.2-0.4c-0.2-0.1-0.5,0-0.6,0l-0.1,0.1
				c-0.4,0.1-0.7,0.1-1.1,0.1c-0.1,0-0.1,0-0.2,0.1c-0.1,0.1-0.2,0.1-0.4,0.1s-0.2,0-0.4,0c-0.1-0.2-0.1-0.4-0.1-0.6l-0.2-1.2v-0.2
				c0-0.1,0.1-0.2,0.2-0.2h0.2h0.1c0.4,0,0.7-0.1,1.1-0.1c0.1,0,0.2-0.1,0.5-0.1h0.1c0.4-0.1,0.6-0.1,0.8-0.4
				C39.4-45.6,39.4-46,39.4-46.2 M35.8-42.4l-0.1-0.1l0,0l0,0C35.8-42.5,35.8-42.5,35.8-42.4C35.9-42.4,35.8-42.4,35.8-42.4
				L35.8-42.4z M40.6-38.6L40.6-38.6c-0.1,0.1-0.1,0.1-0.1,0l0,0C40.4-38.6,40.4-38.7,40.6-38.6C40.6-38.7,40.6-38.7,40.6-38.6
				 M37-45.9C37-45.7,37-45.7,37-45.9c-0.1,0.1-0.1,0-0.1,0C36.9-45.7,36.9-45.9,37-45.9C36.9-45.9,36.9-45.9,37-45.9L37-45.9
				L37-45.9z M35.3-44.9C35.3-44.8,35.3-44.8,35.3-44.9L35.3-44.9l-0.1,0.1L35.3-44.9L35.3-44.9 M35.2-45.3L35.2-45.3L35.2-45.3
				L35.2-45.3C35.2-45.1,35.2-45.1,35.2-45.3C35.1-45.3,35.2-45.3,35.2-45.3L35.2-45.3z M49.7-39.8c-0.2-0.7-0.4-1.4-0.6-2.1
				c-0.1-0.5-0.2-1-0.4-1.4v-0.1c0-0.1,0.1-0.4,0.2-0.5c0.4-0.4,0.6-1,0.6-1.5c0-0.4-0.1-0.7-0.2-1c-0.4-0.5-0.8-0.8-1.3-1h-0.1
				c-0.4-0.1-0.7-0.1-1.1-0.1H46h-0.2h-0.2l-0.1,0.1c0,0.5,0,1,0.1,1.3v0.4c0,0,0,0.1,0.1,0.1c0,0.4,0,0.7,0,1.1v2.7
				c0,0.1,0,0.4,0,0.6v0.5v0.1c0,0.1,0,0.2,0,0.4c0,0.2,0,0.4,0,0.6c0,0.2,0,0.5,0.1,0.6c0.2,0,0.4,0,0.5,0c0,0,0.1,0,0.2,0l0,0
				c0.1,0,0.4-0.1,0.4-0.1s0-0.5,0-0.7c0-0.6-0.1-1.2-0.1-1.9V-42v-0.1v-0.4c0-0.1,0-0.1,0-0.2c0.1,0,0.2,0,0.4,0h0.7h0.1h0.1
				c0.1,0.4,0.2,0.7,0.4,1.2c0.1,0.6,0.2,1.1,0.4,1.7c0.1,0.1,0,0.5,0.1,0.5l0,0c0,0.1,0.1,0.4,0.1,0.4s0.2,0,0.4-0.1
				c0.1,0,0.2,0,0.5,0c0.1,0,0.1-0.1,0.1-0.1C49.7-39.7,49.7-39.7,49.7-39.8 M48.4-45.6c0,0.1,0,0.1,0,0.2c0,0.5-0.1,1-0.6,1.2
				c-0.2,0.1-0.5,0.1-0.7,0.1h-0.6c-0.1-0.1-0.1-0.2-0.1-0.7c0-0.1,0-0.4,0-0.6c0,0,0,0,0-0.1l0,0c0-0.1,0-0.5,0-0.6v-0.1
				c0-0.1,0-0.1,0.1-0.2c0.1-0.1,0.2-0.1,0.4-0.1c0.1,0,0.4,0,0.5,0c0.5,0,0.7,0.2,1.1,0.6l0,0C48.3-45.7,48.4-45.7,48.4-45.6
				 M46.6-39.4l-0.1,0.1l0,0C46.4-39.4,46.5-39.4,46.6-39.4C46.5-39.4,46.5-39.4,46.6-39.4v-0.2c0,0,0-0.1,0-0.2l0,0c0,0,0,0,0,0.1
				V-39.4L46.6-39.4 M49.7-39.5C49.7-39.4,49.6-39.4,49.7-39.5C49.6-39.4,49.6-39.5,49.7-39.5L49.7-39.5c-0.1-0.1-0.1-0.2-0.1-0.2
				l0,0l0,0C49.6-39.8,49.7-39.7,49.7-39.5L49.7-39.5 M45.6-45.7L45.6-45.7c-0.1,0-0.1,0-0.1,0l0,0C45.4-45.9,45.6-45.9,45.6-45.7
				C45.6-45.9,45.6-45.9,45.6-45.7C45.6-45.9,45.6-45.9,45.6-45.7C45.6-45.9,45.6-45.7,45.6-45.7 M49.6-39.5
				C49.6-39.4,49.5-39.4,49.6-39.5C49.5-39.4,49.5-39.4,49.6-39.5L49.6-39.5C49.5-39.5,49.5-39.5,49.6-39.5L49.6-39.5L49.6-39.5
				 M48.7-39.8L48.7-39.8C48.7-39.9,48.7-39.9,48.7-39.8L48.7-39.8C48.7-39.9,48.8-39.9,48.7-39.8C48.8-39.8,48.8-39.8,48.7-39.8
				L48.7-39.8z M48.9-43.4C48.9-43.4,48.9-43.5,48.9-43.4C48.8-43.5,48.8-43.4,48.9-43.4C48.8-43.4,48.8-43.4,48.9-43.4L48.9-43.4
				L48.9-43.4L48.9-43.4z M48.1-47.4L48.1-47.4c0-0.1,0-0.1-0.1-0.1l0,0L48.1-47.4C47.9-47.5,47.9-47.5,48.1-47.4
				C47.9-47.4,47.9-47.4,48.1-47.4L48.1-47.4C47.9-47.4,47.9-47.4,48.1-47.4C47.9-47.4,48.1-47.4,48.1-47.4 M48.9-43.7
				C48.9-43.7,48.8-43.6,48.9-43.7c-0.1,0.1-0.1,0.1,0,0.1C48.8-43.6,48.9-43.6,48.9-43.7C48.9-43.6,48.9-43.6,48.9-43.7
				C48.9-43.6,48.9-43.6,48.9-43.7L48.9-43.7z M48.3-45.9C48.3-45.9,48.4-45.9,48.3-45.9C48.4-45.9,48.4-45.9,48.3-45.9
				C48.4-45.9,48.4-45.9,48.3-45.9C48.4-45.9,48.4-45.9,48.3-45.9L48.3-45.9z M46.4-45.3L46.4-45.3C46.3-45.3,46.3-45.3,46.4-45.3
				C46.3-45.3,46.3-45.3,46.4-45.3L46.4-45.3L46.4-45.3L46.4-45.3 M45.9-39.3L45.9-39.3C45.9-39.3,45.9-39.4,45.9-39.3
				C45.9-39.4,45.9-39.4,45.9-39.3C45.9-39.4,45.9-39.4,45.9-39.3L45.9-39.3L45.9-39.3z M49.5-39.7L49.5-39.7L49.5-39.7L49.5-39.7
				C49.5-39.7,49.5-39.5,49.5-39.7L49.5-39.7L49.5-39.7L49.5-39.7 M48.9-43.2C48.9-43.2,48.8-43.2,48.9-43.2
				C48.8-43.2,48.8-43.2,48.9-43.2C48.8-43.2,48.8-43.1,48.9-43.2C48.9-43.1,48.9-43.2,48.9-43.2L48.9-43.2z M46.2-39.3L46.2-39.3
				L46.2-39.3C46.2-39.4,46.2-39.4,46.2-39.3C46.2-39.4,46.2-39.4,46.2-39.3C46.3-39.3,46.3-39.3,46.2-39.3
				C46.3-39.3,46.3-39.3,46.2-39.3 M49-43.8C49-43.8,48.9-43.8,49-43.8C48.9-43.7,49-43.7,49-43.8C49-43.7,49-43.7,49-43.8L49-43.8
				 M46.5-46.2C46.5-46.3,46.5-46.3,46.5-46.2C46.5-46.3,46.4-46.2,46.5-46.2C46.4-46.2,46.5-46.2,46.5-46.2L46.5-46.2 M49.6-39.9
				C49.5-39.9,49.5-39.9,49.6-39.9C49.5-39.9,49.5-39.9,49.6-39.9L49.6-39.9L49.6-39.9z M48.5-40.1C48.4-40.1,48.4-40,48.5-40.1
				C48.4-40,48.5-40,48.5-40.1C48.5-40,48.5-40,48.5-40.1C48.5-40,48.5-40.1,48.5-40.1L48.5-40.1z M49-43C48.9-43,48.9-43,49-43
				C48.9-43,48.9-43,49-43C48.9-42.9,48.9-42.9,49-43L49-43C48.9-42.9,49-42.9,49-43 M59.4-43.1c0-0.1,0.1-0.1,0.1-0.2l0.1-0.6v-0.1
				c0-0.1,0.1-0.2,0.1-0.4c0.1-0.7,0-1.4-0.6-2l-0.7-0.5c-0.1,0-0.1-0.1-0.2-0.1c-0.4-0.1-0.7,0-1,0s-0.5,0-0.7,0.1
				c-0.4,0.2-0.5,0.2-0.7,0.6c-0.2,0.5-0.4,1-0.5,1.5l-0.2,1.2c0,0.1-0.1,0.4-0.1,0.5v0.1c0,0.1,0,0.2,0,0.4l-0.4,1.5l0,0
				c0,0.2,0,0.6,0.1,0.8c0,0.1,0.2,0.2,0.2,0.4c0.4,0.5,0.7,1,1.3,1.1c0.1,0,0.1,0,0.2,0c0.7,0.1,1.4-0.1,1.9-0.6
				c0.2-0.4,0.5-0.6,0.6-1.1v-0.2l0.1-0.6c0-0.1,0-0.2,0-0.4s0.1-0.1,0.1-0.2v-0.4v-0.1L59.4-43.1z M58.4-43.4l-0.6,2.7
				c-0.1,0.4-0.2,1-0.8,0.8l0,0l0,0c-0.2,0-0.4,0-0.5,0c-0.1,0-0.2,0-0.2-0.1c-0.2-0.2-0.6-0.6-0.5-1l0,0V-41l0.2-0.4
				c0,0,0-0.1,0-0.2v-0.1c0-0.1,0-0.4,0.1-0.5c0-0.1,0.1-0.2,0.1-0.4s0-0.2,0-0.4c0-0.2,0.1-0.5,0.2-0.7c0-0.1,0.1-0.2,0.1-0.4
				c0-0.1,0-0.1,0-0.2v-0.1l0.1-0.2c0-0.1,0-0.1,0-0.2c0.1-0.1,0.1-0.2,0.1-0.4v-0.1c0.1-0.4,0.2-0.7,0.7-0.8c0.1,0,0.4,0,0.6,0
				c0.2,0,0.4,0.1,0.5,0.2l0.1,0.1c0,0,0.4,0.5,0.2,0.8c0,0.1,0,0.1,0,0.2l-0.1,0.7C58.4-43.7,58.4-43.6,58.4-43.4 M56-43.4
				c0,0,0-0.2,0-0.4s0-0.2,0.1-0.1c0,0,0,0.1,0,0.2C56-43.5,56-43.4,56-43.4 M56-43.2C56-43.2,56-43.1,56-43.2c0,0.1,0,0.2-0.1,0.2
				l0,0v-0.1C55.9-43.2,55.9-43.4,56-43.2C55.9-43.2,55.9-43.2,56-43.2L56-43.2 M55.6-41.4c0,0,0-0.1,0-0.2c0,0,0-0.1,0.1,0v0.1
				C55.6-41.6,55.6-41.4,55.6-41.4 M55.9-42.6L55.9-42.6C55.8-42.6,55.8-42.8,55.9-42.6c0-0.1,0-0.1,0-0.1l0,0
				C55.9-42.8,55.9-42.8,55.9-42.6C55.9-42.8,55.9-42.6,55.9-42.6 M55.6-41.2C55.6-41.2,55.4-41.2,55.6-41.2
				C55.4-41.2,55.4-41.2,55.6-41.2C55.4-41.2,55.4-41.3,55.6-41.2c-0.1-0.1-0.1-0.1,0-0.1l0,0V-41.2C55.6-41.3,55.6-41.3,55.6-41.2
				L55.6-41.2z M55.7-41.3L55.7-41.3L55.7-41.3C55.6-41.4,55.6-41.4,55.7-41.3C55.6-41.4,55.7-41.4,55.7-41.3
				C55.7-41.4,55.7-41.4,55.7-41.3L55.7-41.3 M55.6-41.8L55.6-41.8C55.6-41.8,55.6-41.9,55.6-41.8C55.6-41.9,55.6-41.9,55.6-41.8
				L55.6-41.8C55.7-41.9,55.7-41.9,55.6-41.8C55.7-41.9,55.7-41.8,55.6-41.8 M56.2-43.9C56.2-43.9,56.2-44.1,56.2-43.9
				C56.2-44.1,56.2-44.1,56.2-43.9L56.2-43.9C56.2-44.1,56.2-44.1,56.2-43.9L56.2-43.9 M55.8-42.3C55.8-42.3,55.7-42.3,55.8-42.3
				C55.7-42.3,55.7-42.3,55.8-42.3C55.7-42.3,55.7-42.3,55.8-42.3L55.8-42.3L55.8-42.3 M57.7-48.2c0,0,0,0,0-0.1c0-0.1,0-0.1,0-0.1
				l-0.1-0.1v-0.1l0,0c0-0.1,0-0.1,0-0.1l0,0h-0.1l0,0c0,0,0-0.1-0.1-0.1l0,0c-0.1,0.1-0.2,0-0.2,0.1c-0.1,0.1-0.1,0.2-0.2,0.4
				c0,0,0,0,0,0.1l0,0l0,0l0,0l0,0c0,0.1,0,0.1,0.1,0.2c0.1,0.1,0.1,0.1,0.2,0.1h0.1h0.1h0.1C57.6-48,57.6-48,57.7-48.2L57.7-48.2z
				 M59.6-47.8L59.6-47.8c0-0.1,0-0.2,0-0.2l0,0c0-0.1-0.1-0.1-0.1-0.2l0,0l0,0c0-0.1,0-0.1-0.1-0.1c0,0-0.1,0-0.1-0.1h-0.1
				c-0.1,0-0.1,0-0.1,0c-0.1,0-0.1,0-0.1,0.1l-0.2,0.1l0,0c0,0.1,0,0.1,0,0.2c0,0.1,0.1,0.2,0.1,0.4l0.1,0.1H59c0.1,0,0.1,0,0.2-0.1
				C59.4-47.6,59.5-47.8,59.6-47.8 M58.7-48L58.7-48L58.7-48L58.7-48C58.5-48,58.5-48,58.7-48L58.7-48z M57.5-48.8L57.5-48.8
				L57.5-48.8L57.5-48.8L57.5-48.8L57.5-48.8 M68.2-37.4C68.2-37.4,68.1-37.5,68.2-37.4v-0.1c0.1-0.2,0-0.5,0.1-0.6
				c0,0,0-0.1,0.1-0.1c-0.1-0.1-0.1-0.4-0.1-0.5c-0.2-0.2-0.1-0.5-0.2-0.7c-0.2-0.1-0.1-0.4-0.2-0.5l0,0c-0.1-0.1-0.1-0.2-0.1-0.2
				l0,0l0,0c-0.4-0.7-1.2-1.5-1-2.5c0.4-0.2,0.5-0.7,1.2-0.5c0.2,0.1,0.5,0.4,0.7,0.6v1c0,0.2,0,0.5,0.1,0.6l0.1,0.1
				c0.1,0,0.1,0,0.2,0c0,0,0,0,0,0.1l0,0c0-0.1,0.2,0,0.4,0l0,0c0-0.1,0.1-0.1,0.1-0.1c0.2-0.1,0.2-0.4,0.4-0.5c0-0.1,0-0.1-0.1-0.2
				c0-0.2,0.1-0.2,0-0.5l0,0c0-0.1-0.1-0.1,0-0.2l0,0c0-0.1-0.1-0.2,0-0.4l0,0l0,0c0-0.2-0.4-0.7-0.4-0.7s0,0-0.1,0
				c-0.1-0.1-0.4-0.4-0.6-0.5c-0.1,0-0.2,0-0.4-0.1h-0.1c-0.1,0-0.1,0-0.1,0c-0.1,0-0.1-0.1-0.2-0.2h-0.1v-0.1l-0.2,0.1
				c-0.1,0-0.2,0-0.4,0c0,0,0,0,0-0.1c-0.1,0.1-0.4,0.2-0.5,0.1l0,0v0.1c0,0,0,0-0.1,0c0,0,0,0,0,0.1c0,0.1-0.1,0-0.2,0v0.1
				c0,0-0.1,0.1-0.1,0l0,0l-0.1,0.2c-0.1,0.1-0.1,0.1-0.2,0.2c-0.1,0.2-0.1,0.5-0.2,0.6l-0.1,0.1c0,0.2,0.1,0.5,0,0.7
				c0.1,0.6,0.5,1.2,0.7,1.9l0,0c0.1,0.1,0.6,1,0.7,1.4c0,0.4,0.1,0.8,0,1.1c-0.1,0.1-0.4,0.2-0.4,0.5l-0.5,0.1
				c-0.1,0-0.2-0.1-0.4,0c-0.2-0.1-0.5-0.4-0.6-0.7c0-0.4,0.2-0.7,0-1.1c-0.1-0.1-0.1-0.2-0.4-0.4h-0.1l-0.2-0.1
				c-0.1-0.1-0.4,0-0.6,0.1v0.1l-0.1,0.2c0,0.1,0,0.2,0,0.4c-0.2,0.6,0.4,1.2,0.2,1.4h0.1c0,0.1,0.2,0.1,0.1,0.2
				c0.2,0.2,0.6,0.4,0.8,0.6c0.4,0.1,0.8,0.2,1.2,0.2c0.1,0,0.4-0.1,0.5-0.1c0,0,0,0,0.1,0.1c0-0.1,0.2,0,0.2-0.1c0,0,0,0,0-0.1
				c0.2,0,0.2-0.2,0.4-0.2c0.1-0.2,0.4-0.4,0.5-0.6V-37h0.1C68.1-37.3,68.1-37.3,68.2-37.4C68.1-37.3,68.2-37.3,68.2-37.4L68.2-37.4
				z M64.8-38.9C64.7-38.9,64.7-38.9,64.8-38.9C64.7-38.9,64.7-38.9,64.8-38.9L64.8-38.9c0-0.1,0-0.1,0-0.1
				C64.7-39.1,64.8-38.9,64.8-38.9L64.8-38.9 M66.2-44.1L66.2-44.1C66.2-44.1,66-44.1,66.2-44.1L66.2-44.1L66.2-44.1 M68.1-38.4
				C68.1-38.2,68.1-38.2,68.1-38.4C67.9-38.2,67.9-38.2,68.1-38.4C67.9-38.4,67.9-38.4,68.1-38.4L68.1-38.4 M69.4-41.6
				C69.4-41.6,69.5-41.6,69.4-41.6L69.4-41.6C69.5-41.4,69.4-41.4,69.4-41.6 M64.5-39.2L64.5-39.2L64.5-39.2
				C64.5-39.2,64.5-39.3,64.5-39.2L64.5-39.2L64.5-39.2z M68.1-38L68.1-38L68.1-38C67.9-38,67.9-38,68.1-38
				C67.9-38.1,68.1-38.1,68.1-38C68.1-38.1,68.1-38.1,68.1-38 M64.8-38.8L64.8-38.8C64.8-38.8,64.8-38.9,64.8-38.8L64.8-38.8
				L64.8-38.8L64.8-38.8z M64-38.7C64-38.7,63.9-38.7,64-38.7C63.9-38.7,63.9-38.7,64-38.7L64-38.7L64-38.7 M78.9-37.6
				C79-37.6,78.9-37.8,78.9-37.6v-0.1l0,0l0,0l0,0c0-0.1,0.1-0.2,0-0.4H79c0-0.1,0-0.1-0.1-0.2h-0.1h-0.1c-0.1-0.1-0.1-0.1-0.1-0.2
				h-0.1v-0.1h-0.1l0,0l0,0l-1-0.6c-0.1-0.1-0.1-0.2-0.2-0.2H77c-0.1-0.1-0.2-0.4-0.5-0.5c-0.2-0.1-0.6-0.4-0.8-0.4
				c-0.1,0.1-0.2,0.1-0.4,0.2c0,0,0,0,0,0.1c0,0.1-0.1,0.1-0.2,0.1c-0.1,0.1,0,0.2,0,0.2l0,0c0,0.2,0.1,0.4,0.2,0.5l0.1,0.1
				c0.1,0,0.1,0.1,0.2,0.1l0.2,0.2l0.1,0.1v0.1l-0.2,0.1v0.1c-0.1,0-0.1,0.1-0.1,0.1l-0.2,0.5h-0.1l0,0v0.1l-0.2,0.1v0.1l-0.2,0.4
				c0,0,0,0,0,0.1v0.1l0,0l0,0c0,0,0,0.1-0.1,0.1l-0.1,0.1c0,0.1-0.1,0.1-0.1,0.2c-0.1,0-0.1,0-0.1,0.1l-0.1,0.2h-0.1v0.1L74-35.6
				h-0.1l0,0v0.1l-0.1,0.2c0,0.1-0.1,0.1-0.2,0.2v0.1c0,0.1-0.1,0.1-0.2,0.1v0.1l0,0c0,0,0,0.1-0.1,0.2l-0.1,0.1l0,0l0,0l0,0
				c0,0,0.1,0.1,0,0.2c-0.1,0.1-0.2,0.1-0.2,0.2v0.1c0,0-0.1,0.1-0.1,0l0,0c0,0.1,0,0.1,0,0.2l-0.5,0.1c0,0,0,0,0,0.1h-0.1v0.4l0,0
				l0.1,0.2h0.1c0,0,0.1,0.1,0.2,0.1l0,0c0.2,0,0.6,0,0.8-0.1c0.6-0.7,1.1-1.5,1.7-2.3l1.1-1.5c0-0.1,0.1-0.2,0.1-0.2l0,0l0,0l0,0
				l0.1-0.1l0.5-0.8c0.2-0.4,0.5-0.4,0.7-0.2c0.1,0.1,0.2,0.4,0.5,0.4l0,0h0.1l0,0l0,0c0,0,0.2,0.1,0.2,0l0,0c0,0.1,0,0.1,0.1,0.1
				c0,0,0.2-0.1,0.2-0.2v-0.1v-0.1h-0.1C78.8-37.6,78.9-37.5,78.9-37.6L78.9-37.6z M78.8-37.6L78.8-37.6h-0.1c0,0,0,0-0.1,0
				c0-0.1-0.1-0.1,0-0.2l0,0l0,0V-38l0,0l0,0c0,0,0,0-0.1,0l0,0l0,0l0,0c0.1,0.1,0.2,0,0.4,0l0,0c0,0-0.1,0.1-0.2,0.1l0,0l0,0
				C78.7-37.8,78.8-37.8,78.8-37.6 M78.5-38.1L78.5-38.1c-0.1,0-0.1,0-0.1,0s0,0-0.1,0l0,0c0-0.1,0-0.1,0-0.2h0.1v0.1L78.5-38.1
				L78.5-38.1 M78.9-38C78.9-38,78.9-38.1,78.9-38c-0.1-0.1-0.1,0-0.2,0l0,0l0,0C78.7-38,78.8-38.1,78.9-38C79-38.1,79-38.1,78.9-38
				L78.9-38z M78.4-37.6C78.4-37.8,78.3-37.6,78.4-37.6C78.3-37.6,78.3-37.6,78.4-37.6c-0.1,0-0.1,0-0.1,0h-0.1l0,0l0,0
				C78.2-37.8,78.3-37.8,78.4-37.6C78.3-37.8,78.3-37.8,78.4-37.6C78.4-37.8,78.4-37.8,78.4-37.6C78.4-37.8,78.4-37.8,78.4-37.6
				 M77.8-38C77.8-38,77.8-38.1,77.8-38C77.8-38.1,77.9-38.1,77.8-38C77.9-38.1,77.9-38,77.8-38C77.9-38,77.9-38,77.8-38 M78.7-38.1
				C78.7-38,78.7-38,78.7-38.1C78.7-38.1,78.5-38.1,78.7-38.1c0-0.1,0-0.1,0-0.1V-38.1L78.7-38.1L78.7-38.1 M73.9-35.5
				C73.8-35.5,73.8-35.5,73.9-35.5L73.9-35.5C73.9-35.6,73.9-35.6,73.9-35.5L73.9-35.5C73.9-35.6,73.9-35.5,73.9-35.5L73.9-35.5
				L73.9-35.5z M78.5-38.2L78.5-38.2c-0.1,0-0.1,0-0.1,0C78.5-38.4,78.5-38.4,78.5-38.2C78.5-38.4,78.5-38.4,78.5-38.2L78.5-38.2z
				 M78.1-37.9L78.1-37.9C78.1-37.8,78.1-37.8,78.1-37.9C78.1-37.8,78.1-37.9,78.1-37.9L78.1-37.9L78.1-37.9L78.1-37.9z M78.2-37.4
				L78.2-37.4L78.2-37.4L78.2-37.4C78.2-37.5,78.2-37.5,78.2-37.4C78.3-37.5,78.3-37.4,78.2-37.4 M78.5-38.4
				C78.5-38.5,78.5-38.5,78.5-38.4L78.5-38.4C78.5-38.5,78.5-38.5,78.5-38.4C78.7-38.5,78.7-38.5,78.5-38.4
				C78.7-38.4,78.7-38.4,78.5-38.4L78.5-38.4z M78.2-37.2C78.2-37.2,78.2-37.3,78.2-37.2C78.2-37.3,78.2-37.3,78.2-37.2L78.2-37.2
				L78.2-37.2 M73.3-34.5L73.3-34.5L73.3-34.5C73.3-34.7,73.3-34.7,73.3-34.5C73.3-34.7,73.3-34.5,73.3-34.5L73.3-34.5z M73.8-35.4
				L73.8-35.4L73.8-35.4L73.8-35.4L73.8-35.4L73.8-35.4C73.9-35.4,73.9-35.4,73.8-35.4 M78.1-37.4L78.1-37.4L78.1-37.4L78.1-37.4
				C78.1-37.4,78.2-37.4,78.1-37.4L78.1-37.4z M72.3-32.9C72.3-32.9,72.3-32.8,72.3-32.9L72.3-32.9L72.3-32.9L72.3-32.9L72.3-32.9
				 M78.5-37.4L78.5-37.4C78.4-37.4,78.4-37.4,78.5-37.4L78.5-37.4L78.5-37.4L78.5-37.4z M78.3-37.9L78.3-37.9
				C78.2-37.9,78.2-37.9,78.3-37.9C78.2-37.9,78.3-37.9,78.3-37.9L78.3-37.9L78.3-37.9z M78.4-37.8L78.4-37.8L78.4-37.8
				C78.3-37.9,78.3-37.9,78.4-37.8C78.3-37.9,78.4-37.9,78.4-37.8C78.4-37.9,78.4-37.8,78.4-37.8 M74.3-36.1L74.3-36.1L74.3-36.1
				L74.3-36.1L74.3-36.1 M74.3-35.6L74.3-35.6C74.1-35.7,74.1-35.7,74.3-35.6C74.1-35.7,74.1-35.7,74.3-35.6
				C74.3-35.7,74.3-35.7,74.3-35.6L74.3-35.6z M86.8-31.1c0.1-0.2,0.1-0.5,0-0.6c-0.1-0.1-0.4-0.2-0.5-0.4c-0.2-0.2-0.4-0.4-0.5-0.6
				l0,0c0,0-0.1,0-0.1-0.1c0,0,0,0,0-0.1c0,0,0-0.1-0.1-0.1h-0.1c0-0.1-0.1-0.1-0.1-0.2L85-33.5c0,0-0.1-0.1-0.1-0.2l0,0
				c0-0.1-0.1,0-0.2-0.1c0,0,0,0,0-0.1l-0.1-0.1c-0.2-0.2-0.5-0.4-0.7-0.4l0,0h-0.1l0,0c-0.1,0.1-0.4,0.4-1.4,1.4
				c-0.1,0-0.2,0.1-0.4,0.2l-0.1,0.4c-0.1,0-0.1,0.1-0.2,0.2L81.4-32c-0.1,0.1-0.2,0.2-0.4,0.4c0,0,0,0-0.1,0.1h-0.2l-0.1,0.1
				l-0.4,0.2c-0.1,0.1-0.2,0.4-0.4,0.5c-0.1,0.1-0.2,0.2-0.4,0.4c-0.1,0-0.1,0.1-0.2,0.1C79.1-30.1,79.1-30,79-30c0,0-0.1,0-0.2,0.1
				l0,0c0,0-0.1,0.1-0.1,0.2c0,0,0,0-0.1,0h-0.1c-0.1,0.1-0.1,0.2-0.1,0.4c0,0,0,0-0.1,0c-0.1,0.1,0.1,0.2,0,0.4l0,0
				c0.2,0,0.2,0.2,0.5,0.4l0.1,0.1c0.2,0.2,0.4,0.5,0.5,0.6l0.1,0.1c0,0.1,0.1,0.1,0.1,0.2l0.7,0.7l0.1,0.1l0,0l0.1,0.2l0.1,0.1v0.1
				c0,0,0.1,0,0.2,0.1l0,0c0.2,0.1,0.4-0.1,0.6-0.2c0,0,0.1,0,0.1-0.1c0.1-0.1,0.2-0.2,0.1-0.5c-0.4-0.5-0.7-0.8-1.2-1.3
				c-0.2-0.2-0.6-0.6-0.8-0.8c0-0.1,0-0.2,0.1-0.4c0.5-0.5,1-1,1.4-1.3c0.1,0,0.2,0,0.4,0c0.1,0.1,0.2,0.4,0.4,0.5l0.6,0.6
				c0.1,0.1,0.2,0.2,0.4,0.4c0.2,0,0.4,0.2,0.6,0.4l0.2-0.1l0.1-0.1c0.1-0.1,0.2-0.2,0.1-0.4c0-0.2-0.2-0.4-0.2-0.5h-0.1
				c-0.2-0.4-0.5-0.6-0.7-0.8c0-0.1-0.1-0.1-0.2-0.2c-0.1,0-0.2-0.1-0.4-0.2c-0.1-0.1-0.1-0.2-0.1-0.4c0.1-0.1,0.2-0.4,0.5-0.5
				l1-0.8l0.1-0.1c0.1-0.1,0.2,0,0.4,0l0.1,0.1c0,0,0.1,0,0.1,0.1c0.2,0.2,0.5,0.6,0.7,0.8c0.1,0.1,0.2,0.2,0.4,0.4l0,0
				c0.2,0.2,0.5,0.5,0.7,0.6C86.4-30.7,86.5-31,86.8-31.1 M81.8-32v-0.1l0,0l0,0C81.9-32.2,81.8-32.2,81.8-32L81.8-32L81.8-32z
				 M81-26.1C80.9-26.1,80.9-26.1,81-26.1C80.8-26.1,80.8-26.1,81-26.1L81-26.1C80.9-26.2,80.9-26.2,81-26.1L81-26.1 M85.2-32.9
				L85.2-32.9C85.1-32.9,85.1-33,85.2-32.9C85.1-33,85.2-33,85.2-32.9C85.2-33,85.2-33,85.2-32.9C85.2-33,85.2-32.9,85.2-32.9
				L85.2-32.9z M83.5-33.8C83.5-33.8,83.4-33.8,83.5-33.8h-0.1l0,0C83.4-33.9,83.5-33.8,83.5-33.8L83.5-33.8 M83.8-34.2
				C83.8-34.1,83.8-34.1,83.8-34.2C83.8-34.1,83.8-34.1,83.8-34.2L83.8-34.2L83.8-34.2L83.8-34.2L83.8-34.2z M86.6-18.8
				c0.5-0.6,1.1-1.1,1.5-1.5c0.4-0.4,0.7-0.7,1-1.1c0,0,0,0,0.1-0.1c0.1-0.1,0.4,0,0.5,0c0.6,0.1,1.2,0,1.7-0.2
				c0.2-0.1,0.5-0.4,0.7-0.7c0.2-0.5,0.4-1.1,0.1-1.7v-0.1c-0.1-0.4-0.2-0.6-0.5-1L91.3-26v-0.1l-0.1-0.2H91
				c-0.4,0.2-0.7,0.5-1.1,0.7l-0.2,0.1c0,0,0,0,0,0.1c-0.4,0.1-0.6,0.4-1,0.5l-2.4,1.4c-0.1,0.1-0.2,0.2-0.5,0.4l-0.4,0.2l0,0
				c-0.2,0.1-0.2,0.1-0.4,0.2c-0.1,0.1-0.4,0.2-0.5,0.2c-0.2,0.1-0.4,0.2-0.6,0.4c0.1,0.1,0.1,0.2,0.2,0.4c0,0,0.1,0.1,0.1,0.2l0,0
				c0.1,0.1,0.2,0.2,0.2,0.2s0.4-0.2,0.6-0.4c0.5-0.4,1.1-0.7,1.5-1.1l0.2-0.1h0.1l0.2-0.2c0.1,0,0.1-0.1,0.2-0.1
				c0.1,0.1,0.1,0.1,0.2,0.2l0.4,0.6l0.1,0.1v0.1c-0.2,0.2-0.6,0.6-0.8,0.8c-0.4,0.4-0.8,0.8-1.2,1.2c-0.1,0.2-0.4,0.2-0.4,0.4l0,0
				c-0.1,0.1-0.2,0.4-0.2,0.4s0.1,0.2,0.2,0.2c0.1,0.1,0.1,0.2,0.2,0.4c0.1,0.1,0.1,0.1,0.2,0C86.5-18.7,86.6-18.8,86.6-18.8
				 M91-22.9c-0.1,0-0.1,0.1-0.2,0.1c-0.4,0.2-0.8,0.4-1.3,0.1c-0.2-0.1-0.4-0.2-0.5-0.5l-0.4-0.5c0.1-0.1,0.2-0.2,0.6-0.5
				c0.1-0.1,0.2-0.2,0.5-0.2v-0.1l0,0c0.1-0.1,0.4-0.2,0.6-0.2c0-0.1,0.1-0.1,0.1-0.1c0.1,0,0.1-0.1,0.2,0c0.1,0,0.2,0.1,0.4,0.2
				c0.1,0.1,0.1,0.4,0.2,0.4c0.2,0.4,0.1,0.7,0,1.2l0,0C91.2-23.1,91.2-22.9,91-22.9 M84.7-21.3c0,0-0.1,0-0.1-0.1l0,0L84.7-21.3
				C84.7-21.3,84.8-21.3,84.7-21.3l0.1-0.1l0.1-0.1l0,0c0,0,0,0-0.1,0.1L84.7-21.3C84.8-21.3,84.7-21.3,84.7-21.3 M86.4-18.7
				L86.4-18.7L86.4-18.7L86.4-18.7c0.1-0.1,0.1-0.2,0.1-0.2l0,0l0,0C86.6-18.9,86.5-18.7,86.4-18.7L86.4-18.7 M89.7-25.4L89.7-25.4
				C89.7-25.5,89.7-25.5,89.7-25.4L89.7-25.4C89.7-25.5,89.8-25.5,89.7-25.4C89.8-25.5,89.8-25.5,89.7-25.4
				C89.8-25.5,89.8-25.4,89.7-25.4C89.8-25.4,89.7-25.4,89.7-25.4 M86.4-18.8C86.4-18.8,86.3-18.8,86.4-18.8
				C86.3-18.8,86.3-18.8,86.4-18.8L86.4-18.8C86.4-18.9,86.4-18.9,86.4-18.8L86.4-18.8L86.4-18.8 M86.2-19.7
				C86.2-19.7,86.2-19.8,86.2-19.7C86.2-19.8,86.2-19.8,86.2-19.7L86.2-19.7C86.3-19.8,86.3-19.7,86.2-19.7L86.2-19.7L86.2-19.7z
				 M89.4-21.3C89.4-21.3,89.4-21.4,89.4-21.3C89.4-21.4,89.3-21.4,89.4-21.3C89.3-21.4,89.3-21.4,89.4-21.3L89.4-21.3
				C89.3-21.3,89.3-21.3,89.4-21.3L89.4-21.3z M92.3-24.2C92.3-24.1,92.5-24.2,92.3-24.2c0.1,0,0.1-0.1,0.1-0.1l0,0l0,0
				C92.5-24.3,92.5-24.2,92.3-24.2L92.3-24.2L92.3-24.2L92.3-24.2L92.3-24.2 M89.6-21.6h-0.1l0,0C89.5-21.4,89.5-21.4,89.6-21.6
				C89.5-21.4,89.5-21.4,89.6-21.6C89.6-21.4,89.6-21.4,89.6-21.6L89.6-21.6z M91.3-23.1C91.3-23.1,91.3-23,91.3-23.1
				C91.3-23,91.3-23,91.3-23.1C91.3-23,91.2-23,91.3-23.1C91.2-23,91.2-23,91.3-23.1L91.3-23.1z M89.7-24.4
				C89.6-24.4,89.6-24.4,89.7-24.4C89.6-24.4,89.6-24.5,89.7-24.4C89.7-24.5,89.7-24.5,89.7-24.4L89.7-24.4L89.7-24.4L89.7-24.4
				 M84.4-21.8C84.4-21.8,84.4-21.9,84.4-21.8C84.4-21.9,84.4-21.9,84.4-21.8C84.4-21.9,84.4-21.9,84.4-21.8
				C84.4-21.9,84.4-21.8,84.4-21.8L84.4-21.8L84.4-21.8z M86.5-18.9L86.5-18.9C86.4-18.8,86.4-18.9,86.5-18.9L86.5-18.9
				C86.4-18.9,86.4-18.9,86.5-18.9C86.4-18.9,86.4-18.9,86.5-18.9C86.4-18.9,86.5-18.9,86.5-18.9L86.5-18.9 M89.3-21.3L89.3-21.3
				C89.3-21.3,89.1-21.3,89.3-21.3C89.1-21.3,89.1-21.3,89.3-21.3C89.1-21.3,89.1-21.3,89.3-21.3L89.3-21.3z M84.5-21.6L84.5-21.6
				C84.5-21.7,84.5-21.7,84.5-21.6C84.5-21.7,84.5-21.7,84.5-21.6C84.5-21.7,84.5-21.7,84.5-21.6L84.5-21.6L84.5-21.6 M89.7-21.4
				L89.7-21.4L89.7-21.4L89.7-21.4L89.7-21.4 M90.7-24.8C90.7-24.9,90.7-24.9,90.7-24.8C90.7-24.9,90.6-24.9,90.7-24.8
				C90.6-24.9,90.6-24.9,90.7-24.8C90.6-24.8,90.7-24.8,90.7-24.8 M86.6-18.9C86.6-19.1,86.6-19.1,86.6-18.9
				C86.8-19.1,86.8-19.1,86.6-18.9C86.8-19.1,86.8-18.9,86.6-18.9L86.6-18.9z M86.3-20L86.3-20L86.3-20L86.3-20L86.3-20L86.3-20z
				 M89-21.1L89-21.1L89-21.1C89-21.1,88.9-21.1,89-21.1L89-21.1L89-21.1 M97.6-13c0.1-0.1,0.2-0.4,0.2-0.6
				c-0.1-0.1-0.2-0.4-0.2-0.5c-0.2-0.4-0.2-0.6-0.4-0.8l0,0L97.1-15c0,0,0,0,0-0.1v-0.1c0,0,0,0-0.1,0c0-0.1,0-0.1,0-0.2l-0.2-0.4
				c0-0.1,0-0.1,0-0.2l0,0c0-0.1-0.1-0.1-0.1-0.1l0,0c0-0.1,0-0.1,0-0.2c-0.1-0.2-0.2-0.5-0.5-0.6l0,0H96l0,0
				c-0.1,0-0.5,0.2-1.8,0.7c-0.1,0-0.2,0-0.4,0.1l-0.2,0.1c-0.1,0-0.1,0-0.2,0.1l-0.2,0.1c-0.1,0-0.4,0.1-0.5,0.1
				c-0.2-0.4-0.2-0.4-0.2-0.4h-0.2c0,0-0.1,0-0.1,0.1h-0.5c-0.1,0.1-0.4,0.2-0.6,0.2c-0.2,0.1-0.4,0.1-0.6,0.2c-0.1,0-0.2,0-0.2,0
				c-0.1,0-0.2,0.1-0.4,0.1c-0.1,0-0.1,0-0.2,0l0,0c-0.1,0-0.1,0.1-0.2,0.1h-0.1h-0.1C89-15.3,89-15,88.9-15h-0.1
				c-0.1,0-0.1,0.4-0.2,0.4l0,0c0.1,0.1,0.1,0.4,0.2,0.5v0.1c0.1,0.2,0.1,0.6,0.1,0.8v0.1c0,0.1,0,0.1,0.1,0.2l0.4,1
				c0,0.1,0,0.1,0,0.2l0,0v0.4c0,0,0,0.1,0.1,0.1c0,0,0,0,0,0.1c0,0,0.1,0.1,0.1,0.2l0,0c0.1,0.2,0.5,0,0.6,0h0.1
				c0.2-0.1,0.2-0.2,0.4-0.4c-0.1-0.6-0.4-1.1-0.5-1.7c-0.1-0.4-0.2-0.7-0.5-1.1c0-0.1,0.1-0.2,0.2-0.4c0.7-0.2,1.3-0.5,1.9-0.6
				c0.1,0,0.2,0.1,0.2,0.2c0,0.2,0.1,0.4,0.1,0.6l0.2,0.8c0,0.1,0.1,0.4,0.1,0.5c0.2,0.1,0.1,0.4,0.4,0.6h0.2l0.2-0.1
				c0.1,0,0.2-0.1,0.4-0.4c0-0.2-0.1-0.5-0.1-0.6h-0.1c-0.1-0.4-0.2-0.7-0.2-1.1c0-0.1,0-0.1-0.1-0.2c0.5-0.1,0.4-0.2,0.4-0.4
				s0-0.2,0-0.4c0.2-0.1,0.4-0.1,0.6-0.2l1.2-0.4h0.2c0.1,0,0.2,0.1,0.2,0.1v0.2c0,0,0,0.1,0.1,0.1c0.1,0.4,0.2,0.7,0.2,1.1
				c0.1,0.1,0.1,0.2,0.1,0.5v0.1c0.1,0.4,0.2,0.6,0.5,0.8C97-12.9,97.4-13,97.6-13 M93.4-16.1c0,0,0-0.1,0.1-0.1l0,0l0,0L93.4-16.1
				L93.4-16.1L93.4-16.1z M90.2-11C90.2-11,90.1-11,90.2-11c-0.1,0-0.1-0.1-0.1-0.1l0,0C90.2-11.1,90.2-11.1,90.2-11L90.2-11
				 M96.9-15.4L96.9-15.4c-0.1-0.1-0.1-0.1,0-0.1c0,0,0,0,0.1,0C96.9-15.5,96.9-15.4,96.9-15.4C97-15.4,96.9-15.4,96.9-15.4
				L96.9-15.4z M95.8-16.9C95.7-16.8,95.7-16.9,95.8-16.9L95.8-16.9L95.7-17C95.7-17,95.8-16.9,95.8-16.9L95.8-16.9 M96.2-17
				L96.2-17C96.2-17,96-17,96.2-17L96.2-17C96-17.2,96-17.2,96.2-17C96.2-17.2,96.2-17.2,96.2-17L96.2-17z M99-6.3
				C99-6.3,99.1-6.3,99-6.3c0.1,0,0.1,0,0.2,0c0.2,0,0.5-0.2,0.6-0.5c-0.1-0.4-0.4-0.7-0.7-0.7L96.8-7c-0.5,0.1-1.2,0.1-1.8,0.2
				c-0.2,0-0.4,0.1-0.6,0.2c-0.2,0-0.5,0-0.8,0.1l-0.4,0.1c0,0,0,0-0.1,0c0,0,0,0-0.1,0c0,0-0.1,0-0.2,0l-0.8,0.1
				c-0.2,0-0.4,0.1-0.5,0.4c0,0.2-0.1,0.4,0,0.6c0,0.1,0,0.2,0.1,0.2c0.4,0.1,0.6,0.1,1,0c0.1,0,0.1-0.1,0.2-0.1h0.2
				c0.1,0,0.1,0,0.2-0.1c0,0,0,0,0.1,0s0.1-0.1,0.2-0.1h0.4H94h0.6c0.1,0,0.2,0,0.2-0.1h0.4h0.1l0.4-0.1l0,0h0.1c0,0,0,0,0-0.1l0,0
				l0,0c0,0,0,0,0.1-0.1c0.1,0,0.4,0,0.5,0h0.1c0.1,0,0.2,0,0.5,0l1-0.2c0.1,0,0.2,0,0.2,0c0.1,0,0.1,0,0.2,0h0.2
				C98.8-6.3,98.9-6.3,99-6.3L99-6.3z M92.1-6C92.1-5.8,92.1-6,92.1-6C92-6,92-6,92-6S92-6,92.1-6C92.1-6,92.2-6,92.1-6L92.1-6
				L92.1-6L92.1-6z M95.4-6.6L95.4-6.6C95.4-6.7,95.4-6.7,95.4-6.6C95.4-6.7,95.4-6.7,95.4-6.6L95.4-6.6z M95.1-6.6L95.1-6.6
				L95.1-6.6C95-6.6,95-6.6,95.1-6.6C95-6.6,95-6.6,95.1-6.6 M99.4-7.2L99.4-7.2C99.4-7.2,99.3-7.2,99.4-7.2
				C99.3-7.2,99.3-7.2,99.4-7.2L99.4-7.2L99.4-7.2C99.3-7.3,99.4-7.3,99.4-7.2L99.4-7.2z M94.4-6.4L94.4-6.4
				C94.4-6.6,94.4-6.6,94.4-6.4L94.4-6.4L94.4-6.4L94.4-6.4z"/>
		</g>
		<g id="g40" transform="translate(7.0693,43.3008)">
			<path id="path42" class="st0" d="M8,22.8c0.4-0.1,0.7-0.2,0.8-0.5c0.5-0.2,0.2-0.7,0.4-1.2C9.1,21,9,20.9,9,20.7
				c0-0.1,0-0.1,0-0.2c-0.1-0.2-0.2-0.4-0.5-0.5c-0.1-0.1-0.6-0.1-0.7-0.2c-0.2,0-0.2-0.1-0.4-0.1c-0.1,0-0.1,0.1-0.2,0.1
				s-0.2,0-0.4,0s-0.1,0-0.1,0.1c0,0.4-0.4,0.1-0.4,0.5l0,0c-0.1,0-0.2,0.1-0.2,0.2c0,0.1,0,0.1,0.1,0.1c-0.1,0.1-0.1,0.2,0,0.4
				c0,0.2,0.1,0.4,0.1,0.6v0.1l0,0c0,0.1,0,0.1,0,0.2c0,0.1,0,0.2,0.2,0.2v0.1c0,0.1,0.2,0.1,0.2,0.4c0.1,0.1,0.2,0.1,0.4,0.1h0.4
				h0.1c0,0,0,0,0,0c0.1,0,0.1,0,0.2-0.1L8,22.8 M8.9,22.2L8.9,22.2v-0.1C8.9,22,9,22,9,21.9c0,0,0,0,0,0.1S9,22.2,8.9,22.2
				L8.9,22.2 M6.6,22.2C6.6,22.2,6.5,22.1,6.6,22.2c-0.1-0.1,0-0.2,0-0.2l0,0h0.1l0,0C6.7,22.1,6.7,22.1,6.6,22.2L6.6,22.2z M7,22.5
				C7,22.5,6.9,22.5,7,22.5c-0.1,0-0.1,0-0.1-0.1l0,0c0,0,0-0.1,0.1-0.1C7,22.4,7,22.4,7,22.5L7,22.5 M8.6,20.4L8.6,20.4
				c-0.1-0.1,0-0.1,0-0.1l0,0C8.8,20.3,8.8,20.3,8.6,20.4C8.8,20.4,8.8,20.4,8.6,20.4L8.6,20.4z M8.9,21.9
				C8.9,21.9,8.8,21.9,8.9,21.9c0-0.1,0-0.1,0-0.1S9,21.8,8.9,21.9C9,21.9,8.9,21.9,8.9,21.9L8.9,21.9z M8.8,20.8L8.8,20.8
				c0-0.1,0-0.1,0-0.1l0,0C8.8,20.7,8.9,20.7,8.8,20.8L8.8,20.8C8.9,20.8,8.8,20.8,8.8,20.8L8.8,20.8 M7.8,22.5
				C7.8,22.5,7.8,22.4,7.8,22.5c0.1-0.1,0.1,0,0.1,0S7.9,22.5,7.8,22.5L7.8,22.5L7.8,22.5z M6.5,20.9C6.4,20.9,6.4,20.9,6.5,20.9
				L6.5,20.9c-0.1-0.1-0.1-0.1,0-0.1l0,0C6.5,20.8,6.5,20.8,6.5,20.9L6.5,20.9 M6.6,21.9C6.5,21.9,6.5,21.8,6.6,21.9
				c0-0.1,0-0.1,0-0.1l0,0C6.6,21.6,6.6,21.8,6.6,21.9C6.6,21.8,6.6,21.8,6.6,21.9L6.6,21.9z M7.7,22.7C7.7,22.6,7.8,22.6,7.7,22.7
				c0.1,0,0.1,0,0.1,0S7.8,22.7,7.7,22.7C7.8,22.7,7.7,22.7,7.7,22.7L7.7,22.7z M7.4,22.7L7.4,22.7C7.4,22.6,7.4,22.6,7.4,22.7
				L7.4,22.7C7.6,22.6,7.6,22.6,7.4,22.7C7.6,22.6,7.6,22.7,7.4,22.7L7.4,22.7z M7.7,33.7l0.5-0.1l0,0c0.2,0,0.4-0.1,0.4-0.4v-0.4
				l0,0c0-0.1-0.2-0.4-0.4-0.4l0,0c0,0,0,0-0.1,0c0,0,0,0-0.1,0.1H7.7c0,0,0,0-0.1,0c-0.1-0.1-0.2,0-0.4-0.1C7,32.6,7,32.4,6.9,32.4
				c-0.1-0.1-0.2-0.4-0.4-0.6c-0.1-0.6,0.1-0.8,0.5-1.1l0.5-0.1c0.1,0,0.2-0.1,0.4-0.1L9.6,30c0.1,0,0.2-0.1,0.4-0.1
				c0.1,0,0.2-0.1,0.4-0.1l0.8-0.2c0.1,0,0.1-0.1,0.2-0.1s0.2,0,0.5,0c0.1,0.2,0.6,0.1,0.7,0.5l0,0v0.2c0,0,0,0.1,0.1,0.1l0,0
				c0.1,0.6-0.2,1-0.6,1.1l0,0c-0.2,0-0.5,0.1-0.6,0.4c0.2,0.2,0.1,0.8,0.8,0.7c0.4-0.1,0.7-0.4,1-0.6c0.1-0.2,0.4-0.4,0.4-0.6
				c0.2-0.2,0.1-1.2,0.1-1.2c0-0.4-0.2-0.5-0.2-0.7l0,0c-0.1,0-0.1,0-0.1-0.1l0,0c-0.2-0.1-0.4-0.2-0.5-0.5l0,0h-0.1l0,0
				c0-0.1-0.2,0-0.2-0.2l0,0c-0.1,0-0.2-0.1-0.4-0.1l0,0c0-0.1-0.4-0.1-0.4-0.1l-0.2,0.1h-0.1c0,0,0,0.1-0.1,0.1h-0.2c0,0,0,0,0,0.1
				c-0.1,0-0.1,0-0.1,0c-0.1,0-0.1,0.1-0.2,0.1s-0.1,0-0.2,0v0.1c0,0-0.1,0-0.2,0l0,0v0.1h-0.1l0,0c0,0,0,0.1-0.1,0.1H9.9
				c0,0,0,0-0.1,0.1H9.7v-0.4H9.6l0,0c0,0-0.1,0.1-0.2,0.1s-0.1,0-0.2,0L9,29H8.9c0,0,0,0-0.1,0c0,0,0,0-0.1,0l-0.1,0.1
				c0,0-0.1,0-0.2,0l-0.1,0.1H8c0,0,0,0-0.1,0l-0.4,0.1l-0.1,0.1H7.3c0,0,0,0.1-0.1,0.1H7c0,0-0.1,0-0.1,0.1H6.7l-0.1,0.1l0,0H6.5
				c0,0,0,0.1-0.1,0.1H6.3c0,0,0,0-0.1,0.1l0,0c0,0.1-0.1,0.1-0.2,0.2l0,0c0,0.1-0.1,0.1-0.1,0.2l0,0c-0.1,0.1-0.4,0.6-0.2,0.7l0,0
				c-0.1,0.1,0,0.4-0.1,0.6V32c0,0.1,0,0.2,0,0.4h0.2v0.1c0.1,0,0.1,0.1,0.1,0.1v0.1c0.4,0.4,0.7,0.8,1.3,0.8
				C7.2,33.7,7.4,33.5,7.7,33.7L7.7,33.7z M11.6,28.5L11.6,28.5c-0.1,0-0.1,0-0.1-0.1l0,0l0,0C11.5,28.4,11.6,28.4,11.6,28.5
				c0.1-0.1,0.1-0.1,0.1-0.1l0,0C11.7,28.3,11.7,28.4,11.6,28.5L11.6,28.5C11.6,28.4,11.6,28.4,11.6,28.5 M8.4,29.4L8.4,29.4
				c0-0.1,0-0.1,0-0.1h0.1C8.5,29.4,8.5,29.4,8.4,29.4L8.4,29.4 M7.6,29.7C7.4,29.7,7.4,29.7,7.6,29.7C7.4,29.7,7.4,29.6,7.6,29.7
				c0-0.1-0.1-0.1-0.1-0.1l0,0c0.1,0,0.1,0,0.1,0V29.7L7.6,29.7 M7.8,29.6C7.7,29.6,7.7,29.6,7.8,29.6c-0.1,0,0-0.1,0-0.1
				S7.8,29.5,7.8,29.6C7.8,29.5,7.8,29.6,7.8,29.6 M11.7,28.5C11.7,28.5,11.6,28.5,11.7,28.5C11.6,28.4,11.6,28.4,11.7,28.5
				C11.7,28.4,11.7,28.4,11.7,28.5C11.9,28.5,11.7,28.5,11.7,28.5L11.7,28.5z M9.5,29.1C9.5,29.1,9.5,29,9.5,29.1
				C9.5,29,9.6,29,9.5,29.1C9.6,29.1,9.5,29.1,9.5,29.1 M11.4,28.5L11.4,28.5C11.4,28.5,11.4,28.4,11.4,28.5
				C11.4,28.4,11.4,28.4,11.4,28.5C11.5,28.5,11.4,28.5,11.4,28.5L11.4,28.5z M12.9,28.8L12.9,28.8L12.9,28.8
				C12.9,28.7,12.9,28.7,12.9,28.8L12.9,28.8L12.9,28.8z M11.3,28.5L11.3,28.5L11.3,28.5C11.1,28.5,11.3,28.4,11.3,28.5
				C11.3,28.4,11.3,28.4,11.3,28.5L11.3,28.5 M8.2,32.6L8.2,32.6L8.2,32.6C8.2,32.6,8,32.6,8.2,32.6C8,32.6,8,32.6,8.2,32.6
				L8.2,32.6z M6.3,30.3L6.3,30.3C6.4,30.2,6.4,30.3,6.3,30.3C6.4,30.3,6.4,30.3,6.3,30.3C6.4,30.3,6.4,30.3,6.3,30.3L6.3,30.3z
				 M6,30.3C6,30.3,5.9,30.3,6,30.3C5.9,30.3,5.9,30.3,6,30.3L6,30.3L6,30.3C6,30.4,6,30.4,6,30.3 M9.1,29.3L9.1,29.3
				C9.1,29.1,9.1,29.1,9.1,29.3C9.1,29.1,9.2,29.1,9.1,29.3C9.2,29.1,9.1,29.1,9.1,29.3 M11,28.7L11,28.7C11,28.7,11,28.5,11,28.7
				C11,28.5,11,28.7,11,28.7L11,28.7L11,28.7 M9.7,29L9.7,29L9.7,29L9.7,29c0-0.1,0-0.1,0-0.1S9.7,28.9,9.7,29
				C9.7,28.9,9.7,29,9.7,29 M7.9,29.5C7.9,29.5,8,29.5,7.9,29.5C8,29.5,8,29.5,7.9,29.5C8,29.5,8,29.5,7.9,29.5
				C8,29.5,8,29.5,7.9,29.5L7.9,29.5z M7.2,29.7L7.2,29.7C7.2,29.7,7.2,29.6,7.2,29.7C7.2,29.6,7.2,29.6,7.2,29.7
				C7.3,29.7,7.3,29.7,7.2,29.7L7.2,29.7z M13,29C13,29,13.2,29,13,29C13.2,29,13.2,29,13,29C13.2,29,13.2,29,13,29L13,29 M7,29.9
				L7,29.9L7,29.9C6.9,29.9,7,29.7,7,29.9C7,29.7,7,29.7,7,29.9C7,29.7,7,29.9,7,29.9 M11.9,28.4C11.9,28.4,12,28.4,11.9,28.4
				C12,28.4,12,28.5,11.9,28.4C11.9,28.5,11.9,28.5,11.9,28.4C11.9,28.5,11.9,28.4,11.9,28.4 M11.7,31.5L11.7,31.5L11.7,31.5
				L11.7,31.5L11.7,31.5 M8.8,29.3L8.8,29.3L8.8,29.3C8.8,29.3,8.8,29.1,8.8,29.3C8.9,29.1,8.8,29.3,8.8,29.3L8.8,29.3z M11.5,28.4
				L11.5,28.4C11.5,28.5,11.5,28.5,11.5,28.4L11.5,28.4C11.5,28.5,11.5,28.4,11.5,28.4 M6.1,30.4C6.1,30.4,6,30.4,6.1,30.4
				C6,30.4,6,30.3,6.1,30.4C6.1,30.3,6.1,30.3,6.1,30.4L6.1,30.4 M11.1,43.4c0.2-0.4,0.1-0.6,0-1l-0.5-0.7l-0.1-0.1
				c-0.1-0.2-0.4-0.4-0.4-0.6c-0.1-0.1-0.1-0.4,0-0.6c0.5-0.2,0.8-0.5,1.4-0.6c0.2-0.1,0.6-0.4,0.8-0.5l2.3-1.2c0.1,0,0.1,0,0.1,0
				c0.2-0.1,0.4-0.2,0.6-0.4l0.5-0.2c0.2-0.1,0.4-0.2,0.2-0.5l0,0V37c-0.2,0-0.4-0.4-0.5-0.5h-0.1c0,0,0,0-0.1,0.1
				c-0.1,0-0.2,0-0.4,0.1c-0.2,0.1-0.4,0.2-0.5,0.4l-2.4,1.3c-0.1,0-0.1,0-0.2,0.1c-0.1,0-0.1,0.1-0.2,0.1c-0.2,0.1-0.5,0.1-0.7,0.2
				s-0.5,0.2-0.7,0.4c0,0,0,0.1-0.1,0.1s-0.2,0-0.2,0.1c0,0-0.1,0-0.1,0.1c-0.1,0-0.2,0-0.4,0s-0.2,0.1-0.2,0.2H9.1L9,40
				c0,0,0,0-0.1,0v0.1c-0.1,0-0.1,0-0.1,0l0,0l0,0c0,0,0,0-0.1,0l0,0l0,0l0,0v0.1l0,0c0,0,0,0-0.1,0.1c0,0,0,0-0.1,0v0.1l0,0v0.1
				l0.4,0.1c0,0,0,0,0,0.1l0,0v0.1h0.1H9c0,0,0,0.1,0,0.2l0,0l0.1,0.1c0.1,0.1,0.2,0.2,0.4,0.5c0.2,0.4,0.4,0.7,0.5,1.1l0.2,0.6
				c0,0.1,0.1,0.2,0.2,0.2c0.1,0.1,0.4,0.1,0.5,0L11.1,43.4z M9.2,40.1L9.2,40.1C9.2,40.2,9.1,40.1,9.2,40.1L9.2,40.1
				C9.1,40.1,9.1,40.1,9.2,40.1L9.2,40.1L9.2,40.1L9.2,40.1 M10.1,43.1V43l0,0C10.1,43,10.2,43.1,10.1,43.1 M10.3,43.3
				C10.3,43.2,10.3,43.2,10.3,43.3L10.3,43.3L10.3,43.3C10.3,43.2,10.4,43.2,10.3,43.3C10.4,43.2,10.4,43.2,10.3,43.3L10.3,43.3
				L10.3,43.3 M10.5,43.4C10.5,43.4,10.4,43.4,10.5,43.4C10.4,43.4,10.4,43.4,10.5,43.4L10.5,43.4L10.5,43.4
				C10.4,43.3,10.5,43.3,10.5,43.4L10.5,43.4 M9.4,40.1L9.4,40.1C9.4,40,9.4,40,9.4,40.1C9.4,40,9.4,40,9.4,40.1
				C9.4,40,9.4,40,9.4,40.1L9.4,40.1z M9.9,42.7L9.9,42.7C9.9,42.7,9.9,42.6,9.9,42.7L9.9,42.7C9.9,42.6,9.9,42.6,9.9,42.7L9.9,42.7
				 M9.8,39.7L9.8,39.7L9.8,39.7L9.8,39.7L9.8,39.7C9.9,39.7,9.9,39.7,9.8,39.7 M22.3,47.4c0.1-0.2,0.1-0.5,0-0.6
				c-0.1-0.1-0.4-0.2-0.5-0.4c-0.1-0.2-0.4-0.5-0.5-0.6l0,0c0,0-0.1,0-0.1-0.1c0,0,0,0,0-0.1c0,0,0-0.1-0.1-0.1H21
				c0-0.1,0-0.1-0.1-0.2l-0.4-0.4c0,0-0.1-0.1-0.1-0.2l0,0c0-0.1-0.1,0-0.2-0.1c0,0,0,0,0-0.1c0-0.1-0.1-0.1-0.1-0.2
				c-0.1-0.2-0.5-0.4-0.7-0.4l0,0h-0.1l0,0c-0.1,0.1-0.4,0.4-1.4,1.3c-0.1,0-0.2,0.1-0.4,0.2l-0.2,0.1c-0.1,0-0.1,0.1-0.2,0.1
				l-0.1,0.1c-0.1,0.1-0.2,0.2-0.5,0.2c0,0,0,0-0.1,0.1l0.1,0.4l-0.1,0.1l-0.5,0.2c-0.1,0.1-0.2,0.4-0.5,0.5
				c-0.1,0.1-0.4,0.2-0.5,0.4c-0.1,0-0.1,0.1-0.2,0.1c-0.1,0.1-0.2,0.1-0.2,0.2c0,0-0.1,0-0.2,0.1l0,0c0,0-0.1,0.1-0.1,0.2h-0.1
				h-0.1c-0.1,0-0.1,0.2-0.1,0.2h-0.1c-0.1,0.1,0,0.4-0.1,0.4l0,0c0.2,0.1,0.2,0.4,0.5,0.4l0.1,0.1c0.2,0.2,0.2,0.5,0.5,0.7l0.1,0.1
				c0,0.1,0.1,0.1,0.1,0.2l0.7,0.7l0.1,0.1l0,0l0.1,0.2l0.1,0.1c0,0,0,0,0,0.1c0,0,0.1,0,0.2,0.1l0,0c0.2,0.1,0.4-0.1,0.6-0.1
				c0,0,0.1,0,0.1-0.1c0.1-0.1,0.2-0.2,0.1-0.5c-0.4-0.5-0.7-1-1.1-1.3c-0.2-0.4-0.5-0.6-0.8-0.8c0-0.1,0-0.2,0.1-0.4
				c0.6-0.5,1.1-0.8,1.5-1.2c0.1,0,0.2,0,0.4,0.1c0.1,0.1,0.2,0.4,0.4,0.5l0.5,0.6c0.1,0.1,0.2,0.2,0.2,0.5c0.2,0,0.2,0.4,0.6,0.4
				l0.2-0.1l0.1-0.1c0.1-0.1,0.2-0.2,0.2-0.4c0-0.2-0.2-0.4-0.2-0.5h-0.1c-0.2-0.4-0.4-0.6-0.6-0.8c0-0.1-0.1-0.1-0.2-0.2
				c-0.1-0.1-0.2-0.1-0.4-0.2c-0.1-0.1-0.1-0.2-0.1-0.4c0.1-0.1,0.4-0.2,0.5-0.5l1.3-0.8l0.1-0.1c0.1-0.1,0.2,0,0.2,0.1l0.1,0.1
				c0,0,0.1,0,0.1,0.1c0.2,0.2,0.5,0.6,0.6,1c0.1,0.1,0.2,0.2,0.4,0.4l0,0c0.2,0.2,0.4,0.5,0.7,0.6C22,47.7,22.1,47.5,22.3,47.4
				 M17.4,45.9v-0.1l0,0l0,0C17.6,45.8,17.4,45.9,17.4,45.9L17.4,45.9L17.4,45.9z M16.1,51.9L16.1,51.9C16,51.9,16,51.8,16.1,51.9
				L16.1,51.9C16.1,51.8,16.1,51.8,16.1,51.9C16.1,51.8,16.1,51.9,16.1,51.9 M21,45.5C20.9,45.5,20.9,45.5,21,45.5
				C20.9,45.5,20.9,45.3,21,45.5c-0.1-0.1,0-0.1,0-0.1S21,45.3,21,45.5C21,45.3,21,45.5,21,45.5L21,45.5z M19.4,44.4L19.4,44.4h-0.1
				l0,0C19.2,44.3,19.4,44.3,19.4,44.4C19.5,44.4,19.4,44.4,19.4,44.4 M19.7,44C19.7,44,19.7,44.1,19.7,44
				C19.7,44.1,19.6,44.1,19.7,44L19.7,44C19.6,44,19.6,44,19.7,44C19.6,44,19.7,44,19.7,44L19.7,44z M29.8,55.5l0.5-0.5
				c0.2-0.4,0.2-0.7-0.1-1c0,0-0.1,0-0.1-0.1v-0.1h-0.2v-0.1c-0.6-0.2-0.8,0.4-1,0.4c-0.2,0.2-0.5,0.5-0.8,0.7v0.1L27.5,55v0.1
				c-0.7,0.4-1,1.1-1.7,1.4c-0.1,0.1-0.4,0.4-0.5,0.2l0,0c-0.1-0.4,0.2-0.6,0.4-1v-0.1c0.6-0.7,0.8-1.7,1.2-2.5l0,0
				c0-0.1,0-0.2,0.1-0.2h0.1c-0.1-0.2,0.1-0.5,0.1-0.7c0-0.4-0.2-0.5-0.5-0.7c-0.1-0.1-0.1-0.2-0.2-0.4c-0.1,0-0.1-0.1-0.2,0l0,0
				c0,0-0.1,0-0.2,0.1l0,0v-0.1h-0.1l-0.1,0.2c0,0,0-0.1-0.1-0.1h-0.1c0,0,0.1,0.1,0.1,0.2l0,0l0,0h-0.1v0.1c0,0.1-0.2,0.1-0.2,0.1
				v0.1h-0.1l0,0c0.1,0.1,0,0.1,0,0.1c0,0.1-0.2,0.1-0.4,0.2l0,0c0,0.1,0,0.2,0.1,0.4c-0.1,0.1-0.2-0.1-0.4,0
				c-0.1,0.1,0,0.1,0.1,0.2c-0.1,0-0.1,0-0.1,0c0,0.1,0,0.2,0,0.4c0,0,0,0-0.1,0l0,0l-0.1,0.1v0.1h-0.1l0,0c0,0,0,0-0.1,0l0,0
				c-0.1,0.1,0.1,0.1,0.1,0.4c-0.1,0.1-0.2,0-0.2,0.1s0,0.1-0.1,0.4l-0.2,0.2l-0.1,0.1c-0.1,0.1-0.2,0.1-0.2,0.2c0,0,0,0.1,0,0.2
				c-0.1,0.4-0.4,0.7-0.5,1c-0.1,0.2-0.4,0.4-0.5,0.5c-0.1,0-0.1,0.1-0.2,0.1L22,56.8c-0.1,0.1-0.1,0.2-0.1,0.4c0,0,0,0-0.1,0.1
				c-0.1,0.2,0,0.5,0,0.6h0.1V58l0,0v0.1l0,0c0.2,0,0.5,0.1,0.7-0.2c0.1-0.2,0.4-0.4,0.5-0.6l1.7-2.3c0-0.1,0.1-0.2,0.1-0.2l0.2-0.4
				h0.1v0.1l-1.8,3.9c0,0,0,0.1-0.1,0.1l-0.1,0C23,58.7,23,58.7,23,58.8l0,0c-0.1,0.1,0.1,0.2,0.1,0.4c0.2,0.1,0.5,0.4,0.8,0.5
				c1-0.7,1.7-1.8,2.7-2.5l0.2-0.2c0.1-0.1,0.4-0.2,0.6-0.4c0.1,0.4-0.2,0.5-0.4,0.8c-0.2,0.1-0.4,0.4-0.5,0.6l-0.5,0.6L25.9,59
				l-0.4,0.5c0,0-0.1,0.1-0.1,0.2c-0.1,0.1-0.4,0.2-0.5,0.5c-0.2,0.2,0,0.6,0.1,0.7l0,0c0.4,0.2,0.6,0.1,0.8-0.2l0.6-1l0.8-1l1.5-2
				c0-0.1,0-0.1,0.1-0.2C29.2,56.2,29.6,55.8,29.8,55.5L29.8,55.5z M24,54.5v-0.1l0,0C24.1,54.4,24.1,54.5,24,54.5
				C24.1,54.5,24.1,54.5,24,54.5L24,54.5z M25,53.5C25,53.5,24.8,53.5,25,53.5C24.8,53.5,24.8,53.4,25,53.5
				C24.8,53.4,25,53.4,25,53.5C25,53.4,25,53.4,25,53.5L25,53.5z M24.7,53.8L24.7,53.8c0,0-0.1-0.1,0-0.1l0,0l0,0
				C24.7,53.7,24.8,53.7,24.7,53.8L24.7,53.8z M23.3,55.7C23.3,55.7,23.2,55.7,23.3,55.7L23.3,55.7C23.2,55.6,23.2,55.6,23.3,55.7
				L23.3,55.7C23.3,55.6,23.3,55.6,23.3,55.7L23.3,55.7z M22.6,55.6L22.6,55.6C22.7,55.6,22.7,55.6,22.6,55.6L22.6,55.6
				C22.6,55.5,22.6,55.6,22.6,55.6L22.6,55.6L22.6,55.6z M24.7,53C24.7,53,24.6,53,24.7,53C24.6,52.8,24.6,52.8,24.7,53
				C24.6,52.8,24.6,52.8,24.7,53C24.7,52.8,24.7,52.8,24.7,53 M25.3,53L25.3,53C25.3,53,25.2,53,25.3,53L25.3,53
				C25.3,52.8,25.3,52.8,25.3,53L25.3,53C25.3,52.8,25.3,53,25.3,53L25.3,53z M22.2,56.9L22.2,56.9L22.2,56.9L22.2,56.9
				C22.1,56.9,22.2,56.8,22.2,56.9L22.2,56.9 M25.2,55L25.2,55L25.2,55C25.1,55,25.1,54.9,25.2,55C25.2,54.9,25.2,54.9,25.2,55
				L25.2,55C25.2,54.9,25.2,55,25.2,55 M24.6,56C24.6,56,24.6,55.9,24.6,56L24.6,56L24.6,56C24.6,55.9,24.6,56,24.6,56L24.6,56
				 M22.8,56.2L22.8,56.2L22.8,56.2L22.8,56.2 M24.7,55.8L24.7,55.8L24.7,55.8L24.7,55.8L24.7,55.8 M39.6,59.5
				c0-0.2-0.1-0.5-0.2-0.6c-0.2,0-0.4-0.1-0.6-0.1c-0.2-0.1-0.5-0.2-0.7-0.4l0,0h-0.1l0,0l-0.1-0.1h-0.1c0-0.1-0.1-0.1-0.2-0.1
				L37,58.1c-0.1,0-0.1-0.1-0.2-0.1l0,0c-0.1,0-0.1,0-0.2,0c0,0,0,0,0-0.1c-0.1,0-0.1-0.1-0.2-0.1c-0.2-0.1-0.6-0.1-0.7,0l0,0
				c0,0-0.1,0-0.1,0.1l0,0c-0.1,0.1-0.1,0.5-0.7,1.9c-0.1,0.1-0.1,0.2-0.2,0.4l-0.1,0.2c0,0.1-0.1,0.1-0.1,0.2l0.1,0.4
				c0,0.1-0.1,0.4-0.2,0.5v0.1L34,61.8c0,0,0,0.1,0,0.2l-0.2,0.4c0,0.2-0.1,0.4-0.1,0.6c-0.1,0.1-0.1,0.4-0.2,0.6
				c0,0.1-0.1,0.1-0.1,0.2c0,0.1-0.1,0.2-0.1,0.4S33,64.3,33,64.3l0,0c0,0.1,0,0.1,0,0.2c0,0,0,0.1-0.1,0.1c0,0,0,0-0.1,0.1
				c0,0.1,0,0.2,0,0.4c0,0,0,0,0,0.1c0,0.1,0.2,0.2,0.1,0.4l0,0c0.2,0,0.4,0.1,0.6,0.1h0.1c0.2,0.1,0.5,0.2,0.7,0.4h0.1
				c0.1,0,0.1,0.1,0.2,0.1l1,0.2c0.1,0,0.1,0,0.1,0.1l0,0l0.2,0.2h0.1c0,0,0,0,0,0.1c0,0,0.1,0,0.2,0l0,0c0.2,0,0.4-0.2,0.5-0.5
				v-0.1c0.1-0.1,0-0.4-0.1-0.5c-0.5-0.2-1.1-0.5-1.5-0.7c-0.4-0.1-0.7-0.2-1.1-0.4C34,64.6,34,64.5,34,64.4
				c0.2-0.7,0.5-1.2,0.8-1.8c0.1,0,0.2-0.1,0.4-0.1c0.1,0.1,0.4,0.2,0.6,0.2l0.8,0.4c0.1,0.1,0.4,0.1,0.5,0.2
				c0.2-0.1,0.4,0.1,0.7,0.1l0.1-0.2L38,63c0-0.1,0.1-0.4,0-0.5c-0.2-0.4-0.6-0.4-0.6-0.5h-0.1c-0.4-0.1-0.6-0.4-1-0.5
				c-0.1,0-0.1-0.1-0.2-0.1c-0.1,0-0.2,0-0.4-0.1c-0.1,0-0.2-0.1-0.2-0.2c0-0.2,0.1-0.4,0.2-0.6l0.5-1.2l0.1-0.2
				c0.1-0.1,0.2-0.1,0.2-0.1l0.1,0.1h0.1c0.4,0.1,0.7,0.4,1,0.5c0.1,0,0.2,0.1,0.5,0.1h0.1c0.4,0.1,0.6,0.2,1,0.2
				C39.4,60,39.5,59.7,39.6,59.5 M34.6,60.7v-0.1l0,0l0,0C34.7,60.6,34.7,60.7,34.6,60.7C34.7,60.7,34.6,60.7,34.6,60.7L34.6,60.7z
				 M36.5,66.5C36.5,66.5,36.4,66.5,36.5,66.5c-0.1,0-0.1,0-0.1,0H36.5C36.4,66.4,36.4,66.4,36.5,66.5
				C36.5,66.4,36.5,66.5,36.5,66.5 M37.5,58.5L37.5,58.5c-0.1,0-0.1,0-0.1,0C37.3,58.4,37.3,58.4,37.5,58.5
				C37.5,58.4,37.5,58.4,37.5,58.5C37.5,58.4,37.5,58.5,37.5,58.5L37.5,58.5z M35.5,58.4L35.5,58.4h-0.1l0,0
				C35.4,58.3,35.5,58.3,35.5,58.4C35.5,58.3,35.5,58.4,35.5,58.4 M35.7,58L35.7,58C35.7,58.1,35.7,58.1,35.7,58L35.7,58
				C35.5,58.1,35.5,58.1,35.7,58L35.7,58L35.7,58z M48.4,68v-0.2l0,0c0,0,0,0,0.1,0v-0.2c0-0.2,0.1-0.5,0.1-0.7l0.4-2.4
				c0-0.1,0-0.2,0-0.4c0-0.4,0.1-0.6,0.1-1c0-0.2,0.1-0.5,0.2-0.7c0-0.2,0-0.4-0.1-0.5h-0.1l0,0c0,0,0,0,0-0.1c-0.4,0-0.7-0.1-1,0.4
				c0,0.2,0,0.5,0,0.8l-0.1,0.4v0.1l-0.2,1.8c0,0.2,0,0.5,0,0.6c0,0.1-0.1,0.5-0.4,0.5s-0.2-1-0.4-1.2L47,64.9c0,0,0,0.1-0.1,0.1
				c0,0-0.1-0.1,0-0.1c0,0,0-0.1,0.1-0.1h0.1v-0.2c0-0.1-0.2-0.1-0.1-0.2c0,0,0,0,0.1,0c0-0.4-0.1-0.8-0.1-1.3
				c-0.2-0.5-0.1-1.1-0.4-1.5c-0.1,0-0.1-0.1-0.1-0.1h-0.1l-0.1-0.1c-0.5-0.1-1.2,0.1-1.2,0.6V62v0.2c0,0.1,0.1,0.5,0,0.6
				c0,0.1,0,0.1-0.1,0.2v0.1l-0.1,0.7c0,0.1,0,0.1-0.1,0.2c0,0,0,0,0,0.1v0.1c0,0.1,0,0.2,0,0.4s0,0.1-0.1,0.2c0,0.1,0,0.1,0,0.2
				v0.2v0.1c0,0,0,0.1-0.1,0.1v0.2c0,0,0,0.1-0.1,0.1c0,0.2,0,0.6,0,0.8V67c0,0.1,0,0.1,0,0.2c0,0,0,0.1-0.1,0.1v0.1
				c0,0.1-0.1,0.1-0.1,0.2v0.1c0,0,0,0.1-0.1,0.1v0.2c0,0.1-0.1,0.1-0.1,0.2v0.1c0,0,0,0,0,0.1l0.1,0.1l0,0v0.1c0,0.1,0,0.1,0,0.2
				c0,0,0,0.1-0.1,0.1l0,0l0,0c0.1,0,0.2,0.2,0.5,0.2c0.4,0,0.6,0,0.7-0.4c-0.1-0.6,0.1-1.4,0.1-2.1l0,0c0-0.1,0.1-0.1,0.1-0.2v-0.8
				c0-0.1,0.1-0.2,0.1-0.4v-0.5c0-0.1,0.1-0.2,0.2-0.4c0.5,1.1,0.4,2.1,1,3.2c0.1,0-0.1,0.4,0.1,0.4l0,0c0,0.4,0.1,0.6,0.2,0.8
				c0,0.4,0.1,0.6,0.4,0.7l0,0l0,0h0.1h0.1c0.2,0,0.4-0.1,0.5-0.6c0-0.2,0-0.4,0-0.6L48.4,68z M48.5,64.6L48.5,64.6
				C48.5,64.6,48.5,64.5,48.5,64.6L48.5,64.6c0.1-0.1,0-0.2,0-0.2s0,0,0-0.1c0,0,0,0,0-0.1s0.1-0.1,0.1-0.1c0-0.1,0-0.1,0-0.1v-0.1
				c0,0,0,0,0-0.1v-0.1l0,0c0,0,0,0,0-0.1v-0.1c0,0,0-0.1,0.1-0.1l0,0l0,0c0,0,0.1,0,0.1,0.1s-0.1,0.2-0.1,0.4v0.1
				c0,0,0,0.1-0.1,0.1v0.4l0,0c0,0,0.1,0,0.1,0.2C48.6,64.5,48.6,64.6,48.5,64.6L48.5,64.6z M49,62.7C49,62.7,49,62.8,49,62.7
				c0,0.1,0,0.2,0,0.2l-0.1,0.2h-0.1v-0.1V63C48.9,62.8,48.9,62.8,49,62.7h-0.1H49C48.9,62.6,48.9,62.6,49,62.7l-0.1-0.1v-0.2
				c0-0.1,0.1-0.1,0.1-0.1l0,0l0,0c0,0,0.1,0.1,0,0.2C49,62.7,49,62.7,49,62.7 M48.3,67.7v0.1c0,0.1,0,0.2-0.1,0.1
				c0,0-0.1,0-0.1-0.1l0,0l0,0c0,0-0.1-0.1,0-0.1C48.2,67.7,48.2,67.7,48.3,67.7v-0.1C48.3,67.6,48.3,67.6,48.3,67.7L48.3,67.7
				C48.3,67.7,48.2,67.7,48.3,67.7C48.2,67.6,48.2,67.7,48.3,67.7C48.2,67.7,48.3,67.7,48.3,67.7 M48.5,65.2
				C48.5,65.1,48.5,65.1,48.5,65.2C48.5,65.1,48.5,65.1,48.5,65.2c-0.1,0-0.1-0.2-0.1-0.2l0,0c0-0.1,0-0.1,0.1-0.1l0,0l0,0l0,0
				C48.6,64.9,48.6,65.1,48.5,65.2C48.6,65.2,48.6,65.2,48.5,65.2L48.5,65.2 M48.5,66c-0.1,0.1-0.1,0.2-0.1,0.4
				C48.4,66.3,48.4,66.2,48.5,66c-0.1-0.1-0.1-0.2-0.1-0.4c0.1,0,0,0.1,0.1,0.1C48.5,65.9,48.5,65.9,48.5,66
				C48.4,66,48.5,66,48.5,66 M49,62C49,62.1,49,62.1,49,62c-0.1,0-0.1,0-0.1,0s0-0.1,0.1-0.1C49,61.9,49,62,49,62S49,61.9,49,62
				L49,62L49,62 M48.3,67.4L48.3,67.4l-0.1,0.2L48.3,67.4l-0.1,0.1L48.3,67.4C48.3,67.4,48.3,67.2,48.3,67.4
				C48.3,67.2,48.3,67.2,48.3,67.4C48.3,67.2,48.3,67.2,48.3,67.4L48.3,67.4z M44.2,68.7L44.2,68.7C44.2,68.7,44.1,68.6,44.2,68.7
				c-0.1-0.1-0.1-0.1-0.1-0.1C44.2,68.6,44.2,68.6,44.2,68.7L44.2,68.7z M47.5,69.4C47.5,69.5,47.5,69.5,47.5,69.4
				c-0.1,0-0.1,0-0.1,0S47.3,69.4,47.5,69.4L47.5,69.4 M47.9,69.6L47.9,69.6L47.9,69.6C47.9,69.6,47.8,69.6,47.9,69.6
				C47.8,69.6,47.8,69.6,47.9,69.6C47.8,69.5,47.8,69.5,47.9,69.6C47.9,69.5,47.9,69.6,47.9,69.6L47.9,69.6z M48.4,63.5L48.4,63.5
				C48.3,63.5,48.3,63.5,48.4,63.5C48.3,63.4,48.3,63.4,48.4,63.5C48.4,63.4,48.4,63.4,48.4,63.5 M47.5,69.5
				C47.5,69.6,47.5,69.6,47.5,69.5C47.5,69.5,47.3,69.5,47.5,69.5C47.3,69.5,47.5,69.5,47.5,69.5L47.5,69.5L47.5,69.5 M48.8,62
				L48.8,62L48.8,62C48.6,62,48.6,62,48.8,62C48.6,62,48.6,62,48.8,62L48.8,62z M48.2,68.2L48.2,68.2L48.2,68.2L48.2,68.2
				C48.2,68.1,48.2,68.1,48.2,68.2L48.2,68.2L48.2,68.2z M45.2,62.5C45.2,62.6,45.2,62.6,45.2,62.5C45.2,62.6,45.2,62.6,45.2,62.5
				C45.2,62.6,45.1,62.6,45.2,62.5C45.1,62.5,45.1,62.5,45.2,62.5L45.2,62.5z M48.5,65.7L48.5,65.7C48.4,65.7,48.4,65.7,48.5,65.7
				C48.4,65.7,48.5,65.7,48.5,65.7L48.5,65.7L48.5,65.7z M48.3,67.2L48.3,67.2L48.3,67.2C48.3,67.1,48.3,67.1,48.3,67.2L48.3,67.2z
				 M45,69.3C45,69.3,45,69.1,45,69.3C45,69.1,45,69.1,45,69.3C45.1,69.1,45.1,69.1,45,69.3C45.1,69.1,45.1,69.3,45,69.3 M44.6,69.1
				L44.6,69.1C44.6,69.1,44.5,69.1,44.6,69.1C44.5,69.1,44.5,69.1,44.6,69.1L44.6,69.1 M48.3,66.5L48.3,66.5
				C48.3,66.4,48.3,66.4,48.3,66.5C48.4,66.4,48.4,66.5,48.3,66.5C48.4,66.5,48.4,66.5,48.3,66.5 M47.6,69.3L47.6,69.3
				C47.5,69.3,47.5,69.3,47.6,69.3C47.5,69.3,47.5,69.3,47.6,69.3L47.6,69.3 M48.5,65.3L48.5,65.3C48.4,65.3,48.4,65.3,48.5,65.3
				C48.4,65.2,48.4,65.2,48.5,65.3L48.5,65.3z M48.1,69.1L48.1,69.1C48.1,69.1,47.9,69.1,48.1,69.1C47.9,69.1,47.9,69.1,48.1,69.1
				C47.9,69.1,47.9,69.1,48.1,69.1L48.1,69.1z M45.1,62.1L45.1,62.1C45,62.1,45,62.1,45.1,62.1C45,62,45.1,62,45.1,62.1L45.1,62.1
				C45.1,62,45.1,62.1,45.1,62.1 M45.3,62.1L45.3,62.1C45.2,62.1,45.2,62,45.3,62.1C45.2,62,45.2,62,45.3,62.1L45.3,62.1L45.3,62.1z
				 M47.8,69L47.8,69C47.8,68.9,47.8,68.9,47.8,69C47.9,68.9,47.9,68.9,47.8,69L47.8,69z M60.2,68.1C60.2,68.1,60.1,68.1,60.2,68.1
				L60.1,68c0-0.2-0.1-0.4-0.2-0.6c0,0,0-0.1,0-0.2c-0.1,0-0.2-0.2-0.4-0.4c-0.2-0.1-0.4-0.4-0.5-0.5c-0.2,0-0.2-0.4-0.5-0.2l0,0
				c-0.1,0-0.2-0.2-0.2-0.2l0,0l0,0c-0.7-0.5-1.8-0.8-2-1.8c0.2-0.4,0.1-1,0.8-1c0.2,0,0.6,0.1,0.8,0.2l0.5,0.8
				c0.1,0.2,0.1,0.4,0.4,0.5h0.1c0.1,0,0.1-0.1,0.2-0.1c0,0,0,0,0.1,0l0,0c0-0.1,0.2,0,0.2-0.1l0,0c0-0.1,0-0.1,0.1-0.1
				c0.1-0.2,0-0.4,0.1-0.6c0-0.1-0.1-0.1-0.2-0.1c-0.1-0.2,0-0.4-0.2-0.5c0,0,0,0,0-0.1s-0.1-0.1-0.1-0.2c0,0,0,0,0-0.1
				s-0.2-0.1-0.2-0.4l0,0l0,0c-0.1-0.2-0.6-0.5-0.7-0.5c0,0,0,0-0.1,0c-0.2,0-0.5-0.1-0.8-0.1c-0.1,0-0.2,0.1-0.4,0.1h-0.1l-0.1,0.1
				c-0.1,0-0.2,0-0.4,0c0,0-0.1,0-0.1,0.1v-0.1v0.2c-0.1,0-0.2,0.1-0.2,0.1s0,0-0.1,0c-0.1,0.1-0.2,0.4-0.4,0.4l0,0v0.1
				c0,0,0,0-0.1,0c0,0,0,0,0,0.1c0,0.1-0.1,0.1-0.2,0.1v0.1c0,0,0,0.1-0.1,0.1l0,0v0.2c-0.1,0.1-0.1,0.2-0.1,0.4
				c0,0.2,0.1,0.5,0.1,0.7c0,0,0,0.1,0,0.2c0.1,0.2,0.4,0.4,0.4,0.6c0.4,0.5,1.1,0.8,1.5,1.3l0,0c0.2,0,1,0.6,1.3,0.8
				c0.2,0.2,0.5,0.7,0.5,1s-0.1,0.4-0.1,0.6l-0.2,0.2c-0.1,0.1-0.2,0-0.4,0.1c-0.2,0-0.6-0.1-0.8-0.4c-0.1-0.4-0.1-0.7-0.5-1
				c-0.1,0-0.2-0.1-0.4-0.1h-0.1h-0.2c-0.1,0-0.4,0.2-0.4,0.4v0.1v0.4c0,0.1,0.1,0.2,0.1,0.4c0,0.7,0.8,0.8,1,1.1h0.1
				c0.1,0.1,0.2,0,0.2,0.1c0.4,0.1,0.7,0.1,1,0.1c0.4,0,0.8-0.1,1.2-0.4c0.1-0.1,0.2-0.2,0.4-0.2h0.1c0-0.1,0.2-0.1,0.2-0.2
				c0,0,0,0,0-0.1c0.2-0.1,0-0.4,0.2-0.4c0-0.2,0.1-0.5,0.2-0.7c0,0,0,0-0.1-0.1c0,0,0.1,0,0.1-0.1C60.2,68.2,60.2,68.2,60.2,68.1
				C60.2,68.2,60.2,68.2,60.2,68.1L60.2,68.1z M56.5,68.3L56.5,68.3C56.4,68.3,56.4,68.3,56.5,68.3L56.5,68.3
				C56.4,68.2,56.4,68.2,56.5,68.3C56.4,68.2,56.5,68.3,56.5,68.3L56.5,68.3 M55.3,63.1C55.3,63.1,55.3,63.2,55.3,63.1
				C55.3,63.2,55.3,63.2,55.3,63.1L55.3,63.1L55.3,63.1 M59.7,67.4L59.7,67.4C59.6,67.4,59.6,67.4,59.7,67.4
				C59.6,67.4,59.6,67.4,59.7,67.4L59.7,67.4 M59.4,63.9C59.4,63.8,59.4,63.8,59.4,63.9h0.1C59.5,63.9,59.4,63.9,59.4,63.9
				 M56.1,68.2L56.1,68.2C56.1,68.2,56,68.2,56.1,68.2C56,68.2,56.1,68.2,56.1,68.2L56.1,68.2L56.1,68.2z M59.8,67.6L59.8,67.6
				L59.8,67.6C59.7,67.6,59.7,67.6,59.8,67.6C59.7,67.6,59.7,67.6,59.8,67.6L59.8,67.6 M56.6,68.4C56.6,68.4,56.5,68.4,56.6,68.4
				C56.5,68.3,56.5,68.3,56.6,68.4C56.6,68.3,56.6,68.3,56.6,68.4C56.6,68.3,56.6,68.4,56.6,68.4L56.6,68.4z M55.9,68.9
				C55.9,68.9,55.8,68.9,55.9,68.9C55.8,68.9,55.8,68.9,55.9,68.9C55.9,68.8,55.9,68.9,55.9,68.9L55.9,68.9 M75.3,57.8h-0.1l0,0l0,0
				H75.3c-0.1-0.1-0.1-0.1-0.1-0.1c-0.1-0.1-0.1-0.2-0.2-0.1h0.1c0-0.1-0.1,0-0.2,0c0,0,0,0-0.1,0l0,0c-0.1,0-0.1,0-0.2,0.1
				c0,0,0,0-0.1,0.1h-0.1L74.1,58c0,0,0,0-0.1,0l0,0l-1,0.6c-0.1,0-0.2,0-0.4,0.1c0,0-0.1,0-0.1,0.1c-0.2,0-0.4,0.1-0.6,0.2
				c-0.2,0.1-0.6,0.4-0.7,0.6c0,0.1,0,0.2,0,0.5l0,0c0,0.1,0,0.1,0,0.2c0,0.1,0.1,0.1,0.2,0.1l0,0c0.2,0.1,0.4,0.1,0.6,0h0.1
				c0.1,0,0.1-0.1,0.2-0.1l0.4-0.1l0.1-0.1l0.1,0.1l0.1,0.4c0,0,0,0.1,0.1,0.1c0,0.1,0,0.1,0,0.2h0.2V61l0,0c0,0,0.1,0,0.1,0.1v0.2
				c0,0,0,0,0.1,0.1l0.2,0.4c0,0,0,0,0,0.1v0.1l0,0l0,0l0.1,0.1l0.1,0.1c0,0.1,0.1,0.2,0.1,0.2c0,0.1,0,0.1,0,0.1l0.2,0.2v0.1h0.1
				v0.1v0.1l0,0h0.1l0.1,0.2c0,0.1,0.1,0.1,0.1,0.2c0,0,0.1,0,0.1,0.1s0,0.1,0,0.2c0,0,0,0,0.1,0.1l0,0c0,0,0.1,0.1,0.1,0.2
				s0,0.1,0,0.2l0,0l0,0l0,0c0,0,0.1,0,0.1,0.1s0,0.2,0,0.4l0.1,0.1v0.1l0,0c0.1,0,0.1,0.1,0.2,0.1l0,0.1l0,0v0.1l0.4,0.1l0,0h0.2
				c0,0,0-0.1,0.1-0.1c0,0,0.1,0,0.2-0.1l0,0c0.1-0.2,0.2-0.5,0.2-0.8c-0.4-0.8-0.8-1.7-1.2-2.5l-0.8-1.4c-0.1-0.1-0.1-0.2-0.2-0.2
				l0,0l0,0l0,0c0,0,0-0.1-0.1-0.2l-0.2-0.7c-0.1-0.4-0.1-0.6,0.1-0.7c0.1-0.1,0.4-0.1,0.6-0.2l0,0c0,0,0-0.1,0.1-0.1l0,0l0,0
				c0,0,0.1-0.1,0.1-0.2l0,0c0.1,0,0.1,0,0.1,0c0.1,0,0-0.2,0-0.4c0,0,0-0.1-0.1-0.1h-0.1h-0.1C75.3,58,75.4,58,75.3,57.8L75.3,57.8
				z M75.3,58L75.3,58v0.1c0,0,0,0,0,0.1c0-0.1-0.1,0-0.1-0.1l0,0l0,0h-0.1l0,0l0,0l0,0l0,0l0,0l0,0c0.2-0.1,0.1-0.1,0.2-0.4l0,0
				c0,0,0,0.2-0.1,0.2l0,0l0,0C75.1,58.1,75.2,58,75.3,58 M74.8,58L74.8,58c-0.1,0.1,0,0.1,0,0.1s0,0,0,0.1l0,0
				c-0.1-0.1-0.1,0-0.2-0.1V58c0,0,0,0,0.1,0H74.8C74.7,58,74.7,58,74.8,58 M75.1,57.6C75.1,57.6,75,57.6,75.1,57.6
				c-0.1,0-0.1,0.1-0.1,0.1l0,0l0,0c0,0,0-0.1,0-0.2C75,57.6,75,57.6,75.1,57.6L75.1,57.6z M75.1,58.2
				C75.1,58.3,75.1,58.3,75.1,58.2c0,0.1,0,0.1,0,0.1l0,0H75l0,0l0,0c0,0,0.1-0.1,0-0.1C75,58.3,75,58.3,75.1,58.2
				C75.1,58.3,75.1,58.3,75.1,58.2L75.1,58.2 M74.6,58.5C74.5,58.7,74.5,58.7,74.6,58.5C74.5,58.5,74.5,58.5,74.6,58.5L74.6,58.5
				L74.6,58.5 M74.8,57.8L74.8,57.8h-0.1l0,0H74.8L74.8,57.8L74.8,57.8 M74.8,63.3L74.8,63.3L74.8,63.3c-0.1,0-0.1-0.1,0-0.1l0,0
				C74.8,63.2,74.8,63.2,74.8,63.3L74.8,63.3L74.8,63.3z M74.6,57.8C74.6,57.8,74.6,58,74.6,57.8C74.6,58,74.6,58,74.6,57.8
				C74.5,57.8,74.6,57.8,74.6,57.8L74.6,57.8L74.6,57.8z M74.8,58.4L74.8,58.4C74.8,58.5,74.8,58.5,74.8,58.4
				C74.8,58.5,74.8,58.5,74.8,58.4L74.8,58.4C74.7,58.5,74.7,58.4,74.8,58.4L74.8,58.4z M75.2,58.5L75.2,58.5L75.2,58.5
				C75.2,58.7,75.2,58.5,75.2,58.5L75.2,58.5L75.2,58.5 M74.5,57.8L74.5,57.8L74.5,57.8C74.5,57.7,74.5,57.7,74.5,57.8
				C74.5,57.7,74.6,57.7,74.5,57.8C74.6,57.7,74.6,57.7,74.5,57.8L74.5,57.8z M75.4,58.7L75.4,58.7C75.3,58.7,75.4,58.7,75.4,58.7
				C75.4,58.8,75.4,58.8,75.4,58.7C75.4,58.8,75.4,58.7,75.4,58.7 M75.4,64.3L75.4,64.3C75.3,64.3,75.3,64.3,75.4,64.3
				C75.3,64.3,75.3,64.1,75.4,64.3C75.4,64.1,75.4,64.1,75.4,64.3L75.4,64.3z M75,63.4L75,63.4L75,63.4L75,63.4
				C74.8,63.4,74.8,63.3,75,63.4L75,63.4C75,63.3,75,63.3,75,63.4 M75.2,58.7L75.2,58.7L75.2,58.7L75.2,58.7L75.2,58.7L75.2,58.7z
				 M76.5,65.8C76.5,65.9,76.5,65.9,76.5,65.8C76.4,65.9,76.4,65.9,76.5,65.8L76.5,65.8C76.4,65.8,76.4,65.8,76.5,65.8
				C76.4,65.8,76.4,65.8,76.5,65.8 M75.4,58.3L75.4,58.3C75.4,58.3,75.3,58.3,75.4,58.3C75.3,58.3,75.3,58.3,75.4,58.3L75.4,58.3
				L75.4,58.3z M74.8,58.3L74.8,58.3L74.8,58.3L74.8,58.3L74.8,58.3L74.8,58.3z M75,58.2C75.1,58.2,75,58.2,75,58.2L75,58.2
				C75,58.2,75,58.3,75,58.2C74.8,58.2,75,58.2,75,58.2L75,58.2 M74.5,62.7L74.5,62.7L74.5,62.7L74.5,62.7
				C74.5,62.6,74.5,62.7,74.5,62.7 M74.8,63L74.8,63L74.8,63C74.7,63,74.7,63,74.8,63L74.8,63L74.8,63z M85.2,54.7
				c0-0.1-0.1-0.1-0.1-0.2L84.6,54l-0.1-0.1c0-0.1-0.1-0.2-0.2-0.4c-0.5-0.6-1.2-0.8-1.9-0.8L81.5,53c-0.1,0-0.1,0.1-0.2,0.1
				c-0.2,0.2-0.5,0.5-0.6,0.7c0,0.1-0.2,0.4-0.2,0.7c0,0.4-0.1,0.5,0,1c0.2,0.5,0.6,0.8,1,1.3l0.7,1c0.1,0.1,0.2,0.2,0.2,0.4
				l0.1,0.1c0.1,0.1,0.1,0.1,0.2,0.2l1,1.2v0.1c0.2,0.2,0.5,0.4,0.7,0.5c0.1,0.1,0.4,0,0.4,0.1c0.6,0.1,1.2,0.1,1.7-0.4
				c0.1,0,0.1-0.1,0.1-0.1c0.5-0.5,0.8-1.2,0.7-1.9c-0.1-0.4-0.1-0.7-0.5-1.1l-0.1-0.1l-0.4-0.5c-0.1-0.1-0.1-0.1-0.2-0.2
				c0-0.1-0.1-0.1-0.1-0.2l-0.2-0.2l-0.1-0.1L85.2,54.7z M84.4,55.3l1.8,2.1c0.2,0.2,0.6,0.7,0.1,1.2l0,0l0,0
				c-0.1,0.1-0.2,0.2-0.4,0.4c-0.1,0.1-0.1,0.1-0.2,0.1c-0.4,0-0.7,0.1-1-0.2l0,0c0,0-0.1,0-0.1-0.1l-0.4-0.1c0,0-0.1-0.1-0.2-0.1
				c0,0,0-0.1-0.1-0.1c-0.1-0.1-0.2-0.2-0.4-0.4c-0.1-0.1-0.1-0.2-0.1-0.4c-0.1-0.1-0.1-0.1-0.2-0.2c-0.1-0.1-0.1-0.4-0.4-0.5
				c-0.1-0.1-0.1-0.2-0.2-0.4c0,0-0.1-0.1-0.2-0.1c0,0-0.1,0-0.1-0.1v-0.2c0-0.1-0.1-0.1-0.2-0.1c0-0.1-0.1-0.2-0.1-0.4
				c0,0,0-0.1-0.1-0.1c-0.2-0.4-0.4-0.6-0.2-1.1c0.1-0.1,0.2-0.4,0.4-0.5c0.1-0.1,0.4-0.2,0.5-0.2h0.1c0,0,0.6,0.1,0.8,0.4
				c0.1,0.1,0.1,0.1,0.2,0.2L84,55C84.1,55.1,84.2,55.2,84.4,55.3 M82.8,57.2c0,0-0.1-0.1-0.2-0.2s-0.1-0.1-0.1-0.1s0.1,0.1,0.2,0.1
				C82.8,57,82.8,57.1,82.8,57.2 M82.9,57.4C83.1,57.4,83.1,57.4,82.9,57.4c0.1,0,0.1,0.1,0.1,0.2l0,0c0,0-0.1,0-0.1-0.1
				C82.9,57.4,82.8,57.4,82.9,57.4C82.8,57.4,82.9,57.4,82.9,57.4C82.9,57.2,82.9,57.2,82.9,57.4 M84,58.8c0,0-0.1,0-0.1-0.1v-0.1
				c0,0,0.1,0,0.1,0.1V58.8 M83.3,57.7L83.3,57.7C83.3,57.8,83.2,57.7,83.3,57.7C83.2,57.7,83.2,57.7,83.3,57.7L83.3,57.7
				C83.3,57.6,83.3,57.6,83.3,57.7L83.3,57.7 M84.1,58.9L84.1,58.9C84.1,59,84.1,59,84.1,58.9c0,0.1-0.1,0-0.1,0l0,0l0,0H84.1
				L84.1,58.9L84.1,58.9z M84.2,58.8L84.2,58.8L84.2,58.8C84.1,58.8,84.1,58.8,84.2,58.8C84.1,58.7,84.1,58.7,84.2,58.8
				C84.1,58.7,84.1,58.7,84.2,58.8C84.2,58.7,84.2,58.7,84.2,58.8 M83.8,58.4C83.8,58.4,83.8,58.5,83.8,58.4
				C83.8,58.5,83.8,58.5,83.8,58.4C83.7,58.4,83.7,58.4,83.8,58.4L83.8,58.4L83.8,58.4L83.8,58.4 M82.5,56.6
				C82.5,56.8,82.5,56.6,82.5,56.6C82.3,56.6,82.3,56.6,82.5,56.6L82.5,56.6L82.5,56.6L82.5,56.6 M83.5,58.1L83.5,58.1
				C83.5,58.2,83.5,58.2,83.5,58.1C83.4,58.1,83.4,58.1,83.5,58.1L83.5,58.1L83.5,58.1 M89.8,45.2h-0.2l-0.5,0.5
				C89,45.8,89,45.9,89,46c1.2,0.8,2.4,1.8,3.5,2.6l0,0c0,0,0,0,0.1,0l0,0c0.1,0.1,0.2,0.2,0.4,0.4l0.8,0.7c0.4,0.2,0.7,0.7,0.6,1
				l0,0c0,0.2,0,0.4-0.1,0.5c-0.4,0.5-0.7,0.5-1.2,0.4h-0.1c-0.2-0.1-0.5-0.2-0.6-0.5l-1.2-1L91,49.9c-0.1-0.1-0.4-0.2-0.6-0.4
				L89.7,49l-0.6-0.5c-0.1-0.1-0.2-0.2-0.4-0.4c-0.1,0-0.2-0.1-0.2-0.1l-0.5-0.4c-0.1-0.1-0.4-0.2-0.5-0.1v0.1l-0.1,0.1l-0.2,0.2
				c-0.1,0.1-0.1,0.1-0.1,0.2c0.6,0.5,1.2,1,1.9,1.4l2.3,1.8l0,0c1,0.8,2.4,1.9,3.6,0.2c1-1.3,0.2-2.4-1.4-3.7l-0.4-0.2
				c-0.2-0.1-0.4-0.4-0.6-0.5c-0.5-0.4-0.8-0.6-1.3-1C90.8,46.2,90.3,45.7,89.8,45.2 M93.4,48.3L93.4,48.3L93.4,48.3L93.4,48.3
				c0.1,0.1,0.1,0.1,0.1,0.1C93.5,48.4,93.4,48.4,93.4,48.3C93.4,48.4,93.4,48.3,93.4,48.3C93.4,48.4,93.3,48.4,93.4,48.3
				c-0.1,0.1-0.1,0-0.1,0h-0.1l0,0v-0.1h-0.1c0,0,0,0,0-0.1c0.1,0,0.1,0,0.1,0l0,0C93.3,48.2,93.3,48.2,93.4,48.3L93.4,48.3z
				 M92.9,49C92.9,48.9,93.1,49,92.9,49c0.1,0.1,0.2,0.2,0.2,0.2h-0.1C93.1,49.1,92.9,49,92.9,49 M95.3,50.7
				C95.3,50.7,95.2,50.7,95.3,50.7c-0.1,0.1-0.1,0.2-0.1,0.2l0,0v-0.1l-0.1,0.1v-0.1c0,0,0,0,0.1-0.1v-0.1
				C95.2,50.6,95.2,50.7,95.3,50.7L95.3,50.7L95.3,50.7 M93.7,52.6L93.7,52.6c0,0.1-0.2,0.1-0.4,0.1l0,0
				C93.4,52.7,93.4,52.6,93.7,52.6L93.7,52.6z M93.1,48.1C92.9,48.1,92.9,48.1,93.1,48.1c-0.1,0-0.1,0-0.1,0s0,0-0.1,0V48
				C92.8,47.8,92.9,48,93.1,48.1C93.1,48,93.1,48.1,93.1,48.1 M92.8,47.8C92.8,48,92.8,48,92.8,47.8C92.8,48,92.7,48,92.8,47.8
				C92.7,48,92.7,47.8,92.8,47.8c-0.1,0-0.1,0.1-0.2,0c0,0,0,0,0-0.1C92.6,47.8,92.7,47.8,92.8,47.8L92.8,47.8 M92.6,47.6
				c0.1,0.1,0.1,0.1,0.1,0.1L92.6,47.6c-0.1,0-0.1-0.1-0.2,0v-0.1C92.5,47.5,92.5,47.5,92.6,47.6L92.6,47.6L92.6,47.6z M95.1,51.3
				c0,0.1,0,0.1,0,0.2c0,0,0,0-0.1,0.1v-0.1c0,0,0,0,0.1,0C95.1,51.4,95.1,51.4,95.1,51.3C95,51.4,95,51.4,95.1,51.3L95.1,51.3
				C95,51.3,95,51.3,95.1,51.3 M95.2,51L95.2,51L95.2,51c-0.1,0.1,0,0.1,0,0.2h-0.1C95.1,51.2,95.1,51,95.2,51L95.2,51 M91.7,48.4
				L91.7,48.4c0.1,0,0.1-0.1,0-0.1l0,0l0,0C91.6,48.3,91.6,48.3,91.7,48.4L91.7,48.4z M92.1,47.2L92.1,47.2v0.1
				C92.1,47.4,92,47.4,92.1,47.2C92,47.4,92,47.2,92.1,47.2C92,47.2,92.1,47.2,92.1,47.2L92.1,47.2z M93.9,52.6L93.9,52.6L93.9,52.6
				C93.8,52.6,93.8,52.6,93.9,52.6C93.8,52.6,93.8,52.6,93.9,52.6C93.8,52.6,93.8,52.6,93.9,52.6c-0.1,0-0.1,0-0.2,0
				C93.8,52.6,93.8,52.5,93.9,52.6 M94.2,52.2C94.2,52.2,94.4,52.2,94.2,52.2C94.4,52.2,94.4,52.4,94.2,52.2
				C94.4,52.4,94.2,52.4,94.2,52.2C94.2,52.4,94.2,52.2,94.2,52.2L94.2,52.2 M94.6,51.2L94.6,51.2L94.6,51.2
				C94.5,51.2,94.6,51.2,94.6,51.2C94.6,51,94.6,51,94.6,51.2 M94.6,50.2L94.6,50.2L94.6,50.2C94.6,50.2,94.6,50.3,94.6,50.2
				L94.6,50.2L94.6,50.2 M95,51C95,51,95,51.2,95,51L95,51L95,51L95,51z M101.6,40.2c-0.7-0.1-1.4-0.2-2.1-0.5
				c-0.5-0.1-1-0.2-1.4-0.2h-0.1c-0.1-0.1-0.2-0.2-0.2-0.5c-0.2-0.5-0.6-1-1.1-1.2c-0.4-0.1-0.6-0.2-1-0.2c-0.6,0.1-1.1,0.4-1.4,0.7
				h-0.1c-0.2,0.2-0.4,0.6-0.6,0.8L93.2,40l-0.1,0.2l-0.1,0.2v0.1c0.4,0.1,0.8,0.4,1.2,0.6l0.2,0.2h0.1c0.4,0.1,0.6,0.4,1,0.5
				l2.5,1.2c0.1,0,0.4,0.1,0.5,0.2l0.4,0.2l0,0c0.1,0,0.2,0.1,0.4,0.1c0.1,0.1,0.4,0.1,0.5,0.2c0.2,0.1,0.4,0.2,0.6,0.2
				c0.1-0.2,0.1-0.2,0.2-0.4c0,0,0-0.1,0.1-0.2l0,0c0.1-0.1,0-0.4,0-0.4S100.1,43,100,43c-0.6-0.2-1.2-0.5-1.8-0.7l-0.2-0.1
				c0,0-0.1,0-0.1-0.1l-0.4-0.1c-0.1,0-0.1-0.1-0.2-0.1c0-0.1,0.1-0.2,0.1-0.4l0.4-0.6c0-0.1,0-0.1,0-0.1s0,0,0.1,0
				c0.4,0.1,0.7,0.1,1.2,0.2c0.6,0.1,1.1,0.2,1.7,0.4c0.2-0.1,0.5,0.1,0.5,0.1l0,0c0.1,0.1,0.4,0,0.4,0s0.1-0.2,0.1-0.4
				c0-0.1,0.1-0.2,0.1-0.4c0-0.1,0-0.1-0.1-0.1C101.9,40.2,101.8,40.2,101.6,40.2 M95.9,38.7c0.1,0,0.1,0,0.2,0.1
				c0.5,0.2,0.7,0.6,0.8,1.1c0,0.2,0,0.5-0.1,0.7l-0.2,0.6c-0.1,0-0.4,0-0.7-0.2c-0.1-0.1-0.4-0.1-0.5-0.2c-0.1,0-0.1,0-0.1,0l0,0
				c-0.1-0.1-0.4-0.2-0.5-0.4c-0.1,0-0.1,0-0.2,0c-0.1,0-0.1-0.1-0.1-0.1c0-0.1,0-0.2,0-0.4c0.1-0.1,0.1-0.2,0.2-0.4
				c0.2-0.4,0.5-0.6,1-0.6l0,0C95.7,38.8,95.8,38.7,95.9,38.7 M100.6,43.2v0.1l0,0V43.2L100.6,43.2h-0.2c0,0-0.1,0-0.1-0.1l0,0
				c0,0,0,0,0.1,0L100.6,43.2L100.6,43.2 M101.9,40.3C101.9,40.3,101.9,40.4,101.9,40.3C101.9,40.4,101.9,40.4,101.9,40.3
				L101.9,40.3c-0.2,0-0.2,0-0.2,0l0,0l0,0C101.6,40.2,101.8,40.3,101.9,40.3L101.9,40.3 M94.5,41.2C94.5,41.2,94.5,41.3,94.5,41.2
				C94.4,41.3,94.4,41.3,94.5,41.2L94.5,41.2C94.4,41.3,94.2,41.2,94.5,41.2C94.4,41.2,94.4,41.2,94.5,41.2
				C94.4,41.2,94.4,41.2,94.5,41.2C94.4,41.2,94.5,41.2,94.5,41.2 M101.9,40.4L101.9,40.4C101.9,40.6,101.9,40.6,101.9,40.4
				L101.9,40.4C101.8,40.6,101.8,40.4,101.9,40.4L101.9,40.4C101.8,40.4,101.8,40.4,101.9,40.4 M101.3,41.2
				C101.2,41.2,101.2,41.2,101.3,41.2c-0.1,0-0.1,0-0.1,0l0,0C101.2,41,101.2,41,101.3,41.2C101.2,41,101.3,41,101.3,41.2
				L101.3,41.2z M98.1,39.4L98.1,39.4C97.9,39.4,98.1,39.4,98.1,39.4C98.1,39.5,98.1,39.5,98.1,39.4L98.1,39.4
				C98.2,39.4,98.1,39.4,98.1,39.4L98.1,39.4z M94.1,38.3L94.1,38.3H94l0,0l0,0C94,38.3,94,38.3,94.1,38.3
				C94,38.3,94,38.3,94.1,38.3L94.1,38.3C94.1,38.4,94.1,38.3,94.1,38.3L94.1,38.3 M97.8,39.3L97.8,39.3
				C97.8,39.4,97.9,39.4,97.8,39.3C97.9,39.3,97.9,39.3,97.8,39.3C97.9,39.3,97.8,39.3,97.8,39.3L97.8,39.3L97.8,39.3z M95.6,38.7
				L95.6,38.7C95.6,38.5,95.7,38.7,95.6,38.7C95.7,38.7,95.7,38.7,95.6,38.7C95.7,38.7,95.7,38.7,95.6,38.7L95.6,38.7z M95.3,40.7
				C95.3,40.7,95.3,40.8,95.3,40.7C95.3,40.8,95.3,40.8,95.3,40.7C95.2,40.8,95.2,40.8,95.3,40.7L95.3,40.7
				C95.2,40.7,95.2,40.7,95.3,40.7L95.3,40.7 M100.3,43.8L100.3,43.8L100.3,43.8L100.3,43.8L100.3,43.8L100.3,43.8L100.3,43.8z
				 M101.6,40.4L101.6,40.4C101.8,40.4,101.8,40.4,101.6,40.4L101.6,40.4C101.8,40.4,101.8,40.4,101.6,40.4
				C101.8,40.4,101.6,40.6,101.6,40.4L101.6,40.4L101.6,40.4 M98.2,39.4L98.2,39.4C98.2,39.5,98.2,39.5,98.2,39.4
				C98.2,39.5,98.2,39.5,98.2,39.4C98.3,39.5,98.2,39.4,98.2,39.4L98.2,39.4z M100.6,43.5C100.4,43.5,100.4,43.5,100.6,43.5
				C100.4,43.5,100.4,43.5,100.6,43.5C100.4,43.5,100.4,43.5,100.6,43.5C100.4,43.5,100.4,43.5,100.6,43.5
				C100.4,43.5,100.4,43.5,100.6,43.5L100.6,43.5 M97.7,39C97.7,39,97.7,39.1,97.7,39C97.8,39.1,97.8,39.1,97.7,39
				C97.8,39.1,97.8,39,97.7,39C97.8,39,97.7,39,97.7,39 M94.5,40.1C94.4,40.1,94.4,40.1,94.5,40.1C94.4,40.2,94.4,40.2,94.5,40.1
				C94.5,40.2,94.5,40.2,94.5,40.1C94.5,40.2,94.5,40.1,94.5,40.1 M101.5,40.3L101.5,40.3C101.4,40.3,101.4,40.3,101.5,40.3
				C101.4,40.2,101.5,40.2,101.5,40.3L101.5,40.3z M100.8,41.2L100.8,41.2C100.9,41.2,100.9,41.2,100.8,41.2
				C100.9,41.2,100.9,41.2,100.8,41.2L100.8,41.2L100.8,41.2z M98.5,39.5C98.4,39.5,98.4,39.5,98.5,39.5
				C98.4,39.5,98.4,39.5,98.5,39.5L98.5,39.5L98.5,39.5L98.5,39.5 M105.3,29C105.3,29,105.2,29,105.3,29l-0.5,0.1c0,0,0,0-0.1,0
				c-0.5,0.2-1.1,0-1.8,0.2c0,0,0,0-0.1,0c0,0,0-0.1-0.1-0.1c0,0-0.1,0-0.2,0l0,0c0,0-0.1,0-0.2,0h-0.1c0,0,0,0-0.1,0
				c-0.1,0.2-0.4,0-0.6,0.1c0,0,0,0-0.1,0c-0.1,0-0.2,0.1-0.4,0.1c0,0-0.1,0-0.1-0.1l-0.1,0.1l0,0l0,0c0,0-0.1,0.1-0.2,0.1l0,0
				c-0.1-0.1-0.1-0.1-0.2-0.1h-0.1c-0.2-0.2-0.5-0.4-0.7-0.6c-0.1,0-0.1-0.2-0.2-0.2l0,0c0-0.1-0.2,0-0.1-0.1l0,0l-0.1-0.1l0,0
				c-0.1-0.1-0.2-0.2-0.2-0.4c0,0,0,0-0.1-0.1h-0.1c-0.1-0.2-0.5-0.4-0.7-0.6c-0.4,0-0.5,0.4-0.6,0.6c0,0.2,0,0.5,0,0.7
				c1.1,1,2.3,1.8,3.5,2.6c0,0,0,0,0,0.1l-0.1,0.1l-0.5-0.1c-0.1,0-0.1,0-0.2,0c-0.2-0.2-0.7-0.2-1-0.4l0,0h-0.1l0,0
				c-0.1,0-0.1,0-0.2,0c-0.4-0.1-0.7-0.4-1.1-0.5c-0.1,0-0.4,0-0.5,0v0.1c-0.1,0.1-0.2,0.2-0.4,0.5l0,0v0.2c0,0.1,0.1,0.2,0.1,0.2
				s0,0,0,0.1l0,0h0.1l0,0l0.1,0.1l0,0H97l0,0c0,0,0,0,0.1,0.1h0.1h0.1h0.5l1.9,0.6c0.1,0,0.2,0,0.4,0s0.2,0,0.4,0.1
				c0.1,0,0.1,0,0.1,0l0.2,0.1c0.1,0,0.1,0,0.1,0h0.1h0.1l0.1,0.1l0.1-0.1h0.1c0.1,0,0.1,0,0.1,0.1h0.1l0.2,0.1c0.1,0,0.1-0.1,0.2,0
				c0.1,0,0.1,0.1,0.2,0.1l0,0c0.4,0,0.7,0.1,1.2,0.2l0.2,0.1c0.1,0,0.1,0,0.2,0h0.1c0.2,0,0.4,0,0.5,0v-0.1c0.2,0,0.1-0.2,0.2-0.1
				c0-0.1,0-0.4,0-0.5v-0.1c-0.1-0.1,0-0.4-0.1-0.4c0,0,0,0-0.1,0c-0.1-0.1-0.1-0.2-0.4-0.2c-0.2,0-0.4,0-0.6,0V32
				c-0.1,0-0.2,0.1-0.4,0c0,0-0.1,0-0.1-0.1h-0.1c-0.1,0-0.1-0.1-0.2-0.1l0,0c-0.1-0.2-0.4-0.4-0.6-0.5h-0.1
				c-0.1-0.2-0.5-0.1-0.4-0.5l0,0c0.2-0.1,0.5,0.1,0.7,0s0.4,0,0.5-0.1c0.7-0.1,1.4-0.1,2.1-0.2c0.1-0.1,0.1-0.2,0.2-0.4l0.2-0.5
				v-0.1C105.6,29.4,105.4,29.1,105.3,29 M100.8,29.6C100.8,29.6,100.8,29.7,100.8,29.6c0,0.1,0,0.2-0.1,0.2c0,0-0.1,0-0.1-0.1l0,0
				C100.7,29.7,100.7,29.7,100.8,29.6C100.8,29.7,100.8,29.7,100.8,29.6C100.8,29.7,100.8,29.7,100.8,29.6L100.8,29.6z M99.6,29
				L99.6,29c0,0.1,0,0.1,0,0.2l0,0l-0.1-0.1C99.5,29,99.5,29,99.6,29 M99.4,31.3C99.4,31.3,99.2,31.3,99.4,31.3h-0.1
				C99.2,31.3,99.2,31.2,99.4,31.3C99.4,31.2,99.4,31.2,99.4,31.3 M103.8,33.2L103.8,33.2c0.1,0,0.1,0,0.1,0.1
				C103.9,33.2,103.8,33.3,103.8,33.2L103.8,33.2L103.8,33.2z M100.4,29.6C100.4,29.7,100.4,29.7,100.4,29.6L100.4,29.6
				C100.3,29.7,100.3,29.6,100.4,29.6C100.3,29.6,100.3,29.6,100.4,29.6L100.4,29.6z M103.1,31.8C103.1,31.8,103.2,31.8,103.1,31.8
				C103.1,31.8,103.1,31.9,103.1,31.8C103.1,31.9,103.1,31.8,103.1,31.8L103.1,31.8 M104.5,29.5L104.5,29.5
				C104.5,29.6,104.5,29.6,104.5,29.5L104.5,29.5C104.5,29.6,104.5,29.6,104.5,29.5L104.5,29.5L104.5,29.5z M100.3,29.5L100.3,29.5
				C100.3,29.6,100.3,29.6,100.3,29.5L100.3,29.5C100.2,29.5,100.2,29.5,100.3,29.5L100.3,29.5z M99.2,32.2L99.2,32.2
				C99.4,32.2,99.4,32.4,99.2,32.2C99.4,32.4,99.2,32.4,99.2,32.2C99.2,32.4,99.2,32.4,99.2,32.2 M102.9,29.5L102.9,29.5L102.9,29.5
				C102.9,29.6,102.8,29.6,102.9,29.5C102.8,29.6,102.8,29.5,102.9,29.5L102.9,29.5C102.8,29.5,102.8,29.5,102.9,29.5L102.9,29.5z
				 M101.4,29.7L101.4,29.7L101.4,29.7C101.4,29.6,101.5,29.6,101.4,29.7L101.4,29.7C101.5,29.7,101.5,29.7,101.4,29.7
				C101.5,29.7,101.5,29.7,101.4,29.7L101.4,29.7z M98.7,31.2L98.7,31.2C98.7,31.2,98.5,31.2,98.7,31.2L98.7,31.2
				C98.7,31,98.7,31,98.7,31.2C98.7,31,98.7,31.2,98.7,31.2 M99.7,29.1L99.7,29.1C99.7,29.1,99.7,29.3,99.7,29.1L99.7,29.1
				L99.7,29.1z M102,29.6C102,29.6,102.1,29.6,102,29.6C102,29.7,102,29.7,102,29.6C102,29.7,102,29.7,102,29.6L102,29.6
				 M102.7,32.9C102.7,33.1,102.7,33.1,102.7,32.9C102.7,33.1,102.7,33.1,102.7,32.9L102.7,32.9L102.7,32.9L102.7,32.9z M99.8,29.3
				C99.8,29.3,100,29.3,99.8,29.3C99.8,29.4,99.8,29.4,99.8,29.3C99.8,29.4,99.8,29.4,99.8,29.3L99.8,29.3 M102.7,29.5L102.7,29.5
				L102.7,29.5C102.6,29.5,102.7,29.5,102.7,29.5L102.7,29.5z M100.3,31.5C100.3,31.5,100.4,31.5,100.3,31.5L100.3,31.5
				C100.4,31.6,100.3,31.5,100.3,31.5L100.3,31.5 M100,31.5L100,31.5L100,31.5L100,31.5L100,31.5 M104.4,32.2L104.4,32.2L104.4,32.2
				L104.4,32.2L104.4,32.2z M100.2,31.4L100.2,31.4C100.2,31.5,100.2,31.5,100.2,31.4C100.1,31.5,100.1,31.5,100.2,31.4
				C100.1,31.4,100.1,31.4,100.2,31.4 M98.5,28.1C98.5,28.1,98.4,28.1,98.5,28.1C98.4,27.9,98.5,27.9,98.5,28.1L98.5,28.1z
				 M98.8,28.1L98.8,28.1L98.8,28.1C98.8,28.1,98.7,28.1,98.8,28.1C98.7,28.1,98.7,28.1,98.8,28.1C98.7,28.1,98.7,28.1,98.8,28.1
				 M104.7,32.1C104.7,32.2,104.7,32.2,104.7,32.1C104.7,32.2,104.6,32.2,104.7,32.1L104.7,32.1z M97.9,30.9
				C98.1,30.9,98.1,30.9,97.9,30.9C98.1,30.9,98.1,30.9,97.9,30.9L97.9,30.9L97.9,30.9 M101,30.3L101,30.3L101,30.3L101,30.3
				L101,30.3z M99.5,31.5C99.5,31.5,99.5,31.4,99.5,31.5C99.5,31.4,99.5,31.4,99.5,31.5L99.5,31.5C99.6,31.4,99.6,31.4,99.5,31.5
				L99.5,31.5z M104.3,29.4C104.3,29.5,104.3,29.5,104.3,29.4C104.3,29.5,104.3,29.4,104.3,29.4L104.3,29.4L104.3,29.4 M104.4,29.4
				L104.4,29.4C104.4,29.4,104.3,29.4,104.4,29.4L104.4,29.4L104.4,29.4 M98.3,31.9L98.3,31.9L98.3,31.9L98.3,31.9L98.3,31.9
				 M102.7,19.6c-0.4,0-0.7,0.1-0.8,0.4c-0.5,0.1-0.4,0.7-0.5,1.1c0.1,0.1,0.1,0.4,0.1,0.5c0,0.1,0,0.1,0,0.2
				c0.1,0.2,0.2,0.4,0.5,0.5c0.1,0.1,0.5,0.2,0.6,0.4c0.2,0,0.2,0.1,0.4,0.1s0.1-0.1,0.4-0.1c0,0.1,0.1,0.2,0.2,0.2s0.1,0,0.1-0.1
				c0.1-0.4,0.4-0.1,0.4-0.4l0,0c0.1,0,0.2-0.1,0.2-0.2c0-0.1,0-0.1-0.1-0.2c0.1-0.1,0.1-0.2,0.1-0.2c0-0.2,0-0.4,0-0.6v-0.1l0,0
				c0-0.1,0-0.1,0-0.2c0-0.1,0-0.2-0.1-0.2v-0.1c0-0.1-0.2-0.2-0.2-0.4c-0.1-0.1-0.2-0.1-0.4-0.2h-0.4h-0.1c0-0.1,0-0.1-0.1-0.1
				C103.1,19.7,102.9,19.7,102.7,19.6C102.8,19.7,102.8,19.7,102.7,19.6 M101.9,20.2L101.9,20.2v0.1c0,0.1-0.1,0.1-0.1,0.1
				s0,0,0-0.1C101.6,20.3,101.8,20.1,101.9,20.2C101.9,20.1,101.9,20.1,101.9,20.2 M104.1,20.4C104.1,20.4,104.1,20.6,104.1,20.4
				c0,0.1,0,0.2,0,0.2l0,0H104l0,0C104,20.6,104,20.4,104.1,20.4L104.1,20.4z M103.8,20.2C103.8,20.1,103.9,20.1,103.8,20.2
				c0.1,0,0.1,0,0.1,0.1l0,0c0,0,0,0-0.1,0C103.8,20.3,103.8,20.3,103.8,20.2L103.8,20.2 M101.9,22L101.9,22c0,0.1,0,0.1,0,0.1l0,0
				C101.8,22.1,101.8,22,101.9,22C101.8,22,101.8,21.9,101.9,22L101.9,22z M101.9,20.4C101.9,20.6,101.9,20.6,101.9,20.4
				c0,0.1,0,0.1,0,0.1C101.8,20.6,101.8,20.6,101.9,20.4C101.8,20.6,101.8,20.4,101.9,20.4L101.9,20.4z M101.8,21.6
				C101.9,21.6,101.9,21.6,101.8,21.6c0,0.1,0,0.1,0,0.1l0,0c0,0-0.1,0-0.1-0.1H101.8L101.8,21.6L101.8,21.6 M102.9,20.1L102.9,20.1
				c-0.1,0.1-0.1,0-0.1,0C102.8,20,102.8,20,102.9,20.1C102.9,20,102.9,20,102.9,20.1L102.9,20.1z M104.1,21.8L104.1,21.8
				L104.1,21.8c0.1,0.1,0,0.1,0,0.1l0,0C104,21.9,104,21.9,104.1,21.8C104,21.8,104,21.8,104.1,21.8 M104.1,20.8
				C104.1,20.8,104.1,20.9,104.1,20.8c0,0.1,0,0.1,0,0.1l0,0C104.1,20.9,104,20.9,104.1,20.8C104,20.9,104,20.8,104.1,20.8
				L104.1,20.8z M103.1,19.9C103.1,19.9,103.1,20,103.1,19.9c-0.1,0-0.1,0-0.1,0C102.9,19.9,102.9,19.9,103.1,19.9L103.1,19.9
				L103.1,19.9z M103.3,19.9L103.3,19.9C103.3,20,103.3,20,103.3,19.9L103.3,19.9C103.2,20,103.2,20,103.3,19.9
				C103.2,20,103.3,19.9,103.3,19.9L103.3,19.9z"/>
		</g>
		<g id="g44" transform="translate(58.96,43.7446)">
			<path id="path46" class="st3" d="M17.9,21.9c-0.1,0.1-0.4,0.4-0.6,0.5c-1.3,0.7-2.4,0.6-3.1,1c-0.4,0.1-1.3,0.6-2,1.3
				c-0.2,0.2-0.6,0.7-0.8,1s-0.6,0.4-0.8,0.2c-1-0.4-4-1.3-4.6-1.4c-0.1,0-0.2-0.1-0.4-0.2c-0.1-0.1-0.2-0.4-0.4-0.7
				c-0.5-3-1.7-5.7-1.9-6c-0.1-0.1-0.4-0.2-0.5-0.1c-0.6,0.6-1.4,6.4-1.7,6.7s-3.3,1.7-3.9,2.1c-0.5,0.2-0.6,0.2-1.4-0.7
				c-1.1-1.1-1.7-1.7-3-2.1C-8,23-8.5,23.2-9.7,22.8c0,0-1.1-0.4-2.1-1.4c-0.4-0.5-1.1-1.8-0.7-2.1c0,0,0.1-0.1,0.2,0
				c0,0,0.7,1.1,0.8,1.2c0.6,0.6,1.4,1,2.7,1.1c1.3,0.1,2.9,0.5,4.4,2c0.1,0.1,0.6,0.8,0.7,1c0.2,0.2,0.4,0.2,0.7,0
				C-2.4,24.2,0,23,0,23c0.2-0.2,0.2-2.9,0.4-3.5c0.5-3.6,1.8-6,2.4-6.4c0.2-0.2,0.5-0.1,0.7,0.1C4,13.9,5.6,17.9,6,20
				c0,0.8,0.5,3.1,0.6,3.2c0,0,3,1,3.5,1.2c0.2,0.1,0.4,0.1,0.6-0.1c1.2-1.2,2.5-2.4,4-2.6c1.2-0.2,1.8-0.2,2.6-0.6
				c0.5-0.2,0.8-0.5,1.1-0.8c0.4-0.2,0.6-0.5,0.7-0.4C19.4,20.2,18.4,21.4,17.9,21.9 M9,29c0,0-0.1,0-0.8-0.2
				c-0.2-0.1-0.7-0.2-0.7-0.2s0.1-0.6,0.2-0.7c0.1-0.5,0.2-0.6,0-0.8c-0.2-0.2-1.7-0.7-2-0.4c-0.1,0.1-0.2,0.2-0.2,0.5
				c0,0.1-0.1,0.8-0.1,0.8s-0.6,0-0.7-0.1c-0.1-0.1-0.4-1.9,0.1-2.3c0.7-0.7,5,1.1,5.1,1.2C10.3,27.5,9.5,28.5,9,29 M8.1,30.7
				c-0.1,0.1-3.9-0.7-4-1c-0.2-0.2-0.1-0.5-0.1-0.5s0.1-0.1,0.2-0.1c2.5,0,3.9,1.1,3.9,1.1C8.3,30.3,8.2,30.5,8.1,30.7 M6.2,33.3
				c-0.4,0.4-1.4,0.5-2-0.1c-0.6-0.7-0.6-1.8-0.5-2c0.1-0.1,0.8,0,0.8,0s0.1,0.1,0.1,0.2c0,0.1-0.1,1.1,0,1.2c0.1,0.1,0.6,0.1,0.7,0
				c0.1-0.1,0.2-1.1,0.2-1.2c0.6-0.2,1.1-0.2,1.3,0C7.1,31.6,6.7,32.7,6.2,33.3 M2.9,32.6c0,0-2.4,1.5-2.7,1.2
				c-0.1-0.1-1.1-1.4-0.6-1.9c0.1-0.1,0.8-0.4,1.3,0.1C1,32.1,1,32.2,1.1,32.3c0.1,0.1,0.5,0.5,1,0c0.2-0.2,0.1-0.2-0.1-1.2
				c-0.1-0.2,0-0.4,0.1-0.5c0.1-0.1,0.7-0.4,0.8-0.1C3.2,30.9,3.2,32.3,2.9,32.6 M-1.4,30.8c-0.2-0.2-0.2-0.4,0-0.6
				c0.6-0.6,3.5-1.9,4-1.3c0.1,0.1,0.1,0.4,0.1,0.4c-0.2,0.2-1.8,0.4-2,0.5C0.3,30-1.2,30.9-1.4,30.8 M-1.9,29.4
				c-0.1-0.1-0.7-1.4-0.8-1.8c-0.1-0.1-0.1-0.4,0-0.5c0,0,3.7-2.5,4.4-1.8c0.2,0.2,1,2.3,0.8,2.4c0,0-0.8,0.4-1,0.2
				c0,0-0.5-1.4-0.6-1.5c-0.2-0.2-1.9,0.6-2,0.7c-0.2,0.2,0.6,1.7,0.4,1.8C-0.8,29-1.8,29.5-1.9,29.4 M-7.9,17.1
				c-0.5,0.5-1.1,0.5-1.4,0c-0.5-0.5-0.4-1.2,0.2-1.8c0.5-0.5,1.1-0.6,1.5-0.2C-6.8,15.8-7.7,16.9-7.9,17.1 M14,15.1
				c0.6-0.5,1.3-0.4,1.8,0.2c0.6,0.6,0.6,1.5,0.1,2c-0.2,0.2-0.8,0.6-1.5-0.1C13.8,16.6,13.5,15.4,14,15.1 M20,17.9
				c-0.2-0.2-0.4-0.4-0.6-0.4c-0.1,0-0.2,0-0.4,0.1c-0.1,0.2-0.4,0.6-0.5,0.8c-0.2,0.2-0.4,0.5-0.5,0.6c-0.4,0.4-0.7,0.6-1.1,0.7
				c-0.5,0.1-1,0.2-1.4,0.2c-0.6,0.1-1.3,0.1-1.9,0.4c-1,0.4-1.9,1-2.7,1.8c-0.1,0.1-0.4,0.2-0.5,0.5c0.1-0.5,0.4-1.2,1-1.7
				c0,0,0.2-0.1,0.4-0.2c0.1-0.1,0.2-0.2,0.4-0.2c0.2-0.2,0.1-0.5,0-0.6c-0.1-0.1-0.2-0.1-0.5-0.1s-1,0.1-1.9,0.8
				c-0.1,0.1-0.2,0.4-0.4,0.7C9.2,21.6,9.1,22,9,22.1c-0.1,0.1-0.1,0.1-0.1,0.1l0,0c-0.4-0.4,0.6-2.1,1.2-2.7c0.6-0.5,1.4-1.2,2-1.2
				c0.2,0,0.6,0.2,1,0.4c0.4,0.2,0.8,0.4,1.2,0.5c0.1,0,0.2,0,0.4,0c0.8,0,1.5-0.5,2-0.8c1.1-1.1,1-2.7,0.1-3.6
				c-0.2-0.2-1.1-1-2.1-1c-0.6,0-1.2,0.2-1.8,0.7c-0.1,0.1-0.4,0.5-0.7,1.1c-0.2,0.4-0.5,1-0.6,1.1c-0.2,0.2-0.6,0.5-1.1,0.7
				c-0.2,0.1-0.6,0.4-0.8,0.5C9.4,18,9,18.3,8.8,18.5c-0.4,0.4-0.6,0.7-0.8,1.1c-0.1,0.1-0.1,0.5-0.2,0.8c-0.1,0.2-0.2,0.6-0.4,1
				c-0.1-0.6-0.4-1.7-0.6-2.5c-0.2-1.1-0.5-2-0.6-2.4C5,13,4.8,12.3,7.2,10.1c0.5-0.5,1-0.7,1.5-0.7c0.6,0,1.3,0.4,1.8,0.8
				c0.8,1,0.7,2.3,0,3c-0.2,0.2-0.6,0.4-0.8,0.4c-0.2,0-0.4,0-0.6-0.2L9,13.5l0.2-0.4c0,0,0.1-0.1,0.4-0.2c0.1-0.1,0.2-0.1,0.4-0.2
				c0.5-0.5,0.6-1.1,0.1-1.5c-0.2-0.2-0.7-0.5-1.2-0.5c-0.6,0-1.1,0.2-1.4,0.5c-0.4,0.4-0.6,0.8-0.6,1.3c0,0.6,0.2,1.2,0.8,1.8
				c0.5,0.5,1.1,0.8,1.8,0.8c1.2,0,2.1-0.8,2.5-1.2c1.1-1.1,1-3.3-0.5-4.8c-0.8-0.8-1.8-1.2-2.7-1.2c-1,0-1.9,0.4-2.6,1.1
				c-1,0.8-1.8,2.3-2.1,3.2c0-1,0.1-2.6,0.7-3.1C4.8,9,5.1,8.9,5.3,8.6C5.7,8.4,5.9,8.2,6,8c1-1,1.3-1.5,1.3-2.1
				c0-0.4-0.1-0.7-0.5-1.2C6.7,4.6,6.5,4.5,6.3,4.5S5.8,4.6,5.6,4.8C5.4,4.9,5.1,5.4,4.7,6.1C4.5,6.6,4.1,7.2,3.9,7.4
				c0-0.5,0-1.5,0.8-3.5c0.1-0.5,0.1-1.2-0.4-1.7C4.1,2.1,3.8,2,3.4,2s-0.7,0.1-1,0.4C2,2.8,1.9,3.8,2.1,4.1c0.7,1.4,0.8,3,0.7,3.5
				C2.7,7.4,2.7,7.4,2.6,7.3C2.5,7.2,2.2,6.9,2,6.5C1.6,6,1.4,5.7,1.3,5.5C0.9,5.2,0.4,4.9,0,4.9c-0.2,0-0.5,0.1-0.6,0.2
				c-0.5,0.4-0.7,1.1,0.1,2c0.2,0.2,1.3,1.1,2.3,1.7C2,9,2.1,9.1,2.1,9.1c0.2,0.4,0.5,2.9,0.1,3.1c-0.1-0.2-0.4-0.5-0.6-0.7
				S1.1,10.9,1,10.8c-0.5-0.6-1.9-2-3.7-2c-1,0-1.8,0.4-2.6,1.2c-0.7,0.6-1.1,1.4-1.1,2.4c0,1.1,0.5,2,1,2.4c0.5,0.5,1.5,1,2.6,1
				c0.7,0,1.3-0.2,1.7-0.6c1.4-1.4,0.5-2.6,0.2-2.9c-0.4-0.4-0.8-0.6-1.4-0.6c-0.4,0-0.8,0.1-1.1,0.5c-0.1,0-0.2,0.7-0.1,1.1
				c0,0.1,0.1,0.2,0.1,0.5c0,0.1,0.1,0.1,0.1,0.1l0,0c-0.1,0.1-0.2,0.1-0.4,0.1c-0.2,0-0.6-0.1-0.7-0.4c-0.7-0.8-0.7-1.8,0-2.6
				c0.5-0.5,1.2-0.8,1.9-0.8c0.8,0,1.5,0.4,2.1,1c1.1,1.2,1.2,2.4,0.5,4.2c-0.4,0.7-0.7,2.3-1,3.2l-0.1,0.7c0.1,0.7-0.1,1.9-0.2,2.7
				c-0.2-1-0.7-1.9-1.7-2.9c-0.1-0.1-0.6-0.5-1.1-1c-0.5-0.4-1-0.7-1.1-0.8C-5,17.1-5,17-5.2,16.9c0,0-0.1-0.2-0.1-0.4
				c0-0.4-0.1-0.7-0.2-1c-0.1-0.2-0.4-0.5-0.6-0.7c-0.6-0.6-1.3-1-2-1c-0.6,0-1.3,0.2-1.9,0.8c-0.5,0.5-1.2,1.9,0,3.2
				c0.2,0.2,1.2,1.2,2.4,1.2c0.1,0,0.2,0,0.4,0C-6.7,19-6.2,19-5.9,19c0.7,0,1.3,0.2,2.3,1.2c0.8,0.8,1.5,2,1.4,2.6
				c-0.1-0.5-0.6-1.1-1-1.5c0,0-1.5-1.5-2.3-1.5c-0.1,0-0.2,0.1-0.4,0.1c-0.1-0.1-0.1,0-0.1,0.1c0,0.1,0,0.2,0.1,0.4
				c0,0,0.2,0.2,0.4,0.4c0.4,0.4,1,0.8,1.2,1.2c0.4,0.4,0.7,1.1,1,1.3c-0.2-0.1-0.5-0.5-0.8-0.7c-0.5-0.5-0.8-0.8-1.8-1.2
				c-0.7-0.4-1.3-0.4-1.9-0.5c-0.6-0.1-1.1-0.2-1.7-0.5c-0.8-0.2-1.4-0.6-1.8-1c-0.1-0.1-0.2-0.2-0.2-0.4c0,0-0.1-0.2-0.1-0.5
				c-0.1-0.5-0.2-0.7-0.4-0.8c-0.1-0.1-0.4-0.2-0.5-0.2c-0.1,0-0.4,0.1-0.5,0.2c-0.4,0.4-0.5,1.1-0.6,1.5c0,1.8,0.8,2.6,1.2,3.1
				c0.6,0.7,1.1,1,1.8,1.3c1.7,0.8,4,2.1,5.1,3.2c1.5,1.5,2.6,3.2,3.8,5.8c0,0.1,0.2,0.6,0.5,1c0.5,1.1,0.5,1.1,0.6,1.1
				C-0.4,34.8-0.3,35,0,35c0.1,0,0.1,0,0.2,0c1.3-0.5,2.3-0.8,3-0.8s1.3,0.2,2.3,0.8c0.1,0.1,0.2,0.1,0.5,0.1c0.1,0,0.2,0,0.4-0.1
				s0.2-0.4,0.7-1.3c0.2-0.2,0.4-0.5,0.5-0.7c0.8-1.4,4.2-5.4,5.1-6.3c1.2-1.1,2.4-1.7,3.3-2.1c0.1,0,0.2-0.1,0.4-0.1
				c0.8-0.4,1.8-0.7,2.9-1.9c0.6-0.6,1-1.4,1.2-2.4C20.4,19.1,20.3,18.3,20,17.9"/>
		</g>
	</g>
</g>
</svg>
