<?xml version="1.0" encoding="UTF-8"?>
<svg id="Ebene_2" data-name="Ebene 2" xmlns="http://www.w3.org/2000/svg" xmlns:xlink="http://www.w3.org/1999/xlink" viewBox="0 0 124.59 124.41">
  <defs>
    <style>
      .cls-1 {
        fill: #fff;
      }

      .cls-2 {
        stroke-width: 2.67px;
      }

      .cls-2, .cls-3 {
        stroke: #fff;
        stroke-miterlimit: 5.33;
      }

      .cls-2, .cls-3, .cls-4 {
        fill: none;
      }

      .cls-5 {
        fill: #683800;
      }

      .cls-3 {
        stroke-width: 5.33px;
      }

      .cls-6 {
        clip-path: url(#clippath);
      }
    </style>
    <clipPath id="clippath">
      <rect class="cls-4" width="124.59" height="124.41"/>
    </clipPath>
  </defs>
  <g id="svg2">
    <g id="g10">
      <g id="g12">
        <g class="cls-6">
          <g id="g14">
            <g id="g24">
              <path id="path26" class="cls-1" d="m62.36,122.84c33.4,0,60.47-27.07,60.47-60.47S95.76,1.89,62.36,1.89,1.89,28.96,1.89,62.36s27.07,60.47,60.47,60.47M17.68,62.36c0-24.68,20.01-44.69,44.69-44.69s44.69,20.01,44.69,44.69-20.01,44.69-44.69,44.69-44.69-20.01-44.69-44.69"/>
            </g>
            <g id="g28">
              <path id="path30" class="cls-3" d="m62.36,93.16c17.01,0,30.79-13.79,30.79-30.79s-13.79-30.79-30.79-30.79-30.79,13.79-30.79,30.79,13.79,30.79,30.79,30.79Z"/>
            </g>
            <g id="g32">
              <path id="path34" class="cls-2" d="m62.36,85.6c12.81,0,23.23-10.42,23.23-23.23s-10.42-23.23-23.23-23.23-23.23,10.42-23.23,23.23,10.42,23.23,23.23,23.23Z"/>
            </g>
            <g id="g36">
              <path id="path38" class="cls-5" d="m16.96,45.89s-.05-.05-.08-.06l-.39.08s-.05-.03-.07-.05c-.63.27-1.23-.08-1.97.11-.03,0-.06.02-.1.04-.01-.05-.04-.09-.07-.09-.06-.02-.15.03-.23,0-.01,0-.04-.01-.05-.03-.07.05-.15.03-.21.01l-.17-.07s-.06-.02-.09-.02c-.18.21-.46-.05-.68.11-.03-.04-.05-.05-.08-.05-.14-.05-.28.11-.39.08-.04-.01-.07-.04-.1-.09-.05.03-.08.11-.13.1l-.03-.02s-.02-.04-.03-.04c-.06-.02-.19.1-.27.08h-.01c-.06-.08-.12-.14-.2-.17-.05-.02-.11-.02-.16,0-.23-.25-.5-.47-.75-.69-.1-.08-.09-.24-.21-.28-.01,0-.03,0-.05,0-.03-.08-.2-.07-.16-.18v-.04c-.06-.02-.06-.12-.11-.14-.01,0-.04,0-.06,0-.07-.17-.29-.25-.27-.44-.01-.05-.03-.07-.06-.08l-.16-.02c-.17-.3-.55-.4-.72-.71-.39.02-.63.31-.74.65-.09.25-.11.54-.06.77,1.12,1.14,2.29,2.23,3.49,3.27.03.03.04.06.03.08-.02.05-.09.08-.1.12l-.55-.23c-.1-.04-.19-.05-.3-.06-.3-.27-.72-.36-1.05-.54l-.02-.02s-.12.02-.17,0c-.03,0-.03-.03-.05-.06-.08-.01-.14-.03-.21-.06-.42-.14-.76-.47-1.13-.6-.16-.05-.34-.07-.53-.03l-.03.16c-.2.06-.36.27-.43.49l-.02.05-.06.2c0,.13.12.24.09.33,0,.01-.06.05-.07.09,0,.01,0,.03.02.03.03.01.07,0,.11.01h.01c.04.06.17.13.14.21,0,.01,0,.03-.03.03h.08s-.02.06-.02.06c.01.05.03.07.07.08.06.02.14,0,.18,0,.03.03.08.04.12.06l.52.12,2.13.73c.13.02.27.06.4.11.13.04.24.08.36.14.07,0,.13,0,.19.02l.27.12c.06.02.12.03.19.01.05.03.09.06.16.08.04.01.08.01.13,0l.08.13.09-.07.09.03c.08.03.11.04.17.13.06-.05.1-.05.15-.03l.24.14c.11.04.19-.05.26-.02.07.05.13.16.21.18.01,0,.04.01.05,0,.41.07.8.26,1.26.36l.25.1c.08.03.16.04.24,0l.11.04c.2.07.37.1.59.08l-.02-.09c.2.03.11-.21.32-.14,0-.14.05-.34.1-.5.02-.06.04-.13.07-.17-.1-.13.01-.36-.13-.41-.01,0-.04-.01-.07,0-.06-.16-.17-.24-.31-.29-.2-.07-.44-.07-.63-.13-.01-.05.02-.09,0-.11-.13.04-.3.05-.44,0-.06-.02-.11-.05-.16-.1-.05.03-.09.02-.13.01-.09-.03-.16-.11-.24-.14h-.04c-.09-.25-.32-.52-.55-.59-.05-.02-.11-.02-.15-.02-.04-.25-.47-.24-.37-.53v-.04c.31-.04.57.18.85.05.3-.14.42.1.58-.04.8-.02,1.61.07,2.37-.04.14-.11.21-.24.26-.38l.12-.44.06-.14c-.11-.17-.18-.41-.36-.55m-5.05.15s.01.05,0,.09c-.02.05-.08.14-.14.12-.01,0-.09-.06-.07-.14,0-.01,0-.03.04-.03.02.03.02.05.05.06s.06,0,.06-.02c0-.01,0-.03-.03-.04l.08-.04Zm-1.33-.86s.03.07.02.09c-.01.04-.06.06-.08.11,0,.01-.01.04,0,.05-.05-.03-.05-.14-.07-.13.03-.08.06-.15.13-.13m-.54,2.44s-.08.08-.13.07l-.05-.06c.05,0,.12-.07.16-.06,0,0,.04.01.03.05m4.67,2.69s.02,0,.03,0c.04.01.11.06.1.09,0,0-.05.03-.11,0-.04-.01-.03-.03-.03-.04l.02-.05Zm-3.26-4.36c-.03.09-.04.13-.12.1h.02s0-.07,0-.09c0-.03.03-.03.06-.02h.04Zm2.69,2.68s.04.04.03.07c0,.02-.03.06-.05.05-.01,0-.06-.08-.05-.11,0-.01.02-.02.06,0m1.88-2.29s0,.02,0,.03c-.01.04-.07.07-.09.07h-.01s0-.03,0-.05c0-.02.03-.06.08-.06h.03Zm-4.7-.5s0,.04,0,.05c0,.03-.03.02-.06,0l-.05-.02s.03-.07.05-.07l.06.02Zm-1.51,2.94s.03-.02.05-.01c.03,0,.03.07.03.08,0,.01-.05.03-.06.02,0,0-.03-.03-.01-.09m4.39-2.67s.02.05.02.08h0s-.05.02-.07.02c-.01,0-.02-.02-.02-.03l.04-.03s.02-.02.03-.03h.01Zm-1.64.13s-.05-.03-.04-.05c0-.01,0-.03.04-.03,0-.01.02,0,.02,0l.03.03s0,.03,0,.04c0,.01,0,.03-.02.02h-.03Zm-3.24,1.24s-.03,0-.04,0c-.04-.01-.07-.04-.06-.07h0s.05-.03.06-.02c0,.01.05.06.04.09m1.43-2.13s.02.03.01.05c0,.03-.03.06-.04.07l-.06-.08.08-.04Zm2.43.84s.06.03.05.06c0,.03-.04.03-.06.02-.03,0-.03-.04-.02-.06,0,0,.02-.02.03-.02m.4,3.84s-.05.02-.06.02c-.01,0-.03,0-.02-.03,0-.02.04-.04.07-.03.01,0,.03,0,.02.02v.03Zm-2.7-4.53s.01.05,0,.09c0,0-.01.04-.03.03-.01,0-.03-.04-.02-.08,0-.03.01-.04.04-.04m3.11.6s-.01.04-.07.07l-.06-.03s.08-.03.09-.05h.04Zm-2.86,2s.03-.02.05-.01l.04.08s-.11-.04-.11-.06c0-.01.02,0,.02,0m-.4-.05s-.02.06-.05.05c-.03-.01-.03-.04-.03-.05,0-.03.04-.04.05-.04.01,0,.02.02.02.03m4.83,1.27s0,.03,0,.05l-.05.04-.02-.06.08-.03Zm-4.64-1.34s.03.03.02.05c0,.01-.04.03-.06.02-.01,0,0-.02,0-.03.01-.04.02-.05.04-.04m-1.41-3.96s-.07-.05-.05-.09c0,0,.02-.02.05-.01v.1Zm.22,0h0s.01.02,0,.03c0,.01-.04.04-.07.03,0-.02,0-.03,0-.06,0-.01.05-.01.06,0m6.13,5.32s.03.05.02.06c-.01.04-.05.03-.06.02l.04-.08Zm-7.29-2.22s.03.04.03.05c0,.01-.02.02-.03.02-.01,0-.03-.03-.02-.05,0-.01,0-.03.03-.02m3.44-.31s.04.04.03.07c0,.01-.02,0-.04,0-.01,0-.03-.01-.02-.02l.03-.05Zm-1.82,1.13s-.02-.02-.02-.03c0-.01.02-.02.03-.02h.01s.02.01,0,.06h-.04Zm5.56-1.7s-.02.02-.03.02c-.03,0-.03-.03-.03-.05,0,0,.03,0,.04,0,.01,0,.02.02.02.03m.09-.01s-.03,0-.04,0c-.01,0-.02-.02-.02-.03,0,0,.03-.02.05-.01.01,0,.02.02.01.05m-7.04,2.05s-.02.02-.03.02c-.01,0-.01-.05,0-.06h.01s.04.02.03.04m12.35-11.3c-1.25-.44-2.54-.84-3.8-1.27-1.05-.37-2.08-.76-3.17-1.03-.59-.15-1.23-.67-1.85-.41,0,.01,0,.04-.02.06l-.12.16s-.02.03-.03.07l-.09.05s-.02.11-.05.16c-.01.02-.05.05-.07.05.01.05,0,.11-.03.15-.02.03-.07.04-.08.06v.03s.14.1.11.15c0,.01-.02.02-.04,0l-.06-.05s-.03,0-.04,0c-.03.05-.01.07,0,.08.01,0,.03,0,.03,0,.09.07.06.13.13.2v.13s-.05.04-.06.05c-.01.02,0,.03.03.05.05,0,.07,0,.11.03.08.05.13.15.22.21h.02s.08.01.08.01c.08.05.09.16.18.22.02.01.05.01.08.02.49.38.89.85,1.4,1.22l.17.18s.06.02.09.02c.11.19.62.58.8.77l.07.03c.13.08.13.2.21.33.06-.02.13,0,.17.03.11.07.19.2.29.29.03,0,.06.02.09.04.06.03.09.08.1.14.23.18.42.42.63.65l.06.02.28.26h.02c.1.13.25.22.33.35.03,0,.06.02.09.04l.29.31c.33.2.49.58.84.79l.05.03.16.08c.06-.06.17-.07.26-.07,0-.06.02-.08.04-.12.02-.03.04-.07.08-.11,0-.07.02-.14.06-.2l.18-.25c.04-.07.07-.15.06-.23-.06-.05-.05-.17-.11-.21-.02-.01-.03-.02-.07,0-.1-.59-1.01-.67-1-1.27.15-.15.27-.3.38-.49l.5-.99c.16-.28.66.06.85.13.4-.05.74.57,1.19-.18.12-.21.3-.58.03-.74l-.08-.03Zm-3.09.26c.09.05.03.11.03.22l-.35.6c-.12.21-.25.41-.42.58-.05.05-.14,0-.2-.03-.14-.08-2.16-1.96-2.31-2.11-.08-.08-.1-.17-.04-.27.06-.1.14-.09.23-.05.67.3,1.47.34,2.13.69l.12.03.1.06c.08,0,.15.03.22.07.14.08.28.13.44.2l.05.03Zm.91,3.66s.04.06.02.09c-.02.03-.14.16-.18.14-.02-.01.02-.17.04-.19.03-.05.07-.07.12-.04m2.11-16.65l-.41-.34c-.07-.06-.13-.11-.18-.2-.13-.06-.23,0-.3.07l-.28.38-1.06,1.18c-.07.1-.13.19-.2.27-.3.34-.61.67-.95,1.01l-.04.05c-.08.09-.11.21-.18.28-.04.04-.08.07-.15.08-.02.07.05.08.07.15.39.3.78.61,1.15.94.21.19.41.38.61.6.42.33.83.69,1.24,1.05l.97.87.25.17s.01.05.01.07c.01.07.04.11.09.15.12.11.33.15.46.27.05.05.08.09.1.16.06,0,.09.01.13.05.08.07.12.18.19.24.03.03.07.04.11.04.02.07.05.12.1.16l.16.12s.06.05.07.1c.08.05.15.1.22.16l.57.6.09.08c.1.02.25.1.34.02.11.01.19-.03.23-.08.11-.12.09-.35.22-.48.04-.04.08-.07.14-.09v-.02s0-.07.02-.09c.02-.02.05-.04.1-.05.06-.13-.03-.25-.11-.33-.17-.05-.31-.17-.45-.29l-.16-.14c-.11-.1-.21-.19-.33-.25-.47-.42-1-.79-1.49-1.23l-.08-.05s-.04-.07-.07-.1l-.23-.17c-.07-.06-.11-.14-.06-.25l1.87-2.09c.03-.1,0-.14-.05-.19l-.05-.04s-.08-.07-.08-.13c-.3-.11-.52-.41-.81-.45-.57.72-1.21,1.43-1.8,2.15-.13.02-.21,0-.28-.07l-.21-.22s-.05-.04-.09-.06c-.02-.09-.07-.16-.14-.22l-.31-.24s-.09-.08-.12-.15c-.13-.08-.24-.18-.35-.27l-.17-.15c-.11-.1-.23-.21-.37-.27-.06-.15-.01-.26.07-.36l.29-.26s.06-.09.08-.13c.15-.1.26-.21.38-.34l.43-.52c.05-.06.11-.12.16-.16l.11-.15.39-.44c.1-.11.17-.21.19-.35l-.05-.04Zm-.48.12s.05,0,.07.02c.06.05.09.14.06.18h0s-.08,0-.09-.01c0,0,0-.06-.02-.07,0,0-.04-.02-.07,0h-.01s0-.03,0-.05l.03-.05s.04-.02.05-.02m.81,6s-.06.03-.08.03c-.02,0-.04-.01-.05-.02-.03-.03-.05-.06-.02-.09.03-.03.05-.03.07-.02.03,0,.05,0,.07.02,0,0,.03.07.01.09m.9.59s-.02.12-.05.15c0,0-.02.02-.03.01l-.03.04s0-.1-.05-.13l-.02-.02.05-.04.12-.02Zm-1.77-1.4l-.05.03s-.03,0-.05-.03c-.02-.02-.03-.03-.03-.05v-.03s.09-.03.12,0c0,0,.02.02.02.04l-.02.04Zm.2-4.88s0,.03-.03.05c-.02.02-.03.03-.05.03-.02,0-.03,0-.04-.02-.02-.02-.02-.04-.02-.06l.02-.02s.08-.03.1-.02v.03Zm1.27,6.24h.03s0,.02-.02.03c-.03.03-.07.01-.09,0-.02-.02-.03-.05-.01-.07,0-.01.04-.04.07-.02v.07Zm-3.07-2.73s0,.04,0,.05c0,.01-.03.03-.04.02-.02,0-.03,0-.04-.02-.02-.02-.03-.03-.02-.05h0s.07-.04.09-.02v.03Zm-.09-.15s0,.04-.02.06c-.02.02-.05.03-.06.02-.03-.03-.05-.05-.03-.07h0s.06-.04.09-.02m-1-.9v.05s-.02.04-.02.04l-.02-.02s-.04-.03-.03-.08h.08Zm2.94,2.59l.03.03s.04.04.03.05c0,.01-.05.01-.06.03h0s-.02-.11,0-.09h0Zm-.5-.39l-.02.02s-.02,0-.03.01v.02s0,0,0,0c0,0-.04.02-.05.01h0s0-.03,0-.04c.02-.02.09-.06.1-.05,0,0,.01,0,0,.02m-1.38-3.7s.01.05,0,.07c0,0-.02.02-.03.01l-.02-.02s-.02-.04-.01-.05c.02-.02.04-.02.07-.01m1.17,3.59s.05-.01.07,0c0,0,0,.02,0,.03l-.02.02s-.04,0-.05,0c-.01-.01-.02-.02-.01-.03l.02-.02Zm2.36,2.02s.01.05.01.07c0,0-.04,0-.07,0-.01,0,0-.04,0-.05h.05Zm-1.39-1.23h0s.03.05.02.07c0,0-.07,0-.07.01h0s.01-.05.03-.07c0-.01.02-.02.03-.01m-1.88-1.68s0,.02,0,.02c0,0-.04,0-.06.02h0s-.01-.05,0-.07h.02s.04.04.04.04Zm1.17-3.81s.01.03,0,.04c-.02.02-.03.01-.04,0,0,0-.02-.02-.01-.03h0s.03-.02.04-.01m8.96-7.57l-.34-.41c-.06-.08-.11-.14-.14-.23-.11-.08-.22-.05-.31.01l-.35.31-1.27.96c-.09.08-.17.16-.25.22-.36.27-.73.53-1.13.8l-.05.04c-.1.07-.15.18-.23.24-.04.03-.09.05-.16.05-.04.06.03.09.03.16.33.37.65.75.94,1.14.17.23.33.46.48.71.35.4.68.84,1.01,1.27l.79,1.04.21.21s0,.05,0,.07c0,.07.02.12.06.17.1.13.29.21.4.35.04.05.06.1.07.18.06,0,.09.03.12.07.07.09.09.2.14.28.03.03.06.06.1.06,0,.08.03.13.07.18l.13.15s.05.06.05.11c.07.07.13.12.18.2l.45.7.07.1c.1.04.23.15.33.08.11.03.19,0,.24-.03.13-.1.16-.32.31-.43.04-.03.09-.05.15-.07v-.02s.02-.06.04-.08c.02-.01.06-.03.11-.03.08-.11.03-.25-.05-.35-.16-.08-.27-.23-.39-.38l-.13-.17c-.09-.12-.17-.22-.28-.31-.38-.5-.83-.96-1.23-1.5l-.07-.06s-.03-.08-.05-.11l-.19-.21c-.06-.07-.08-.15-.01-.26l2.24-1.69c.05-.09.03-.14-.01-.19l-.04-.05s-.06-.09-.05-.14c-.27-.16-.43-.51-.71-.6-.7.6-1.46,1.17-2.18,1.76-.13,0-.2-.05-.26-.12l-.16-.26s-.04-.05-.07-.08c0-.1-.05-.17-.1-.24l-.25-.29c-.04-.05-.07-.1-.09-.17-.11-.1-.2-.22-.29-.34l-.14-.18c-.09-.12-.18-.25-.3-.34-.04-.16.03-.26.14-.34l.33-.2s.08-.07.1-.11c.16-.07.3-.16.44-.26l.53-.43c.06-.05.13-.09.19-.13l.14-.12.47-.35c.11-.09.2-.17.25-.31l-.04-.05Zm-.5.03s.04.02.06.04c.05.06.07.15.02.18h-.01s-.07-.02-.08-.03c0,0,0-.06,0-.08,0-.01-.03-.02-.07-.01h0s0-.03,0-.05l.03-.04s.04-.01.06-.01m-.37,6.04s-.07.02-.09.02c-.02,0-.03-.02-.04-.03-.03-.03-.04-.07,0-.1.03-.02.05-.02.08,0,.03.01.05.02.06.04,0,0,.02.07,0,.08m.77.76s-.05.12-.08.14c-.01,0-.02.02-.03,0l-.04.03s.01-.09-.02-.13l-.02-.02.06-.03h.12Zm-1.46-1.72l-.05.02s-.03-.01-.04-.03c-.02-.02-.02-.03-.02-.05v-.03s.1-.02.13.02c0,.01.01.02.01.04l-.02.03Zm1.14-4.75s-.01.03-.03.04c-.02.02-.03.03-.05.02-.02,0-.03-.01-.03-.02-.02-.02-.01-.04-.01-.06h.02s.09-.03.1-.01v.03Zm.04,6.36h.03s-.01.02-.02.03c-.03.02-.07,0-.08-.02-.02-.02-.02-.05,0-.07.01,0,.04-.03.08,0v.07Zm-2.48-3.27s0,.04-.02.05c-.01,0-.03.02-.04.01-.02,0-.03-.01-.03-.02-.02-.02-.03-.03-.01-.06h.01s.07-.03.08,0v.03Zm-.06-.17s0,.04-.03.05c-.02.02-.05.02-.06.01-.02-.03-.04-.05-.02-.07h.01s.07-.03.09,0m-.81-1.07v.05s-.04.03-.04.03l-.02-.02s-.03-.04-.02-.09l.07.03Zm2.38,3.11l.02.03s.03.04.02.05c-.01,0-.05,0-.07.02h-.01s0-.11.02-.09h.01Zm-.42-.49l-.02.02s-.02,0-.03,0v.02s-.01,0-.01,0c-.01,0-.04.01-.05,0h0s0-.03.01-.04c.02-.02.1-.04.11-.03,0,0,0,.01,0,.02m-.64-3.9s0,.05-.02.06c0,0-.02.02-.03,0l-.02-.02s-.01-.04,0-.05c.02-.02.04-.01.07,0m.46,3.75s.05,0,.07.02c0,.01,0,.02-.01.03l-.02.02s-.04,0-.04-.02c0-.01-.02-.02,0-.03l.02-.02Zm1.92,2.44s0,.05,0,.07c-.01,0-.04,0-.06-.02,0-.01,0-.04.02-.05h.05Zm-1.13-1.47h-.01s.02.06.01.07c-.01,0-.06-.02-.07,0h-.01s.02-.05.05-.06c.01,0,.02-.02.03,0m-1.52-2.01s0,.02,0,.02c-.01,0-.04,0-.06,0h-.01s0-.06.02-.07h.02s.03.04.03.04Zm1.88-3.51s0,.03,0,.04c-.02.02-.03,0-.04,0,0,0-.02-.02,0-.03h.01s.03-.01.04,0m10.68-6.43c-.2-.15-.43-.24-.68-.19-.17.15-.36.27-.57.36-.27.12-.56.21-.83.32l-.04.02c-.06.03-.07.09-.12.11-.03.01-.04,0-.08,0-.04.02-.12.01-.17.03-.04.02-.06.06-.05.13-.11-.01-.2.02-.28.06l-.43.25c-.07.03-.16.06-.25.06h-.01c-.09.04-.1.18-.14.2-.01,0-.03,0-.07-.03-.08.02-.16.04-.23.08-.28.13-.53.38-.58.62.03,0,.04.01.04.03.02.05-.06.1-.03.16v.03c.09.18.29.49.99,1.97.01.15.06.28.11.4l.13.25c.03.1.07.19.12.28l.09.21c.08.17.16.35.2.55.03.03.04.07.06.1l.08.23c.03.06.06.1.14.14l.09.53c.15.17.26.38.37.61.09.19.18.4.29.59.01.1.05.2.1.31.06.12.13.25.2.36.03.07,0,.19.02.24h0c.04.08.12.13.15.22.02.03.02.08.03.12-.01.03,0,.08,0,.1.05.09.22.15.27.26,0,.05,0,.07.01.1.06.13.34.04.42.21l.02.03c.13-.17.42-.21.56-.39.04-.03.09-.06.14-.08.29-.13.6-.16.85-.28l.1-.06c.1-.01.19-.06.29-.1l.99-.56c.07-.03.13-.06.2-.08l.03-.02.36-.06s.09-.06.12-.13c.03.01.06.01.09,0,.06-.03.1-.13.19-.17l.04-.02c.2-.2,0-.47-.03-.69,0-.05-.03-.09-.05-.14-.09-.19-.24-.3-.45-.31-.59.24-1.19.47-1.77.74-.4.19-.78.37-1.16.61-.15-.03-.3-.05-.38-.21-.33-.73-.61-1.35-.87-2.07.04-.14.08-.27.18-.33.22-.06.43-.14.64-.24l.85-.39c.17-.08.35-.14.54-.19.13-.24.41-.22.58-.5l-.09-.3-.11-.23c-.07-.16-.17-.31-.38-.31-.22-.03-.5.16-.63.13l-.05.12c-.42.18-.75.27-1.12.44-.08.04-.18.09-.27.14-.1.1-.23.21-.36.27-.12.06-.25.07-.37.02-.13-.21-.22-.43-.33-.64l-.59-1.28-.07-.22c-.03-.17.05-.24.17-.3l.2-.08s.08-.05.11-.08c.36-.14.82-.29,1.17-.43.15-.1.29-.16.45-.24l.07-.03c.33-.15.64-.3.88-.58.09-.26,0-.54-.09-.81m-2.96,4.95s-.14-.05-.16-.1c0-.01,0-.03.01-.03l.04-.02s.11.05.14.1c0,.02,0,.04,0,.05h-.01Zm6.1,3s0,.09-.04.11c-.04.01-.08,0-.1-.03v-.04s.02-.04.05-.05c.04-.02.08-.02.09.01m-5.62-7s-.01.07-.05.08c-.04.02-.08,0-.09-.01s-.01-.05,0-.08c0-.02.02-.03.03-.03.04-.02.07,0,.1.03h0Zm-1.62,1.39c.04.09.03.12.01.13h-.11s-.04,0-.04,0c0-.01.07-.12.11-.14.01,0,.02,0,.02,0m-.24-.39s.02.02.03.03c.01.02,0,.04,0,.06l-.05.02s-.02,0-.02-.02c-.01-.03,0-.09.03-.1h.02Zm15.92-5.72c-.16-.18-.37-.33-.62-.33-.19.11-.41.19-.63.23-.29.06-.6.09-.89.14h-.04c-.07.02-.09.08-.14.09-.03,0-.04,0-.07-.03-.04,0-.12-.01-.18,0-.04,0-.07.04-.07.11-.1-.03-.2-.02-.29,0l-.47.16c-.08.02-.17.02-.26,0h-.01c-.09.02-.13.15-.18.17-.01,0-.03,0-.07-.04-.08,0-.16,0-.24.02-.3.07-.6.25-.7.48.03,0,.03.02.03.03.01.05-.08.08-.06.15v.03c.05.2.18.54.54,2.13-.02.15,0,.29.02.42l.07.27c0,.11.03.2.05.3l.05.22c.04.18.08.38.07.58.02.03.03.07.04.11l.02.24c.02.07.04.11.11.17l-.02.54c.11.19.17.43.23.67.04.21.09.43.15.63,0,.1,0,.2.03.32.03.13.07.27.11.4.02.08-.04.19-.03.24h0c.03.09.09.16.11.25.01.04,0,.08,0,.12-.02.03-.03.07-.02.1.02.1.18.19.2.31-.02.04-.01.07,0,.09.03.14.32.11.36.29v.04c.17-.14.46-.11.63-.26.05-.03.1-.04.15-.05.31-.07.62-.03.9-.09l.11-.04c.1,0,.2-.02.31-.04l1.09-.33c.08-.02.14-.03.21-.03h.04s.36,0,.36,0c.05-.01.1-.03.14-.1.03.02.06.03.09.02.07-.01.13-.11.22-.13h.04c.24-.16.11-.47.12-.69,0-.05,0-.09-.02-.15-.05-.21-.17-.34-.37-.39-.63.11-1.27.21-1.89.35-.43.09-.84.2-1.26.34-.14-.06-.29-.11-.32-.28-.17-.78-.3-1.45-.41-2.21.07-.12.13-.25.25-.29.23,0,.46-.05.68-.09l.91-.2c.18-.04.37-.07.57-.07.17-.2.45-.13.67-.36l-.03-.31-.05-.25c-.04-.17-.1-.35-.3-.38-.21-.08-.52.05-.64,0l-.07.11c-.45.08-.8.11-1.19.19-.09.02-.2.04-.3.08-.12.08-.27.15-.41.18-.13.03-.26.01-.37-.06-.08-.23-.13-.46-.18-.7l-.3-1.38-.02-.23c0-.18.1-.23.23-.25l.21-.03c.05-.01.09-.03.13-.05.38-.06.86-.11,1.23-.17.16-.06.32-.1.49-.13l.08-.02c.35-.08.69-.15.98-.38.14-.24.11-.53.08-.81m-3.95,4.21s-.13-.08-.14-.13c0-.01,0-.03.02-.03h.04s.1.06.11.12c0,.03,0,.04-.02.05h-.01Zm5.32,4.24s-.02.09-.06.1c-.04,0-.09,0-.09-.05v-.04s.04-.03.06-.04c.04,0,.08,0,.09.03m-4-8.04s-.03.06-.07.07c-.04,0-.08-.01-.09-.04,0-.03,0-.06.02-.07.01-.02.02-.02.04-.02.04,0,.07.01.09.05h0Zm-1.88,1.01c.02.09,0,.12-.01.12l-.1-.03h-.04s.1-.09.14-.1c.01,0,.02.01.02.01m-.15-.43s.02.02.02.04c0,.03,0,.04-.01.06h-.05s-.02,0-.02-.01c0-.03.02-.09.05-.09h.02Zm16.25,6.2c-.26-.83-.46-1.6-.67-2.39-.14-.5-.29-1.03-.46-1.58-.01-.04-.02-.08-.02-.12,0-.19.13-.34.28-.5.44-.45.64-1.11.63-1.73,0-.37-.1-.75-.26-1.09-.37-.51-.91-.94-1.48-1.09,0-.01-.08-.04-.08-.07-.39-.08-.78-.1-1.16-.09l-.98.02-.25.02h-.25s-.1.08-.1.08c.05.48.03,1.02.07,1.5l-.06.35s.03.08.07.1c-.02.4-.01.8,0,1.19l.06,3.05c.03.2.05.41.06.61v.51s0,.07,0,.07c.02.12.03.24.03.36,0,.21,0,.43-.01.64,0,.24.01.48.08.72.23,0,.35-.02.49-.03.07,0,.15,0,.24,0h.03c.16,0,.34-.11.34-.11,0,0-.02-.53-.03-.77-.03-.71-.11-1.39-.12-2.13v-.32c0-.05,0-.09,0-.15l-.04-.4c0-.08,0-.17.05-.27.12-.03.24-.05.36-.05h.81c.07-.02.12-.05.16-.05.04,0,.07.03.09.06.1.43.22.85.34,1.27.16.61.32,1.22.43,1.86.18.18.06.49.19.57v.04c0,.16.19.42.19.42,0,0,.27-.05.41-.09.15-.04.29-.02.48-.05.12-.02.15-.08.14-.15,0-.08-.04-.19-.06-.24m-1.39-6.54c.01.09.02.17.02.27.01.53-.19,1.03-.69,1.36-.22.15-.48.18-.76.19l-.68.02c-.1-.15-.14-.32-.15-.84,0-.17,0-.39,0-.64-.01-.07-.07-.07-.07-.09h0c.02-.21.04-.51.05-.71-.04-.07-.05-.13-.06-.2,0-.09.02-.17.09-.24.1-.12.25-.15.41-.16.17,0,.37.03.52.03.47,0,.82.25,1.13.63-.01.03-.01.04-.01.07,0,.12.15.2.19.32m-2.08,6.94s-.11.08-.14.08c-.03,0-.04-.01-.04-.03,0-.03.11-.04.13-.08.01-.01.01-.05.01-.09v-.09s-.02-.13-.02-.2c0-.03,0-.05.01-.05.04,0,.04.05.04.13l.02.26s0,.04-.01.07m3.45-.13s-.03.04-.04.04c-.01,0-.03-.04-.03-.08v-.08c-.02-.08-.1-.1-.1-.16v-.03s.04-.03.05-.03c.05,0,.13.19.13.28,0,.03,0,.04-.01.05m-4.59-7.02s-.04.03-.07.03c-.03,0-.05-.01-.07-.03h0c0-.05.04-.12.09-.12.01,0,.03,0,.04.01.01.01.03.03.03.05,0,.03-.01.04-.03.05m4.47,7.03s-.04.04-.07.04c-.03,0-.05-.01-.07-.04h0c0-.05.03-.08.07-.08h.01s.05.04.05.08m-.98-.29s-.08-.07-.08-.11c0-.01,0-.03.01-.03h.01s.11.04.11.08c0,.01-.01.04-.04.05h-.01Zm.18-4.03s-.03-.07-.07-.07c-.03,0-.04.03-.04.05,0,.04.01.08.04.08h.01s.05-.03.05-.05h0Zm-.95-4.53s.01-.03.01-.04c0-.04-.06-.11-.1-.11h-.01s.05.05.06.09c-.01.03-.05.01-.05.05h0s.01.03.03.03c.03,0,.05-.02.07-.03m.94,4.19s-.08.07-.08.11c0,.01,0,.03.02.02.03,0,.04,0,.07-.03.01-.01.03-.04.02-.07,0-.01,0-.03-.01-.04h-.01Zm-.59-2.47s.05-.04.08-.04.03.05.03.05c0,.03-.03.05-.05.07-.03-.01-.03-.03-.03-.04l-.03-.04Zm-2.19.73s-.03.01-.04.01c-.03,0-.04-.01-.04-.04s.01-.05.03-.05h.03s.04.01.04.04c0,.01,0,.03-.01.04m-.5,6.6s-.08-.01-.08-.04c0,0,.01-.01.01-.03,0-.01,0-.03.02-.03.03,0,.07.04.07.07,0,.01-.01.03-.01.03h-.01Zm4.02-.39s.01.01.01.03c0,.03-.01.04-.03.04h-.03s-.03.01-.03,0c0,0-.03,0-.03-.01,0-.04.04-.07.05-.07.01,0,.04.01.04.01m-.75-4s-.03-.01-.05-.01c-.01,0-.03.03-.03.04,0,.03.03.05.04.05.03,0,.04-.03.04-.05v-.03Zm-2.96,4.41s-.03-.01-.04-.03c-.01-.01-.03-.03-.03-.04s.03-.03.04-.03c.01,0,.03.01.03.01.01.01.03.04.03.05,0,.01,0,.03-.02.03m3.12-5.03s-.07.01-.07.04c0,.01.02.04.04.05.01.01.04-.04.04-.07,0-.01,0-.03-.02-.03m-2.77-2.77s-.01-.01-.03-.01c-.03,0-.07.01-.07.04,0,.03.03.03.05.02.03,0,.04-.03.04-.05m3.42,7.17c-.05,0-.07-.02-.07-.05,0-.03.01-.04.03-.04.03.01.04.04.04.04v.05Zm-1.23-.25s-.03.03-.03.04c0,.03.03.04.04.04.01,0,.03-.01.03-.04,0-.03-.01-.04-.03-.04h-.01Zm.53-3.2s-.04-.01-.05-.01c0,0-.01,0-.01.01,0,.03.02.07.03.07h.01s.03-.05.03-.07m11.66-.2c.05-.09.08-.19.1-.29l.09-.7c.01-.05.02-.1.05-.15.05-.13.08-.27.11-.4.17-.81-.05-1.6-.63-2.24l-.82-.53c-.08-.06-.17-.09-.28-.11-.34-.07-.77,0-1.05-.04-.18.09-.51.1-.83.28-.36.21-.58.23-.85.7-.22.54-.35,1.11-.47,1.7l-.27,1.31c-.03.17-.07.35-.12.52l-.04.18c-.01.12-.02.24-.05.36l-.34,1.66-.06.04c-.06.31,0,.61.1.92,0,.16.23.27.2.41.36.55.8,1.12,1.5,1.26.07.03.15.05.23.06.76.16,1.64-.18,2.15-.73.21-.42.55-.68.64-1.16l.04-.21.19-.68c.02-.11.03-.21.03-.33.05-.07.07-.15.09-.23l.05-.37.04-.13.19-1.08Zm-1.1-.31l-.62,3.03c-.07.35-.24,1.03-.98.98h-.05s-.03,0-.03,0c-.23,0-.41,0-.58-.04-.12-.02-.23-.06-.31-.13-.28-.23-.63-.61-.54-1.01v-.04c0-.06,0-.1,0-.13l.2-.45c.01-.07,0-.15-.05-.23.02-.04.03-.08.04-.13.03-.16.03-.36.07-.54.03-.13.08-.24.15-.35-.01-.14,0-.25.02-.36.05-.25.16-.47.22-.76.03-.14.11-.26.13-.38.02-.08.02-.15-.03-.25,0-.04,0-.09.01-.13l.09-.32c.02-.09.02-.17-.04-.27.08-.11.16-.23.18-.35.01-.05.02-.09,0-.15.1-.44.3-.76.74-.94.19-.05.43-.05.67,0,.23.05.45.15.57.29l.15.09s.35.56.27.95c0,.11-.03.2-.05.3l-.18.77c-.04.18-.06.37-.06.55m-2.63.02s-.02-.22.01-.39c.02-.12.06-.21.1-.2.04,0,.02.15,0,.3-.03.14-.07.3-.1.29m-.04.18s.02.09.01.13c-.01.06-.06.12-.13.16-.01,0-.03,0-.03,0-.04,0-.03-.1-.01-.19.02-.1.05-.19.09-.19,0,0,.01.02.02.02.02.02.03.03.04.06m-.55,1.92c-.03-.06-.05-.15-.04-.21.01-.05.04-.07.08-.07.04,0,.04.08.02.14-.02.08-.06.16-.07.14m.41-1.31h-.04s-.03-.05-.02-.09c0-.04.03-.06.05-.06h.04s.03.04.02.08c0,.04-.03.08-.05.07m-.41,1.58s-.02.04-.04.05c0,.01-.02,0-.02,0-.02,0-.04-.13-.03-.18,0-.01,0-.03.02-.02h.01s.01.02.01.02c.03.03.05.04.04.08v.05Zm.19-.11s-.02.01-.03,0l-.02-.02s-.03-.06-.02-.09c0-.02.02-.04.05-.03.03,0,.05.07.05.11,0,.01,0,.03-.02.02m-.08-.55s-.02.01-.03.02c-.03,0-.03-.05-.02-.09,0-.04.01-.06.04-.06h.01s.03.06.02.09c0,.01,0,.03-.02.04m.61-2.39s-.05-.05-.04-.07c0-.03.03-.05.04-.05h.01s.03.06.02.09c0,.03,0,.04-.03.03m-.43,1.91s-.03.03-.07.03c-.01,0-.02-.03-.02-.06,0-.01,0-.03.02-.04h.01s.06.04.05.07m2.22-6.72c.01-.05-.04-.06-.03-.18.02-.15-.01-.07-.02-.18.01-.06-.09-.07-.11-.13,0-.05-.03-.07-.05-.08-.01,0-.03,0-.05,0,0-.09,0-.07-.02-.09l-.04-.02s-.07.01-.11.02h-.01c-.05-.01-.06-.08-.09-.09,0,0-.01,0-.02.01-.1.07-.2,0-.29.1-.12.13-.15.23-.22.36,0,.04-.04.05-.04.07,0,.01.01.01,0,.04v.03s0,.01,0,.01v.03c.03.15.02.19.12.32.09.11.2.16.32.19l.09.02.07.03s.07,0,.12-.06c.15-.15.23-.05.37-.37v-.04Zm2.05.57s.02-.01.02-.03c.01-.05-.02-.18,0-.22v-.04c.04-.14-.08-.16-.07-.3l-.06-.03v-.03c.02-.08-.03-.09-.11-.15-.06-.04-.11-.06-.17-.08-.05-.01-.12-.01-.19,0-.07.01-.09.06-.15.06-.1,0-.15.05-.18.13l-.15.2s0,.04,0,.05c.02.09.05.16.06.26.03.18.11.27.17.34l.12.09s.1.05.14.05c.09.02.18,0,.29-.08.11-.09.15-.24.3-.25m-1.06-.25s-.01-.07-.04-.08h-.01s-.01.05-.01.05c0,.03.02.03.05.03h.02Zm-1.3-.92s-.04.02-.06.01c-.01,0-.01-.01,0-.03s0-.03.02-.04h.01s.05.04.03.05m11.97,12.83c.02-.05-.06-.13-.06-.13l.02-.05c.1-.25.04-.49.13-.7.03-.06.07-.12.12-.17-.12-.14-.13-.37-.12-.59-.22-.21-.14-.54-.26-.78-.2-.1-.14-.45-.32-.53h-.01c-.08-.1-.07-.31-.13-.34h-.03s-.02-.05-.02-.05c-.4-.83-1.33-1.77-1.1-2.79.39-.23.57-.85,1.38-.5.31.13.57.39.77.65v1.06c-.02.23-.03.49.16.64.06.03.16.07.14.15.08.02.18-.02.25,0,.02.01.05.04.06.1h0c.06-.16.22.05.34-.03v-.02c.05-.09.12-.09.19-.13.24-.13.22-.41.43-.53,0-.09-.03-.17-.11-.26.03-.23.15-.33,0-.57.02-.02.03-.05.04-.06.04-.09-.07-.16-.06-.29.02-.02.03-.04.04-.06.06-.13-.14-.26-.07-.42h0s-.06,0-.06,0c-.06-.27-.42-.78-.41-.8-.03-.01-.05,0-.09,0-.19-.17-.45-.37-.71-.52-.13,0-.27-.02-.36-.07-.05-.02-.09-.04-.12-.06-.07.03-.14.01-.19,0-.12-.05-.19-.17-.29-.21-.05-.02-.1-.03-.16,0v-.12s-.29.08-.29.08c-.11-.05-.25.05-.34.01-.02,0-.04-.03-.06-.07-.19.08-.43.23-.59.17h-.03s-.02.08-.02.08c0,.02-.03.04-.09.02.01.04,0,.06,0,.08-.03.07-.18.01-.26,0l-.05.18s-.09.08-.14.06h-.02s-.12.27-.12.27c-.12.07-.18.15-.23.28-.09.21-.11.49-.21.72-.03.06-.07.13-.11.19.03.26.12.5.03.74.15.67.58,1.38.8,2.07h.01c.2.09.66,1.08.86,1.56.03.38.11.92-.01,1.21-.08.2-.36.27-.46.47l-.6.14c-.11.03-.25-.09-.37-.02-.25-.14-.53-.42-.67-.74,0-.39.27-.74.06-1.16-.13-.11-.19-.27-.35-.34l-.18-.05-.2-.1c-.17-.07-.44.01-.61.17,0,.06,0,.11-.03.18l-.16.3c-.05.12.03.26-.01.37-.31.72.45,1.28.32,1.59l.11.02c.01.14.26.1.19.26.28.25.6.46.94.61.42.18.88.28,1.36.32.14-.01.36-.13.48-.08.04.01.06.04.07.07.07-.16.27,0,.32-.11.01-.02.01-.05,0-.08.24.04.21-.33.44-.29.13-.23.39-.4.59-.66.01-.03,0-.07-.02-.11.03-.04.12,0,.16-.06.02-.05.02-.12.02-.12,0,0,.07.01.1-.02h0Zm-3.77-1.76s-.07,0-.08,0c-.01,0-.02-.02-.01-.04l.06-.07s0-.02,0-.03c0,0,.07.1.06.14,0,0,0,.01-.02,0m1.58-5.78s-.03.09-.08.07c-.03-.01-.04-.05-.03-.07.01-.03.06-.03.09-.02.01,0,.03.01.02.02m2.07,6.49s-.03.06-.07.04c-.01,0-.03-.03-.02-.06.01-.02.04-.03.06-.02.03.01.03.03.03.04m1.5-3.61c.02-.05.07-.04.07-.04l.04.12s-.12-.05-.11-.08m-5.47,2.65h-.02s-.04-.06-.03-.08c.01-.02.04-.03.05-.02.04.01.03.04.02.07l-.02.03Zm3.97,1.24s0,.03,0,.03c-.01.03-.04.03-.07.02-.01,0-.03-.03-.03-.04.01-.03.05-.04.07-.03.01,0,.03.01.02.02m-3.61-.85s-.03-.03-.02-.07c0-.01.02-.04.04-.02.01,0,.02.05.01.08,0,0,0,.01-.02,0h-.02Zm-.96.15s-.06-.04-.04-.07c0-.01.02-.02.03-.02.02.01.04.05.03.06,0,.01-.01.03-.03.03m16.78,1.13s-.04-.08-.06-.12v-.04s.04-.01.05,0l.03.02s.03.02.07,0c.03-.12.13-.22.01-.35l.1.05c.03-.09-.02-.16-.09-.2-.03-.02-.07-.03-.09-.05l-.07-.04c-.1-.07-.12-.15-.2-.2-.03-.02-.07-.03-.13-.04,0-.05-.02-.08-.05-.1-.04-.03-.13-.03-.18-.06-.02-.01-.04-.03-.05-.07h-.06s-1.05-.64-1.05-.64c-.11-.11-.16-.24-.28-.32-.03-.02-.08-.04-.13-.06-.13-.19-.31-.35-.51-.48-.29-.2-.63-.36-.96-.42-.16.07-.22.16-.4.26,0,.03-.01.06-.02.08-.05.08-.18.07-.25.17-.07.1,0,.22-.03.26,0,.01-.03.01-.04.02-.06.3.1.46.3.6l.12.08c.08.05.15.07.23.11l.31.25c.06.04.13.07.2.07-.01.06-.03.11-.06.16l-.25.26s-.04.08-.05.13c-.07.03-.14.08-.19.16l-.28.47s-.1-.02-.13.02l-.02.05c.02.07,0,.1-.01.14l-.21.14s-.03.07-.01.14l-.28.41s-.04.04-.07.07l-.05.1s-.03.03-.04.02h-.01c-.03.05-.06.13-.1.18l-.12.18c-.06.09-.13.19-.15.3-.1,0-.15.03-.18.07l-.09.29s-.09.06-.19.06c.04.03.05.07.02.13l-.09.11s-.09-.01-.11.02l-.02.03s.03.07.03.1l-.16.26c-.06.09-.13.17-.22.2.02.06,0,.11-.02.15-.05.08-.17.1-.21.16-.02.03-.02.08-.01.14-.02,0-.02.01-.04.03-.04.05-.07.17-.12.24-.05.07-.09.1-.2.07,0-.01,0-.02,0-.02-.01,0-.03,0-.03,0h0s.07.12,0,.22c-.07.1-.21.11-.27.2-.03.04-.04.1-.02.19-.04.02-.08.07-.12.04h-.01c.06.1.03.19-.02.25l-.12.15s-.03.04-.03.07c-.04.02-.08.05-.09.07l.03.41-.02.02.15.23c.06,0,.1,0,.13.02.05.04.12.13.21.19l.03.02c.29.03.62,0,.89-.18.64-.85,1.24-1.67,1.82-2.51l1.17-1.69c.07-.12.12-.22.14-.31,0,.02,0,.03,0,.04h.04s.02-.01.02-.01c.04-.06.13-.11.18-.19l.48-.88c.25-.36.53-.38.75-.23.17.12.32.33.47.44l.04.03s.11-.02.15,0c.03.02.02.03.01.04h0c.05.03.25.1.31,0l.02-.02c.04.08.03.14.09.18.07.05.26-.16.3-.22.02-.03.04-.08.04-.13l-.02-.09-.1-.05c.09-.03.21.1.29-.02l.03-.03Zm-.21.02l-.12-.02-.03.04s-.04.06-.08.04c.06-.11-.08-.09,0-.22,0,.01.01.03.02.04h.02s-.05-.14-.04-.16c0-.01.02,0,.04,0,0-.02.03-.05,0-.06-.01,0-.03,0-.07-.02h-.01s-.03-.06-.02-.07h0c.2.13.2-.02.43.05,0,.04,0,.05,0,.06-.02.03-.18.12-.33.08v.06s.04,0,.04,0c-.03.07.12.1.13.19m-.31-.47l-.12-.07s-.01.07-.03.09c0,0-.03.02-.08.04l-.05-.04c.03-.11-.07-.16-.05-.25l.12-.03c-.04.05-.02.08,0,.1l.18.06s.04.04.02.08m.51.04s-.02-.05-.04-.06c-.07-.05-.15,0-.17,0,0,0-.01,0,0-.02h0s.15-.12.21-.08c.02.01.03.07,0,.15h0Zm-.57.38s-.08,0-.1.03c0,.01-.02.03-.02.05,0-.02-.01-.03-.03-.03l-.08-.04s-.03-.02-.03-.05h0c.03-.05.1.03.16-.06-.01.04,0,.05.01.06.01,0,.03,0,.05.02.01,0,.02.02.03.03m-.65-.35s-.06-.06-.04-.09c.02-.02.08-.01.11,0,.03.02.05.05.02.08,0,0-.05.03-.1,0m.9-.06s-.02,0-.03,0c-.02-.02-.05-.09-.03-.12,0-.01.01-.02.03-.01h.04s.05.08.03.11c0,.01-.01.02-.03.03m-5.39,2.88s-.02-.04,0-.07l.02-.02s.05-.06.08-.04v.02s0,.03-.01.05c-.02.03-.07.07-.07.07h-.01Zm5.29-3.15s-.09.02-.13,0c-.01,0-.01-.03,0-.04.03-.02.05-.03.09-.01.02.01.05.03.05.05h0Zm-.52.5s0,.03-.01.04c-.01.02-.04.04-.06.02-.01,0-.03-.03-.04-.06v-.02s.06-.02.09,0l.02.02Zm.15.48s-.06.02-.08,0h-.01s0-.04.01-.05c.02-.02.05-.05.07-.03.03.02.03.05.01.07m.38-1.1s-.05-.04-.04-.06h0s.05-.03.07-.01c.02.02.04.06.03.08,0,0-.03.01-.05,0h0Zm-.38,1.36s0-.06-.02-.06c-.02-.01-.06.02-.08.04,0,.01-.02.02,0,.03.01,0,.04.03.1,0m-5.49,2.96s-.03,0-.05-.02c-.02-.01-.03-.02-.02-.03.03-.04.05-.05.07-.03.02.01.03.05.01.07h0Zm.56-.9s-.03,0-.04-.01h-.01s-.01-.03,0-.05c.02-.02.05-.03.06-.02h.01s0,.05-.02.08m4.78-2.27s0,.01-.02,0c-.02-.01-.04-.06-.03-.08.03-.01.04,0,.05,0,.01,0,.02.01.03.03l-.03.04Zm-6.39,5.06s-.04.04-.06.02c-.01,0-.01-.03-.01-.03v-.04s.05,0,.06,0c.01,0,.02.01.02.04m6.86-5.08s-.03.03-.04.02c-.01,0-.03-.03-.01-.06.02-.03.05,0,.05,0,.01,0,.02.01.01.03v.02Zm-.28-.53s-.02,0-.03,0c-.02-.01-.03-.05-.02-.06,0-.01.04,0,.05,0,.02.02.02.03,0,.05h0Zm.18.08s-.04,0-.06-.03l-.03-.02s-.02-.01,0-.04c0-.01.02,0,.03,0,.03.02.06.08.07.08m-4.66,1.91l-.04.05s0-.09,0-.11h.01s.01.03.02.05m-.08.47h-.01s-.04-.07-.03-.08c0,0,0-.01.02,0,.02.02.04.04.03.07h0Zm14.07,5.15c.07-.23.08-.49-.04-.7-.2-.11-.37-.25-.53-.42-.2-.21-.39-.46-.58-.68l-.03-.03s-.11-.04-.15-.08c-.02-.02-.02-.04-.02-.07-.03-.03-.05-.11-.09-.15-.03-.03-.07-.04-.13,0-.03-.1-.08-.18-.15-.25l-.38-.32c-.05-.06-.11-.13-.14-.22h0c-.07-.08-.2-.04-.23-.08-.01-.01,0-.03,0-.08-.05-.07-.09-.13-.15-.19-.21-.22-.53-.38-.78-.34.01.03,0,.04-.01.05-.04.04-.11-.02-.16.03l-.02.02c-.14.14-.36.43-1.54,1.57-.14.07-.25.15-.34.24l-.19.2c-.09.07-.15.13-.23.2l-.16.16c-.13.13-.28.27-.46.37-.02.04-.05.07-.08.09l-.19.15s-.08.09-.09.18l-.47.27c-.11.2-.27.37-.45.55-.15.15-.32.3-.46.46-.09.05-.17.11-.26.19-.1.09-.19.21-.28.31-.06.06-.18.06-.22.1h-.01c-.05.07-.08.16-.15.22-.03.03-.07.05-.11.06-.04,0-.07.02-.09.04-.08.07-.07.25-.16.34-.05,0-.07.03-.09.04-.11.1.08.33-.06.46l-.03.03c.21.06.33.33.55.4.05.03.08.07.12.11.22.23.35.52.54.72l.09.08c.05.08.12.16.19.24l.85.75c.05.06.1.11.14.16l.03.03.17.32s.08.07.16.07c0,.04,0,.07.03.09.04.05.16.05.22.12l.03.03c.25.13.45-.15.65-.25.05-.03.08-.05.11-.09.15-.15.2-.33.14-.53-.42-.48-.84-.97-1.28-1.43-.31-.32-.61-.61-.96-.9-.02-.15-.05-.3.07-.42.58-.56,1.08-1.02,1.66-1.51.14,0,.28-.01.37.06.13.19.28.36.43.53l.65.67c.13.13.25.28.36.45.26.04.34.32.66.38l.25-.18.18-.18c.13-.12.24-.27.17-.46-.04-.22-.31-.42-.33-.55h-.13c-.3-.34-.5-.63-.78-.91-.07-.07-.14-.14-.22-.21-.13-.06-.27-.15-.37-.25-.09-.1-.15-.21-.14-.34.15-.19.33-.35.5-.52l1.02-.98.18-.14c.15-.09.25-.03.34.06l.14.16s.07.06.11.08c.25.29.54.68.79.96.14.11.25.22.37.35l.06.06c.25.26.49.51.84.64.27,0,.51-.18.73-.36m-5.65-1.16s0-.15.04-.19c0,0,.03,0,.04,0l.03.03s-.01.12-.05.16c-.02.02-.04.02-.05,0h0Zm-.82,6.75s-.08.03-.11,0c-.03-.03-.04-.07,0-.1l.04-.02s.05,0,.06.03c.03.03.05.07.02.09m4.75-7.62s-.07,0-.09-.02c-.03-.03-.04-.08-.02-.1.02-.02.05-.03.07-.02.02,0,.03,0,.04.02.03.03.03.07,0,.1h0Zm-1.85-1.07c-.07.06-.1.06-.11.05l-.03-.11-.03-.03s.14.03.17.06c.01.01,0,.02,0,.02m.29-.35s-.01.03-.02.04c-.02.02-.04.02-.06.02l-.03-.04s0-.02,0-.03c.02-.02.09-.03.1,0v.02Zm3.14,17.18c.59-.64,1.15-1.21,1.73-1.78.36-.38.75-.77,1.13-1.19.03-.03.06-.05.09-.07.16-.1.35-.06.57,0,.61.16,1.28,0,1.81-.33.32-.2.59-.46.81-.78.25-.58.35-1.26.19-1.83.01,0,0-.09.01-.1-.12-.38-.3-.72-.5-1.05l-.51-.84-.14-.21-.12-.22-.12-.05c-.39.28-.87.55-1.26.82l-.33.12s-.05.06-.06.11c-.35.19-.7.4-1.03.6l-2.6,1.6c-.16.13-.33.25-.5.35l-.43.27-.06.02c-.1.08-.19.15-.29.21-.18.11-.37.21-.56.31-.2.13-.41.25-.58.43.12.19.19.29.27.41.03.06.08.13.11.21v.02c.1.14.29.24.29.24,0,0,.45-.29.65-.42.59-.38,1.14-.79,1.78-1.18l.27-.17c.05-.02.09-.04.13-.07l.33-.23c.07-.04.15-.08.25-.09.09.09.16.18.22.28l.4.71c.06.04.11.07.13.11.02.03.01.07,0,.11-.31.3-.62.62-.93.93-.45.45-.89.89-1.39,1.31-.07.25-.39.3-.4.45l-.03.02c-.14.09-.27.38-.27.38,0,0,.17.21.29.31.11.1.16.24.28.39.08.09.15.08.2.05.07-.04.14-.13.18-.17m4.95-4.51c-.07.06-.14.1-.22.15-.45.28-.99.36-1.52.09-.25-.12-.4-.32-.55-.56l-.35-.58c.07-.16.2-.28.65-.55.15-.09.33-.2.55-.32.05-.05.02-.09.04-.11h.01c.19-.09.45-.22.63-.31.04-.07.09-.12.14-.15.08-.05.16-.07.25-.05.16.03.26.14.34.27.09.15.16.34.24.47.23.4.2.83.03,1.3-.03,0-.04,0-.06.02-.1.06-.09.23-.18.33m-7.04,1.71s-.12-.05-.15-.08c-.01-.03,0-.04,0-.05.02-.01.09.07.14.07.02,0,.05-.02.09-.04l.08-.05s.11-.08.16-.12c.02-.01.05-.03.05-.02.02.04-.03.06-.09.1l-.22.15s-.04.02-.07.02m1.85,2.92s-.05,0-.05-.01c0-.01.02-.04.05-.07l.07-.03c.05-.07.04-.15.08-.17h.03s.04,0,.04.02c.03.05-.1.2-.18.25-.02.02-.03.02-.05.02m3.75-7.51s-.04-.02-.06-.04c-.01-.02-.02-.05-.01-.07h.01s.11-.03.14.02c0,.01.01.02,0,.04,0,.02,0,.04-.03.05-.02.02-.04.01-.06,0m-3.81,7.4s-.05-.01-.07-.04c-.01-.02-.02-.05,0-.08h.01s.07-.02.09.01h0s0,.08-.04.1m-.25-.99s.01-.1.05-.12c.01,0,.02-.01.03,0h0s.02.12-.01.14c-.01,0-.04,0-.07,0h0Zm3.57-1.88s.04-.06.02-.09c-.01-.02-.04-.02-.07,0-.03.02-.06.05-.05.08h0s.05.04.07.03h.01Zm3.43-3.1s.03,0,.04,0c.04-.02.07-.1.05-.13h0s-.01,0-.01,0c-.02.01,0,.07-.04.09-.03,0-.04-.04-.07-.02h-.01s0,.03,0,.04c.01.02.04.04.06.04m-3.14,2.93s-.1-.03-.13-.01c-.01,0-.02.01-.02.03.02.02.02.03.06.04.02,0,.05,0,.07-.01.01,0,.03-.01.03-.03h0Zm1.83-1.75s.06.02.08.05c.01.02-.03.05-.03.05-.02.01-.06,0-.08-.01,0-.03,0-.04.02-.04l.02-.04Zm-1.73-1.52s-.03-.02-.03-.03c-.01-.02,0-.04.01-.06.02-.01.05-.02.06,0v.02s.02.04,0,.05c-.01,0-.02.01-.04,0m-5.95,2.9s-.03-.07,0-.09c0,0,.02,0,.03,0,.01,0,.03,0,.04,0,.01.02,0,.08-.02.09-.01,0-.03,0-.03,0h0Zm2.37,3.27s0,.02-.02.03c-.02.01-.04,0-.05,0v-.02s-.04-.02-.03-.02c0,0-.01-.02,0-.03.03-.02.08,0,.08.01,0,.01.01.04.01.04m3.07-2.67s0-.03-.02-.05c0-.01-.04,0-.05,0-.02.01-.03.05-.02.06.01.03.04.02.06,0h.02Zm-5.3-.33s0-.03,0-.05c0-.02,0-.04.02-.04.01,0,.04,0,.04.02,0,.01,0,.03,0,.03,0,.02-.02.04-.03.05-.01,0-.03,0-.04,0m5.92.16s-.05-.05-.07-.04c-.01,0-.03.03-.02.06,0,.02.05.01.08,0,.01,0,.02-.01.02-.03m.99-3.79s0-.02,0-.03c-.01-.02-.05-.05-.07-.04-.02.01,0,.04,0,.06.01.02.04.02.07,0m-4.47,6.57s0-.07.01-.08c.02-.01.04,0,.05,0,0,.03-.01.06-.01.06l-.05.03Zm-.4-1.19s-.04,0-.05,0c-.02.01-.02.04-.01.06,0,0,.03.01.05,0,.02-.02.03-.03.02-.05h0Zm3.03-1.16s0-.04-.02-.05c0,0,0-.01-.02,0-.02.01-.05.05-.04.06h.02s.05,0,.06,0m9.54,8.98c.16-.19.28-.41.25-.65-.13-.18-.23-.39-.31-.6-.1-.28-.16-.58-.24-.86v-.04c-.03-.06-.1-.08-.12-.13,0-.03,0-.04.02-.08-.01-.04,0-.13-.02-.18-.01-.04-.05-.07-.12-.06.02-.11,0-.2-.03-.29l-.21-.45c-.03-.08-.04-.17-.03-.26h0c-.03-.1-.17-.12-.18-.17,0-.01,0-.03.03-.07-.01-.08-.03-.16-.05-.24-.1-.29-.32-.56-.56-.64,0,.03-.02.03-.03.04-.05.02-.09-.07-.15-.05h-.02c-.19.07-.51.24-2.06.8-.16,0-.28.03-.41.07l-.26.1c-.1.02-.19.05-.29.09l-.21.07c-.18.06-.37.13-.57.14-.03.03-.07.04-.11.05l-.24.05c-.06.02-.11.05-.15.12l-.54.05c-.18.13-.4.23-.64.31-.2.07-.42.15-.61.23-.1,0-.2.03-.32.07-.13.05-.26.11-.38.16-.08.03-.19-.02-.24,0h-.01c-.07.04-.13.11-.22.14-.04.01-.08.01-.12.01-.03-.02-.08-.01-.1,0-.1.03-.17.2-.28.24-.05-.01-.07,0-.1,0-.14.05-.07.33-.24.39h-.04c.16.16.17.45.33.6.03.05.05.09.07.15.11.3.1.61.19.88l.05.11c0,.1.04.2.07.3l.46,1.04c.03.08.05.14.06.21v.04s.04.36.04.36c.02.05.05.1.12.13-.01.03-.02.06-.01.09.02.06.12.11.15.2v.04c.19.22.48.05.7.04.05,0,.09-.02.14-.03.2-.07.32-.21.35-.42-.19-.61-.36-1.23-.57-1.83-.14-.42-.3-.82-.49-1.21.05-.14.08-.29.24-.35.76-.27,1.4-.48,2.14-.68.13.05.26.11.32.21.04.23.1.45.17.66l.31.88c.06.18.11.36.14.56.22.15.18.43.44.62l.3-.06.24-.08c.16-.06.33-.15.35-.35.05-.21-.11-.51-.07-.64l-.12-.06c-.14-.43-.2-.78-.33-1.16-.03-.09-.07-.19-.11-.29-.09-.11-.19-.24-.23-.38-.04-.13-.05-.25.01-.37.22-.1.44-.18.67-.26l1.33-.47.22-.05c.18-.02.24.07.28.2l.06.21c.02.05.04.08.07.12.1.37.21.84.32,1.2.08.15.13.31.19.47l.03.08c.12.34.23.67.49.93.25.11.54.05.81-.01m-4.65-3.42s.07-.13.12-.15c.01,0,.03,0,.03.02v.04s-.05.11-.1.13c-.02,0-.04,0-.05-.01h0Zm-3.57,5.79s-.09-.01-.1-.05c-.01-.04,0-.09.04-.1h.04s.04.03.05.05c.01.04.01.08-.03.09m7.5-4.93s-.06-.02-.08-.06c-.01-.04,0-.09.02-.09.03,0,.05,0,.08.02.02,0,.02.02.03.03.01.04,0,.07-.04.1h-.01Zm-1.23-1.75c-.09.03-.12.01-.13,0l.02-.11v-.04s.11.09.12.12c0,.01,0,.02,0,.02m.41-.2s-.02.02-.03.02c-.02,0-.04,0-.06,0l-.02-.05s0-.02.02-.02c.02-.01.09,0,.1.03v.02Zm3.24,11.98s.03,0,.05.03c.07,0,.14,0,.21-.02.29-.07.56-.26.64-.52-.15-.39-.39-.8-.81-.82l-2.64.58c-.6.13-1.34.17-2.02.32-.23.05-.45.11-.67.2-.3.01-.6.06-.89.1l-.43.09s-.05.02-.07.03c-.03,0-.05.01-.08,0-.06.03-.13.04-.21.06l-.95.13c-.23.05-.43.15-.58.34-.05.2-.08.45-.03.67.02.1.06.22.14.31.37.19.67.07,1.1.04.09-.04.17-.08.25-.09l.31-.05c.08-.02.16-.04.24-.09.01.04.05.02.09.02.07-.06.13-.08.21-.1l.43-.05.17-.04.57-.08c.12-.03.22-.06.31-.14l.35-.04c.06-.03.11-.04.17-.05l.43-.09s.03-.03.06-.04h.18s.05,0,.05-.08l.03.02h.03c.05-.02.05-.07.09-.11.17.02.35.02.49-.01.05-.01.09-.02.13-.04.16.03.33.01.5-.03l1.02-.29c.12-.03.22-.05.33-.04.09.03.18.03.27,0l.24-.07c.07-.02.15-.02.23-.01l.08-.06Zm-7.71.5s-.05,0-.07,0c-.05-.02-.06-.03-.08-.06,0-.03.02-.04.06-.05.05-.01.11,0,.13.04v.05s-.04.01-.04.01h0Zm3.67-.76s-.03,0-.03-.02c0-.03.02-.1.07-.11.01,0,.03,0,.04,0l-.08.13Zm-.46-.02s.03,0,.03.02c0,.03-.01.07-.04.08-.01,0-.03,0-.03,0,0,0-.02-.08.03-.09m4.84-.64s-.02.02-.04.02c-.01,0-.03,0-.04-.02,0,0-.02,0-.02-.02v-.03s.02,0,.02,0c.03,0,.07.01.08.04h0Zm-5.63.8s.02-.03.03-.03c.01,0,.03,0,.03,0,0,0-.02.04-.03.06-.02-.01-.03,0-.03-.02h0Z"/>
            </g>
            <g id="g40">
              <path id="path42" class="cls-5" d="m9.43,66.67c.35-.08.76-.21.88-.54.57-.25.26-.81.39-1.3-.12-.15-.17-.33-.19-.55,0-.09,0-.19,0-.29-.19-.18-.26-.42-.53-.48-.09-.15-.61-.16-.75-.25-.31.01-.29-.08-.37-.08-.12,0-.16.13-.32.15-.13.01-.3-.04-.4-.03-.07,0-.13.04-.14.13-.03.39-.36.18-.36.47h-.04c-.12.01-.26.13-.25.28,0,.08.05.14.16.2-.07.11-.07.23-.07.34.02.21.11.43.13.63,0,.05,0,.09,0,.15h-.05c0,.1-.01.19,0,.27,0,.12.06.21.22.22-.01.04-.02.07-.02.1.01.16.28.18.33.4.13.14.27.17.41.15l.37-.05h.13c.03.08.07.1.11.1.07,0,.14-.08.22-.09.04,0,.09,0,.14.07m.93-.68s-.03-.05-.05-.09l-.02-.05c0-.09.08-.2.17-.2.04,0,.06.04.06.09,0,.09-.05.27-.12.28-.01,0-.03-.01-.04-.02m-2.54-.05s-.07-.05-.07-.1c0-.05.02-.11.06-.13h.04s.08,0,.11.04l.02.04c0,.07-.05.14-.12.14h-.03Zm.37.33s-.04.02-.05.02c-.05,0-.12-.04-.13-.1v-.03s.05-.07.1-.07c.07,0,.11.03.11.09,0,.04,0,.07-.03.1m1.94-2.26s-.07-.04-.07-.09c0-.04.02-.09.07-.1h.04s.03.05.03.08c0,.05-.02.11-.06.11h-.01Zm.21,1.6s-.06-.05-.06-.08c0-.04.02-.07.06-.07.05,0,.1.03.1.07,0,.04-.02.08-.06.09h-.04Zm-.13-1.25s-.03-.02-.03-.05c0-.04.02-.08.05-.1h.01s.1.05.1.09v.03s-.06.04-.09.05c-.01,0-.03,0-.04,0m-1.06,1.9c0-.05.03-.11.08-.11.04.01.06.05.06.09,0,.03-.05.06-.09.06-.03,0-.04,0-.05-.02h0Zm-1.48-1.73c-.05,0-.09-.02-.1-.06h0c0-.05.02-.08.06-.08h.03s.04.02.05.06c0,.04,0,.08-.03.08m.09,1s-.06-.03-.06-.09c0-.03,0-.05.04-.06h.01s.06.03.06.06c0,.03,0,.07-.03.08h-.01Zm1.29.93s.04-.04.08-.05c.03,0,.07,0,.07.04,0,.05-.05.07-.07.07-.04,0-.07-.02-.07-.05h0Zm-.27.02s-.05,0-.05-.02c0-.03.05-.09.07-.09h.03s.04,0,.04.02c0,.03-.03.08-.06.08h-.03Zm.28,12.25l.47-.11h.05c.22-.08.38-.2.4-.46l-.07-.29v-.03c-.06-.18-.28-.42-.46-.37h-.04s-.05.03-.08-.02c-.03.05-.07.06-.1.07h-.29s-.06.03-.1.07c-.11-.09-.28.04-.37-.12-.23.05-.25-.18-.46-.22-.16-.18-.29-.39-.36-.62-.17-.62.18-.98.6-1.2l.57-.16c.11-.05.22-.09.34-.12l2.02-.57c.14-.03.29-.07.43-.11.14-.04.3-.08.43-.14l.99-.22c.1-.04.19-.08.29-.11.15-.04.32-.06.48-.05.19.24.63.13.74.51v.04s.06.23.06.23c.01.05.04.1.07.15l-.04.05c.11.62-.29,1-.71,1.12h-.04c-.24.08-.49.15-.6.44.21.25.12.96.85.75.41-.12.74-.46,1.13-.65.18-.2.44-.41.46-.68.28-.33.14-1.31.12-1.39-.07-.24-.29-.43-.35-.66v-.03c-.08,0-.13-.06-.15-.11v-.03c-.16-.14-.36-.27-.42-.48v-.03s-.11-.01-.11-.01v-.05c-.08-.15-.31.01-.37-.19h-.04c-.17.05-.29-.14-.4-.11-.01,0-.03,0-.05.03-.04-.08-.4-.09-.41-.09l-.08.02c-.05.01-.11.02-.16-.02-.01.04-.05.07-.08.07l-.21-.02s-.05.03-.06.08c-.07-.04-.11-.05-.16-.04-.08.02-.13.09-.22.12-.09.02-.15-.04-.25-.01-.02.05-.04.07-.06.07-.05.01-.13,0-.2.01h-.04c-.01.07-.02.09-.05.09-.05.01-.11-.04-.15-.03h-.01c-.03.05-.05.07-.07.08h-.17s-.05.02-.07.08c-.04-.03-.07-.05-.09-.04l-.14.11c-.05.01-.13-.06-.17-.05-.01,0,0,.02,0,.04-.06.03-.17.08-.28.11-.08.02-.14.03-.2.02-.02.06-.07.09-.12.1l-.19.03s-.06.03-.08.05c-.03,0-.05,0-.09.01l-.26.1c-.06.02-.14.03-.21-.02-.03.05-.08.08-.13.09l-.16.03s-.06.02-.08.05l-.46.09c-.06.03-.1.08-.17.1-.04.01-.08,0-.14-.02-.03.05-.06.07-.1.08l-.22.02c-.05.02-.08.05-.1.13-.05-.03-.08-.03-.1-.03-.06.02-.1.1-.15.11-.01,0-.03,0-.04,0l-.17.05c0,.05-.03.08-.07.09l-.12.02s-.06.03-.07.1l-.05-.02c-.04.1-.1.18-.2.21h-.03c-.04.1-.19.13-.16.23v.04c-.12.19-.33.69-.31.77,0,.01,0,.03.02.04-.17.19-.05.46-.13.67.02.03.03.07.05.11.03.11.03.25.05.37l.07.19c.02.08.03.14,0,.21.08.03.12.12.14.2l.02.08c.34.39.86.84,1.44.88.23.08.48-.02.68.1l.08-.02Zm4.37-5.72s0,.02-.02.02c-.05.01-.16-.08-.17-.1h0s0-.04,0-.04c.04-.01.13.02.21,0,.05-.01.06-.04.08-.05h.01s-.05.08-.07.1h-.03s-.03.04-.02.08m-3.6,1s-.02-.02-.02-.04c-.01-.05.01-.1.06-.11.04-.01.09,0,.1.04.01.05-.03.09-.08.11-.03,0-.04,0-.05,0m-1.01.41s-.05-.03-.05-.04c-.01-.04.03-.08.03-.09,0-.01-.11.01-.11,0,0,0,0-.03.02-.06.08-.02.16.04.16.04l-.03.08s0,.08-.02.09m.27-.17c-.08,0-.1-.02-.11-.05,0-.01.05-.08.09-.09.03,0,.05.02.05.04.01.04.01.09-.03.1m4.46-1.18c-.05-.04-.09-.07-.1-.1,0-.01,0-.03.02-.03.01,0,.13,0,.14.06,0,.03-.02.08-.05.08h-.02Zm-2.59.65c-.01-.05,0-.11.04-.12.03,0,.07,0,.08.03,0,.05-.11.09-.11.09m2.19-.63s-.05-.03-.06-.05c0-.02.01-.06.02-.06.05-.01.07,0,.08.03.01.04,0,.07-.03.08h-.01Zm1.71.28s-.05-.03-.06-.05c0-.02,0-.04.03-.05.04-.01.05-.01.06.03.01.04,0,.07-.02.07h-.01Zm-1.89-.28s-.02-.03-.03-.05v-.04s.01-.02.04-.03c.01,0,.04,0,.05.01.01.05-.05.1-.05.1m-3.5,4.48s.07,0,.08.02c0,.01-.04.07-.08.08,0,0-.04-.03-.04-.06,0-.01,0-.02,0-.02l.03-.02Zm-2.04-2.52s.03-.02.05-.06c0-.02.05.03.06.07,0,.01,0,.03,0,.03-.01,0-.06-.01-.09-.03h-.02Zm-.35.07s-.02,0-.02-.02c0-.02.01-.06.04-.07.01,0,.05.01.05.03,0,.03-.02.06-.04.07-.01,0-.03,0-.03,0m3.54-1.32s-.02,0-.02-.03,0-.07.02-.08c.04,0,.06.02.06.02,0,.03-.03.04-.06.09m2.09-.6s-.02,0-.02-.02c0-.03,0-.05.01-.06.03,0,.06.02.07.06,0,.01,0,.02,0,.03-.01,0-.03,0-.06-.01m-1.41.4l-.02-.02v-.04s-.01,0-.01,0c0-.02.01-.06.02-.06.03,0,.03,0,.03.02.01.04-.02.09-.02.12m-1.99.52s.03-.03.03-.05c.01,0,.05.04.06.08,0,0,0,.01,0,.02-.01,0-.03,0-.08-.03h0Zm-.78.28s-.06,0-.06-.03c0-.02.01-.05.04-.05.01,0,.03,0,.03.02,0,.01,0,.02,0,.04v.02Zm6.52-.75s.03-.05.05-.06c.01,0,.05-.01.06.01,0,.01-.06.04-.08.05-.01,0-.03,0-.03,0m-6.84.85s0,.02-.02.02c-.01,0-.04,0-.05-.01,0-.03.02-.06.05-.07,0,0,.01,0,.02,0,0,.01.01.04,0,.06m5.51-1.57s.02,0,.02.04c0,.02.02.06,0,.07,0,0-.02,0-.04-.03,0,.01,0-.07.02-.08m-.15,3.48s-.04,0-.05-.03c0-.01.02-.03.03-.04.03,0,.03,0,.03,0,.01.04,0,.06-.01.06m-3.35-2.55s-.02-.02-.02-.03c0-.01,0-.02.04-.02.03,0,.04,0,.05-.03,0,0-.02.07-.05.08h-.01Zm3.03-.87s.05,0,.06.02c0,.01,0,.03-.03.04l-.04-.04s0-.02,0-.02m-6.02,2.19s-.02,0-.02-.02c0-.02-.01-.04,0-.04.01,0,.03,0,.03.02,0,.01,0,.03-.02.05m5.59,14.58c.26-.33.18-.69,0-1.01l-.52-.83-.09-.16c-.11-.21-.34-.44-.46-.66-.11-.2-.14-.4.05-.6.57-.26.97-.55,1.55-.69.31-.19.62-.38.93-.55l2.55-1.36c.08.04.14.01.19-.01.21-.11.42-.24.62-.36l.55-.3c.21-.11.36-.27.33-.57-.02,0-.02-.02-.03-.03-.03-.06.01-.15.03-.2-.22-.05-.37-.35-.55-.49-.06.03-.09.03-.12.05-.02.01-.05.04-.08.07-.15,0-.26.05-.38.11-.21.11-.4.29-.58.46l-2.71,1.45c-.08.03-.18.06-.27.11-.09.05-.17.11-.24.17-.25.07-.51.18-.77.32-.25.13-.51.26-.76.38-.03.06-.06.11-.11.13-.09.05-.21.05-.33.12-.03.02-.07.04-.1.07-.16-.05-.3-.02-.43.05-.11.06-.21.14-.3.22-.04-.02-.08-.03-.11-.01l-.16.16s-.04,0-.08,0l-.03.15c-.07.04-.09.03-.1,0v-.04s-.01-.01-.03,0c-.02,0-.05,0-.07,0-.02.01-.03.03-.02.04h0s.03.04.04.05c.03.05-.05.08,0,.15h-.01s-.06.07-.09.09c-.02.01-.05.01-.07,0-.02.04,0,.11.02.15l.03.05s-.03.08-.01.11l.07.11s.01.05,0,.08c0,.01.03,0,.06.03l-.04.09.13.02s.07.02.08.05c.03.06-.05.16-.01.23,0,.01.02.03.04.04l.07.07c.14.15.26.31.36.5.21.39.35.84.53,1.24l.33.61c.06.12.13.22.23.29.17.17.36.13.53.03l.34-.21Zm-2.06-3.75s-.02.02-.03.03c-.03.02-.07,0-.08-.01h0s.02-.07.04-.08c.01,0,.02-.01.04,0,.02,0,.02.02.03.03,0,.01.01.02,0,.04m.98,3.33c0-.07-.05-.15.02-.19h.04c-.08.08.08.12-.06.19m.18.19s0-.02.01-.03l.02-.03h.04s.04,0,.04.01c0,.01,0,.03,0,.05h-.01s-.07.04-.1,0m.26.18s-.04,0-.06,0c-.02,0-.04-.02-.05-.03v-.03s0-.02,0-.02c.02-.01.08.02.1.05,0,.01.01.02,0,.03m-1.31-3.75s-.02,0-.02-.02c-.01-.02,0-.08.03-.09.01,0,.02-.01.03,0,.02.03.02.06,0,.09l-.04.02Zm.74,2.94s-.06,0-.07-.02c0-.01-.01-.02,0-.03l.04-.02s.04.01.04.02c0,.01,0,.03,0,.05m-.13-3.3s0,.02-.02.03c-.01,0-.03,0-.04-.02,0-.03,0-.05.02-.05.02-.01.05,0,.05.02,0,.01,0,.03-.01.03m13.97,8.55c.09-.23.12-.48.01-.7-.19-.12-.35-.28-.49-.46-.18-.23-.35-.49-.52-.73l-.03-.03c-.04-.05-.11-.05-.14-.09-.02-.02-.01-.04-.01-.08-.03-.03-.05-.12-.08-.16-.03-.03-.07-.05-.13-.01-.02-.11-.07-.19-.12-.26l-.35-.35c-.05-.06-.1-.14-.12-.23h0c-.06-.08-.19-.06-.23-.1,0-.01,0-.03,0-.08-.04-.07-.08-.14-.13-.2-.19-.24-.5-.42-.74-.41,0,.03,0,.04-.01.05-.04.03-.11-.03-.16.01l-.02.02c-.15.13-.4.39-1.67,1.44-.15.05-.26.13-.36.21l-.21.19c-.09.06-.16.12-.25.18l-.18.14c-.14.12-.3.24-.49.33-.02.04-.05.06-.09.09l-.2.13c-.05.04-.08.09-.1.17l-.49.22c-.12.19-.3.35-.5.51-.17.13-.34.28-.5.42-.09.04-.18.1-.27.17-.1.09-.21.19-.31.28-.06.05-.18.05-.23.08h-.01c-.05.07-.09.15-.16.21-.03.02-.07.04-.11.05-.04,0-.08.01-.1.03-.08.07-.09.25-.18.32-.05,0-.07.02-.09.04-.11.09.05.34-.09.45l-.03.02c.2.08.3.35.51.44.04.03.08.07.11.12.2.25.3.54.48.76l.09.08c.04.09.11.17.17.25l.79.82c.05.06.09.11.12.17l.03.03.15.33s.08.08.15.08c0,.04,0,.07.02.09.04.05.15.06.21.14l.03.03c.24.15.46-.11.66-.19.05-.03.08-.05.12-.08.17-.13.23-.31.19-.51-.38-.51-.76-1.03-1.16-1.53-.28-.34-.56-.67-.87-.97,0-.15-.03-.3.11-.41.62-.51,1.16-.92,1.78-1.36.14,0,.28.01.37.1.11.2.25.39.39.56l.59.72c.12.15.23.3.32.48.26.07.31.35.63.43l.26-.16.2-.16c.13-.11.26-.25.21-.44-.02-.22-.28-.45-.28-.58h-.13c-.28-.37-.45-.68-.71-.99-.06-.07-.13-.16-.2-.23-.13-.07-.26-.17-.35-.28-.08-.1-.13-.22-.11-.35.17-.17.36-.32.54-.47l1.1-.89.19-.12c.16-.08.25-.01.33.09l.12.17s.07.06.11.09c.22.32.48.72.71,1.02.13.12.23.24.34.38l.05.06c.23.28.45.55.78.71.27.02.53-.13.76-.29m-5.53-1.63s.01-.15.06-.18c.01-.01.03,0,.04,0l.02.03s-.02.12-.06.15c-.02.02-.04.01-.05,0h0Zm-1.39,6.66s-.09.02-.11-.01c-.02-.03-.03-.08,0-.1l.04-.02s.05.01.06.03c.03.03.04.07,0,.1m5.38-7.19s-.07,0-.09-.03c-.03-.03-.03-.08,0-.1.02-.01.05-.02.08-.01.02,0,.03.01.04.02.03.03.02.07,0,.1h-.01Zm-1.75-1.22c-.07.06-.11.05-.12.04l-.02-.11-.03-.03s.14.04.16.07c0,.01,0,.02,0,.02m.32-.33s-.01.03-.02.03c-.02.02-.04.01-.06.01l-.03-.04s0-.02.01-.03c.02-.02.09-.02.1,0v.02Zm11.38,12.77l.47-.56c.32-.43.25-.81-.1-1.08-.04-.03-.09-.06-.13-.08,0-.06-.03-.09-.06-.11l-.19-.09s-.06-.08-.05-.16c-.65-.24-.9.38-1.13.39-.25.31-.6.55-.93.75-.02.05-.04.09-.06.12l-.46.3s-.04.07-.05.11c-.77.37-1.12,1.16-1.85,1.61-.2.09-.35.37-.57.21h-.01c-.11-.39.33-.71.39-1.12l.06-.09c.65-.86.9-1.83,1.35-2.76l.02-.02c.06-.07.04-.21.09-.27.03-.03.07-.05.15-.04-.19-.22.18-.51.12-.79.06-.39-.24-.58-.51-.85-.07-.13-.16-.3-.27-.39-.07-.06-.16-.08-.25-.04v.06c-.05-.03-.19,0-.25.07,0,.01-.02.03-.02.05-.04-.05-.02-.13-.06-.16-.04-.03-.14.01-.16.03l-.07.2s-.06-.08-.08-.09c-.02-.01-.07,0-.09.03-.05.06.11.17.07.22,0,.01-.02.02-.03.01l-.04-.06c-.06.02-.13,0-.18.03,0,.06,0,.09-.02.12-.06.09-.22.09-.27.16-.02.03-.03.09,0,.16-.05-.02-.09.01-.12.05l-.04.05c.07.09.06.15.03.19-.06.08-.29.12-.37.22l-.02.02c-.05.16.04.25.1.38-.14.07-.26-.12-.4-.05-.08.11.03.19.07.28-.1,0-.16.01-.18.05-.06.07.04.26-.03.35-.02.03-.06.04-.13.04l-.03.04c-.05.05-.11.08-.15.14-.04.05-.06.12,0,.2-.05.02-.1,0-.13-.03l-.06-.05s-.05-.04-.11-.01l-.02.02c-.11.15.16.19.13.33-.09.12-.21.03-.26.1-.06.07.05.19-.1.39l-.28.31-.11.2c-.09.12-.25.18-.33.28-.04.05-.06.12-.05.22-.15.39-.34.78-.59,1.12-.16.21-.35.4-.57.58-.16-.04-.14.14-.31.15l-.13.17c-.1.13-.17.25-.11.42-.03.02-.06.06-.08.09-.2.27.04.58.03.6.03,0,.09,0,.11-.02l.02.08s.05-.02.06,0l.06.11s.03.02.06.01c.3-.03.58.07.82-.2.19-.21.37-.42.54-.65l1.92-2.54c.05-.13.12-.23.19-.32l.31-.41.16-.06.02.11-2.03,4.4s-.05.08-.07.11l-.12.16c-.07.1-.13.19-.11.32-.02.02-.03.03-.04.04-.1.13.1.24.08.38.28.18.55.44.88.53,1.09-.82,1.91-2.05,3.05-2.8l.25-.22c.19-.16.38-.31.64-.37.07.34-.28.59-.4.93-.21.17-.41.39-.6.64l-.53.7-.19.3-.41.48c-.05.06-.09.14-.12.21-.15.13-.34.28-.49.47-.23.3-.06.68.19.86l.04.03c.36.23.67.07.96-.31l.66-1.05.91-1.07,1.67-2.21c0-.1.05-.16.09-.21.29-.38.6-.73.92-1.09l.04-.05Zm-6.53-1.1s-.02-.11.02-.15c.01-.02.04-.03.06-.02.01.03.01.14-.01.17,0,0-.02.02-.03.01h-.04Zm1.01-1.09s-.07.05-.09.03c-.02-.03-.03-.09,0-.12.01-.02.06-.02.09,0,.02.02.03.04.03.07v.02Zm-.21.33s-.02,0-.03,0c-.03-.03-.05-.12-.03-.14h0s.04,0,.05.01c.03.03.04.05.03.09l-.03.04Zm-1.65,2.06s-.04.05-.08.02h0s0-.06,0-.08l.05-.02s.03.04.05.07h0Zm-.75-.02s.05-.01.06-.03c.01-.02.03-.04.01-.06l-.03-.03s-.03.01-.03.02c-.03.03-.04.07-.02.09h.01Zm2.36-3.04s-.05,0-.07,0c-.02-.02-.03-.04-.02-.06.02-.02.04-.03.06-.02.02.02.04.06.03.09m.69.05s-.04,0-.05,0c-.02-.02-.03-.04-.03-.05h0s.02-.04.04-.05h.03s.02.07,0,.09h0Zm-3.44,4.4s-.07-.04-.1,0c0,0,.01,0,0,.02l-.03-.02s.06-.09.09-.06c.01,0,.03.03.03.07m3.29-2.17s-.04.02-.06,0l-.02-.02s0-.03.01-.04c.02-.02.03-.03.04-.03h.01s.03.05.02.07m-.66,1.22s-.03-.07-.01-.09h.02s.05.02.05.02c0,.02-.01.04-.02.05,0,.01-.03.03-.03.03m-2.03.21l-.05.02v-.12s.08.07.05.1m2.14-.46s-.01-.03,0-.05l.03-.03s.03.05.01.07c0,.01-.02.02-.04,0m16.73,4.18c-.03-.24-.13-.48-.33-.62-.22-.02-.44-.07-.65-.15-.27-.11-.54-.26-.81-.38h-.04c-.06-.04-.12,0-.17-.02-.02-.01-.03-.03-.05-.06-.04-.01-.1-.08-.15-.1-.04-.02-.09,0-.12.05-.07-.09-.15-.13-.24-.16l-.48-.13c-.07-.03-.16-.07-.22-.14h-.01c-.09-.04-.19.05-.24.03-.01,0-.02-.02-.03-.07-.07-.04-.14-.08-.21-.11-.29-.11-.64-.12-.85.01.02.02.02.03.01.05-.02.05-.11.03-.14.09v.02c-.08.19-.16.54-.75,2.08-.1.12-.16.24-.21.36l-.09.27c-.05.09-.09.18-.13.28l-.08.21c-.07.17-.14.36-.26.53,0,.04-.02.08-.03.12l-.11.21c-.03.06-.03.12,0,.2l-.31.44c-.02.22-.09.45-.18.69-.08.2-.16.41-.22.61-.06.08-.11.17-.15.28-.05.13-.09.27-.12.4-.03.08-.14.13-.16.18h0c-.02.09,0,.18-.04.27-.01.04-.04.07-.07.1-.03.02-.06.05-.07.07-.04.1.04.26,0,.37-.04.03-.05.05-.06.08-.05.14.21.27.14.44v.04c.2-.03.42.16.65.13.05,0,.1.03.15.05.3.12.53.32.79.43l.12.03c.08.06.18.1.28.14l1.09.33c.07.03.14.05.19.09l.04.02.29.21s.1.03.17,0c.01.03.03.06.06.07.06.02.17-.02.25.01h.04c.28.02.34-.31.48-.49.03-.04.05-.08.07-.13.08-.2.05-.38-.09-.54-.59-.26-1.17-.52-1.76-.76-.41-.16-.81-.3-1.24-.41-.08-.13-.17-.25-.11-.41.29-.75.55-1.37.88-2.07.13-.07.25-.13.37-.1.19.12.4.21.61.3l.87.34c.17.07.34.15.51.26.26-.07.44.14.76.07l.15-.27.09-.23c.06-.16.11-.35-.04-.49-.13-.18-.46-.25-.53-.36l-.12.05c-.42-.18-.72-.35-1.09-.5-.09-.03-.19-.07-.29-.1-.14,0-.31-.02-.45-.07-.12-.05-.22-.13-.27-.25.06-.23.15-.46.24-.68l.51-1.32.11-.2c.1-.15.21-.13.33-.08l.19.09s.09.02.13.02c.35.17.78.39,1.12.54.17.04.32.1.48.16l.08.03c.33.13.66.25,1.03.23.25-.12.39-.38.52-.63m-5.62,1.32s-.06-.14-.04-.19c0-.01.02-.02.03-.01h.04s.04.13.02.18c-.01.02-.03.03-.04.03h-.01Zm2.08,6.48s-.07.06-.11.05c-.04-.02-.06-.05-.05-.09l.03-.03s.05-.01.07,0c.04.02.07.04.05.08m1.12-8.91s-.06.03-.1.02c-.04-.01-.06-.05-.05-.08.01-.03.03-.04.06-.05.02,0,.03,0,.04,0,.04.01.05.05.05.09h0Zm-2.13-.2c-.03.09-.07.1-.08.1l-.07-.09h-.04s.14-.05.18-.03c.01,0,0,.02,0,.02m.11-.44s0,.03,0,.04c-.01.02-.03.03-.05.04l-.05-.02s0-.02,0-.03c0-.03.07-.06.09-.05v.02Zm14.3,11.12l.05-.26-.06-.03s.05-.04.07-.03l.06-.31c.05-.25.09-.5.12-.75l.38-2.65c0-.13.02-.25.04-.39.05-.36.11-.71.18-1.06.05-.22.16-.49.2-.75.03-.21,0-.42-.13-.59l-.12-.02h-.04s-.04-.01-.06-.07c-.41.06-.79-.1-1.02.36.04.26.03.58-.02.87l-.08.53c-.02.05-.03.1-.04.16l-.22,1.98c-.02.24-.01.48-.05.69-.02.16-.12.54-.34.5-.25-.03-.31-1.11-.45-1.35l-.13-.22s-.07.09-.12.08c-.04,0-.07-.08-.06-.13,0-.05.05-.07.09-.07.04,0,.08.02.08.02v-.24c-.05-.09-.21-.11-.19-.21.04,0,.06.02.09.03-.03-.46-.1-.96-.14-1.45-.23-.55-.08-1.21-.35-1.77-.08-.01-.14-.13-.14-.18l-.15.05c-.06-.05-.12-.07-.19-.08-.55-.08-1.28.14-1.36.68l.03.26-.04.21c-.02.16.07.52.05.71-.01.08-.05.16-.14.22l.03.15-.07.74c0,.08-.06.17-.07.23,0,.04,0,.07.02.1-.02.04-.04.08-.04.13-.02.11,0,.23,0,.35-.02.11-.03.2-.11.27.04.09.04.18.03.27l-.05.24c0,.05,0,.11,0,.16-.04.03-.06.07-.07.12l.03.29s-.03.09-.07.13c.04.27-.01.64-.05.92-.03.04-.05.07-.06.11-.01.08,0,.16,0,.23,0,.05-.03.1-.09.15.06.06.06.12.05.18-.01.09-.07.19-.08.27,0,.04-.01.08.01.11-.05.06-.06.13-.07.19l-.02.32c-.01.08-.09.16-.1.23,0,.03.01.07,0,.11,0,.03,0,.05-.05.07l.11.09s0,.03,0,.04c0,.04-.04.08-.05.13,0,.07.04.17.03.25,0,.04-.02.08-.07.11l.05.05s.04,0,.05,0c.18.03.3.23.58.27.35.05.63-.06.74-.46-.1-.71.2-1.63.18-2.43v-.03c.06-.1.09-.19.1-.29v-.9c.03-.17.13-.31.16-.46l.03-.56c.03-.17.09-.31.29-.36.48,1.15.45,2.42,1,3.61.16.04-.08.37.18.41l-.06.04c0,.36.09.67.22.99-.04.4.18.62.42.84.03.02,0,.04.05.05.03,0,.03-.02.03-.02.05,0,.11-.01.17,0l.17.04c.32.04.41-.17.49-.65.03-.22.04-.46.05-.71l.08-.84Zm.1-3.68s-.01,0,0-.01c0-.03.04-.09.08-.08h.01c0-.05-.04-.11-.03-.16,0-.04.02-.06.05-.09-.04-.03-.06-.06-.05-.1,0-.08.07-.15.08-.18,0-.07,0-.14,0-.19,0-.07.03-.12.06-.15-.02-.03-.03-.06-.03-.07l.05-.11s0-.04-.03-.06c.04-.03.05-.06.05-.1v-.12s.03-.08.09-.1v-.05s.01-.02.02-.02c.01,0,.09.04.08.12-.02.15-.11.29-.12.37v.15s-.03.08-.12.09l-.02.42s-.06.02-.06.04c.03,0,.1.05.07.28,0,.05-.09.14-.11.13h-.05Zm.51-2.12s-.05.06-.05.1c-.01.07,0,.13,0,.17l-.09.23s-.09-.04-.09-.05l.05-.11v-.15s.03-.08.09-.09l-.05-.1.05-.09s-.01-.01-.03-.01h-.04s-.02-.25-.02-.25c.02-.14.07-.19.13-.18.04,0,.06.02.06.05l-.06.05s.09.12.06.3c-.01.08-.03.15-.03.15m-.84,5.62s0,.09,0,.16c-.02.11-.05.21-.13.2-.03,0-.09-.05-.08-.11,0-.03.02-.05.06-.06l.06-.06c-.06-.03-.07-.09-.06-.13,0-.04.03-.09.06-.11l.04-.09c.05,0,.06.08.05.11v.03s-.04-.05-.05-.05c-.01,0-.03,0-.03.04,0,.05.09.04.08.07m.34-2.9s0-.07-.01-.07c-.04,0-.02.04-.05.03-.04,0-.02-.23-.02-.23v-.04c.02-.08.07-.17.1-.16,0,0,.01.01,0,.03l-.02.05s.03.02.04.02c.04,0,.01.26,0,.33,0,.05-.01.08-.03.08-.01,0-.01-.01-.02-.03m-.06,1.05c-.07.11-.09.25-.14.39-.02-.15,0-.3.02-.46.01-.09.03-.19.03-.26.09.01.02.11.08.17-.03,0-.04.02-.05.03,0,.04.06.08.05.13m.56-4.54s-.06.02-.1.01c-.03,0-.07,0-.06-.03,0-.01.06-.13.09-.12.01,0,0,.07.03.07.03-.01.02-.05.05-.05.01,0,.02.03.02.06,0,.03,0,.05-.02.06m-.77,5.88s-.05.06-.05.1l-.02.13-.03-.1-.06.06.08-.16s0-.04,0-.05c0-.03.02-.02.04-.02.03,0,.05.02.05.03h0Zm-4.54,1.47h-.01s-.12-.09-.11-.13c0-.01.03-.02.06-.02.07,0,.09.04.08.11v.04Zm3.56.91s-.06.06-.13.05c-.03,0-.04-.02-.04-.03.04-.06.08-.07.1-.06.03,0,.05.02.06.05m.52.21s-.02-.02-.05-.02v.04s-.01.02-.02.02c-.04,0-.05-.05-.05-.07,0-.03.02-.05.05-.05.03,0,.08.08.08.08h-.01Zm.56-6.84s-.03.02-.06.02c-.02,0-.05,0-.05-.05,0-.03.02-.05.05-.05.03,0,.06.05.06.07m-1.07,6.78s-.01.01-.04,0c-.03,0-.05-.02-.05-.05,0-.01.07-.04.09-.04.01,0,.02.02.02.04,0,.01,0,.03-.02.04m1.46-8.49s.01.02.01.02c0,.03-.07.07-.09.07-.01,0-.03-.01-.02-.03,0-.01.02-.05.05-.06h.05Zm-.65,6.99l-.09-.04s.03-.02.03-.05v-.04s.07.02.07.05l-.02.04v.04Zm-3.39-6.39s.06.08.05.09c0,.01-.01.01-.01.01-.07,0-.1-.07-.1-.08,0-.01.02-.03.03-.02h.03Zm3.73,3.63h-.01s-.05-.05-.04-.08c0-.01.04-.02.06-.02.03,0,.04.02.03.03l-.03.06Zm-.17,1.64l-.11-.07.05-.06c.02.06.07.08.06.12h0Zm-3.73,2.23s-.07-.02-.06-.05c0-.03.02-.05.05-.05.03,0,.03.05.03.07,0,.01,0,.03-.02.02m-.49-.03s-.01,0-.01,0c0,0-.1-.07-.1-.08,0,0,.03-.01.05,0,.07.01.06.04.06.08m4.22-2.99s-.05-.03-.05-.05c0-.03.03-.03.06-.03.02.02.03.05.03.06,0,.01-.02.02-.04.02m-.88,3.12s-.03,0-.05,0c-.01-.01-.02-.03-.02-.04,0-.01.02-.04.03-.04.05,0,.05.03.04.07m1.08-4.49l-.03.05s-.03-.06-.03-.07c0-.01.01-.02.06-.02v.04Zm-.57,4.3s.01,0,.01.01c0,.01-.03.05-.05.05-.01,0-.04-.02-.03-.06,0-.01.01-.01.03,0h.04Zm-3.32-7.89s-.01.01-.03,0-.03-.02-.02-.03c0-.01.05-.05.07-.04v.02s0,.02-.02.05m.27-.03s-.02.03-.03.02c-.01,0-.04-.03-.03-.04,0-.01.02-.03.06-.02h.03s-.02.04-.02.04Zm2.88,7.77s-.02-.02-.04-.03c0-.01.05-.04.07-.03.01,0,.01.01,0,.03l-.05.03Zm13.86-.98c0-.05-.11-.08-.11-.08v-.05c-.03-.27-.2-.45-.22-.68,0-.07,0-.13.02-.2-.17-.07-.29-.27-.39-.46-.29-.09-.38-.41-.59-.57-.23,0-.33-.34-.53-.32h-.01c-.11-.05-.21-.24-.27-.23h-.02s-.05-.02-.05-.02c-.74-.54-2.01-.95-2.27-1.96.24-.38.11-1.01.99-1.08.33-.03.69.08.98.21l.5.94c.08.22.2.45.43.5.07,0,.17-.01.19.06.08-.02.15-.1.22-.11.03,0,.07,0,.1.06h0c-.01-.17.22-.06.29-.18v-.03c0-.09.05-.13.1-.2.15-.23,0-.47.13-.67-.03-.08-.1-.14-.21-.18-.08-.22-.01-.36-.27-.5.01-.03,0-.05,0-.07,0-.09-.14-.11-.19-.23.01-.03.01-.05,0-.07,0-.15-.24-.17-.25-.34h0s-.05.02-.05.02c-.18-.21-.73-.49-.74-.52-.03,0-.05.02-.08.05-.25-.06-.57-.11-.87-.13-.12.06-.25.1-.35.11-.05,0-.09,0-.13,0-.05.06-.11.07-.17.08-.13.01-.25-.06-.35-.05-.05,0-.11.02-.14.08l-.06-.1-.21.2c-.12.01-.2.16-.29.17-.03,0-.05,0-.08-.03-.13.16-.28.41-.45.43l-.03.02.02.08s0,.05-.08.06c.03.03.03.05.03.08,0,.08-.15.09-.23.11l.04.18s-.04.11-.1.11h-.03s.02.31.02.31c-.07.11-.09.22-.08.35.02.23.13.49.15.74,0,.07,0,.15-.01.21.15.21.34.39.37.64.44.53,1.16.95,1.67,1.46h.01c.21-.02,1.08.65,1.49.97.2.32.53.76.56,1.08.02.21-.19.4-.19.63l-.46.4c-.09.07-.27.03-.34.15-.28,0-.67-.12-.94-.34-.19-.35-.1-.78-.49-1.06-.16-.04-.29-.15-.47-.14l-.18.04h-.23c-.19.02-.38.22-.46.44.03.05.05.1.05.17v.33c.01.13.15.21.16.33.06.78.99.92,1.02,1.26l.1-.04c.08.11.28-.03.29.14.37.09.75.13,1.12.09.45-.03.91-.17,1.35-.35.11-.07.26-.29.39-.3.04,0,.07,0,.1.03-.01-.17.24-.13.23-.25,0-.03-.02-.05-.03-.08.23-.07.03-.39.26-.46,0-.27.16-.53.21-.86,0-.03-.03-.06-.07-.09,0-.05.1-.06.11-.13,0-.05-.04-.12-.04-.12,0,0,.07-.02.08-.06h0Zm-4.16.2s-.06.03-.08.03c-.01,0-.03-.01-.03-.03l.02-.09s-.01-.01-.02-.03c0,0,.11.06.11.1,0,0,0,.01-.01.01m-1.3-5.85s0,.09-.05.1c-.03,0-.05-.02-.06-.05,0-.03.04-.06.08-.06.01,0,.03,0,.03.01m4.85,4.77s0,.07-.05.07c-.01,0-.04,0-.04-.05,0-.03.02-.04.05-.04.03,0,.04.01.04.03m-.36-3.89c0-.05.05-.07.05-.07l.09.09s-.13.01-.14-.01m-3.6,4.89h-.03s-.06-.02-.06-.05c0-.03.02-.04.04-.04.04,0,.04.02.04.05v.04Zm4.09-.76s.01.03.01.03c0,.03-.02.04-.05.04-.01,0-.04-.01-.04-.02,0-.03.02-.05.05-.06.01,0,.03,0,.03.01m-3.59.93s-.04-.01-.04-.05c0-.01,0-.04.02-.04.01,0,.04.04.05.06,0,0,0,.01-.01.02h-.01Zm-.78.58s-.07,0-.07-.05c0-.01.01-.03.02-.03.03,0,.06.02.06.04,0,.01,0,.03-.01.04m21.8-12.45s-.09,0-.14,0l-.03-.03s0-.03.01-.04l.03-.02s.04-.02.03-.06c-.09-.09-.13-.22-.3-.18l.09-.06c-.06-.07-.15-.06-.22-.02-.04.02-.06.05-.09.06l-.07.05c-.11.05-.19.04-.27.08-.03.02-.07.05-.1.1-.04-.02-.09-.02-.11,0-.05.02-.08.1-.14.13-.02.01-.05.03-.08.01l-.03.05-1.06.63c-.14.04-.29.02-.42.09-.04.02-.08.05-.12.09-.23.02-.45.11-.67.22-.31.16-.61.38-.83.64-.02.17.03.27.03.48.02.02.05.03.06.06.04.08-.02.19.03.3.05.11.19.11.21.15,0,.01,0,.03,0,.05.23.19.46.13.67.02l.13-.07c.08-.04.13-.1.21-.15l.37-.16c.06-.03.12-.08.15-.14.05.04.08.08.11.13l.11.35s.05.08.08.11c0,.08,0,.16.05.25l.28.47s-.07.08-.04.13l.04.04c.07.01.09.04.11.08l.03.25s.05.07.11.08l.22.44s.01.05.03.09l.06.09s0,.04,0,.05h-.01c.04.06.09.13.12.18l.1.19c.05.1.1.2.2.27-.05.08-.05.14-.02.19l.21.22s.01.11-.04.19c.05-.02.09-.01.13.04l.05.14s-.05.07-.04.11l.02.04s.08,0,.1.02l.15.27c.05.1.08.2.07.29.06.01.1.05.12.09.04.08,0,.19.04.26.02.03.06.06.11.07,0,.02,0,.03,0,.05.03.06.11.14.16.22.04.07.05.12-.03.21,0-.01-.02,0-.02,0,0,0-.02.02-.02.02h0s.13,0,.18.11c.05.11,0,.24.05.33.03.05.07.08.16.1,0,.05.02.11-.02.13h-.01c.12,0,.18.08.22.15l.07.17s.02.05.05.07c0,.05,0,.09.01.11l.37.17v.02s.29-.02.29-.02c.02-.05.05-.08.08-.1.06-.03.17-.04.27-.09l.03-.02c.16-.25.29-.55.27-.87-.44-.97-.87-1.89-1.33-2.79l-.93-1.83c-.07-.11-.14-.21-.21-.27.02,0,.02.02.04.01l.03-.03v-.02c-.04-.06-.05-.16-.09-.25l-.55-.84c-.2-.39-.09-.65.15-.77.19-.1.45-.12.61-.21l.05-.02s.03-.11.07-.12c.04-.02.04,0,.05,0h0s.2-.16.14-.27v-.02c.08,0,.12.03.18,0,.07-.04-.02-.31-.05-.36-.02-.03-.05-.08-.09-.1l-.09-.03-.09.06c.01-.1.19-.14.12-.27v-.04Zm-.08.19l-.07.09.02.05s.03.06,0,.09c-.06-.1-.12.03-.19-.11,0,.01.03,0,.04,0v-.02s-.14-.02-.15-.04c0-.01,0-.02.01-.04-.02,0-.02-.05-.05-.04-.01,0-.02.03-.05.05h-.01s-.06,0-.06,0h0c.21-.12.09-.19.26-.36.04.01.04.02.05.03.02.03.02.21-.09.33l.05.02s.02-.03.02-.03c.05.07.15-.06.23-.02m-.56.04l-.11.07s.05.05.06.07c0,.01,0,.04,0,.09l-.06.03c-.08-.08-.17-.02-.24-.07l.03-.12c.03.06.06.06.1.04l.14-.13s.05-.01.08.02m.28-.42s-.05,0-.07,0c-.07.04-.07.14-.09.15,0,0-.01,0-.02,0h0s-.02-.2.04-.23c.03-.01.08,0,.14.06h0Zm.06.68s-.04.07-.02.1c0,.01.02.04.04.04-.02,0-.03,0-.04,0l-.08.05s-.03.02-.06,0h0c-.02-.06.08-.08.03-.18.03.03.04.02.05.02.01,0,.02-.02.04-.03.01,0,.02-.01.04,0m-.62.4s-.08.03-.1-.01c-.01-.02.02-.07.06-.09.03-.02.07-.02.08.02,0,0,0,.06-.05.08m.38-.82s0,.02-.02.02c-.02.01-.1,0-.12-.03,0-.01-.01-.03,0-.03l.03-.03s.08-.01.1.02c0,.01.01.02,0,.04m-.04,6.11s-.05,0-.06-.03v-.02s-.04-.08-.01-.09h.02s.03.03.04.05c.02.04.03.09.03.09h-.01Zm-.23-6.15s-.03.09-.07.11c-.01,0-.03,0-.03-.01,0-.04,0-.06.03-.09.03-.01.05-.02.07-.02h0Zm.19.7s.03.02.03.03c.01.03.01.05-.01.07-.01,0-.04,0-.07,0h-.02s.01-.07.05-.09h.02Zm.5.09s-.01.07-.04.08h-.01s-.02-.01-.03-.03c-.01-.02-.02-.07,0-.08.04-.02.06,0,.07.02m-.79-.85s-.06.03-.07,0h0s0-.06.03-.07c.02-.01.07,0,.08.02,0,0,0,.03-.02.04h-.01Zm1.02.98s-.05-.02-.06-.01c-.03.01-.01.07,0,.09,0,.01,0,.02.02.02.01,0,.05-.02.04-.1m-.02,6.24s-.02.02-.04.03c-.02.01-.03.02-.04,0-.02-.05-.02-.07,0-.08.02-.01.06,0,.07.02h0Zm-.52-.92s-.02.03-.03.03h-.01s-.03,0-.04,0c-.01-.03,0-.06.01-.07h.01s.04,0,.05.04m.29-5.28s0,.01,0,.02c-.03.01-.07,0-.09-.02,0-.03.01-.04.03-.04.01,0,.03-.01.04,0l.03.05Zm1.39,8.03s.01.05-.01.07c-.01,0-.03,0-.03,0l-.03-.03s.01-.03.02-.04c.01,0,.02-.01.05,0m-1.19-8.45s0,.04,0,.05c-.01,0-.04,0-.05-.02-.02-.03.02-.05.02-.05.01,0,.02-.01.03,0v.03Zm-.6-.01s0,.02-.02.03c-.02.01-.06,0-.07-.01,0-.01.01-.04.02-.04.02-.01.04,0,.05.02h0Zm.16-.13s-.03.03-.05.04l-.03.02s-.02.01-.04-.01c0-.01,0-.02.02-.02.03-.02.09-.02.11-.03m-.55,5.01l.03.06s-.08-.05-.09-.06h.01s.03,0,.05,0m.37.29h-.01s-.07.01-.08,0c0,0,0-.01,0-.02.02-.01.05-.01.08,0h0Zm11.55-9.14c-.04-.09-.09-.18-.16-.26l-.49-.52s-.07-.08-.09-.13c-.06-.12-.16-.24-.24-.34-.52-.64-1.27-.98-2.13-.93l-.93.29c-.1.03-.18.08-.26.14-.27.22-.48.59-.7.79-.05.19-.25.46-.31.82-.06.41-.19.59,0,1.1.28.51.64.98,1.02,1.44l.84,1.04c.11.13.23.28.33.42l.12.14c.08.09.17.17.24.26l1.07,1.32v.07c.19.25.47.39.76.51.13.1.35-.01.44.1.66.07,1.37.09,1.93-.36.07-.04.13-.09.19-.14.6-.49.9-1.39.8-2.12-.19-.43-.18-.85-.49-1.24l-.13-.17-.4-.58c-.07-.08-.15-.16-.24-.23-.02-.09-.07-.15-.12-.21l-.26-.27-.07-.11-.71-.83Zm-.94.66l1.95,2.4c.23.28.64.83.14,1.38l-.03.05h-.02c-.14.2-.26.33-.4.44-.09.07-.2.14-.3.16-.36.07-.86.1-1.12-.22l-.03-.03c-.05-.02-.08-.06-.11-.09l-.22-.44c-.04-.05-.11-.1-.21-.11-.01-.04-.04-.07-.07-.11-.1-.13-.26-.26-.38-.4-.08-.1-.14-.21-.17-.34-.12-.08-.19-.15-.27-.25-.16-.2-.26-.43-.45-.65-.09-.11-.13-.25-.21-.34-.05-.06-.1-.11-.21-.13-.04-.02-.07-.07-.09-.1l-.19-.27c-.06-.07-.12-.13-.23-.14-.03-.13-.08-.26-.15-.36-.03-.04-.06-.07-.11-.1-.27-.36-.39-.71-.26-1.17.08-.17.24-.36.42-.52.19-.15.4-.25.59-.25l.16-.06s.65.09.91.4c.08.08.14.15.2.23l.47.63c.12.15.25.28.39.39m-1.65,2.05s-.19-.12-.29-.26c-.08-.09-.12-.17-.09-.2.03-.03.13.08.23.19.09.11.18.25.16.27m.12.14s.08.04.11.07c.04.05.05.13.05.2-.01,0-.01.03-.01.03-.03.02-.1-.04-.16-.11-.07-.08-.12-.16-.08-.19,0,0,.02,0,.03,0,.03,0,.05,0,.08,0m1.14,1.64c-.06-.02-.15-.05-.19-.11-.04-.04-.03-.08,0-.1.03-.02.08.02.13.07.05.06.09.15.06.14m-.75-1.14l-.03.03s-.05,0-.08-.04c-.03-.03-.03-.06-.01-.08l.03-.03s.05,0,.07.03c.03.03.04.07.02.09m.96,1.31s.01.04.01.06c0,.01,0,.02,0,.02-.02.02-.13-.05-.16-.09,0-.01-.01-.02,0-.03h.01s.02,0,.02,0c.05,0,.06-.01.08.02l.05.03Zm.03-.21s0,.02-.01.03h-.03s-.06-.01-.08-.03c-.01-.02-.01-.04,0-.06.02-.02.09,0,.11.03,0,.01.02.02,0,.03m-.47-.29s0,.02,0,.04c-.02.02-.06,0-.08-.04-.03-.03-.04-.05-.02-.07h.01s.06,0,.08.03c0,.01.02.02.02.04m-1.46-1.99s-.07,0-.09-.02c-.02-.02-.02-.05-.01-.06h0s.07,0,.08.03c.02.02.03.03,0,.05m1.2,1.55s0,.05-.03.07c-.01,0-.04,0-.05-.02,0,0-.02-.02-.01-.04h.01s.07-.03.09,0m7-14.39l-.27.02-.52.54c-.09.11-.15.23-.14.37,1.29.95,2.61,2.02,3.83,2.95,0,0-.03.03,0,.05.03.02.06.05.07.04h0c.14.12.27.22.42.34l.98.78c.39.31.85.75.64,1.02l-.02.02c.02.21-.06.4-.19.56-.44.55-.86.53-1.36.36l-.08-.03c-.25-.15-.47-.31-.69-.48l-1.36-1.08-.2-.22c-.19-.15-.44-.28-.65-.45l-.53-.49-.64-.51c-.15-.12-.29-.24-.41-.39-.11-.05-.22-.13-.32-.2l-.51-.44c-.17-.13-.41-.27-.57-.08-.03.03-.05.08-.05.13l-.07.11-.27.29c-.07.09-.12.19-.13.32.7.49,1.39,1.02,2.08,1.56l2.58,2.05.03.04c1.12.89,2.64,2.07,4.02.33,1.12-1.41.23-2.67-1.54-4.08l-.42-.33c-.24-.19-.43-.38-.62-.57-.48-.34-.94-.7-1.41-1.07-.59-.47-1.16-.96-1.72-1.48m4.08,3.44h-.06s0,.02.01.03l.15.07s.03.02.04.05c-.04,0-.12,0-.17-.05-.02-.02-.02-.04-.02-.05-.03.04-.07.05-.09.03-.01,0-.02-.03-.02-.06-.04,0-.07,0-.11-.01,0,0-.02-.04-.02-.05v-.08s-.09-.01-.11-.03c-.02-.01-.02-.03-.03-.07.09,0,.12.02.14.04l.04.03s.09.06.2.12l.04.03Zm-.53.75s.05,0,.09.04c.06.05.24.24.2.28s-.09,0-.12-.02c-.13-.11-.21-.25-.18-.29m2.61,1.94s-.04.01-.06.04c-.06.07-.04.18-.08.23,0,0,0,.01-.02,0-.01,0,0-.1,0-.1l-.12.13v-.07c.03-.05.05-.04.13-.13.03-.03-.04-.08,0-.13.03-.03.07-.02.07-.02l.04.05s.02.02.04.01m-1.88,2.1v.05c-.06.09-.31.15-.37.1-.02-.02-.04-.05-.04-.05.23.08.2-.1.38-.05l.03-.04Zm-.66-5.07s-.09,0-.12-.03c0,0-.01-.03-.02-.03-.06-.03-.05,0-.08-.03-.01-.03-.03-.07-.01-.09.03-.03.11.02.16.06.08.07.1.09.07.13m-.27-.2s0,.07-.02.09c0,0-.03.03-.05.01-.02-.02,0-.1-.01-.11-.03-.02-.07.1-.16.03-.02-.02-.02-.05,0-.08.03-.04.18-.01.22.02.01,0,.02.02.02.03m-.21-.34c.1.08.13.17.13.17l-.18-.14c-.06-.03-.12-.11-.2,0-.02-.02-.03-.07-.01-.09.04-.05.09-.03.14.01l.05.04h.06Zm2.74,4.2c0,.13.03.18-.02.24-.02.02-.05.05-.1.09-.03-.05-.02-.08,0-.1.01-.02.05-.03.08-.06.03-.03.04-.09,0-.11-.01,0-.04-.02-.08,0l.04-.05s0-.03.07,0m.21-.35l-.02.07s-.03.01-.04.02c-.02.02.02.07.03.11-.05.03-.09.03-.15.04.07-.09.04-.16.07-.2.02-.02.04-.03.1-.04m-3.93-2.94s.07.04.09.02c.02-.02,0-.11-.08-.16l-.03-.03s-.02,0-.03.01c-.03.03-.03.08.03.13v.03Zm.42-1.3h.01s.02.11,0,.14c-.03.03-.08-.01-.09-.02-.03-.02-.02-.05,0-.08.02.01.05.02.06.01l.02-.05Zm1.98,6s.02.04.02.04c-.02.02-.05.01-.07,0,0-.02-.01-.03-.01-.03,0,0-.02,0-.04,0,.01,0,0,.02,0,.03-.02.02-.08-.01-.14-.01.11-.03.16-.09.24-.03m.47-.38s.03,0,.04.02c.03.02.03.07.01.09-.02.02-.06,0-.08,0-.03-.02-.03-.04,0-.07,0-.01.02-.02.03-.02m.38-1.27s0,.02,0,.03c-.02.02-.05.05-.06.04-.02-.02-.01-.05,0-.07.02-.02.03-.02.07,0m-.04-1s.02,0,.03,0c.01,0,.02.03.02.04,0,.01-.05.03-.08.01-.01-.01,0-.04,0-.05,0-.01.02-.02.03-.01m.44.97s.01.06,0,.08h0s-.07-.06-.07-.06l.07-.03Zm7.5-12.14c-.86-.15-1.64-.31-2.43-.48-.51-.1-1.05-.21-1.61-.3-.04,0-.08-.02-.11-.04-.17-.08-.24-.26-.32-.48-.2-.6-.7-1.07-1.26-1.34-.34-.16-.71-.25-1.09-.26-.63.1-1.25.39-1.64.83-.01,0-.07.05-.09.04-.25.31-.44.64-.61.99l-.43.89-.1.24-.12.22.03.13c.45.17.93.43,1.37.61l.28.21s.08,0,.13-.01c.35.2.71.37,1.06.54l2.75,1.32c.19.06.39.14.57.23l.46.22.05.04c.11.04.23.08.34.13.19.09.38.2.56.3.22.1.43.21.68.25.1-.2.14-.32.2-.45.03-.06.06-.13.11-.21v-.02c.08-.15.06-.36.06-.36,0,0-.49-.22-.7-.32-.64-.29-1.29-.53-1.96-.85l-.29-.14s-.08-.05-.13-.08l-.37-.15c-.07-.04-.15-.09-.22-.16.03-.12.07-.23.12-.34l.38-.72c0-.07,0-.13.02-.17.02-.04.05-.05.1-.06.43.1.86.19,1.29.28.62.13,1.23.26,1.85.46.24-.07.47.17.59.09l.03.02c.15.07.47.01.47.01,0,0,.08-.26.11-.41.03-.15.11-.27.17-.45.04-.11,0-.17-.07-.2-.07-.03-.19-.04-.24-.06m-6.47-1.71c.09.03.16.06.25.1.48.23.83.64.9,1.23.04.27-.05.51-.17.76l-.29.61c-.17.02-.35-.02-.82-.24-.16-.08-.35-.17-.57-.29-.07-.02-.09.03-.11.02h-.01c-.17-.12-.42-.27-.6-.37-.08,0-.14,0-.2-.04-.08-.04-.15-.1-.18-.19-.06-.15-.02-.29.05-.44.07-.16.2-.32.26-.45.21-.41.59-.62,1.07-.73.02.03.03.03.05.04.11.05.24-.05.37-.03m5.25,4.99s.03.13,0,.17c-.01.03-.03.03-.04.03-.02-.01.01-.11-.02-.15,0-.02-.04-.04-.08-.05l-.08-.04s-.12-.05-.19-.07c-.02-.01-.05-.02-.04-.04.02-.04.07-.01.14.02l.25.1s.04.02.05.04m1.45-3.14s.02.04.02.05c0,.01-.05,0-.08-.01l-.07-.05c-.08-.01-.14.05-.19.03l-.02-.02s-.01-.04,0-.05c.02-.05.22-.03.3.01.02.01.04.02.04.04m-8.34.92s0,.05,0,.07c-.01.02-.03.04-.05.05h-.01s-.08-.09-.06-.14c0-.01.01-.02.03-.03.02,0,.04-.01.06,0,.02.01.03.03.04.05m8.29-.82s.02.05,0,.08c-.01.02-.03.04-.07.04h-.01s-.05-.06-.03-.1h0s.06-.04.1-.02m-.7.74s-.09.04-.13.03c0,0-.02-.01-.02-.02h0s.08-.09.12-.07c.01,0,.03.03.03.06h0Zm-3.52-1.98s-.07,0-.09.03c-.01.02,0,.05.03.06.04.02.08.02.09,0h0s0-.07-.03-.08h-.01Zm-4.47-1.19s-.02-.03-.03-.03c-.03-.02-.12,0-.14.04h0s.01.02.01.02c.02.01.06-.03.09-.01.02.03-.01.05.02.07h.01s.02,0,.02-.01c.01-.02.01-.05,0-.07m4.17,1.05s.03.1.06.12c0,0,.02.01.03,0,.01-.02.02-.04,0-.07,0-.02-.03-.04-.05-.05-.01,0-.02-.01-.04,0h0Zm-2.47-.59s-.01-.07,0-.09c.01-.03.06,0,.06,0,.02.01.04.05.04.08-.02.02-.03.01-.05,0h-.05Zm-.34,2.28s0,.03,0,.04c-.01.02-.03.03-.05.02-.02-.01-.04-.03-.03-.05v-.02s.04-.03.06-.02c.01,0,.02.01.03.03m5.66,3.43s-.05.06-.07.05c0,0,0-.02-.02-.03s-.02-.02-.01-.03c.01-.03.06-.04.09-.03.01,0,.02.03.02.03h0Zm1.46-3.76s.02,0,.03,0c.03.01.03.03.03.04v.02s-.01.03-.02.03c0,0-.01.02-.02.02-.04-.02-.04-.06-.04-.08,0-.01.03-.03.03-.03m-3.91-1.13s-.02.02-.03.04c0,.01.01.04.02.04.03.01.06,0,.07-.01.01-.02,0-.05-.03-.06h-.03Zm2.6,4.63s-.02.02-.04.03c-.02,0-.04.01-.05,0-.01,0-.01-.04,0-.05,0-.01.02-.02.02-.02.02,0,.05,0,.06,0,.01,0,.02.02.01.03m-3.08-5.05s-.02.07,0,.08c.01,0,.04,0,.07-.01.02,0-.02-.05-.04-.07-.01,0-.02,0-.03,0m-3.72,1.22s-.02,0-.03.02c-.01.03-.02.07,0,.08.02,0,.03-.01.05-.04.01-.02,0-.05-.03-.06m7.94.18s-.05.05-.08.04c-.02,0-.03-.03-.02-.04.02-.02.05-.02.05-.02l.05.02Zm-.78.99s.01.04.02.04c.02.01.05,0,.05-.02,0-.01,0-.03-.02-.04-.02-.01-.04,0-.05,0h0Zm-2.61-1.92s-.03.03-.03.04c0,0,0,.01,0,.02.02.01.07.02.07,0v-.02s-.03-.04-.04-.05m7.64-11.68s-.06-.04-.09-.05l-.38.12s-.05-.03-.07-.04c-.59.33-1.23.05-1.94.32-.03,0-.06.03-.09.05-.02-.04-.05-.08-.08-.08-.07-.01-.15.05-.23.03-.01,0-.04,0-.05-.03-.07.05-.15.05-.21.04l-.18-.05s-.07-.02-.09,0c-.16.22-.47,0-.67.18-.03-.04-.06-.04-.09-.05-.14-.03-.27.15-.38.12-.04,0-.07-.03-.11-.08-.05.03-.07.12-.12.11l-.03-.02s-.02-.03-.03-.03c-.06-.02-.18.12-.26.11h-.01c-.07-.07-.14-.13-.22-.15-.05-.01-.11,0-.15.02-.25-.22-.55-.41-.82-.61-.11-.06-.11-.23-.24-.26-.01,0-.03,0-.05,0-.04-.08-.21-.05-.18-.16v-.04c-.07-.01-.08-.11-.13-.12-.01,0-.04,0-.06.01-.09-.16-.32-.22-.32-.41-.02-.04-.04-.06-.07-.07h-.16c-.2-.29-.59-.35-.79-.63-.38.06-.59.37-.67.73-.06.26-.05.55.02.77,1.24,1.01,2.52,1.97,3.83,2.87.04.02.04.05.04.07-.01.05-.08.09-.08.13l-.58-.17c-.1-.02-.2-.03-.31-.03-.33-.24-.76-.28-1.11-.43l-.02-.02s-.12.03-.17.01c-.03,0-.04-.02-.06-.05-.08,0-.15-.02-.21-.03-.43-.1-.8-.38-1.19-.47-.17-.04-.35-.04-.53.03v.16c-.2.08-.34.31-.39.53v.05s-.05.21-.05.21c.01.12.14.22.12.31,0,.01-.05.06-.06.09,0,.01,0,.03.02.03.03,0,.07-.01.11,0h.01c.04.05.18.11.16.19,0,.01,0,.03-.02.04h.08s-.01.06-.01.06c.02.04.04.06.08.07.07.01.14-.01.18-.01.04.02.09.03.13.04l.53.06,2.2.49c.14,0,.28.03.41.06.13.03.25.05.37.09.07-.01.13-.01.19,0l.28.09c.07.01.12.01.2-.01.05.03.1.05.16.06.04,0,.08,0,.13-.01l.1.11.09-.07.09.02c.08.02.12.03.18.11.05-.06.1-.06.15-.05l.25.11c.12.03.18-.07.26-.05.07.04.15.14.22.16.01,0,.04,0,.05,0,.42.02.82.17,1.29.22l.26.07c.08.02.16.02.24-.03l.12.03c.21.05.38.06.6.01l-.04-.09c.21,0,.09-.23.3-.18-.01-.14,0-.34.05-.51.01-.06.03-.13.05-.18-.11-.12-.03-.36-.17-.39-.01,0-.04,0-.07,0-.07-.15-.19-.22-.34-.25-.21-.05-.45-.02-.64-.06-.02-.05,0-.09,0-.11-.12.05-.29.09-.44.05-.07-.01-.11-.04-.17-.08-.05.03-.09.03-.13.02-.09-.02-.17-.09-.25-.11h-.04c-.11-.24-.37-.47-.61-.53-.05-.01-.11,0-.15,0-.07-.25-.49-.19-.42-.49v-.04c.3-.07.59.11.85-.04.28-.17.43.05.57-.1.79-.11,1.61-.11,2.35-.3.12-.12.18-.26.21-.4l.07-.45.05-.14c-.13-.15-.23-.39-.42-.5m-5.01.7s.02.05,0,.08c-.01.05-.06.15-.12.14-.01,0-.1-.05-.08-.13,0-.01,0-.03.03-.03.02.03.03.05.06.05.03,0,.06-.01.06-.03,0-.01,0-.03-.03-.03l.08-.05Zm-1.41-.71s.04.06.03.09c0,.04-.06.07-.07.12,0,.01,0,.04,0,.06-.05-.03-.07-.14-.08-.13.02-.08.05-.15.11-.14m-.27,2.48s-.08.09-.13.08l-.06-.05c.05,0,.11-.08.15-.07,0,0,.04,0,.03.05m4.94,2.17s.02-.01.03,0c.04,0,.11.05.11.08,0,0-.05.03-.11.02-.04,0-.04-.02-.03-.03v-.05Zm-3.71-3.99c-.02.09-.03.13-.11.11h.02s-.01-.07,0-.09c0-.03.02-.03.06-.03h.04Zm2.97,2.37s.05.04.04.06c0,.03-.03.06-.04.06-.01,0-.06-.07-.06-.11,0-.01.02-.02.06-.01m1.62-2.48s.01.02,0,.03c-.01.04-.06.08-.09.07h-.01s0-.03,0-.04c0-.03.03-.06.07-.07h.03Zm-4.73.01s0,.04,0,.05c0,.03-.03.02-.06.02h-.05s.02-.09.04-.09h.06Zm-1.18,3.08s.03-.02.04-.02c.03,0,.04.07.04.08,0,.01-.05.03-.06.03,0,0-.04-.02-.02-.09m4.07-3.13s.03.05.03.07h0s-.04.03-.07.02c-.01,0-.02-.02-.02-.03l.03-.03s.02-.02.02-.04h.01Zm-1.61.31s-.05-.03-.04-.05c0-.01,0-.02.03-.03,0-.01.02,0,.02,0l.04.02s0,.03,0,.04c0,.01,0,.03-.02.02h-.03Zm-3.08,1.58s-.03,0-.04,0c-.04,0-.08-.03-.07-.06h0s.05-.03.06-.03c0,.01.06.05.05.08m1.19-2.27s.02.03.02.04c0,.03-.03.06-.03.08l-.07-.07.08-.05Zm2.51.57s.06.03.06.05c0,.02-.03.03-.06.03-.02,0-.03-.03-.03-.06,0,0,.02-.02.03-.02m.81,3.77s-.05.03-.06.03c-.01,0-.03,0-.02-.03,0-.03.04-.05.06-.04.01,0,.03,0,.02.02v.03Zm-3.17-4.21s.02.05,0,.08c0,0,0,.04-.02.04s-.03-.03-.02-.07c0-.03,0-.04.04-.05m3.15.25s-.01.04-.06.08l-.06-.03s.08-.04.08-.06h.04Zm-2.63,2.3s.03-.02.05-.02l.05.08s-.12-.03-.11-.05c0-.01.01,0,.01,0m-.41,0s-.01.07-.04.06c-.03,0-.03-.04-.03-.05,0-.03.04-.05.05-.04.01,0,.02.02.02.03m4.95.73s0,.03,0,.05l-.05.04-.03-.06.08-.04Zm-4.76-.83s.04.02.03.05c0,.01-.04.03-.06.03-.01,0,0-.02,0-.03,0-.04.01-.05.04-.05m-1.83-3.78s-.07-.05-.07-.08c0,0,.02-.02.05-.02l.02.1Zm.22-.02h0s.01.02.01.03c0,.01-.04.05-.06.04-.01-.02,0-.03,0-.05,0-.01.05-.02.06-.02m6.67,4.62s.03.05.03.06c0,.04-.05.03-.06.03l.03-.09Zm-7.48-1.41s.03.04.03.05c0,.01-.02.02-.03.02-.01,0-.03-.02-.03-.05,0-.01,0-.03.03-.02m3.39-.68s.05.04.04.06c0,.01-.02.01-.04,0-.01,0-.03,0-.02-.02l.02-.05Zm-1.69,1.32s-.02-.02-.02-.03c0-.01.02-.02.03-.02h.01s.03,0,.01.06h-.04Zm5.35-2.29s-.02.02-.03.02c-.03,0-.04-.02-.03-.05,0,0,.03,0,.04,0,.01,0,.03.02.02.03m.09-.02s-.03,0-.04,0c-.01,0-.02-.02-.02-.03,0,0,.03-.02.04-.02.01,0,.02.02.02.05m-6.77,2.81s-.02.02-.03.02c-.01,0-.02-.05-.02-.06h.01s.04.01.03.04m4.97-13.72c-.36.04-.78.11-.94.42-.6.17-.36.77-.55,1.25.1.16.13.35.12.57,0,.09-.02.18-.04.29.16.21.21.45.47.54.07.16.59.24.72.34.31.03.27.12.35.12.12,0,.18-.11.34-.11.13,0,.29.08.4.09.07,0,.13-.02.15-.11.08-.38.38-.13.42-.42h.04c.12,0,.27-.09.28-.24,0-.08-.03-.15-.14-.22.08-.1.1-.22.11-.33.01-.21-.06-.44-.05-.64,0-.05,0-.09.02-.15h.05c.02-.09.04-.18.04-.26,0-.12-.03-.21-.19-.25.01-.04.03-.07.03-.09,0-.16-.26-.21-.27-.44-.11-.15-.25-.2-.39-.2h-.37s-.13,0-.13,0c-.02-.08-.06-.11-.1-.11-.07,0-.15.06-.23.06-.04,0-.09-.02-.13-.08m-1.01.56s.03.05.03.09v.05c0,.09-.09.18-.18.18-.04,0-.05-.04-.05-.1,0-.09.08-.27.16-.26.01,0,.03.01.04.03m2.52.36s.07.06.06.11c0,.05-.03.11-.07.12h-.04s-.08-.02-.1-.06v-.04c-.01-.07.06-.13.13-.13h.03Zm-.33-.37s.04-.01.05-.01c.05,0,.12.06.11.11v.03s-.06.06-.11.06c-.07,0-.1-.05-.1-.1,0-.04.02-.07.05-.09m-2.21,2s.07.04.06.1c0,.04-.03.09-.08.09h-.04s-.03-.06-.03-.08c0-.05.03-.11.07-.1h.01Zm0-1.61s.05.05.05.08c0,.04-.03.06-.07.06-.05,0-.09-.04-.09-.08,0-.04.03-.08.07-.08l.04.02Zm-.03,1.25s.03.03.02.05c0,.04-.03.08-.06.09h-.01s-.09-.06-.09-.1v-.03s.07-.04.09-.04c.01,0,.03,0,.04.01m1.29-1.76c0,.05-.04.11-.1.1-.04-.01-.05-.06-.05-.1,0-.03.05-.05.09-.05.03,0,.04,0,.05.03h0Zm1.25,1.9c.05,0,.09.03.09.07h0c0,.05-.03.08-.07.08h-.03s-.04-.03-.04-.07c0-.04.02-.08.04-.08m.03-1s.05.04.05.09c0,.03-.02.05-.04.05h-.01s-.05-.04-.05-.07c0-.03.02-.07.04-.08h.01Zm-1.17-1.08s-.04.04-.08.04c-.03,0-.07-.02-.07-.04.02-.05.05-.06.08-.06.04,0,.07.03.07.06h0Zm.27.01s.05.01.05.03c0,.03-.06.08-.08.08h-.03s-.04-.02-.04-.03c0-.03.04-.08.07-.08h.03Z"/>
            </g>
            <g id="g44">
              <path id="path46" class="cls-1" d="m78.61,66.08c-.19.19-.4.35-.62.47-1.42.83-2.66.71-3.48,1.09-.38.16-1.41.71-2.23,1.49-.34.33-.75.76-1.04,1.05-.26.25-.64.37-.95.26-1.08-.35-4.48-1.4-5.21-1.52-.14-.03-.31-.11-.43-.24-.16-.17-.31-.4-.34-.74-.57-3.36-1.85-6.4-2.16-6.72-.16-.17-.35-.24-.52-.07-.64.62-1.61,7.24-1.87,7.48-.3.29-3.78,1.92-4.44,2.35-.51.33-.61.22-1.6-.8-1.17-1.21-1.83-1.9-3.29-2.43-.92-.31-1.42-.15-2.76-.47-.06-.02-1.19-.33-2.36-1.55-.45-.47-1.2-2.01-.81-2.39.06-.06.17-.08.27.02,0,0,.8,1.17.98,1.36.66.69,1.65,1.13,3.05,1.25,1.51.15,3.15.49,4.9,2.3.16.17.67,1,.8,1.12.21.21.44.24.82.04.49-.31,3.17-1.62,3.19-1.64.21-.2.33-3.2.4-3.8.47-4.03,2.04-6.71,2.62-7.26.23-.23.49-.18.78.12.66.68,2.34,5.23,2.9,7.53.11.51.61,3.07.74,3.2.04.04,3.27,1.04,3.85,1.34.27.15.42.17.67-.07,1.37-1.32,2.75-2.61,4.47-3,1.33-.29,2.04-.24,2.97-.68.5-.24.93-.57,1.25-.88.43-.41.62-.6.72-.49.35.36-.79,1.79-1.27,2.26m-9.96,7.97s-.13,0-.88-.23c-.29-.09-.77-.24-.85-.33-.06-.06.16-.69.2-.81.2-.56.22-.67,0-.9-.23-.23-1.83-.75-2.21-.37-.13.12-.21.2-.33.56-.07.14-.14.88-.16.9-.06.06-.69,0-.77-.07-.09-.09-.36-2.12.08-2.55.85-.82,5.55,1.19,5.69,1.34.7.73-.23,1.94-.78,2.48m-1.1,1.84c-.17.16-4.34-.83-4.53-1.02-.23-.23-.16-.5-.07-.59.06-.06.19-.1.31-.1,2.74.03,4.36,1.14,4.38,1.16.18.19-.03.48-.1.55m-2.1,2.94c-.4.39-1.64.52-2.32-.19-.7-.73-.64-1.94-.47-2.1.13-.12.92-.07.98,0,.06.07.1.19.1.32-.02.1-.08,1.23.04,1.36.19.19.73.12.86,0,.15-.14.21-1.15.33-1.27.49-.47,1.02-.44,1.2-.25.29.3-.09,1.53-.73,2.15m-3.63-.78s-2.61,1.74-3.04,1.29c-.12-.13-1.14-1.65-.63-2.15.17-.17.95-.38,1.42.19.1.15.18.27.31.4.14.15.53.56,1.05.06.21-.21.17-.33-.16-1.32-.08-.21-.04-.38.07-.48.09-.08.74-.34.96-.11.23.23.28,1.87.03,2.11m-4.87-1.97c-.2-.21-.22-.44,0-.65.68-.66,3.83-2.13,4.53-1.41.15.15.14.36.08.46-.22.29-1.96.45-2.25.57-.38.12-2.15,1.22-2.34,1.03m-.58-1.62c-.09-.09-.77-1.65-.91-1.96-.1-.15-.1-.36.05-.5.06-.06,4.15-2.81,4.89-2.05.29.3,1.13,2.53.98,2.68-.04.04-.91.42-1.03.3-.02-.02-.48-1.56-.69-1.77-.27-.28-2.19.71-2.29.82-.23.23.62,1.83.4,2.03-.08.08-1.25.63-1.41.46m-6.67-13.73c-.51.49-1.16.5-1.64.01-.51-.53-.46-1.37.25-2.05.53-.51,1.23-.69,1.77-.22.87.77-.1,1.99-.38,2.25m24.56-2.32c.57-.47,1.43-.31,1.99.27.63.66.66,1.83.1,2.37-.29.29-.93.61-1.7-.18-.69-.72-1.01-1.95-.39-2.46m6.59,3.23c-.2-.21-.4-.31-.61-.31-.15,0-.29.06-.41.17-.22.21-.42.52-.62.82-.18.27-.37.55-.53.71-.36.35-.77.63-1.13.76-.49.18-1.05.24-1.65.3-.7.07-1.41.15-2.15.41-1.05.36-2.08,1.01-3.04,1.95-.14.13-.31.33-.49.53.16-.55.46-1.27,1.02-1.81.05-.05.21-.16.37-.28.18-.13.36-.26.43-.33.29-.31.11-.55.04-.63-.12-.12-.31-.18-.56-.18s-1.12.07-2.09,1c-.11.11-.23.34-.44.77-.12.25-.33.66-.4.75-.08.08-.14.1-.17.1h0c-.39-.4.66-2.4,1.39-3.11.61-.59,1.65-1.3,2.23-1.38.29,0,.7.2,1.13.42.44.22.89.45,1.36.54.15.03.3.04.46.04.9,0,1.74-.49,2.22-.95,1.13-1.1.98-2.96.09-3.88-.25-.26-1.17-1.1-2.43-1.1-.72,0-1.38.28-1.95.84-.16.15-.4.56-.77,1.2-.27.46-.64,1.1-.79,1.24-.25.24-.67.48-1.08.72-.36.2-.73.41-1,.63-.28.23-.61.5-.91.8-.38.37-.71.78-.93,1.13-.07.13-.18.47-.3.87-.1.31-.25.82-.35,1.14-.18-.62-.5-1.83-.75-2.78-.3-1.14-.58-2.22-.72-2.67-1.22-3.92-1.44-4.62,1.23-7.2.51-.49,1.1-.75,1.71-.75.71,0,1.43.35,2.05.98.98,1.01.79,2.52,0,3.28-.28.27-.62.43-.91.43-.23,0-.44-.09-.61-.27l-.24.23.26-.37c.09-.08.26-.18.41-.26.16-.09.31-.17.41-.27.56-.55.61-1.21.11-1.73-.31-.32-.79-.5-1.36-.5-.61,0-1.21.21-1.57.55-.39.37-.62.9-.63,1.43-.01.67.29,1.33.91,1.97.57.59,1.22.88,1.95.88,1.27,0,2.37-.93,2.78-1.33,1.26-1.22,1.03-3.76-.49-5.33-.88-.91-1.93-1.39-3.04-1.39-1.04,0-2.12.44-2.89,1.19-1.01.97-1.93,2.5-2.44,3.59-.03-1,.13-2.91.78-3.53.09-.09.38-.32.69-.57.34-.28.7-.57.82-.68,1.07-1.04,1.52-1.73,1.53-2.4,0-.45-.18-.86-.58-1.27-.17-.18-.38-.27-.6-.27-.27,0-.55.13-.81.39-.2.19-.5.69-.97,1.49-.31.52-.69,1.16-.88,1.4-.05-.5,0-1.69.89-3.88.2-.52.14-1.32-.44-1.93-.24-.24-.62-.39-1.03-.39s-.76.14-1.01.37c-.55.53-.65,1.54-.37,2.01.86,1.59.87,3.3.84,3.85-.09-.08-.19-.19-.29-.29-.1-.11-.4-.54-.64-.9-.39-.57-.63-.93-.78-1.08-.34-.35-.91-.71-1.43-.71-.27,0-.5.09-.69.27-.48.46-.84,1.23.15,2.26.29.3,1.47,1.14,2.56,1.9.25.17.42.3.43.3.32.4.47,3.2.16,3.51-.2-.21-.43-.51-.65-.8-.24-.31-.48-.63-.68-.83-.59-.62-2.17-2.25-4.17-2.25-1.04,0-2.03.45-2.94,1.33-.77.73-1.19,1.64-1.22,2.62-.03,1.2.53,2.22,1.02,2.73.52.54,1.74,1.11,2.95,1.11.78,0,1.44-.24,1.91-.7,1.62-1.57.6-2.88.25-3.25-.44-.46-.99-.71-1.55-.71-.45,0-.89.17-1.2.47-.37.35-.47,1.12-.33,1.62.05.18.13.33.2.47.04.07.09.18.12.18,0,0,0,0,0,0-.09.08-.2.12-.35.12-.28,0-.61-.15-.83-.37-.85-.88-.83-2.04.05-2.88.58-.56,1.35-.87,2.17-.87.88,0,1.75.37,2.37,1.01,1.23,1.27,1.38,2.62.53,4.66-.35.86-.83,2.49-1.07,3.59l-.12.8c-.11.7-.31,2.01-.45,2.89-.22-1.07-.86-2.15-1.89-3.21-.18-.19-.68-.57-1.25-1-.51-.39-1.08-.82-1.24-.98-.09-.1-.16-.21-.24-.34-.04-.06-.07-.28-.1-.44-.06-.34-.13-.75-.33-1.09-.16-.29-.37-.56-.65-.86-.69-.71-1.43-1.07-2.21-1.07-.72,0-1.46.32-2.07.92-.55.54-1.3,2.2.07,3.61.29.3,1.34,1.28,2.67,1.28.11,0,.23,0,.4-.03.64-.09,1.14-.16,1.58-.16.8,0,1.43.21,2.5,1.31.96.99,1.72,2.3,1.57,2.94-.19-.58-.62-1.25-1.13-1.77-.02-.02-1.74-1.7-2.52-1.7-.19,0-.32.08-.38.15-.1.09-.16.21-.18.33-.02.15.03.3.14.41.05.05.22.21.45.43.41.39,1.01.95,1.35,1.3.39.41.87,1.13,1.01,1.52-.19-.17-.48-.47-.85-.85-.47-.49-.97-.89-2-1.36-.74-.34-1.45-.44-2.2-.55-.57-.08-1.16-.17-1.81-.37-.94-.27-1.61-.63-2.06-1.08-.13-.14-.21-.21-.29-.38-.03-.06-.12-.33-.18-.51-.17-.55-.27-.81-.4-.94-.17-.18-.35-.22-.47-.22-.2,0-.39.09-.59.28-.44.42-.58,1.19-.61,1.71-.04,2.03.88,2.98,1.38,3.49.71.73,1.24,1.1,1.93,1.48,1.8.93,4.52,2.34,5.75,3.61,1.68,1.75,2.94,3.64,4.33,6.56.07.13.31.62.55,1.12q.58,1.18.62,1.22c.14.15.32.23.53.23.09,0,.18-.01.32-.05,1.51-.54,2.5-.9,3.4-.9.78,0,1.52.27,2.54.93.12.08.29.18.48.18.15,0,.29-.06.42-.18.11-.11.25-.37.82-1.51.19-.39.37-.75.46-.9.9-1.63,4.63-6.1,5.74-7.17,1.27-1.23,2.63-1.92,3.79-2.42.15-.06.29-.12.45-.18.85-.34,1.81-.73,3.12-2,.62-.6,1.1-1.59,1.28-2.64.18-1.07.02-1.99-.44-2.47"/>
            </g>
          </g>
        </g>
      </g>
    </g>
  </g>
</svg>